<svg xmlns="http://www.w3.org/2000/svg" viewBox="0 0 383.71 400.59"><defs><style>.cls-1{fill:#f33;}.cls-2{fill:#3a3a3a;}.cls-3{fill:#282828;}.cls-19,.cls-4{fill:none;stroke-width:0.52px;}.cls-4{stroke:#e25a5a;}.cls-12,.cls-19,.cls-4,.cls-6{stroke-miterlimit:10;}.cls-5{fill:#664f4f;}.cls-20,.cls-6{fill:#1d1d1b;}.cls-12,.cls-6{stroke:#0b0000;stroke-width:4px;}.cls-7{fill:#2b2b2b;}.cls-8{fill:#493838;}.cls-9{fill:#232323;}.cls-10{fill:#ff769a;}.cls-11{fill:#912929;}.cls-12{fill:#010200;}.cls-13{fill:#c6c6c6;}.cls-14{fill:#1e1e1e;}.cls-15{fill:#6d6d6d;}.cls-16{fill:#141414;}.cls-17{fill:#5a5a62;}.cls-18{fill:#d8d8d8;}.cls-19{stroke:#5a5a62;stroke-linecap:round;}.cls-21{fill:#fff;}.cls-22{fill:#ebebeb;}.cls-23{fill:#8c8c8c;}.cls-24{fill:#5b5b5b;}.cls-25{fill:#c9c9c9;}</style></defs><g id="Layer_2" data-name="Layer 2"><g id="Layer_2-2" data-name="Layer 2"><path class="cls-1" d="M274,18.14S191,12.82,141.66,42.3C89.58,73.41,44,92.65,0,98.87c22.93,24.54,53.2,45,72.15,54.26C58.37,187.23,22,274.2,87.44,396.13c68.48,6.42,114.15,5.11,150.22,1.12,15.75-45.86,85.53-94.52,146-126.47-21.94-23.47-44.65-53.2-48.32-66,2.14-15.9,2-54.42-16.05-71.08-2.82-4.55,2.48-32.08,4.52-37.52,9.69-8.92,14.28-27.34,5.52-60.78,1.42-7.18,8.68-28.21-16.88-33.48-21.14-4.35-34.94-1-38.85,8.27L270.34,18Z"/><path class="cls-2" d="M314.93,134.85s3.37,5.31,7.12,11.79-2.05,9.08-2.05,9.08-8.19,5.57-9.88,1.16S304,132.05,304,132.05l7.17-2.94Z"/><path class="cls-2" d="M325.37,67.42,325.09,69l-.11.59-.15.81-.57,3.17-.39,2.11s-2.07,6.91-4.22,17c-.21,1,4.43-14.46,4.21-13.45-1.54,7.11-12.4,37.86-8.92,55.62a8.79,8.79,0,0,0-4.43-1.67c-1.88-.3-4.09-.4-6.44-.6-1.45-.12-3-.28-4.5-.55-2.1-.37-4.31-.73-6.6-1.05h0c-12.32-1.75-26.86-2.57-38.72.68l-.07,0-1.48-19.39v0l3-13.39,1.86-8.21,1.49-6.58.11-.49.28-.3,1.24-1.35c2.33-2.53,6.57-7.13,7.2-7.87s9.24-6.65,15.08-10.63l5.26-3.58s15.42-2.89,16.32-2.37,15,5.69,15,5.69l2.72,2h0Z"/><path class="cls-3" d="M278.36,82.46s-9.88,22.71-3.95,46-20.68,6.08-20.94,5.1-1.15-15.92-1.1-16.67S256,93.2,256,93.2l15.58-11.32Z"/><path class="cls-3" d="M326.4,72l-2.14,1.62-4,3-1.81,1.36-1.34,1c-1-.44-2-.82-2.95-1.16l-.59-.2a34.22,34.22,0,0,0-5.21-1.24c-.36-.06-.71-.12-1.08-.16l-.25,0L305.94,76a38.5,38.5,0,0,0-6.53,0l-1.14.11-.82.09-1,.14a47.47,47.47,0,0,0-5.2,1.08c-.69.18-1.38.38-2.06.59a62.16,62.16,0,0,0-8.73,3.45c-.7.33-1.4.68-2.09,1A103.05,103.05,0,0,0,256.66,98a12.26,12.26,0,0,1-.93.83l.4-8.72v0h0L257.67,87h0c.42-.84.89-1.82,1.41-2.86.12-.26.25-.52.39-.79.84-1.7,1.76-3.55,2.67-5.32,2.25-4.41,4.38-8.35,4.9-8.47s8.87-3.35,15.95-6.06c5.36-2,10.08-3.84,10.36-3.84s4.61.82,9.88,1.84l3.68.72,2.32.45,4.45.87,8.62,1.69h0l2,3.29.07.11.62,1,.93,1.54Z"/><path class="cls-4" d="M278.39,178.47c4.38.16,8.7.22,11.73.26l-3.72.23h0l-9.91.63-.77-1.22c-3.36-5.34-16.6-26.48-17-27.93-.49-1.66-5.19-16.92-5.19-16.92l.71-1.84C258.44,152.58,274.17,177.67,278.39,178.47Z"/><path class="cls-1" d="M324.6,172c-.7.05,2.69,3.43,1.89,3.49l-3.4.49-5.21.36c-7.75.56-17.71,1.32-26,1.95l-1-.64c-26.39-35-18.45-45.45,8.44-47.91,6.08,1.25,8.11,3,9.42,4.4C308.81,134.17,320.14,144,324.6,172Z"/><path class="cls-5" d="M260.28,76.85S257.43,88,256,93.2c22.06-34.07,51.2-40.8,73.19-20.89-.28-3.58-.39-7-.39-7l-6.61-8-9.38-5.85-15.65-1.35-22.75,6.81-6.86,6.28Z"/><path class="cls-2" d="M328.76,65.2l.07.09v.08s0,0,0,.07,0,0,0,0v.14h0C328.84,66,328.81,65.78,328.76,65.2Z"/><path class="cls-6" d="M273.65,23.84l-2.82,1.64-2.19,1.28-1.17.67c-2.52,0-5,0-7.45.09-66,1.35-110.46,20-134.61,38.1-20.4,15.31-75.78,39-96.06,40.58,16.75,14.71,69.35,48.15,112,59.4l-16-1.37c-14-3.14-28.62-9.13-42.64-16.34h-.06C55.61,134,31,115.53,18.37,104.3c16-4.31,66.13-14.72,106.11-43C164.2,33.14,213,23.68,268.66,23.8H269l2.5,0Z"/><path class="cls-7" d="M242.69,40.14l-.32.25-.74.61a46.07,46.07,0,0,0-4.22,4.42c-2.38,2.79-4.9,6.12-7.14,9.23,0,0,0,0,0,0l-.21.28c-3.82,5.34-6.79,10-6.79,10l-.53-.08c-4.63-.8-17.08-4.67-21.11-5.95h0l-.08,0-.59-.19-.61-.2L187.9,62.69h0l0,0,.42-.31.18-.13,1.89-1.36c.28-.19.57-.41.89-.64l.25-.18.51-.37a1.1,1.1,0,0,1,.14-.09l.68-.5.35-.25,1.46-1c6.89-4.92,17.34-12.37,23.37-16.44l1.12-.75c.9-.59,1.65-1.09,2.24-1.45a6.41,6.41,0,0,1,.87-.43h0l.2-.07.25-.09c2.77-.86,7-.41,11.5.29,2.74.43,5.6,1,8.35,1.3h.05Z"/><path class="cls-8" d="M258.61,89.11c.58-.54,9.51-25.65,23.21-30.5a77.6,77.6,0,0,1,30.61-5.26L306,50l-21.25,1.86-10.31,5-6.17,5.65-3.95,6.75L259.27,81.4l-1.88,6.65Z"/><path class="cls-1" d="M230.26,54.67c-2.9,4.11-5.95,4.73-8.78,3.38a11.71,11.71,0,0,1-4.6-5,6.88,6.88,0,0,1-.86-4.64c2.76-1.73,6.25-4.43,11.85-5.12a23.85,23.85,0,0,1,5.49,0C233.26,47.8,233.16,50.55,230.26,54.67Z"/><path class="cls-9" d="M242.69,40.14l-.42.35h0s0,0,0,0l-.61.48-3.27,2.67a26.16,26.16,0,0,0-12-.15l-.24,0a23.73,23.73,0,0,0-3,.89h0a25.41,25.41,0,0,0-7,3.92c-10.38,8.17-14.28,10.41-14.4,10.48h0l-.08,0-.59-.19-.61-.2L187.9,62.69h0l0,0,.42-.31.18-.13,1.89-1.36.89-.64.25-.18.51-.37a1.1,1.1,0,0,1,.14-.09l.68-.5.35-.25,1.46-1c6.93-5,17.46-12.48,23.37-16.44l1.12-.75a25.79,25.79,0,0,1,3.11-1.88h0l.2-.07.25-.09c2.15-.6,7-.26,11.5.29,3.37.42,6.58,1,8.35,1.3h.05Z"/><path class="cls-10" d="M227.39,45a12.3,12.3,0,0,1,4.56-.52c0,1.13.29,3.75-.9,5.55S226.8,46.16,227.39,45Z"/><path class="cls-11" d="M227.87,43.27c-.63.85-9.73,5.76-11,9.76a6.88,6.88,0,0,1-.86-4.64C218.78,46.66,222.27,44,227.87,43.27Z"/><path class="cls-12" d="M349,250.3l-.35.81c-1.17,2.75-4.95,11.54-5.1,11.52s-10-9.39-12.39-14.45C325.47,254.8,306,285,303.71,290c-5.18-5.9-8.29-12.56-8.45-13.41C283.18,290.28,267,310.46,263,322.92c-5.4-11.61-7-21.94-6.88-25.61-9.76,10.55-20.74,28.84-23.62,40.33-5.24-7.09-11.11-14.24-13.16-19.78-12,24.1-15.22,31.88-16.61,38.88-13.14-7.14-24.06-33.37-22.11-43.39-6.85,7.94-26.54,35.65-28.12,43.1-9.7-11.27-19.71-34.22-18.29-43.77-10,16.45-21.43,28.74-25.89,44.71-5.27-10.41-4.35-70.78-1.53-81.45l-.59.42C100,280.9,90,292,87.15,295.6q-.16-.51-.3-1.11c-.61-2.88-.48-7.18.23-12.25,1.88-13.35,7.77-32,14.62-44.18-14.23,11.1-30.89,24.71-32.8,27.58-1.23-17.89,10.22-58.84,45.58-97.46.89-1,1.8-1.94,2.72-2.91,3.87-3.7,7.2.77,7.2.77s7.4-.46,6.28.54l-1,.85h0c-8.94,7.8-42.17,35.8-53.85,85.32C89.25,236.67,112,222,129.23,214.7c-22.51,19.21-37.47,59-38.5,71,9.94-16.37,35.44-29.9,40.79-29.6-5.77,8.19-23.06,56.7-20.78,84.71,12.63-22,33.8-52.3,43.46-58.11-4.44,13.05-6,36.78-2.43,59.53,17-25.56,33.92-44.34,42.79-48.32-1.91,11.22-.25,30.56,5.34,51,9.4-21,21.75-40.56,26.66-45.36,1.17,11.24,2.56,19.9,5.36,25.83,7.65-20,23.94-41.22,31-43,.68,5.93.59,15.17,1.66,24.74,14-19.89,30.45-39.81,38-45.09-.37,4.24,1.56,13.28,1.56,13.28s19.51-29.49,27.95-34c3.09,5.48,9.17,11.94,9.23,11.23s3.76-6.42,3.76-6.42Z"/><path class="cls-13" d="M345.07,246.07s-3.7,5.72-3.76,6.42-6.14-5.75-9.23-11.23c-8.44,4.49-27.95,34-27.95,34s-1.93-9-1.56-13.28c-7.57,5.28-24,25.2-38,45.09-1.07-9.57-2.13-13.36-2.81-19.29-7,1.82-24,19.06-29.82,37.59-2.8-5.93-4.19-14.59-5.36-25.83-4.91,4.8-17.26,24.36-26.66,45.36a95.73,95.73,0,0,1-5.34-51c-8.87,4-25.74,22.76-42.79,48.32-3.58-22.75-2-46.48,2.43-59.53-9.66,5.81-29.27,32.3-41.91,54.29,1.6-24,3-58.89,19.23-80.89-5.35-.3-28.87,9.63-37.93,23.93,3.61-14.93,13.13-46.13,35.64-65.34C112,222,92.66,231.94,79.27,248c11.67-49.52,41.5-72.79,50.44-80.59h0c6.53.08,10.95.61,10.95.61l.68-2.44c-42.65-11.25-95.25-44.69-112-59.4,20.28-1.58,75.66-25.27,96.06-40.58C149.56,47.48,194,28.87,260,27.52a79.52,79.52,0,0,0-17.38,12.61h0c-1.77-.35-5-.88-8.35-1.3-4.53-.7-8.73-1.15-11.5-.29l-.25.09-.2.07h0a6.41,6.41,0,0,0-.87.43c-.59.36-1.34.86-2.24,1.45l-1.12.75c-5.91,4-16.44,11.47-23.37,16.44l-1.46,1-.35.25-.68.5a1.1,1.1,0,0,0-.14.09l-.51.37-.25.18-.89.64-1.89,1.36-.18.13-.42.31,0,0h0l12.44-4.23.61.2.59.19.08,0h0c4,1.28,16.48,5.15,21.11,5.95a163.34,163.34,0,0,0-8.49,15.31c-21,9.71-60.12,23.27-72.76,54.55,8.67-3.4,24.8-8.18,30.45-7.69-4.48,8-30.25,39.83-30.78,83.17,7.27-10,32.63-22.65,37.88-23.65-9,18.07-13.68,43.27-10.36,66.67,7.46-8.25,30-35.7,40.7-40.48-2.45,17.92-.34,53.55,1.12,61.5,9.8-14.81,24.58-40.56,30.89-45,1.81,12,5.31,20.33,10.54,31.22,12.86-20,25.84-38,32.78-38.87,27.39,6.86,32.71-2.64,39.36-11.1C324.69,214.29,334.08,230.21,345.07,246.07Z"/><path class="cls-12" d="M369.59,268.19C300.43,300.66,252.84,346.82,229,386.5c-5.85,1.87-66.9,6.1-135.62.19C28.93,265.47,74.34,180.39,82.65,147.87h.06l38.42,14.43,20.22,3.28-.68,2.44s-4.42-.53-10.95-.61h0c-2.15,0-4.53,0-7.06.11s-5.35.31-8.17.64c-13.61,1.59-28.83,6.13-35.81,17.88-22.93,48.88-14.28,134.76,18.76,194.5,61.9,2,129.51.07,129.51.07,16.14-36.07,86.59-97.34,134.83-112.4-4.22-5-8.75-11-13.15-17.12-1.2-1.67-2.39-3.35-3.55-5-11-15.86-20.38-31.78-21-35.62-6.65,8.46-12,18-39.36,11.1,8.58.74,17.71,1.11,25.18-2.61h0c7.42-3.69,13.2-11.43,15.18-26.88h0a101.24,101.24,0,0,0,.73-13.7c0-.28,0-.55,0-.83s0-.54,0-.8l2.81.36c1.58,6.53-.27,22.5-2.44,27C330.12,215.85,350.18,251.35,369.59,268.19Z"/><path class="cls-14" d="M323,55.1c0,.58,0,1.15.09,1.7l-1-.67a1.67,1.67,0,0,0-.21-.13c-9.92-6.47-12.2-9.2-29.93-5.9a90.39,90.39,0,0,0-10,2.52h-.05l-1.08.34-.07,0-.13,0-.19.06-.09,0a.12.12,0,0,1,0,0l-.14-.2c-3.16-4.28-8.73-17.85-9.3-27.38a.08.08,0,0,1,0,0c.05-.14.3-.74.68-1.66h0a132.37,132.37,0,0,1,6.64-13.9h0c.37-.64.74-1.21,1.09-1.72,3.42-4.91,18.2-5.85,22.7-4.84s22.79,3.3,23.89,14.42c.51,5.13-.23,11.6-1.08,18.1l-.57,4.24A108.06,108.06,0,0,0,323,54.63C323,54.79,323,54.94,323,55.1Z"/><path class="cls-15" d="M160.91,128.59s-21.7,55.23-19,80.62c6.47-29.52,15.52-49.46,16.46-50.76s16.8-33.32,16.8-33.32Z"/><path d="M288.69,22.44a19,19,0,0,0-.72-4.82s-1.84-2.94-1.4-4.76a5.78,5.78,0,0,1,6.12-4.71,6.62,6.62,0,0,1,1.74.29C296.3,9.05,302.14,16.24,288.69,22.44Z"/><path d="M317.79,13.78a5.38,5.38,0,0,0-7.65-3.09c-1.55.84-5.54,8.45,7.32,12.45a19.49,19.49,0,0,1-.14-4.66S318.47,15.44,317.79,13.78Z"/><path class="cls-14" d="M321.5,28s6.46,10.33,6.89,32.86c-5.34-4-6.59-4.82-6.59-4.82s-6.72-10.07-6.1-12.41S321.5,28,321.5,28Z"/><path class="cls-16" d="M288.69,22.44c7.45-5.54,7.17-10.68,4-14.29a6.62,6.62,0,0,1,1.74.29C296.3,9.05,302.14,16.24,288.69,22.44Z"/><path class="cls-17" d="M292.37,8.12a4.9,4.9,0,0,1,2.68.41,4.38,4.38,0,0,1,2,2,6.19,6.19,0,0,1,.69,2.76,6.39,6.39,0,0,1-.54,2.8,10.21,10.21,0,0,1-3.58,4.21,12.29,12.29,0,0,1-5,2.16A14.27,14.27,0,0,0,291,21.19a17,17,0,0,0,2.11-1.54A12.58,12.58,0,0,0,295,17.81a8.09,8.09,0,0,0,1.32-2.14,5.65,5.65,0,0,0,.52-2.39,6.09,6.09,0,0,0-.44-2.43A4.69,4.69,0,0,0,292.37,8.12Z"/><path class="cls-17" d="M311.33,10.25a5.59,5.59,0,0,1,4.46.34,5.36,5.36,0,0,1,1.71,1.64,8.8,8.8,0,0,1,1,2.12,4.05,4.05,0,0,1-.08,2.44c-.24.73-.49,1.37-.67,2.06a14.82,14.82,0,0,0-.3,4.29,9.67,9.67,0,0,1-.49-4.45,18.62,18.62,0,0,1,.53-2.17,3.21,3.21,0,0,0,0-1.89,6.58,6.58,0,0,0-2.17-3.37A6.58,6.58,0,0,0,311.33,10.25Z"/><path class="cls-18" d="M325.07,192.05c-2,15.45-7.76,23.19-15.18,26.88-13.23,2.86-20.32-1.59-26.65-2.37-7.59,5.51-22.14,19-29.55,33.49-3.15-8-7.45-26.36-6.51-33.33-9.66,5.83-21.89,23.83-32.21,43.09-2.15-19.16.93-42.2,2.67-57-13.11,3.61-28.69,18.47-42.21,35.09-2.8-17,10.55-52.52,14.71-62.35-17.51,7-32.12,11.17-40.59,18.71,3.44-26.25,21.53-60.1,33.32-73.23-4.17-1.07-18.87-.12-30.26,4.51,12.11-16.74,42-30.53,66.11-42.44a100.53,100.53,0,0,1,23.37-36.67c-3.88,8.35-12.88,28.46-16.08,41.8a277,277,0,0,0-25.16,14s11,1.65,13.05,2.54c-13.83,12.09-19.46,25.12-22.36,31.27,14-6.14,23.43-5.1,26.9-4.09-5.4,10.44-8.59,25.58-9.65,32.36,10.2-8.37,24.1-12.87,25.71-12.25,0,5.92-3,23.69-1.47,41.83,13.22-7.63,17.65-6.78,17.65-6.78a180.68,180.68,0,0,0,5,30.3c15.25-20.26,21.42-23,21.42-23C297.87,203.48,314.25,203.67,325.07,192.05Z"/><path class="cls-19" d="M242.1,46.45c1.11-2.41,1.8-3.84,1.8-3.84"/><path class="cls-2" d="M322.84,37.19c1.24,1.17,4.83,12.87,4.08,20.46-.7-.06-5.52-3.71-5.52-3.71.74-4,.75-8.37-.7-16.4A7.06,7.06,0,0,0,322.84,37.19Z"/><path class="cls-2" d="M319.8,11.8s1-.15,1.6-.22c3,3.13,4.6,8.9,1.44,25.61-.13.19-1.14,1.34-2.14.35C321.84,27.29,323.56,15.44,319.8,11.8Z"/><path class="cls-11" d="M292.81,177.84l1.07.65-3.76.24c-3,0-7.35-.1-11.73-.26-4.22-.8-19.95-25.89-24.21-46.79a51.9,51.9,0,0,1,6.46-1.49c3.9-.68,22.09-3.56,33.66-1.55,2.8.49,5.24.92,7.37,1.33C272.18,132.2,263.56,142.56,292.81,177.84Z"/><path class="cls-4" d="M294.31,178.75l-4.19,0,3.76-.24Z"/><path class="cls-20" d="M274,75.78c1.38-4.26,7.06-11.84,16.77-9.58,1.34,7.11.81,21.58-5.5,30.82C281.5,87.86,278.36,81.67,274,75.78Z"/><path class="cls-20" d="M291.12,65.7s3.44-4.34,8.78-4.08c1.16,1.32,3.19,6.74-2.17,18.45C295.82,74.75,294.54,69.45,291.12,65.7Z"/><path class="cls-20" d="M300.45,61.82s6.3-1.58,9.82,1.54A23.92,23.92,0,0,1,306.92,79C305,73.9,305.38,71.13,300.45,61.82Z"/><path class="cls-20" d="M311.46,64.74c-.12-.91,4.21-.29,5.06.92,0,2.91-1,9.54-2.74,13C312.52,71.29,312,68.88,311.46,64.74Z"/><path class="cls-13" d="M284.7,221.55h0s17.94,5.57,27.46.19c8.2-4.64,11-7.09,11-6.93S313.07,233.2,308,234.22s-33.23,2.82-32,.09S284.7,221.55,284.7,221.55Z"/><path class="cls-21" d="M277.22,75.58c.3-.68,2.61-9.17,11-7.82,1.26,3.82,2.53,10.65-2.81,24.89A105.48,105.48,0,0,0,277.22,75.58Z"/><path class="cls-21" d="M292.76,65.86c.54-1.08,3.94-3.67,6.86-3.18C300.46,66,301,68,297.8,77.53,296.54,72.15,294.46,67.8,292.76,65.86Z"/><path class="cls-21" d="M302.19,62.67s4.82-1.28,7.25,1.18a30.83,30.83,0,0,1-2.27,12.65C305.88,71.69,305.18,68,302.19,62.67Z"/><path class="cls-21" d="M312.5,65.49a4.77,4.77,0,0,1,3.29.58,43.72,43.72,0,0,1-1.68,8.58A78.32,78.32,0,0,1,312.5,65.49Z"/><path class="cls-20" d="M317.92,66.16s5.65.59,11.3,6.15c.72,4.9-.59,15.6-13.05,25.9C317.4,86.66,319.74,76.39,317.92,66.16Z"/><path class="cls-21" d="M319.86,68.32s5.78,1.35,8.36,5.19c.49,5.31-5.68,17.27-10,20.46C320.26,85.57,320.78,74.24,319.86,68.32Z"/><path class="cls-14" d="M273.54,176.26s6.21,1,8,.21a6.14,6.14,0,0,0,2.67-2.14s6.6,3.18,13.06,1.13c2.34-.34,6.41,1.13,10.12,1s7.07-1.8,8.73-2a69,69,0,0,1,12.42-.47,9.57,9.57,0,0,0,0,3.08l-28.72,4.52-23.41-2C275.75,179.53,273.54,176.26,273.54,176.26Z"/><path class="cls-20" d="M283.66,175.05c2.88,3.83,9.59,3.37,14.8.43-1.06-8.41-2.6-14.77-11.27-25.56C286.36,160.77,286.26,167.33,283.66,175.05Z"/><path class="cls-21" d="M285.61,174.88c3,1.21,7.59,2.12,11.51.14a44.33,44.33,0,0,0-8.91-21.38A84.73,84.73,0,0,1,285.61,174.88Z"/><path class="cls-20" d="M315.16,174.94a21.16,21.16,0,0,0,13.18.34c1.57-6.56-1.55-20.45-6.66-30C320.79,152.23,317.9,168.51,315.16,174.94Z"/><path class="cls-21" d="M317.41,174.2s6.37,1.88,9.88-.2c1.15-5.11-3-21.19-5-24.84C321.89,157.77,318.36,170.63,317.41,174.2Z"/><path class="cls-22" d="M325.07,192.05h0c-10.82,11.62-27.2,11.43-48,2.29,0,0-6.17,2.79-21.42,23a180.68,180.68,0,0,1-5-30.3s-4.43-.85-17.65,6.78c-1.52-18.14,1.43-35.91,1.47-41.83-1.61-.62-15.51,3.88-25.71,12.25,1.06-6.78,4.25-21.92,9.65-32.36-3.47-1-12.86-2.05-26.9,4.09,2.9-6.15,8.53-19.18,22.36-31.27-2.05-.89-13.05-2.54-13.05-2.54a277,277,0,0,1,25.16-14c3.2-13.34,12.2-33.45,16.08-41.8h0a120.62,120.62,0,0,1,25.37-19l1.17-.67,2.18-1.25c.57,9.53,6.14,23.1,9.3,27.38a44.21,44.21,0,0,0-6.44,3.66c-8.82,6.17-14.3,19.56-17.54,33.56h0s-2.82,15.27-3.42,22.13v0a116.76,116.76,0,0,0-.34,19.47c-.84,4.91,11.41,36.14,20.53,46.47a11.15,11.15,0,0,0,3.7,3c6.4,2.7,37.71,1.14,49.21-2.91A101.24,101.24,0,0,1,325.07,192.05Z"/><path class="cls-15" d="M169.77,187.74s-6.6,45.57-1.1,65.44a582,582,0,0,1,15-69.16Z"/><path class="cls-15" d="M201.07,215.36s-.19,25.1,9.42,58.84c2.44-14.7,3-48.41,2.85-51.65s.25-13.63.25-13.63Z"/><path class="cls-15" d="M236.17,231.84s7.38,19.13,15.75,28.58l-7.74-33.6Z"/><path class="cls-14" d="M328.37,59.81c.05.74.27,4,.39,5.39C311.42,43.82,287.38,52.39,276.09,58c-4.46,2.19-9.71,9-13.95,20-.49,1.26-1,2.59-1.43,4-.74,2.25-1.45,4.64-2.1,7.17-.72,2.8-1.38,5.78-1.95,8.93a171.1,171.1,0,0,0-2.48,33.64l-1.82.08a116.76,116.76,0,0,1,.34-19.47v0a163.21,163.21,0,0,1,3.42-22.11s0,0,0,0h0c3.24-14,8.72-27.39,17.54-33.56a44.21,44.21,0,0,1,6.44-3.66,54.78,54.78,0,0,1,11-3.79c8.94-2,19.27-1.94,28.37,3.26.66.37,1.31.78,1.95,1.21s1,.68,1.49,1.06a31.91,31.91,0,0,1,3,2.54h0c.81.77,1.62,1.6,2.39,2.49h0Z"/><path class="cls-23" d="M311.06,218.28l-1.18.66c-5.21,2.22-17.74,4.17-25.18,2.61-6.94.83-19.92,18.88-32.78,38.87-5.23-10.89-8.73-19.21-10.54-31.22-6.31,4.44-21.09,30.19-30.89,45-1.46-7.95-3.57-43.58-1.12-61.5-10.66,4.78-33.24,32.23-40.7,40.48-3.32-23.4,1.33-48.6,10.36-66.67-5.25,1-30.61,13.6-37.88,23.65.53-43.34,26.3-75.18,30.78-83.17-5.65-.49-21.78,4.29-30.45,7.69,12.64-31.28,51.74-44.84,72.76-54.55a163.34,163.34,0,0,1,8.49-15.31c1.57-2.51,3.23-5,5-7.41q2-2.86,4.23-5.61h0q2.63-3.28,5.46-6.36c1.56-1.69,3.17-3.33,4.83-4.9,0,0,0,0,0,0h0l.1-.1.27-.26h0A79.52,79.52,0,0,1,260,27.52a59.21,59.21,0,0,1,8.64-3.72H269l2.49,0,2.14,0c-.8.49-1.75,1-2.83,1.67l-2.18,1.25-1.17.67a120.62,120.62,0,0,0-25.37,19h0a100.53,100.53,0,0,0-23.37,36.67c-24.13,11.91-54,25.7-66.11,42.44,11.39-4.63,26.09-5.58,30.26-4.51-11.79,13.13-29.88,47-33.32,73.23,8.47-7.54,23.08-11.68,40.59-18.71-4.16,9.83-17.51,45.35-14.71,62.35,13.52-16.62,29.1-31.48,42.21-35.09-1.74,14.78-4.82,37.82-2.67,57,10.32-19.26,22.55-37.26,32.21-43.09-.94,7,3.36,25.36,6.51,33.33,7.41-14.53,22-28,29.55-33.49C289.57,217.34,297.84,221.14,311.06,218.28Z"/><path class="cls-14" d="M328.59,177.08c-.7.44-.28,1.19-.91,2.22-3.48,5.7-32.68,14.89-51.09,2-15.53-10.91-25.07-44.59-24.23-49.5l1.82-.08c3.62,17.76,15.52,38.53,21.6,44.87a6.14,6.14,0,0,0,2.61,1.92l.06,0c2.73.21,5.37.36,7.92.47h0c16.26.71,28.68-.47,36-2.2,1-.24,1.89-.49,2.68-.74.53-.16,1-.33,1.45-.5l.38.17a5.14,5.14,0,0,1,1.2.75h0A1.43,1.43,0,0,1,328.59,177.08Z"/><path class="cls-24" d="M361.77,268.23c-48.24,15.06-118.69,76.33-134.83,112.4,0,0-67.61,1.89-129.51-.07-33-59.74-41.69-145.62-18.76-194.5,7-11.75,22.2-16.29,35.81-17.88C79.12,206.8,67.67,247.75,68.9,265.64c1.91-2.87,18.57-16.48,32.8-27.58-9.8,17.41-15.85,51.28-13.37,55.53,2-3.63,12.35-13.42,18.41-17.65-2.82,10.67-8,50,1.53,81.45,4.46-16,15.94-28.26,25.89-44.71-1.42,9.55,8.59,32.5,18.29,43.77,1.58-7.45,21.27-35.16,28.12-43.1-1.95,10,9,36.25,22.11,43.39,1.39-7,4.65-14.78,16.61-38.88,2.05,5.54,7.92,12.69,13.16,19.78,2.88-11.49,13.86-29.78,23.62-40.33-.08,3.67,1.48,14,6.88,25.61,4-12.46,20.23-32.64,32.31-46.3.16.85,3.27,7.51,8.45,13.41,2.33-5,21.76-35.23,27.42-41.85,2.37,5.06,12.21,14.44,12.39,14.45s3.93-8.77,5.1-11.52C353,257.27,357.55,263.22,361.77,268.23Z"/><path class="cls-25" d="M278.76,75.24c-.31-.34,1.38-3.16,2.58-3.78a73.29,73.29,0,0,1,2.92,14.16C282.29,80.75,280.47,77.11,278.76,75.24Z"/><path class="cls-25" d="M294.2,65.79s.91-1.13,1.37-1.13a19.2,19.2,0,0,1,2.06,8.75C296.51,69.42,295.8,67.72,294.2,65.79Z"/><path class="cls-25" d="M303.43,63.06a2.67,2.67,0,0,1,1.49,0,12.09,12.09,0,0,1,1.7,7.9C305.47,66.28,304.21,64.15,303.43,63.06Z"/><path class="cls-25" d="M313.07,65.84a1.42,1.42,0,0,1,.79,0,37.71,37.71,0,0,1,.13,6C313.53,69.22,313.15,66.42,313.07,65.84Z"/><path class="cls-25" d="M321,69.42a9.64,9.64,0,0,1,3.15,1.69c.34,1.49-.89,11.44-3.61,16.11C321.69,80.8,322.15,75.24,321,69.42Z"/><path class="cls-25" d="M287.35,174.07a15.85,15.85,0,0,0,3.64.57c.2-3.67-.54-9.73-1.8-12.76A47.87,47.87,0,0,1,287.35,174.07Z"/><path class="cls-25" d="M322.27,160.14s-1.75,10.63-2.93,12.84a7.46,7.46,0,0,0,4.57.17C324.6,172,323.12,163.21,322.27,160.14Z"/><path class="cls-2" d="M291.87,50.1l-3.18.78c-3.8.91-5.72,1.43-6.78,1.74h-.05l-1.08.34-.07,0-.13,0-.19.06-.09,0a.12.12,0,0,1,0,0l-.14-.2c-3.16-4.28-8.73-17.85-9.3-27.38a.08.08,0,0,1,0,0c.05-.14.3-.74.68-1.66h0a132.37,132.37,0,0,1,6.64-13.9h0s-.27,20.73,13,39.19C291.38,49.43,291.62,49.77,291.87,50.1Z"/><path class="cls-14" d="M325.37,60.24s1.47,3.64.43,9.79a9.52,9.52,0,0,0,3.42,2.28l-.83-11.5Z"/><path class="cls-14" d="M328.59,168.06a46.08,46.08,0,0,0,1.72,7.14l-4.82,1.49,2.26-2.26s.11-1.26.15-1.6S328.59,168.06,328.59,168.06Z"/></g></g></svg>