<svg id="Layer_2" data-name="Layer 2" xmlns="http://www.w3.org/2000/svg" viewBox="0 0 1474.56 412.74"><defs><style>.cls-1,.cls-20,.cls-5{fill:none;}.cls-1{stroke:#f33;stroke-width:7px;}.cls-1,.cls-13,.cls-20,.cls-5,.cls-7{stroke-miterlimit:10;}.cls-2,.cls-29{fill:#f33;}.cls-3{fill:#3a3a3a;}.cls-4{fill:#282828;}.cls-5{stroke:#e25a5a;}.cls-20,.cls-5{stroke-width:0.33px;}.cls-6{fill:#664f4f;}.cls-21,.cls-7{fill:#1d1d1b;}.cls-13,.cls-7{stroke:#0b0000;stroke-width:2.57px;}.cls-8{fill:#2b2b2b;}.cls-9{fill:#493838;}.cls-10{fill:#232323;}.cls-11{fill:#ff769a;}.cls-12{fill:#912929;}.cls-13{fill:#010200;}.cls-14{fill:#c6c6c6;}.cls-15{fill:#1e1e1e;}.cls-16{fill:#6d6d6d;}.cls-17{fill:#141414;}.cls-18{fill:#5a5a62;}.cls-19{fill:#d8d8d8;}.cls-20{stroke:#5a5a62;stroke-linecap:round;}.cls-22{fill:#fff;}.cls-23{fill:#ebebeb;}.cls-24{fill:#8c8c8c;}.cls-25{fill:#5b5b5b;}.cls-26{fill:#c9c9c9;}.cls-27{font-size:60.81px;fill:#0f0f0f;font-family:ZenDots-Regular, Zen Dots;letter-spacing:0.04em;}.cls-28{letter-spacing:0.06em;}.cls-29{letter-spacing:0.06em;}</style></defs><polygon class="cls-1" points="1127.64 298.14 403.5 298.14 403.5 131.91 1204.3 131.91 1127.64 298.14"/><path class="cls-2" d="M446.34,95.4S393,92,361.3,110.92c-33.47,20-62.75,32.36-91,36.36,14.74,15.77,34.19,28.94,46.37,34.87-8.86,21.91-32.22,77.8,9.82,156.15,44,4.13,73.36,3.29,96.54.73,10.12-29.47,55-60.75,93.86-81.28-14.1-15.08-28.7-34.19-31.06-42.44,1.38-10.21,1.29-35-10.31-45.68-1.81-2.92,1.59-20.61,2.91-24.1,6.22-5.74,9.17-17.58,3.54-39.06.92-4.62,5.58-18.13-10.84-21.52-13.59-2.8-22.46-.63-25,5.31l-2.13,5Z"/><path class="cls-3" d="M472.65,170.4s2.16,3.41,4.57,7.58-1.31,5.83-1.31,5.83-5.27,3.58-6.36.75-4-16-4-16l4.61-1.89Z"/><path class="cls-3" d="M479.36,127.07l-.19,1-.07.38L479,129l-.37,2-.25,1.36s-1.33,4.44-2.71,10.92c-.13.62,2.85-9.29,2.71-8.64-1,4.57-8,24.33-5.74,35.74a5.55,5.55,0,0,0-2.84-1.07c-1.21-.19-2.63-.26-4.14-.39-.94-.07-1.91-.18-2.89-.35-1.35-.24-2.77-.47-4.24-.68h0c-7.91-1.12-17.26-1.65-24.88.44l0,0-.95-12.47h0l1.94-8.61,1.2-5.27.95-4.24.07-.31.18-.19.81-.87c1.49-1.62,4.21-4.58,4.62-5.06s5.94-4.27,9.69-6.83l3.38-2.3s9.91-1.86,10.49-1.52,9.64,3.66,9.64,3.66l1.75,1.27h0Z"/><path class="cls-4" d="M449.15,136.73s-6.35,14.6-2.54,29.54-13.29,3.9-13.46,3.28-.74-10.24-.71-10.71,2.35-15.2,2.35-15.2l10-7.28Z"/><path class="cls-4" d="M480,130l-1.38,1-2.55,1.91-1.16.87-.86.65c-.63-.28-1.27-.53-1.9-.75l-.38-.13a22.79,22.79,0,0,0-3.34-.8l-.7-.1-.16,0-.72-.08a25.61,25.61,0,0,0-4.2,0c-.24,0-.48,0-.73.07s-.35,0-.53.06l-.65.08a31.43,31.43,0,0,0-3.34.7c-.44.11-.88.24-1.32.38a39.89,39.89,0,0,0-5.61,2.21l-1.34.67a66.37,66.37,0,0,0-13.95,10c-.34.32-.55.51-.6.54l.26-5.6v0h0c.05-.1.42-.89,1-2h0c.27-.54.57-1.17.9-1.84.08-.16.17-.33.25-.5.54-1.1,1.14-2.29,1.72-3.42,1.44-2.83,2.82-5.37,3.15-5.45s5.7-2.15,10.25-3.89c3.45-1.32,6.48-2.47,6.66-2.47s3,.53,6.35,1.19l2.36.46L469,124l2.86.55,5.54,1.09h0l1.27,2.1,0,.07.4.67.6,1Z"/><path class="cls-5" d="M449.16,198.43c2.82.1,5.59.15,7.54.17l-2.39.15h0l-6.37.4-.49-.78c-2.16-3.43-10.67-17-10.95-18s-3.33-10.87-3.33-10.87l.46-1.18C436.35,181.79,446.45,197.92,449.16,198.43Z"/><path class="cls-2" d="M478.86,194.3c-.45,0,1.73,2.2,1.21,2.23l-2.18.32-3.35.23c-5,.36-11.38.85-16.68,1.26l-.63-.42c-17-22.51-11.85-29.2,5.43-30.78,3.91.8,5.21,2,6,2.82C468.71,170,476,176.26,478.86,194.3Z"/><path class="cls-6" d="M437.53,133.13s-1.84,7.16-2.74,10.51c14.18-21.9,32.9-26.22,47-13.43-.18-2.3-.25-4.51-.25-4.51l-4.25-5.17-6-3.76-10.05-.86-14.62,4.37-4.41,4Z"/><path class="cls-3" d="M481.53,125.64l.05.06v.13a.28.28,0,0,0,0,.09h0C481.59,126.18,481.56,126,481.53,125.64Z"/><path class="cls-7" d="M446.12,99.06l-1.81,1.06-1.41.82-.75.43c-1.62,0-3.22,0-4.79.06-42.45.87-71,12.83-86.5,24.48-13.12,9.84-48.7,25.06-61.74,26.08,10.77,9.45,44.57,30.94,72,38.17l-10.28-.88c-9-2-18.4-5.87-27.4-10.5h0a217,217,0,0,1-41.31-28c10.29-2.77,42.5-9.46,68.19-27.65C375.78,105,407.12,99,442.91,99h3.21Z"/><path class="cls-8" d="M426.23,109.54l-.21.16-.48.39a29.25,29.25,0,0,0-2.71,2.84c-1.53,1.79-3.15,3.94-4.59,5.93h0a.83.83,0,0,1-.13.18c-2.45,3.43-4.36,6.4-4.36,6.4l-.35,0c-3-.51-11-3-13.56-3.82h0l-.05,0-.38-.12-.39-.13L391,124h0s.14-.1.27-.2l.11-.08,1.22-.87.57-.42.16-.11.33-.24a.47.47,0,0,1,.09-.06l.44-.32.22-.16.94-.67c4.42-3.17,11.14-8,15-10.57l.72-.48c.57-.38,1.06-.7,1.44-.93a3.15,3.15,0,0,1,.55-.28h0l.13,0,.16,0c1.79-.56,4.49-.26,7.39.19,1.77.27,3.61.6,5.37.83h0Z"/><path class="cls-9" d="M436.45,141c.38-.35,6.11-16.49,14.92-19.6A49.76,49.76,0,0,1,471,118l-4.13-2.16-13.66,1.19-6.62,3.22-4,3.63-2.53,4.34-3.25,7.8-1.21,4.28Z"/><path class="cls-2" d="M418.23,118.87c-1.86,2.65-3.82,3-5.64,2.18a7.57,7.57,0,0,1-2.95-3.23,4.37,4.37,0,0,1-.55-3c1.77-1.11,4-2.85,7.61-3.29a15.23,15.23,0,0,1,3.52,0C420.16,114.46,420.1,116.23,418.23,118.87Z"/><path class="cls-10" d="M426.23,109.54l-.28.22h0l-.39.31-2.1,1.72a16.76,16.76,0,0,0-7.72-.1l-.15,0a15.59,15.59,0,0,0-1.94.57h0a16,16,0,0,0-4.52,2.52,97.07,97.07,0,0,1-9.26,6.74h0l-.05,0-.38-.12-.39-.13L391,124h0s.14-.1.27-.2l.11-.08,1.22-.87.57-.42.16-.11.33-.24a.47.47,0,0,1,.09-.06l.44-.32.22-.16.94-.67c4.45-3.2,11.22-8,15-10.57l.72-.48a17.29,17.29,0,0,1,2-1.21h0l.13,0,.16,0c1.38-.39,4.49-.17,7.39.19,2.17.26,4.23.61,5.37.83h0Z"/><path class="cls-11" d="M416.39,112.64a7.91,7.91,0,0,1,2.93-.34,6.31,6.31,0,0,1-.58,3.58C418,117,416,113.41,416.39,112.64Z"/><path class="cls-12" d="M416.7,111.55c-.41.54-6.25,3.7-7.06,6.27a4.37,4.37,0,0,1-.55-3C410.86,113.73,413.1,112,416.7,111.55Z"/><path class="cls-13" d="M494.52,244.59l-.23.52c-.75,1.77-3.17,7.42-3.27,7.41s-6.44-6-8-9.29c-3.64,4.26-16.13,23.67-17.62,26.9a31.21,31.21,0,0,1-5.43-8.62c-7.77,8.78-18.17,21.74-20.77,29.75-3.47-7.46-4.47-14.1-4.42-16.46-6.27,6.78-13.32,18.54-15.18,25.92-3.36-4.55-7.14-9.15-8.45-12.71-7.69,15.49-9.79,20.49-10.68,25-8.44-4.58-15.46-21.44-14.21-27.88-4.4,5.1-17.05,22.91-18.07,27.69-6.23-7.24-12.67-22-11.75-28.12-6.39,10.57-13.78,18.47-16.64,28.73-3.39-6.69-2.79-45.48-1-52.34l-.38.27c-3.94,2.92-10.38,10.05-12.21,12.36a6.07,6.07,0,0,1-.19-.71,24.74,24.74,0,0,1,.14-7.87c1.21-8.58,5-20.58,9.4-28.39-9.15,7.13-19.85,15.88-21.08,17.72-.79-11.49,6.57-37.81,29.29-62.63.57-.62,1.16-1.25,1.75-1.87,2.49-2.38,4.63.5,4.63.5s4.75-.3,4,.34c-.18.16-.38.35-.62.55h0c-5.75,5-27.1,23-34.61,54.83,8.61-10.34,23.23-19.74,34.3-24.45-14.47,12.34-24.08,37.92-24.74,45.63,6.38-10.52,22.77-19.22,26.21-19-3.7,5.26-14.82,36.43-13.36,54.43,8.13-14.13,21.73-33.61,27.94-37.34-2.86,8.39-3.86,23.64-1.57,38.26,11-16.43,21.8-28.5,27.51-31.05-1.23,7.21-.17,19.64,3.43,32.74,6-13.5,14-26.07,17.13-29.15.75,7.23,1.64,12.79,3.44,16.6,4.92-12.83,15.38-26.49,19.9-27.66.44,3.81.38,9.75,1.07,15.9,9-12.78,19.57-25.58,24.43-29-.23,2.72,1,8.53,1,8.53s12.53-19,18-21.83c2,3.52,5.89,7.66,5.93,7.21a39.45,39.45,0,0,1,2.42-4.13Z"/><path class="cls-14" d="M492,241.87A39.45,39.45,0,0,0,489.6,246c0,.45-4-3.69-5.93-7.21-5.43,2.88-18,21.83-18,21.83s-1.24-5.81-1-8.53c-4.86,3.39-15.41,16.19-24.43,29-.69-6.15-1.37-8.58-1.8-12.39-4.52,1.17-15.4,12.24-19.17,24.15-1.8-3.81-2.69-9.37-3.44-16.6-3.16,3.08-11.1,15.65-17.13,29.15a61.41,61.41,0,0,1-3.43-32.74c-5.71,2.55-16.55,14.62-27.51,31.05-2.29-14.62-1.29-29.87,1.57-38.26-6.21,3.73-18.82,20.75-26.94,34.89,1-15.44,1.92-37.85,12.36-52-3.44-.2-18.55,6.19-24.37,15.37,2.32-9.59,8.43-29.64,22.9-42-11.07,4.71-23.5,11.07-32.11,21.41,7.51-31.82,26.67-46.78,32.42-51.79h0c4.2,0,7,.39,7,.39l.44-1.57c-27.41-7.23-61.21-28.72-72-38.17,13-1,48.62-16.24,61.74-26.08,15.51-11.65,44.05-23.61,86.5-24.48a50.93,50.93,0,0,0-11.17,8.1h0c-1.14-.22-3.2-.57-5.37-.83-2.9-.45-5.6-.75-7.39-.19l-.16,0-.13,0h0a3.15,3.15,0,0,0-.55.28c-.38.23-.87.55-1.44.93l-.72.48c-3.8,2.54-10.57,7.37-15,10.57l-.94.67-.22.16-.44.32a.47.47,0,0,0-.09.06l-.33.24-.16.11-.57.42-1.22.87-.11.08c-.13.1-.23.16-.27.2h0l8-2.72.39.13.38.12.05,0h0c2.59.81,10.59,3.31,13.56,3.82a104.62,104.62,0,0,0-5.45,9.84c-13.51,6.24-38.63,14.95-46.76,35,5.57-2.19,15.94-5.25,19.57-4.94-2.88,5.13-19.44,25.6-19.78,53.44,4.67-6.45,21-14.55,24.34-15.19-5.8,11.61-8.79,27.81-6.66,42.84,4.8-5.3,19.31-22.94,26.16-26-1.57,11.52-.22,34.41.72,39.52,6.3-9.51,15.79-26.07,19.85-28.92,1.16,7.72,3.41,13.07,6.77,20.06,8.27-12.84,16.61-24.44,21.07-25,17.6,4.4,21-1.7,25.3-7.13C478.92,221.45,485,231.68,492,241.87Z"/><path class="cls-13" d="M507.78,256.09c-44.45,20.86-75,50.53-90.33,76-3.76,1.2-43,3.92-87.15.12-41.45-77.9-12.27-132.57-6.92-153.47h0l24.68,9.28,13,2.1-.44,1.57s-2.84-.34-7-.39h0c-1.38,0-2.91,0-4.54.07s-3.44.2-5.25.41c-8.74,1-18.52,3.94-23,11.49-14.74,31.41-9.18,86.6,12.05,125,39.78,1.26,83.23.05,83.23.05,10.37-23.18,55.65-62.56,86.65-72.23-2.72-3.23-5.63-7.05-8.46-11-.77-1.07-1.53-2.15-2.27-3.24-7.06-10.19-13.1-20.42-13.5-22.88-4.28,5.43-7.7,11.53-25.3,7.13,5.51.47,11.38.71,16.18-1.68h0c4.78-2.37,8.49-7.35,9.76-17.27h0a63.41,63.41,0,0,0,.47-8.8c0-.18,0-.36,0-.54v-.52l1.81.24c1,4.2-.18,14.46-1.57,17.38C482.41,222.45,495.3,245.27,507.78,256.09Z"/><path class="cls-15" d="M477.81,119.15c0,.38,0,.74.05,1.09l-.67-.42-.13-.09c-6.37-4.16-7.84-5.91-19.24-3.79a57.24,57.24,0,0,0-6.4,1.62h0l-.7.22-.05,0-.08,0-.12,0h-.06l0,0-.09-.13c-2-2.75-5.61-11.47-6-17.59a0,0,0,0,1,0,0c0-.09.19-.48.44-1.07h0A83.81,83.81,0,0,1,449,90.12h0c.23-.41.47-.78.69-1.1,2.2-3.16,11.7-3.77,14.59-3.11S479,88,479.66,95.16A54.84,54.84,0,0,1,479,106.8c-.12.9-.25,1.81-.37,2.72a70.26,70.26,0,0,0-.8,9.33C477.8,119,477.8,119.05,477.81,119.15Z"/><path class="cls-16" d="M373.67,166.38s-13.95,35.49-12.23,51.81c4.17-19,10-31.79,10.58-32.62s10.8-21.42,10.8-21.42Z"/><path d="M455.78,98.16a11.87,11.87,0,0,0-.46-3.09s-1.18-1.89-.9-3.06a3.71,3.71,0,0,1,3.93-3,4.12,4.12,0,0,1,1.12.19C460.67,89.56,464.43,94.18,455.78,98.16Z"/><path d="M474.48,92.6a3.45,3.45,0,0,0-4.91-2c-1,.54-3.56,5.43,4.7,8a12.53,12.53,0,0,1-.09-3S474.92,93.67,474.48,92.6Z"/><path class="cls-15" d="M476.87,101.7s4.15,6.64,4.43,21.12c-3.44-2.58-4.24-3.1-4.24-3.1s-4.32-6.47-3.92-8S476.87,101.7,476.87,101.7Z"/><path class="cls-17" d="M455.78,98.16c4.79-3.56,4.61-6.86,2.57-9.18a4.12,4.12,0,0,1,1.12.19C460.67,89.56,464.43,94.18,455.78,98.16Z"/><path class="cls-18" d="M458.15,89a3.13,3.13,0,0,1,1.72.27,2.78,2.78,0,0,1,1.31,1.27,4.21,4.21,0,0,1,.09,3.57,6.61,6.61,0,0,1-2.3,2.71,7.9,7.9,0,0,1-3.19,1.38,11.27,11.27,0,0,0,2.87-1.79,7.06,7.06,0,0,0,2-2.56,3.54,3.54,0,0,0,.33-1.53,3.76,3.76,0,0,0-.28-1.56A3,3,0,0,0,458.15,89Z"/><path class="cls-18" d="M470.33,90.33a3.61,3.61,0,0,1,2.87.22A4.22,4.22,0,0,1,475,93a2.7,2.7,0,0,1-.05,1.57c-.16.47-.32.88-.43,1.32a9.7,9.7,0,0,0-.2,2.76,6.24,6.24,0,0,1-.31-2.86c.13-1,.64-1.84.35-2.61a3.56,3.56,0,0,0-4-2.81Z"/><path class="cls-19" d="M479.16,207.16c-1.27,9.92-5,14.9-9.76,17.27-8.49,1.84-13-1-17.12-1.52-4.87,3.54-14.22,12.18-19,21.52-2-5.12-4.79-16.94-4.18-21.42-6.21,3.75-14.07,15.31-20.7,27.69-1.39-12.31.6-27.12,1.72-36.62C401.7,216.41,391.69,226,383,236.63c-1.8-10.92,6.78-33.74,9.45-40.06-11.25,4.51-20.64,7.18-26.08,12,2.21-16.88,13.83-38.63,21.41-47.07-2.68-.69-12.13-.08-19.44,2.9,7.78-10.76,27-19.62,42.48-27.27a64.61,64.61,0,0,1,15-23.57c-2.49,5.37-8.28,18.29-10.33,26.86a181,181,0,0,0-16.18,9s7.07,1.07,8.39,1.64c-8.89,7.77-12.5,16.14-14.37,20.09,9-3.94,15.06-3.27,17.29-2.63-3.47,6.72-5.52,16.44-6.2,20.8,6.55-5.38,15.49-8.27,16.52-7.87,0,3.8-1.92,15.22-.94,26.88,8.49-4.9,11.34-4.36,11.34-4.36a116.26,116.26,0,0,0,3.2,19.48c9.81-13,13.77-14.82,13.77-14.82C461.68,214.5,472.21,214.63,479.16,207.16Z"/><path class="cls-20" d="M425.84,113.59c.72-1.55,1.16-2.46,1.16-2.46"/><path class="cls-3" d="M477.73,107.64c.79.76,3.11,8.27,2.62,13.15a27.89,27.89,0,0,1-3.55-2.39c.48-2.57.48-5.38-.45-10.53A4.74,4.74,0,0,0,477.73,107.64Z"/><path class="cls-3" d="M475.78,91.33s.64-.1,1-.14c1.94,2,3,5.72.93,16.45-.08.12-.73.87-1.38.23C477.09,101.28,478.19,93.67,475.78,91.33Z"/><path class="cls-12" d="M458.43,198l.69.43-2.42.15c-1.95,0-4.72-.07-7.54-.17-2.71-.51-12.81-16.64-15.55-30.06a34,34,0,0,1,4.14-1c2.52-.43,14.21-2.28,21.64-1,1.8.31,3.36.59,4.74.86C445.17,168.7,439.63,175.35,458.43,198Z"/><path class="cls-5" d="M459.4,198.61h-2.7l2.42-.15Z"/><path class="cls-21" d="M446.34,132.44c.89-2.74,4.54-7.61,10.78-6.16.86,4.57.52,13.87-3.53,19.81C451.16,140.21,449.14,136.22,446.34,132.44Z"/><path class="cls-21" d="M457.34,126a7.37,7.37,0,0,1,5.65-2.62c.75.85,2.05,4.34-1.39,11.86C460.36,131.78,459.54,128.37,457.34,126Z"/><path class="cls-21" d="M463.34,123.47s4.05-1,6.31,1a15.37,15.37,0,0,1-2.15,10C466.26,131.23,466.51,129.45,463.34,123.47Z"/><path class="cls-21" d="M470.42,125.35c-.08-.59,2.7-.19,3.25.59a23.56,23.56,0,0,1-1.76,8.32C471.1,129.55,470.76,128,470.42,125.35Z"/><path class="cls-14" d="M453.22,226.12h0s11.53,3.58,17.64.12c5.28-3,7.06-4.55,7.09-4.45s-6.5,11.81-9.76,12.47-21.35,1.81-20.56.06S453.22,226.12,453.22,226.12Z"/><path class="cls-22" d="M448.41,132.32c.19-.45,1.68-5.9,7.09-5,.8,2.45,1.62,6.84-1.81,16A68.07,68.07,0,0,0,448.41,132.32Z"/><path class="cls-22" d="M458.4,126.06a5.27,5.27,0,0,1,4.41-2c.54,2.14.88,3.4-1.18,9.55A19.17,19.17,0,0,0,458.4,126.06Z"/><path class="cls-22" d="M464.46,124s3.09-.82,4.66.77a19.77,19.77,0,0,1-1.46,8.12C466.83,129.81,466.38,127.41,464.46,124Z"/><path class="cls-22" d="M471.09,125.83a3.06,3.06,0,0,1,2.11.37,27.86,27.86,0,0,1-1.08,5.51A50.37,50.37,0,0,1,471.09,125.83Z"/><path class="cls-21" d="M474.56,126.26a13.44,13.44,0,0,1,7.27,4c.46,3.15-.38,10-8.39,16.65C474.23,139.43,475.74,132.84,474.56,126.26Z"/><path class="cls-22" d="M475.82,127.64s3.71.87,5.37,3.34c.31,3.41-3.66,11.1-6.42,13.15A51.3,51.3,0,0,0,475.82,127.64Z"/><path class="cls-15" d="M446.05,197s4,.65,5.17.14a4,4,0,0,0,1.72-1.38s4.24,2,8.39.73c1.5-.22,4.12.73,6.5.65s4.55-1.15,5.61-1.29a45,45,0,0,1,8-.3,6.13,6.13,0,0,0,0,2L463,200.45l-15.05-1.3C447.47,199.11,446.05,197,446.05,197Z"/><path class="cls-21" d="M452.55,196.24c1.85,2.46,6.17,2.16,9.51.27-.68-5.4-1.67-9.49-7.24-16.42C454.29,187.05,454.22,191.28,452.55,196.24Z"/><path class="cls-22" d="M453.81,196.12c1.92.78,4.87,1.37,7.39.1a28.5,28.5,0,0,0-5.72-13.74A54.48,54.48,0,0,1,453.81,196.12Z"/><path class="cls-21" d="M472.79,196.16a13.59,13.59,0,0,0,8.47.22c1-4.21-1-13.14-4.28-19.26C476.41,181.57,474.55,192,472.79,196.16Z"/><path class="cls-22" d="M474.24,195.69s4.09,1.21,6.35-.13c.74-3.29-1.9-13.62-3.21-16C477.12,185.13,474.85,193.39,474.24,195.69Z"/><path class="cls-23" d="M479.16,207.16h0c-7,7.47-17.48,7.34-30.83,1.47,0,0-4,1.79-13.77,14.82a116.26,116.26,0,0,1-3.2-19.48s-2.85-.54-11.34,4.36c-1-11.66.91-23.08.94-26.88-1-.4-10,2.49-16.52,7.87.68-4.36,2.73-14.08,6.2-20.8-2.23-.64-8.26-1.31-17.29,2.63,1.87-4,5.48-12.32,14.37-20.09-1.32-.57-8.39-1.64-8.39-1.64a181,181,0,0,1,16.18-9c2.05-8.57,7.84-21.49,10.33-26.86h0a77.3,77.3,0,0,1,16.31-12.22l.75-.43,1.4-.8c.37,6.12,3.94,14.84,6,17.59a26.87,26.87,0,0,0-4.14,2.36c-5.67,4-9.19,12.56-11.27,21.56h0s-1.82,9.82-2.2,14.23h0a74.74,74.74,0,0,0-.22,12.52c-.54,3.15,7.33,23.22,13.19,29.86a7.26,7.26,0,0,0,2.38,1.95c4.11,1.73,24.23.73,31.62-1.87A63.41,63.41,0,0,1,479.16,207.16Z"/><path class="cls-16" d="M379.36,204.39s-4.24,29.29-.71,42.05A374.23,374.23,0,0,1,388.29,202Z"/><path class="cls-16" d="M399.48,222.14s-.13,16.13,6,37.81c1.57-9.45,2-31.11,1.83-33.19s.16-8.76.16-8.76Z"/><path class="cls-16" d="M422,232.73s4.74,12.3,10.12,18.36l-5-21.59Z"/><path class="cls-15" d="M481.28,122.18c0,.47.18,2.57.25,3.46-11.14-13.74-26.59-8.23-33.85-4.66-2.86,1.41-6.23,5.79-9,12.87-.31.81-.62,1.66-.91,2.55-.48,1.44-.94,3-1.36,4.61q-.69,2.7-1.25,5.73a110,110,0,0,0-1.59,21.63l-1.17,0a74.74,74.74,0,0,1,.22-12.52h0a103.61,103.61,0,0,1,2.2-14.21s0,0,0,0h0c2.08-9,5.6-17.6,11.27-21.56a26.87,26.87,0,0,1,4.14-2.36,35.41,35.41,0,0,1,7.08-2.43c5.74-1.31,12.38-1.25,18.23,2.09.42.24.84.5,1.25.78s.64.44,1,.68a20.59,20.59,0,0,1,1.93,1.63h0c.52.5,1,1,1.54,1.6h0Z"/><path class="cls-24" d="M470.16,224l-.76.42c-3.35,1.43-11.4,2.68-16.18,1.68-4.46.53-12.8,12.13-21.07,25-3.36-7-5.61-12.34-6.77-20.06-4.06,2.85-13.55,19.41-19.85,28.92-.94-5.11-2.29-28-.72-39.52-6.85,3.07-21.36,20.71-26.16,26-2.13-15,.86-31.23,6.66-42.84-3.37.64-19.67,8.74-24.34,15.19.34-27.84,16.9-48.31,19.78-53.44-3.63-.31-14,2.75-19.57,4.94,8.13-20.1,33.25-28.81,46.76-35a104.62,104.62,0,0,1,5.45-9.84c1-1.61,2.08-3.21,3.2-4.77q1.32-1.83,2.73-3.6h0c1.13-1.41,2.29-2.77,3.51-4.09,1-1.09,2-2.14,3.1-3.15h0l.07-.06.17-.17h0a50.93,50.93,0,0,1,11.17-8.1A37.14,37.14,0,0,1,442.91,99h3.21c-.51.32-1.12.67-1.82,1.08l-1.4.8-.75.43a77.3,77.3,0,0,0-16.31,12.22h0a64.61,64.61,0,0,0-15,23.57c-15.51,7.65-34.7,16.51-42.48,27.27,7.31-3,16.76-3.59,19.44-2.9-7.58,8.44-19.2,30.19-21.41,47.07,5.44-4.85,14.83-7.52,26.08-12-2.67,6.32-11.25,29.14-9.45,40.06,8.69-10.67,18.7-20.22,27.13-22.55-1.12,9.5-3.11,24.31-1.72,36.62,6.63-12.38,14.49-23.94,20.7-27.69-.61,4.48,2.16,16.3,4.18,21.42,4.77-9.34,14.12-18,19-21.52C456.35,223.41,461.66,225.86,470.16,224Z"/><path class="cls-15" d="M481.43,197.54c-.46.28-.19.76-.59,1.43-2.23,3.66-21,9.56-32.83,1.26-10-7-16.11-28.66-15.57-31.81l1.17,0c2.32,11.4,10,24.75,13.88,28.83a3.89,3.89,0,0,0,1.67,1.23h0c1.76.14,3.46.24,5.09.31h0c10.45.45,18.43-.3,23.11-1.42.64-.15,1.21-.31,1.73-.47.33-.11.64-.21.92-.33l.25.12a3.35,3.35,0,0,1,.77.48h0A.91.91,0,0,1,481.43,197.54Z"/><path class="cls-25" d="M502.75,256.12c-31,9.67-76.28,49.05-86.65,72.23,0,0-43.45,1.21-83.23-.05-21.23-38.39-26.79-93.58-12.05-125,4.49-7.55,14.27-10.47,23-11.49-22.72,24.82-30.08,51.14-29.29,62.63,1.23-1.84,11.93-10.59,21.08-17.72-6.3,11.18-10.19,33-8.6,35.68,1.27-2.33,7.94-8.62,11.84-11.34-1.81,6.86-5.14,32.13,1,52.34,2.86-10.26,10.25-18.16,16.64-28.73-.92,6.13,5.52,20.88,11.75,28.12,1-4.78,13.67-22.59,18.07-27.69-1.25,6.44,5.77,23.3,14.21,27.88.89-4.49,3-9.49,10.68-25,1.31,3.56,5.09,8.16,8.45,12.71,1.86-7.38,8.91-19.14,15.18-25.92-.05,2.36.95,9,4.42,16.46,2.6-8,13-21,20.77-29.75a31.21,31.21,0,0,0,5.43,8.62c1.49-3.23,14-22.64,17.62-26.9,1.52,3.25,7.85,9.28,8,9.29s2.52-5.64,3.27-7.41C497.12,249.07,500,252.89,502.75,256.12Z"/><path class="cls-26" d="M449.4,132.09c-.2-.21.89-2,1.66-2.43a46.81,46.81,0,0,1,1.88,9.1A24.71,24.71,0,0,0,449.4,132.09Z"/><path class="cls-26" d="M459.32,126s.59-.73.89-.73a12.5,12.5,0,0,1,1.32,5.63C460.81,128.35,460.35,127.26,459.32,126Z"/><path class="cls-26" d="M465.26,124.27a1.69,1.69,0,0,1,1,0,7.79,7.79,0,0,1,1.08,5.07A14.14,14.14,0,0,0,465.26,124.27Z"/><path class="cls-26" d="M471.45,126.05a.92.92,0,0,1,.51,0,25.29,25.29,0,0,1,.08,3.85C471.75,128.23,471.5,126.43,471.45,126.05Z"/><path class="cls-26" d="M476.53,128.35a6.19,6.19,0,0,1,2,1.09c.22,1-.57,7.35-2.32,10.35A29.36,29.36,0,0,0,476.53,128.35Z"/><path class="cls-26" d="M454.93,195.6a10.1,10.1,0,0,0,2.33.37,23.57,23.57,0,0,0-1.15-8.2A31.41,31.41,0,0,1,454.93,195.6Z"/><path class="cls-26" d="M477.36,186.65s-1.12,6.84-1.88,8.25a4.84,4.84,0,0,0,2.94.12C478.86,194.3,477.91,188.62,477.36,186.65Z"/><path class="cls-3" d="M457.82,115.94l-2,.5c-2.44.58-3.67.92-4.36,1.12h0l-.7.22-.05,0-.08,0-.12,0h-.06l0,0-.09-.13c-2-2.75-5.61-11.47-6-17.59a0,0,0,0,1,0,0c0-.09.19-.48.44-1.07h0A83.81,83.81,0,0,1,449,90.12h0a46.64,46.64,0,0,0,8.33,25.19Z"/><path class="cls-15" d="M479.36,122.46a12.51,12.51,0,0,1,.27,6.28,6.2,6.2,0,0,0,2.2,1.47l-.53-7.39Z"/><path class="cls-15" d="M481.43,191.75a28.59,28.59,0,0,0,1.1,4.58l-3.1,1,1.45-1.45s.08-.81.1-1S481.43,191.75,481.43,191.75Z"/><text class="cls-27" transform="translate(546.83 234.25)">C<tspan class="cls-28" x="53.21" y="0">OMP</tspan><tspan class="cls-29" x="249.94" y="0">BEAST</tspan></text></svg>