<svg id="Layer_2" data-name="Layer 2" xmlns="http://www.w3.org/2000/svg" viewBox="0 0 1474.56 1042.62"><defs><style>.cls-1,.cls-28{fill:#f33;}.cls-2{fill:#3a3a3a;}.cls-3{fill:#282828;}.cls-19,.cls-4{fill:none;stroke-width:0.52px;}.cls-4{stroke:#e25a5a;}.cls-12,.cls-19,.cls-4,.cls-6{stroke-miterlimit:10;}.cls-5{fill:#664f4f;}.cls-20,.cls-6{fill:#1d1d1b;}.cls-12,.cls-6{stroke:#0b0000;stroke-width:4px;}.cls-7{fill:#2b2b2b;}.cls-8{fill:#493838;}.cls-9{fill:#232323;}.cls-10{fill:#ff769a;}.cls-11{fill:#912929;}.cls-12{fill:#010200;}.cls-13{fill:#c6c6c6;}.cls-14{fill:#1e1e1e;}.cls-15{fill:#6d6d6d;}.cls-16{fill:#141414;}.cls-17{fill:#5a5a62;}.cls-18{fill:#d8d8d8;}.cls-19{stroke:#5a5a62;stroke-linecap:round;}.cls-21{fill:#fff;}.cls-22{fill:#ebebeb;}.cls-23{fill:#8c8c8c;}.cls-24{fill:#5b5b5b;}.cls-25{fill:#c9c9c9;}.cls-26{font-size:99.32px;fill:#0f0f0f;font-family:ZenDots-Regular, Zen Dots;letter-spacing:0.04em;}.cls-27{letter-spacing:0.06em;}.cls-28{letter-spacing:0.06em;}</style></defs><path class="cls-1" d="M805.94,277.68s-83-5.32-132.35,24.16C621.51,333,576,352.19,531.93,358.41c22.93,24.55,53.2,45,72.16,54.27-13.78,34.09-50.14,121.06,15.28,243,68.49,6.42,114.15,5.12,150.23,1.13,15.74-45.86,85.52-94.53,146-126.48-21.94-23.47-44.65-53.2-48.32-66,2.14-15.9,2-54.42-16-71.08-2.83-4.54,2.47-32.07,4.52-37.51,9.69-8.92,14.27-27.35,5.51-60.78,1.43-7.19,8.68-28.21-16.88-33.48-21.13-4.36-34.93-1-38.85,8.26l-3.31,7.82Z"/><path class="cls-2" d="M846.87,394.4s3.37,5.3,7.11,11.79-2,9.07-2,9.07-8.19,5.58-9.89,1.16-6.16-24.82-6.16-24.82l7.17-2.94Z"/><path class="cls-2" d="M857.31,327l-.29,1.59-.11.6-.14.81-.58,3.16-.38,2.11s-2.08,6.91-4.23,17c-.2,1,4.44-14.45,4.22-13.44-1.55,7.1-12.41,37.85-8.93,55.62a8.66,8.66,0,0,0-4.42-1.67c-1.89-.3-4.09-.4-6.44-.6-1.46-.12-3-.29-4.5-.56-2.11-.36-4.32-.72-6.6-1.05h0c-12.32-1.75-26.86-2.57-38.72.69l-.06,0-1.48-19.4v0l3-13.4,1.86-8.2,1.48-6.59.11-.48.28-.3,1.25-1.35c2.32-2.53,6.56-7.13,7.19-7.87S809.09,327,814.92,323l5.27-3.59s15.42-2.88,16.32-2.36,15,5.69,15,5.69l2.72,2h0Z"/><path class="cls-3" d="M810.3,342s-9.88,22.7-3.95,46-20.69,6.07-20.94,5.09-1.16-15.92-1.11-16.66S788,352.75,788,352.75l15.59-11.32Z"/><path class="cls-3" d="M858.34,331.51l-2.15,1.61-4,3-1.81,1.36-1.33,1c-1-.43-2-.82-3-1.15l-.59-.21a36.64,36.64,0,0,0-5.2-1.24l-1.08-.16-.25,0c-.38,0-.75-.09-1.13-.12a39.44,39.44,0,0,0-6.52,0c-.38,0-.76.06-1.14.1l-.83.1-1,.13a45.26,45.26,0,0,0-5.2,1.09c-.69.17-1.38.37-2.06.58a62.77,62.77,0,0,0-8.72,3.45c-.71.34-1.41.69-2.09,1.05a102.47,102.47,0,0,0-21.7,15.57c-.54.49-.86.79-.93.83l.39-8.72v0h0c.08-.15.67-1.38,1.54-3.16h0l1.4-2.87.39-.78c.84-1.71,1.76-3.56,2.67-5.33,2.25-4.4,4.39-8.34,4.9-8.47.67-.17,8.87-3.34,15.95-6.05,5.37-2.06,10.08-3.84,10.36-3.85s4.62.83,9.88,1.85l3.68.72,2.32.44,4.45.87c4.73.93,8.47,1.66,8.62,1.7h0l2,3.28.07.11.62,1,.93,1.53Z"/><path class="cls-4" d="M810.32,438c4.39.15,8.7.22,11.73.25l-3.72.23h0l-9.92.62-.77-1.22c-3.36-5.33-16.6-26.47-17-27.92-.49-1.67-5.18-16.93-5.18-16.93l.71-1.83C790.38,412.12,806.1,437.21,810.32,438Z"/><path class="cls-1" d="M856.53,431.58c-.7,0,2.7,3.42,1.89,3.48l-3.39.49-5.21.37c-7.76.56-17.72,1.31-26,1.95l-1-.65c-26.38-35-18.45-45.45,8.44-47.9,6.09,1.24,8.11,3,9.42,4.39C840.74,393.71,852.07,403.52,856.53,431.58Z"/><path class="cls-5" d="M792.21,336.4s-2.85,11.13-4.25,16.35c22.07-34.07,51.2-40.8,73.19-20.9-.27-3.58-.39-7-.39-7l-6.61-8-9.37-5.85-15.65-1.34-22.75,6.8-6.86,6.28Z"/><path class="cls-2" d="M860.69,324.75l.07.08s0,.06,0,.09v.27C860.78,325.59,860.74,325.33,860.69,324.75Z"/><path class="cls-6" d="M805.58,283.38,802.76,285l-2.19,1.28-1.16.68q-3.78,0-7.46.08c-66.05,1.36-110.46,20-134.61,38.1-20.4,15.32-75.78,39-96.06,40.58,16.75,14.72,69.35,48.16,112,59.41l-16-1.38c-14-3.14-28.62-9.13-42.63-16.33h-.06c-27-13.91-51.67-32.34-64.29-43.56,16-4.31,66.14-14.72,106.11-43,39.72-28.13,88.48-37.59,144.19-37.47h2.85Z"/><path class="cls-7" d="M774.63,299.69a3.33,3.33,0,0,0-.32.24c-.24.19-.49.39-.74.62a44.9,44.9,0,0,0-4.23,4.42c-2.38,2.78-4.89,6.12-7.14,9.23h0a2.83,2.83,0,0,1-.2.28c-3.83,5.34-6.8,10-6.8,10l-.53-.09c-4.63-.79-17.08-4.67-21.1-5.94h0l-.08,0-.59-.19-.6-.19-12.45,4.22h0l0,0,.43-.3.17-.13,1.89-1.36.89-.64.25-.18.52-.37.13-.1.69-.49.34-.25c.47-.34,1-.68,1.46-1.05C733.53,312.4,744,305,750,300.89c.39-.27.76-.52,1.12-.75.89-.6,1.65-1.09,2.23-1.45a5,5,0,0,1,.87-.43h0l.2-.08.25-.08c2.78-.87,7-.41,11.5.29,2.75.43,5.61.94,8.35,1.3h.06Z"/><path class="cls-8" d="M790.54,348.66c.58-.54,9.51-25.65,23.22-30.51a77.56,77.56,0,0,1,30.61-5.26l-6.44-3.36-21.25,1.87-10.3,5-6.18,5.65-3.94,6.75-5,12.14-1.89,6.65Z"/><path class="cls-1" d="M762.19,314.21c-2.89,4.12-6,4.74-8.78,3.39a11.78,11.78,0,0,1-4.59-5,6.79,6.79,0,0,1-.86-4.63c2.76-1.73,6.25-4.43,11.85-5.12a23.18,23.18,0,0,1,5.48,0C765.2,307.35,765.09,310.1,762.19,314.21Z"/><path class="cls-9" d="M774.63,299.69l-.43.34h0v0l-.6.49-3.28,2.67a26.18,26.18,0,0,0-12-.16l-.25.05a23.13,23.13,0,0,0-3,.89h0a25.41,25.41,0,0,0-7,3.93c-10.39,8.17-14.29,10.41-14.4,10.48h0l-.08,0-.59-.19-.6-.19-12.45,4.22h0l0,0,.43-.3.17-.13,1.89-1.36.89-.64.25-.18.52-.37.13-.1.69-.49.34-.25,1.46-1.05c6.93-5,17.46-12.48,23.38-16.44.39-.27.76-.52,1.12-.75a26.86,26.86,0,0,1,3.1-1.88h0l.2-.08.25-.08c2.15-.61,7-.27,11.5.29,3.38.41,6.58.95,8.35,1.3h.06Z"/><path class="cls-10" d="M759.32,304.51a12.6,12.6,0,0,1,4.57-.52c0,1.14.29,3.76-.9,5.56S758.73,305.71,759.32,304.51Z"/><path class="cls-11" d="M759.81,302.82c-.64.84-9.74,5.75-11,9.75a6.79,6.79,0,0,1-.86-4.63C750.72,306.21,754.21,303.51,759.81,302.82Z"/><path class="cls-12" d="M880.9,509.85l-.35.81c-1.17,2.74-4.94,11.53-5.09,11.52s-10-9.4-12.39-14.46c-5.67,6.63-25.1,36.84-27.43,41.86-5.18-5.9-8.28-12.57-8.45-13.41-12.07,13.66-28.27,33.84-32.3,46.29-5.41-11.6-7-21.93-6.89-25.6-9.76,10.54-20.73,28.84-23.62,40.33-5.23-7.09-11.11-14.24-13.15-19.79-12,24.11-15.23,31.89-16.62,38.88-13.14-7.14-24.05-33.37-22.11-43.39-6.85,8-26.53,35.65-28.12,43.1-9.7-11.27-19.71-34.22-18.28-43.77-10,16.45-21.44,28.74-25.89,44.71-5.28-10.41-4.35-70.78-1.54-81.44l-.58.41c-6.14,4.54-16.16,15.65-19,19.24a10.33,10.33,0,0,1-.29-1.1c-.62-2.89-.49-7.19.22-12.25,1.88-13.35,7.78-32,14.62-44.19-14.23,11.1-30.89,24.71-32.8,27.58-1.23-17.88,10.23-58.84,45.58-97.45.89-1,1.8-2,2.72-2.92,3.87-3.7,7.21.78,7.21.78s7.4-.47,6.27.54l-1,.85h0c-8.95,7.8-42.18,35.8-53.86,85.31,13.39-16.08,36.15-30.71,53.37-38-22.51,19.2-37.47,59-38.5,71,9.94-16.37,35.44-29.91,40.79-29.61-5.76,8.2-23.06,56.7-20.78,84.71,12.64-22,33.8-52.3,43.46-58.1-4.44,13-6,36.78-2.43,59.53,17.06-25.56,33.92-44.34,42.8-48.32-1.91,11.22-.26,30.56,5.34,50.95,9.39-21,21.74-40.56,26.65-45.35,1.17,11.24,2.56,19.89,5.37,25.82,7.64-20,23.93-41.22,31-43,.68,5.93.59,15.18,1.67,24.75,14-19.89,30.44-39.82,38-45.09-.36,4.23,1.56,13.27,1.56,13.27s19.51-29.48,28-34c3.09,5.48,9.17,11.93,9.23,11.22s3.76-6.41,3.76-6.41Z"/><path class="cls-13" d="M877,505.62s-3.7,5.71-3.76,6.41-6.14-5.74-9.23-11.22c-8.44,4.49-28,34-28,34s-1.92-9-1.56-13.27c-7.57,5.27-24,25.2-38,45.09-1.08-9.57-2.14-13.36-2.82-19.29-7,1.82-24,19.05-29.81,37.58-2.81-5.93-4.2-14.58-5.37-25.82-4.91,4.79-17.26,24.35-26.65,45.35a95.59,95.59,0,0,1-5.34-50.95c-8.88,4-25.74,22.76-42.8,48.32-3.57-22.75-2-46.48,2.43-59.53-9.66,5.8-29.27,32.29-41.91,54.28,1.61-24,3-58.89,19.23-80.89-5.35-.3-28.87,9.64-37.92,23.93,3.6-14.93,13.12-46.13,35.63-65.33-17.22,7.33-36.57,17.24-50,33.31,11.68-49.51,41.5-72.78,50.45-80.58h0c6.54.07,11,.6,11,.6l.68-2.43c-42.65-11.25-95.25-44.69-112-59.41,20.28-1.57,75.66-25.26,96.06-40.58C681.49,307,725.9,288.42,792,287.06a79,79,0,0,0-17.37,12.62h0c-1.77-.35-5-.89-8.35-1.3-4.52-.7-8.72-1.16-11.5-.29l-.25.08-.2.08h0a5,5,0,0,0-.87.43c-.58.36-1.34.85-2.23,1.45-.36.23-.73.48-1.12.75-5.92,4-16.45,11.46-23.38,16.44l-1.46,1.05-.34.25c-.24.16-.47.33-.69.49l-.13.1-.52.37-.25.18-.89.64-1.89,1.36a1.09,1.09,0,0,0-.17.13l-.43.3,0,0h0L732.28,318l.6.19.59.19.08,0h0c4,1.27,16.47,5.15,21.1,5.94a162.19,162.19,0,0,0-8.48,15.31c-21,9.71-60.12,23.28-72.77,54.56,8.67-3.41,24.81-8.18,30.46-7.7-4.49,8-30.26,39.84-30.78,83.17,7.26-10,32.62-22.64,37.87-23.65-9,18.07-13.68,43.27-10.36,66.67,7.47-8.25,30-35.7,40.7-40.48-2.45,17.93-.33,53.55,1.12,61.5,9.81-14.8,24.58-40.56,30.89-45,1.81,12,5.31,20.33,10.54,31.21,12.86-20,25.84-38,32.79-38.87C844,488,849.34,478.45,856,470,856.62,473.83,866,489.75,877,505.62Z"/><path class="cls-12" d="M901.53,527.74C832.36,560.2,784.77,606.37,761,646c-5.85,1.87-66.9,6.1-135.61.2-64.5-121.23-19.09-206.3-10.77-238.83h.06l38.41,14.43,20.22,3.28-.68,2.43s-4.41-.53-11-.6h0c-2.16,0-4.53,0-7.07.11s-5.35.31-8.17.64c-13.6,1.58-28.82,6.12-35.81,17.87-22.93,48.88-14.27,134.77,18.76,194.51,61.9,2,129.51.07,129.51.07,16.14-36.07,86.6-97.34,134.83-112.4-4.22-5-8.75-11-13.15-17.12-1.2-1.67-2.38-3.36-3.55-5-11-15.87-20.38-31.79-21-35.62-6.66,8.45-12,17.95-39.36,11.09,8.57.74,17.7,1.11,25.18-2.61h0C849.24,474.78,855,467,857,451.6h0a102.87,102.87,0,0,0,.72-13.69c0-.28,0-.56,0-.84s0-.53,0-.8l2.82.36c1.57,6.54-.28,22.5-2.45,27.05C862.05,475.39,882.11,510.9,901.53,527.74Z"/><path class="cls-14" d="M854.89,314.64c0,.59,0,1.15.09,1.71l-1-.67-.21-.14c-9.92-6.47-12.19-9.2-29.93-5.9a91.53,91.53,0,0,0-10,2.52l0,0-1.09.34-.07,0-.12,0-.2.06-.09,0a.07.07,0,0,1,0,0l-.15-.19c-3.16-4.29-8.72-17.85-9.3-27.39a0,0,0,0,0,0,0c.06-.14.3-.74.69-1.65h0a131.59,131.59,0,0,1,6.65-13.9h0q.55-1,1.08-1.71c3.43-4.92,18.2-5.86,22.7-4.84s22.79,3.3,23.89,14.42c.51,5.13-.23,11.59-1.08,18.1-.19,1.41-.38,2.83-.57,4.23a106.45,106.45,0,0,0-1.24,14.52C854.88,314.33,854.89,314.49,854.89,314.64Z"/><path class="cls-15" d="M692.84,388.14s-21.7,55.23-19,80.61c6.48-29.52,15.53-49.45,16.46-50.76s16.8-33.32,16.8-33.32Z"/><path d="M820.63,282a18.9,18.9,0,0,0-.72-4.81s-1.84-2.94-1.4-4.77a5.75,5.75,0,0,1,6.11-4.7,6.58,6.58,0,0,1,1.74.28C828.23,268.59,834.07,275.78,820.63,282Z"/><path d="M849.72,273.32a5.37,5.37,0,0,0-7.64-3.09c-1.56.85-5.55,8.45,7.31,12.46a19.49,19.49,0,0,1-.14-4.66S850.4,275,849.72,273.32Z"/><path class="cls-14" d="M853.43,287.49s6.46,10.33,6.89,32.86c-5.34-4-6.59-4.81-6.59-4.81s-6.71-10.08-6.09-12.41S853.43,287.49,853.43,287.49Z"/><path class="cls-16" d="M820.63,282c7.45-5.53,7.17-10.68,4-14.28a6.58,6.58,0,0,1,1.74.28C828.23,268.59,834.07,275.78,820.63,282Z"/><path class="cls-17" d="M824.3,267.66a5,5,0,0,1,2.69.42,4.35,4.35,0,0,1,2,2,6.22,6.22,0,0,1,.68,2.76,6.44,6.44,0,0,1-.54,2.81,10.27,10.27,0,0,1-3.58,4.21,12.29,12.29,0,0,1-5,2.15,14.13,14.13,0,0,0,2.34-1.24,17.2,17.2,0,0,0,2.12-1.55,13.11,13.11,0,0,0,1.81-1.84,7.85,7.85,0,0,0,1.31-2.13,5.58,5.58,0,0,0,.52-2.4,5.88,5.88,0,0,0-.44-2.42A4.67,4.67,0,0,0,824.3,267.66Z"/><path class="cls-17" d="M843.26,269.8a5.59,5.59,0,0,1,4.46.34,5.07,5.07,0,0,1,1.71,1.64,7.9,7.9,0,0,1,1,2.11,4.13,4.13,0,0,1-.07,2.44c-.25.73-.5,1.38-.67,2.06a14.57,14.57,0,0,0-.31,4.3,9.55,9.55,0,0,1-.48-4.45,17,17,0,0,1,.52-2.18,3.13,3.13,0,0,0,0-1.89,5.53,5.53,0,0,0-6.19-4.37Z"/><path class="cls-18" d="M857,451.6c-2,15.44-7.76,23.18-15.18,26.88-13.22,2.86-20.31-1.59-26.65-2.37-7.58,5.51-22.13,18.95-29.55,33.49-3.14-8-7.45-26.36-6.51-33.34-9.65,5.83-21.89,23.83-32.2,43.09-2.16-19.15.93-42.2,2.67-57-13.11,3.61-28.69,18.47-42.21,35.09-2.81-17,10.54-52.51,14.7-62.35-17.51,7-32.12,11.18-40.58,18.72,3.44-26.25,21.52-60.1,33.32-73.23-4.18-1.08-18.88-.13-30.26,4.51,12.1-16.74,42-30.53,66.1-42.45A100.4,100.4,0,0,1,774,306c-3.87,8.34-12.88,28.46-16.07,41.79a281,281,0,0,0-25.17,14s11,1.66,13.06,2.55c-13.84,12.08-19.47,25.11-22.36,31.26,14-6.14,23.43-5.09,26.9-4.09-5.4,10.45-8.6,25.58-9.66,32.37,10.21-8.37,24.1-12.87,25.71-12.26,0,5.93-3,23.69-1.46,41.84,13.22-7.63,17.65-6.78,17.65-6.78a181.21,181.21,0,0,0,5,30.3C802.86,456.67,809,453.88,809,453.88,829.8,463,846.18,463.21,857,451.6Z"/><path class="cls-19" d="M774,306c1.12-2.4,1.81-3.83,1.81-3.83"/><path class="cls-2" d="M854.77,296.73c1.24,1.18,4.84,12.88,4.09,20.47-.71-.06-5.53-3.72-5.53-3.72.74-4,.75-8.37-.7-16.4A7.06,7.06,0,0,0,854.77,296.73Z"/><path class="cls-2" d="M851.74,271.34s1-.15,1.59-.21c3,3.12,4.61,8.9,1.44,25.6-.12.19-1.13,1.35-2.14.35C853.77,286.83,855.49,275,851.74,271.34Z"/><path class="cls-11" d="M824.74,437.38l1.07.66-3.76.23c-3,0-7.34-.1-11.73-.25-4.22-.81-19.94-25.9-24.2-46.79a50.72,50.72,0,0,1,6.45-1.5c3.91-.68,22.1-3.55,33.66-1.54,2.81.48,5.24.91,7.38,1.33C804.11,391.75,795.49,402.1,824.74,437.38Z"/><path class="cls-4" d="M826.24,438.3l-4.19,0,3.76-.23Z"/><path class="cls-20" d="M805.94,335.33c1.37-4.26,7.06-11.84,16.76-9.59,1.35,7.11.81,21.59-5.49,30.82C813.43,347.41,810.29,341.21,805.94,335.33Z"/><path class="cls-20" d="M823.05,325.24s3.44-4.33,8.79-4.07c1.16,1.31,3.18,6.74-2.17,18.45C827.75,334.3,826.47,329,823.05,325.24Z"/><path class="cls-20" d="M832.38,321.37s6.3-1.58,9.83,1.53c.43,1.87.63,9.67-3.36,15.61C836.93,333.45,837.31,330.67,832.38,321.37Z"/><path class="cls-20" d="M843.39,324.28c-.12-.91,4.22-.29,5.06.92,0,2.91-1,9.55-2.73,12.95C844.45,330.83,843.93,328.43,843.39,324.28Z"/><path class="cls-13" d="M816.64,481.09h0s17.93,5.58,27.45.2c8.21-4.64,11-7.09,11-6.93s-10.11,18.38-15.19,19.4-33.23,2.82-32,.09S816.64,481.09,816.64,481.09Z"/><path class="cls-21" d="M809.15,335.13c.3-.69,2.61-9.18,11-7.82,1.25,3.82,2.52,10.64-2.81,24.88A106.15,106.15,0,0,0,809.15,335.13Z"/><path class="cls-21" d="M824.7,325.4c.53-1.08,3.94-3.66,6.86-3.17.84,3.33,1.36,5.28-1.83,14.85C828.47,331.69,826.4,327.35,824.7,325.4Z"/><path class="cls-21" d="M834.13,322.21s4.81-1.27,7.24,1.19A30.79,30.79,0,0,1,839.1,336C837.82,331.23,837.11,327.5,834.13,322.21Z"/><path class="cls-21" d="M844.43,325a4.74,4.74,0,0,1,3.29.59,43.54,43.54,0,0,1-1.68,8.57A80.34,80.34,0,0,1,844.43,325Z"/><path class="cls-20" d="M849.85,325.71s5.66.58,11.3,6.14c.73,4.91-.59,15.6-13,25.91C849.33,346.21,851.68,335.94,849.85,325.71Z"/><path class="cls-21" d="M851.8,327.86s5.77,1.35,8.35,5.19c.49,5.31-5.68,17.27-10,20.46C852.19,345.11,852.71,333.79,851.8,327.86Z"/><path class="cls-14" d="M805.48,435.8s6.21,1,8,.22a6.07,6.07,0,0,0,2.66-2.14s6.6,3.17,13.06,1.12c2.34-.33,6.41,1.14,10.12,1s7.08-1.8,8.74-2a70.88,70.88,0,0,1,12.42-.47,9.56,9.56,0,0,0,0,3.08l-28.72,4.53-23.42-2C807.69,439.07,805.48,435.8,805.48,435.8Z"/><path class="cls-20" d="M815.6,434.6c2.87,3.83,9.59,3.36,14.8.42-1.07-8.41-2.61-14.76-11.28-25.55C818.3,420.31,818.2,426.88,815.6,434.6Z"/><path class="cls-21" d="M817.55,434.42c3,1.21,7.58,2.12,11.5.15a44.33,44.33,0,0,0-8.91-21.38A84.92,84.92,0,0,1,817.55,434.42Z"/><path class="cls-20" d="M847.09,434.48a21.17,21.17,0,0,0,13.18.34c1.57-6.56-1.55-20.44-6.66-30C852.72,411.77,849.83,428.06,847.09,434.48Z"/><path class="cls-21" d="M849.34,433.74s6.37,1.88,9.89-.19c1.15-5.12-3-21.19-5-24.85C853.83,417.32,850.29,430.17,849.34,433.74Z"/><path class="cls-22" d="M857,451.59h0c-10.82,11.61-27.2,11.42-48,2.28,0,0-6.16,2.79-21.42,23.06a181.21,181.21,0,0,1-5-30.3s-4.43-.85-17.65,6.78c-1.53-18.15,1.42-35.91,1.46-41.84-1.61-.61-15.5,3.89-25.71,12.26,1.06-6.79,4.26-21.92,9.66-32.37-3.47-1-12.86-2.05-26.9,4.09,2.89-6.15,8.52-19.18,22.36-31.26-2.06-.89-13.06-2.55-13.06-2.55a281,281,0,0,1,25.17-14c3.19-13.33,12.2-33.45,16.07-41.79h0a120.53,120.53,0,0,1,25.38-19l1.16-.68c.77-.44,1.51-.85,2.18-1.25.58,9.54,6.14,23.1,9.3,27.39a42.44,42.44,0,0,0-6.44,3.66c-8.81,6.17-14.3,19.55-17.54,33.55h0s-2.83,15.27-3.43,22.14v0a117.14,117.14,0,0,0-.35,19.48c-.83,4.9,11.41,36.13,20.53,46.46a11.17,11.17,0,0,0,3.71,3c6.4,2.7,37.7,1.15,49.2-2.9A102.87,102.87,0,0,1,857,451.59Z"/><path class="cls-15" d="M701.7,447.28s-6.6,45.58-1.1,65.44a580.72,580.72,0,0,1,15-69.16Z"/><path class="cls-15" d="M733,474.91s-.19,25.09,9.42,58.83c2.44-14.7,3-48.4,2.85-51.64s.25-13.64.25-13.64Z"/><path class="cls-15" d="M768.1,491.39s7.38,19.13,15.75,28.57l-7.74-33.6Z"/><path class="cls-14" d="M860.3,319.35c.05.75.27,4,.39,5.4-17.34-21.39-41.38-12.81-52.67-7.26-4.46,2.2-9.71,9-13.95,20-.49,1.27-1,2.6-1.42,4-.75,2.24-1.46,4.63-2.11,7.17-.72,2.8-1.37,5.78-1.94,8.92a170.44,170.44,0,0,0-2.48,33.65l-1.83.08a117.14,117.14,0,0,1,.35-19.48v0a164.69,164.69,0,0,1,3.42-22.12,0,0,0,0,0,0,0h0c3.24-14,8.73-27.38,17.54-33.55a42.44,42.44,0,0,1,6.44-3.66,55,55,0,0,1,11-3.79c8.95-2,19.28-1.94,28.38,3.26.65.37,1.3.77,1.94,1.2s1,.69,1.5,1.06a33.27,33.27,0,0,1,3,2.55h0a33.34,33.34,0,0,1,2.4,2.48,0,0,0,0,0,0,0Z"/><path class="cls-23" d="M843,477.83l-1.18.65c-5.21,2.22-17.75,4.17-25.18,2.61-6.95.83-19.93,18.88-32.79,38.87-5.23-10.88-8.73-19.2-10.54-31.21-6.31,4.43-21.08,30.19-30.89,45-1.45-8-3.57-43.57-1.12-61.5-10.66,4.78-33.23,32.23-40.7,40.48-3.32-23.4,1.34-48.6,10.36-66.67-5.25,1-30.61,13.61-37.87,23.65.52-43.33,26.29-75.18,30.78-83.17-5.65-.48-21.79,4.29-30.46,7.7,12.65-31.28,51.75-44.85,72.77-54.56a162.19,162.19,0,0,1,8.48-15.31c1.58-2.5,3.24-5,5-7.41,1.36-1.9,2.78-3.77,4.24-5.6h0c1.75-2.19,3.56-4.32,5.45-6.36q2.34-2.55,4.83-4.91v0h0l.11-.1.26-.25h0A79,79,0,0,1,792,287.06a60.44,60.44,0,0,1,8.65-3.72H801l2.5,0h2.13c-.8.49-1.74,1.05-2.83,1.67-.67.4-1.41.81-2.18,1.25l-1.16.68A120.53,120.53,0,0,0,774,306h0a100.4,100.4,0,0,0-23.37,36.66c-24.13,11.92-54,25.71-66.1,42.45,11.38-4.64,26.08-5.59,30.26-4.51-11.8,13.13-29.88,47-33.32,73.23,8.46-7.54,23.07-11.69,40.58-18.72-4.16,9.84-17.51,45.35-14.7,62.35,13.52-16.62,29.1-31.48,42.21-35.09-1.74,14.78-4.83,37.83-2.67,57,10.31-19.26,22.55-37.26,32.2-43.09-.94,7,3.37,25.37,6.51,33.34,7.42-14.54,22-28,29.55-33.49C821.51,476.89,829.78,480.69,843,477.83Z"/><path class="cls-14" d="M860.53,436.62c-.71.45-.29,1.19-.92,2.22-3.47,5.71-32.68,14.89-51.08,2-15.54-10.91-25.07-44.59-24.24-49.49l1.83-.08c3.62,17.75,15.51,38.52,21.59,44.87a6.23,6.23,0,0,0,2.61,1.92h.06c2.73.21,5.38.37,7.93.48h0c16.26.71,28.69-.46,36-2.2,1-.23,1.89-.48,2.69-.73q.78-.26,1.44-.51l.38.18A5.52,5.52,0,0,1,860,436h0A1.6,1.6,0,0,1,860.53,436.62Z"/><path class="cls-24" d="M893.7,527.78C845.47,542.84,775,604.11,758.87,640.18c0,0-67.61,1.89-129.51-.07-33-59.74-41.69-145.63-18.76-194.51,7-11.75,22.21-16.29,35.81-17.87-35.35,38.61-46.81,79.57-45.58,97.45,1.91-2.87,18.57-16.48,32.8-27.58-9.79,17.41-15.85,51.29-13.37,55.53,2-3.62,12.36-13.42,18.41-17.64-2.81,10.66-8,50,1.54,81.44,4.45-16,15.94-28.26,25.89-44.71-1.43,9.55,8.58,32.5,18.28,43.77,1.59-7.45,21.27-35.15,28.12-43.1-1.94,10,9,36.25,22.11,43.39,1.39-7,4.65-14.77,16.62-38.88,2,5.55,7.92,12.7,13.15,19.79,2.89-11.49,13.86-29.79,23.62-40.33-.08,3.67,1.48,14,6.89,25.6,4-12.45,20.23-32.63,32.3-46.29.17.84,3.27,7.51,8.45,13.41,2.33-5,21.76-35.23,27.43-41.86,2.36,5.06,12.21,14.44,12.39,14.46s3.92-8.78,5.09-11.52C885,516.81,889.48,522.76,893.7,527.78Z"/><path class="cls-25" d="M810.69,334.79c-.31-.34,1.39-3.16,2.58-3.79a72.55,72.55,0,0,1,2.92,14.16C814.22,340.29,812.41,336.66,810.69,334.79Z"/><path class="cls-25" d="M826.13,325.33s.92-1.13,1.37-1.13a19.31,19.31,0,0,1,2.07,8.75C828.45,329,827.73,327.27,826.13,325.33Z"/><path class="cls-25" d="M835.37,322.6a2.76,2.76,0,0,1,1.49,0,12.18,12.18,0,0,1,1.69,7.91C837.4,325.83,836.14,323.69,835.37,322.6Z"/><path class="cls-25" d="M845,325.38a1.38,1.38,0,0,1,.78,0,37.84,37.84,0,0,1,.13,6C845.47,328.77,845.08,326,845,325.38Z"/><path class="cls-25" d="M852.91,329a9.33,9.33,0,0,1,3.15,1.7c.35,1.49-.89,11.44-3.61,16.11C853.63,340.35,854.08,334.79,852.91,329Z"/><path class="cls-25" d="M819.29,433.61a16.25,16.25,0,0,0,3.63.58c.21-3.67-.54-9.74-1.79-12.77A48.64,48.64,0,0,1,819.29,433.61Z"/><path class="cls-25" d="M854.2,419.68s-1.75,10.64-2.92,12.85a7.51,7.51,0,0,0,4.56.17C856.53,431.58,855.05,422.75,854.2,419.68Z"/><path class="cls-2" d="M823.8,309.64l-3.18.79c-3.79.9-5.72,1.42-6.78,1.73l0,0-1.09.34-.07,0-.12,0-.2.06-.09,0a.07.07,0,0,1,0,0l-.15-.19c-3.16-4.29-8.72-17.85-9.3-27.39a0,0,0,0,0,0,0c.06-.14.3-.74.69-1.65h0a131.59,131.59,0,0,1,6.65-13.9h0s-.27,20.74,13,39.2Z"/><path class="cls-14" d="M857.31,319.79s1.47,3.63.43,9.78a9.45,9.45,0,0,0,3.41,2.28l-.83-11.5Z"/><path class="cls-14" d="M860.53,427.61a45,45,0,0,0,1.71,7.13l-4.82,1.49,2.26-2.25s.11-1.26.15-1.61S860.53,427.61,860.53,427.61Z"/><text class="cls-26" transform="translate(297.93 814.22)">C<tspan class="cls-27" x="86.91" y="0">OMP</tspan><tspan class="cls-28" x="408.21" y="0">BEAST</tspan></text></svg>