<svg id="Layer_1" data-name="Layer 1" xmlns="http://www.w3.org/2000/svg" viewBox="0 0 2000 2000"><defs><style>.cls-1{fill:#1a1a1a;}.cls-2{fill:#ff0;}.cls-3{fill:red;}.cls-4{fill:#fff;}</style></defs><title>Untitled-1</title><rect class="cls-1" width="2000" height="2000"/><path class="cls-2" d="M1390,1291.25a131,131,0,0,0,22.28-32.5Q1401.72,1275.51,1390,1291.25Z" transform="translate(0)"/><path class="cls-3" d="M454.74,975.79,460,964c17.1-38.49,42.51-70.34,70.93-96.48A488.15,488.15,0,0,1,697.9,618c3.07-22.06,10.74-56.47,30.38-91C571.17,617.37,463.14,783.83,454.74,975.79Zm454.62,503c-225.63-42.44-396.77-241-396.77-478.71,0-5,.08-9.86.22-14.76-5.11,3.36-10.08,6.72-14.82,10l-43.25,30.16c13.15,286,247.54,515.24,535.69,520.06Q943.44,1513.52,909.36,1478.75ZM999.71,454.49a541.49,541.49,0,0,0-149.3,20.82c2.48,4.82,4.46,9.49,6.28,13.8.73,1.68,1.46,3.43,2.19,5.11a305.47,305.47,0,0,0,18.56,34.19,488.93,488.93,0,0,1,122.27-15.49c237.82,0,436.35,171.28,478.71,397a165.07,165.07,0,0,1,20.89,13.74v.07c24.69,19.5,42.07,55.87,42.29,88.38.22,35.2-8.25,65-25.12,88.45-14.1,19.5-31.63,34.33-51.42,43.61a480.94,480.94,0,0,1-52.81,114.6q-10.53,16.76-22.28,32.5l-.07.08C1306.34,1403,1176,1477.8,1028.19,1486.27c2.71,8,5.77,16.07,9.06,24.4l7,18-13.14,15.93c286.32-16.29,514.14-254.26,514.14-544.6C1545.26,699.18,1300.57,454.49,999.71,454.49Z" transform="translate(0)"/><path class="cls-4" d="M1483.47,943.72c-23.4-18.51-70.36-36.35-98.66-45.83-43-14.45-89.93-25.66-133-40.11-3.24-15.28-3.84-31.08-8.2-46.06-10.84-37-43.5-64.11-78.87-79.61-42.37-18.59-88.57-23-132.22-37a292.47,292.47,0,0,1-109.19-64.35,288,288,0,0,1-47-56.66c-14.44-22.73-29.72-44.85-40.78-69.61-5.2-11.74-9.41-24.38-19.49-33.11-94.45,58.17-94.45,170.3-94.45,170.3s37.33-79.32,84.06-92.42l111.07,185.8S798.44,768.6,712.27,857.78c0,0,10.91-50,20.24-70.29,0,0-186.85,46.74-249.16,186.86,0,0,82.55-57.57,117.85-56.52,0,0-100.69,84.06-7.3,252.18,0,0,63.36-111.08,178.57-142.16,0,0-130.79,113.11-16.63,351.81,0,0-68.48-238.7,175.95-413.06-36-24.54-75-41.77-118.23-46.89,49.44-22.35,102.12-39.43,156.08-33.64,31.75,3.47,61.93,14.83,92.11,25.21s61.18,20.1,93.09,19.87,65.17-11.66,84.73-36.8c44.18,12.42,81.43,27.39,124.55,43.2,21.29,7.82,43.72,16.55,61.63,30.55s35.07,33.41,36,56.07c-3.46-4.29-31.16-21.3-34.92-23.11-19.87-9.63-40.11-14.6-61.41-20.62-43.42-12.19-89.25-12.79-133.87-8.28-87.22,8.81-178.13,44.7-218.62,127.93a197.16,197.16,0,0,0-15.65,45.61c-10-11.44-45.75-60.73,4.44-134.4-7.22,5.56-352.19,276.93,9.41,517.36L1015,1524l-1.51-3.84c-28-70.29-34-120.48-30.78-155.77-2.11-68,12.42-144.79,70.36-203.11,0,0-23.17,55.76-26.64,123.41l51.18-27.46c125.59-54,215.9,11.43,223.65,23.85s2.26,34.62,2.26,34.62c73.14-24.91,100.91-79,90.75-111.83-10.83,22.65-38.45,35.75-62.76,29.8-29.42-7.15-57.64-24.91-82.48-41.61-28.29-19.12-57.19-40.49-68.55-74-3.39-10-5.5-20.92-3.09-31.23,2-8.66,7.08-16.41,13-23,26.27-29.5,67.58-35.37,105.06-37.33,31.6-1.58,70.74-2.33,99.86,12.19,23.18,11.67,54.11,23.11,58.39,50.87,2.34,15-4.66,31.84-18.43,38.16,25.13-5.87,45.3-21.15,60.43-42.07,15.27-21.22,20.47-47.33,20.31-73.3C1515.9,988.34,1502.58,958.84,1483.47,943.72Zm-351.59-74.88s-64.73-47.7-119.23-45c0,0,56.81-55.75,144.07-7.09l-43,11.89,67,.82Z" transform="translate(0)"/></svg>