<svg id="Layer_1" data-name="Layer 1" xmlns="http://www.w3.org/2000/svg" viewBox="0 0 2000 2000"><defs><style>.cls-1{fill:#1a1a1a;}.cls-2{fill:#ff0;}.cls-3{fill:#f33535;}.cls-4{fill:#fff;}.cls-5{fill:red;}</style></defs><title>Untitled-1</title><rect class="cls-1" width="2000" height="2000"/><path class="cls-2" d="M574.2,1118.86a53.65,53.65,0,0,0,9.09-13.26Q579,1112.44,574.2,1118.86Z" transform="translate(0)"/><path class="cls-3" d="M1292.91,1072.49c-1.72-6.82-2.19-133.74-.67-144.24a27.1,27.1,0,0,1,5.32-1c17.5-.09,35-.42,52.51,0,13.73.37,25.34,5.57,32.23,18.31,8.83,16.35,4.35,36.32-11.52,49.66,11,4.13,17.45,12.36,21.32,22.67,8.05,21.43-4.21,51.67-33.73,54.22C1336.84,1074,1315,1072.49,1292.91,1072.49Zm19.51-18.61c14.34,0,27.56.14,40.77-.08a18.76,18.76,0,0,0,12.21-5.16c7.61-6.79,10.18-17,6.64-27-3.69-10.36-11.4-16.29-22.15-16.57-9-.22-18-.06-27.05-.07h-10.42Zm-.13-66.37c12.81,0,24.63,0,36.45-.06a14.07,14.07,0,0,0,4.86-1.21c8.72-3.44,12.82-11.2,12.15-22.79-.48-8.32-4.5-13.83-12.36-16.21a38.15,38.15,0,0,0-10-1.65c-8.73-.23-17.47-.13-26.21,0a27,27,0,0,0-4.94,1Z" transform="translate(0)"/><path class="cls-4" d="M1060,1072.27h-18.58c-.14-3.47-.34-6.48-.38-9.5-.27-16.93-.39-33.86-.82-50.78a23.21,23.21,0,0,0-2.16-9c-5.08-10.87-15.59-14.73-27.85-10.55-10.66,3.62-17.25,12.21-17.4,23.49-.21,15.81-.06,31.62-.06,47.44v8.81H974c-2.08-7.69-1.95-90.77.13-97.7h18c.35,3.66.68,7.14,1,10.82,14.54-16.47,46.57-19.82,63.58,5.45,1.2-1.94,2.09-3.65,3.22-5.18,8.2-11.13,19.91-14.25,32.86-13.61,23.47,1.16,33.31,15.63,35.09,37.78.9,11.23.42,22.57.49,33.86.06,9.27,0,18.54,0,27.92-6.76,2.19-12.82.84-19.77,1-.21-3.69-.51-6.68-.52-9.67-.06-16.38,0-32.75-.08-49.13,0-9.1-3-16.83-11.9-20.67-10-4.32-26-2.47-31.91,10.8a45,45,0,0,0-3.68,16.28c-.5,14.39-.15,28.8-.19,43.2C1060.4,1066.13,1060.18,1068.88,1060,1072.27Z" transform="translate(0)"/><path class="cls-4" d="M1179.33,1060.82v58.6c-6.66,1.79-12.93,1.26-19.14.51-1.67-8.18-1.46-138.47.29-145.3h18.39c.22,3.84.46,7.87.71,12.2,17.2-16.64,40.92-19.76,59.85-7.75,11.43,7.25,19.24,17.49,21.84,31,3.73,19.33.9,36.93-13.85,51.56-16.54,16.43-48.6,18-64.82,1.66A31.82,31.82,0,0,0,1179.33,1060.82Zm62.91-36.7c1.87-19.65-15.32-33-30.54-33.15-17.5-.16-32.71,14.6-32.62,32.64.08,17.47,13.13,31.88,32.22,31.94C1231,1055.6,1243.63,1041.15,1242.24,1024.12Z" transform="translate(0)"/><path class="cls-4" d="M830.42,950.6l-13.76,11.74c-2.23-1.76-4.45-3.35-6.49-5.14-25.44-22.4-74-14.64-85.36,26.93-4.49,16.46-2.79,32.62,6.68,47.16,19.29,29.6,58.69,30.72,80.39,10.38,1.43-1.33,2.92-2.6,5-4.41L830.65,1049c-12.4,19.49-44.52,31.41-74.36,23.35s-52.9-36.47-53.83-68.44c-1-34.7,18.64-63.94,50.78-75C782.08,918.89,817,930.33,830.42,950.6Z" transform="translate(0)"/><path class="cls-3" d="M1633.77,1072.4H1617c-.44-3.82-.84-7.34-1.37-12-7.8,6.64-15.62,12.18-25.24,13.56s-19.16,1.33-28.28-2.82c-8.9-4.05-16.51-9.64-22.1-17.82-12.19-17.85-12.74-51.13,8.32-69.74,13.63-12,45.34-18.74,67.3,2.2.44-3.9.81-7.27,1.22-11a35.07,35.07,0,0,1,4.37-.66c4.2-.08,8.41,0,11.74,0,1,.93,1.25,1.1,1.43,1.31s.41.46.42.7q.23,43.2.41,86.41c0,2.53-.12,5.07-.28,7.6C1634.92,1070.64,1634.46,1071.11,1633.77,1072.4Zm-18.45-49c1.4-21.21-17.12-33.3-34-32.2-18,1.16-30.14,14.47-29.71,33.27.39,17,13.1,31.62,33,31.11C1603.19,1055.08,1615.86,1041.66,1615.32,1023.37Z" transform="translate(0)"/><path class="cls-3" d="M1512.85,1030.72h-77.29c-.84,10.61,5.07,19.06,16,23.76,14.17,6.1,29.84,1.83,42.3-12l15.57,5.65c-1.4,6.85-5.74,11.26-10.48,15.11-19.35,15.77-52.64,16.55-71.73-4.08a44,44,0,0,1-10.52-18.12c-4.73-17.07-3.93-33.65,6.37-48.68,9.69-14.15,24-20.27,40.63-20.52,18.84-.28,34,7.18,43.66,24C1513.31,1006.18,1514.15,1017.64,1512.85,1030.72Zm-78.38-16.4c9.07,1.59,53.42,1.26,59.24-.44-3.08-16.15-13.62-24.63-30.2-24.31C1447.77,989.88,1436.71,999.31,1434.47,1014.32Z" transform="translate(0)"/><path class="cls-4" d="M948.53,1022.91c2.05,28.12-23.89,53.18-53.34,51.92-28.46-1.21-50.28-22.67-50.15-51.87s20.27-50.94,52.33-51.23C927.08,971.46,948.58,993.41,948.53,1022.91ZM896.78,991.3c-14.77-1.55-32.8,10.7-32.34,32.47.44,20.8,16.24,32,32.38,32.1,18.48.06,32.33-14.21,32.34-33C929.17,1004.49,915.54,991.22,896.78,991.3Z" transform="translate(0)"/><path class="cls-3" d="M1730.87,999.29h-17.22a7.15,7.15,0,0,1-1.67-2c-3.64-8.5-13.52-9.65-21.13-7.31a11.14,11.14,0,0,0-8.29,10.57c-.27,5.36,2.64,8.61,7.24,10.2,5.31,1.84,10.9,2.83,16.23,4.62,5.57,1.87,11.37,3.58,16.39,6.52,18.1,10.62,14,36,1.86,44.68-12.51,8.93-39,12.66-54.39-1.55-6-5.55-10-12-9.54-21.24,3-.19,5.71-.43,8.44-.52,2.51-.08,5,0,7.78,0,2.86,6.09,6.71,10.68,13.07,12.71,5.86,1.87,11.65,2.1,17.4-.12,5-1.95,8.93-7,8.72-11.42-.24-5.16-3.52-8.25-8-10-3.91-1.53-8.06-2.43-12.09-3.68-5.9-1.82-12-3.31-17.65-5.64-18.78-7.67-20.14-32.62-6.61-44.2A36.87,36.87,0,0,1,1698,972a54.59,54.59,0,0,1,15.67,3C1724.38,978.8,1730,987.1,1730.87,999.29Z" transform="translate(0)"/><path class="cls-3" d="M1786.75,1072.17H1768.3c-2-6.69-.78-13.45-1-20.1s0-13.56,0-20.33V991.42l-17-1V974.6l16.86-1V937.83a46.26,46.26,0,0,1,19.91,0v36.31h20.41v16.12l-19.84,1.14c-.15,3.29-.4,6.29-.41,9.3,0,20.61,0,41.22,0,61.83C1787.18,1065.55,1786.92,1068.57,1786.75,1072.17Z" transform="translate(0)"/><path class="cls-5" d="M192.53,990.12l2.15-4.83c7-15.71,17.35-28.71,28.94-39.38a199.22,199.22,0,0,1,68.14-101.82A105.77,105.77,0,0,1,304.16,807C240.05,843.85,196,911.78,192.53,990.12Zm185.53,205.26C286,1178.06,216.14,1097,216.14,1000c0-2,0-4,.09-6-2.09,1.37-4.11,2.75-6,4.09l-17.65,12.31c5.37,116.73,101,210.27,218.62,212.23A217.62,217.62,0,0,1,378.06,1195.38Zm36.87-418A221.26,221.26,0,0,0,354,785.87c1,2,1.82,3.88,2.57,5.64.3.68.59,1.4.89,2.08A125.59,125.59,0,0,0,365,807.54a199.75,199.75,0,0,1,49.9-6.32c97.06,0,178.08,69.9,195.37,162a66.55,66.55,0,0,1,8.52,5.61v0c10.08,8,17.17,22.8,17.26,36.06.09,14.37-3.37,26.53-10.25,36.1a54.78,54.78,0,0,1-21,17.8,196.53,196.53,0,0,1-21.55,46.77q-4.29,6.84-9.09,13.26l0,0a198.57,198.57,0,0,1-147.61,79.56c1.1,3.25,2.35,6.56,3.69,10l2.87,7.36-5.37,6.5C544.6,1215.62,637.57,1118.5,637.57,1000,637.57,877.23,537.71,777.38,414.93,777.38Z" transform="translate(0)"/><path class="cls-4" d="M612.36,977c-9.56-7.55-28.72-14.83-40.27-18.7-17.56-5.9-36.7-10.47-54.26-16.37-1.32-6.24-1.57-12.68-3.35-18.8-4.42-15.11-17.75-26.16-32.19-32.49-17.29-7.58-36.14-9.37-54-15.08a119.31,119.31,0,0,1-44.57-26.26,117,117,0,0,1-19.19-23.12c-5.9-9.28-12.13-18.3-16.65-28.41-2.12-4.79-3.84-9.95-7.95-13.51-38.54,23.74-38.54,69.5-38.54,69.5s15.23-32.37,34.3-37.72l45.33,75.83S332.79,905.57,297.63,942c0,0,4.45-20.42,8.26-28.68,0,0-76.26,19.07-101.68,76.25,0,0,33.69-23.49,48.09-23.06,0,0-41.09,34.3-3,102.91,0,0,25.86-45.33,72.88-58,0,0-53.38,46.16-6.79,143.57,0,0-28-97.41,71.8-168.57-14.71-10-30.59-17-48.24-19.14,20.17-9.12,41.67-16.09,63.69-13.72,13,1.41,25.28,6,37.59,10.29s25,8.19,38,8.1,26.6-4.76,34.58-15c18,5.06,33.23,11.17,50.83,17.62,8.69,3.2,17.84,6.76,25.15,12.47s14.31,13.64,14.71,22.88c-1.41-1.75-12.71-8.69-14.25-9.43-8.11-3.93-16.37-5.95-25.06-8.41-17.72-5-36.42-5.22-54.63-3.38-35.6,3.59-72.7,18.24-89.22,52.21a80.18,80.18,0,0,0-6.39,18.61c-4.08-4.67-18.67-24.78,1.81-54.85-2.94,2.27-143.72,113,3.84,211.14l1.57-1.91s-.22-.55-.61-1.56c-11.43-28.69-13.89-49.17-12.57-63.57-.86-27.74,5.07-59.09,28.72-82.89a168.71,168.71,0,0,0-10.87,50.36L446.73,1105c51.26-22,88.11,4.67,91.27,9.74s.93,14.13.93,14.13c29.85-10.17,41.18-32.25,37-45.64-4.42,9.24-15.69,14.59-25.61,12.16-12-2.92-23.52-10.16-33.66-17-11.55-7.8-23.34-16.52-28-30.22-1.38-4.09-2.24-8.54-1.26-12.75a21.89,21.89,0,0,1,5.32-9.39c10.71-12,27.58-14.44,42.87-15.24,12.9-.64,28.87-.95,40.75,5,9.46,4.76,22.08,9.43,23.83,20.76,1,6.11-1.9,13-7.52,15.57,10.26-2.4,18.49-8.63,24.66-17.17s8.36-19.32,8.29-29.91C625.59,995.24,620.16,983.2,612.36,977ZM468.87,946.47S442.45,927,420.21,928.12c0,0,23.19-22.75,58.8-2.9l-17.54,4.85,27.37.34Z" transform="translate(0)"/></svg>