<svg id="SvgjsSvg1001" width="288" height="288" xmlns="http://www.w3.org/2000/svg" version="1.1" xmlns:xlink="http://www.w3.org/1999/xlink" xmlns:svgjs="http://svgjs.com/svgjs"><defs id="SvgjsDefs1002"></defs><g id="SvgjsG1008" transform="matrix(1,0,0,1,0,0)"><svg xmlns="http://www.w3.org/2000/svg" enable-background="new 0 0 268.4 118.6" viewBox="0 0 268.4 118.6" width="288" height="288"><path d="M0 56.1h.3c.4.1.6.3.6.7v.9H.3C.3 57 .2 56.4 0 56.1zM18.1 0h.3c.2 0 .8 1 1.8 3.1v.7c0 .2-.1.3-.3.3.4 1 .7 2.8.7 5.4v7.7h.6l-.6 1v.2c0 .2.1.3.3.3l-.3.6v.3l.9 1.2c-.4.2-.7.3-.9.3v.6l.6.9h-.6V23c.8 0 1.2.7 1.2 2.1.2 0 .2.2.2.6-.2 0-.2.1-.2.3l-.7-.3h-.2c0 .4.3.7.9.7v1.8l.6.9c-.2 0-.3.1-.3.3l1.6.9c0-.2.1-.3.3-.3v1.2l.6.3c0-.3.2-.7.7-1.2-.2 0-.3-.1-.3-.3l.6-.2.3.6v.3l-.3.6c.2 0 .3.1.3.3l-1.8 1.2c.2.3.2.7.2 1.2h.7v-.7h.3c.5.4 1 .7 1.5.7v.2c-1 0-1.5.2-1.5.7.4.1.6.2.6.6v.7c-.4 0-.6.2-.6.6h-.3v-1.5h-.3c0 .6-.1.9-.3.9.2.4.3.7.3.9 0 1-.3 1.5-.9 1.5 0 .3.5.7 1.6 1.2h.6c-.6-.7-.9-1.2-.9-1.5.4-.7.6-1.2.6-1.6H27v.9l-.7-.2h-.6v1.2c.8.1 1.2.4 1.2 1-.7 0-1.1.7-1.2 2.1l.6.2-.2 1.6.2 1.5h-.2l.2.7c0 .4-.2.6-.6.6l.3.7v.2l-.3.7c.6 0 .9.2.9.6-.4.1-.6.3-.6.7v2.7l1.2.3c0-.2.1-.3.2-.3l-.2-.6v-.3l.2-.6h-.2c-.4.2-.8.2-1 .2v-.2c.5-1 1-1.6 1.2-1.6L27 45c.5 0 1-.3 1.5-.9v.7l-.6.9c.4.1.6.2.6.6-.4.1-.6.3-.6.7 0 .4.2 1.1.6 2.1-.2.6-.4.9-.6.9.2 2 .7 3.1 1.6 3.1l.6-.3.6.3c.4-.2.8-.3 1-.3v.3l.6-.3h.3v.7l3.4-.7.6.3c.4-.2.7-.3.9-.3v.3c1.4-.4 2.1-1 2.1-1.6-.2-.4-.2-.7-.2-.9l.2-1.2-.2-1.8h.2l-.2-.6v-.7c.1-.4.2-.6.6-.6l.6.3v-1.2l-.2-.7h.6v-1.5h-.6c0 .6-.2.9-.7.9v-.7c0-.2.1-.2.3-.2L39.5 42c0-2.4.2-4 .7-4.9-.2-.4-.3-.8-.3-1.2l.6-.3L40.2 35c0-.1.1-1.4.2-4l-.2-1.6.6-.3-.3-.6c0-.2.1-.5.3-.9l-.3-1.6c.2-.3.3-.7.3-1.2h-.6v-.9h.6v-2.5c0-.2.1-.2.3-.2 0-.2-.1-.3-.3-.3.4-2.6.7-4 .9-4l-.2-.7c.9-5.1 1.8-7.7 2.7-7.7l-.6-.9c.2-1.4.5-2.1.9-2.1v1.8L44.1 8l.6.3c-.2 2.1-.4 3.3-.6 3.6v.3h.3l2.4-10.7-.2-.7V.7h.6c.4 0 .7.3.7.9-.2 1-.3 1.7-.3 1.8L47.9 4c-.4 1-.7 1.8-.7 2.4v.7h.3c.7-4.5 1.2-6.8 1.5-6.8h.7c.4.1.6.2.6.6-.4 2.1-.6 3.4-.6 4v.2H50c.2-1.4.5-2.1.9-2.1l.6.3c0-.2.1-.3.3-.3l.3.7c0 .4-.1.9-.3 1.2.2.3.3 1 .3 2.1h.2c.4-2.7.9-4 1.2-4H54c-.3 1.9-.5 3.2-.7 3.7H54c0-.5.1-1.3.3-2.5h.2l.7.3.2-2.1h.7c0 1-.2 1.6-.7 1.6 0 .2.1.2.3.2l-.6 5v.9h.2c0-2 .4-3.1 1.2-3.1 0-.2-.1-.3-.2-.3C56.8 5.9 57 5.3 57 5h.9L57.6 8c.4 0 .9.3 1.6.9h.3c.1-1.8.7-2.7 1.8-2.7l.3.6v3.7h.6c0-.7-.1-1-.3-1L62.2 8V6.8h.7c0 1.2.5 1.8 1.5 1.8 0-1.2.2-1.8.7-1.8 0 1.4.4 2.1 1.2 2.1 0 .4-.2.6-.6.6 0-.2-.1-.2-.3-.2 0 .4.2 1.1.7 2.1l-.7 1.2h1.2c0-.4-.2-1-.6-1.9l.9-.6.6 2.7c0 .2-.1.3-.2.3l.2 1.6v2.1h.7v.6c-.2 0-.3-.1-.3-.3l-.6.3h-.3c-.2-1-.3-2.3-.3-4-.4 0-.6.3-.6.9.2 1.4.2 2.3.2 2.5-.2 0-.2.1-.2.2.4.1.6.3.6.7l-.3.6h.3l.7-.2c.3.6.6 1.8.9 3.6-.3.2-.9.3-1.6.3l.3 1.5v2.1c0 .2-.1.3-.3.3l.7 1.2c-.4 1-.7 1.9-.7 2.5.4.1.7.2.7.6-.4.1-.7.3-.7.7.4.1.7.2.7.6v.6c-.6-.6-1.1-.9-1.6-.9l.6-3.6c-.3-.1-.7-.6-1.2-1.6v-.3h.2c.4.2.7.3.9.3l-.2-.6v-.3l.2-.6c-1.2-.7-1.9-1-2.1-1h-.2v.3c.6 0 .9.2.9.7v2.7l.6.9c-.4.2-.7.3-.9.3l.3.6v.3L64.4 30c.4.1.7.3.7.7 0 .2-.1.3-.3.3 0 .2.1.2.3.2l-.3 1.6.3 1.5-.7.3c.1 1.4.5 2.1 1.2 2.1 0 .6-.4.9-1.2.9v1.2H65l.6-.3v1H64l-.6-2.1c.3 0 .6-.3.9-1h-.6c-1 .5-1.6 1-1.6 1.2.6 0 .9.7.9 2.1h-.2c.2.3.2 1 .2 1.9h.3v-2.1h.3c0 .4.2.6.6.6v.6l-.6 1c.3.2.8.2 1.5.2v.3c-.5 0-1 .2-1.5.6h-.3v-.6h-.6c0 .6-.1.9-.3.9 0 .4.6.9 1.8 1.6V45H64l.3.7V46c0 .4-.2.6-.6.6L63.4 46h.3l-.7-1.2c-.6.2-.9.4-.9.6.2.4.3.7.3.9-.2 0-.3-.1-.3-.2-.9.4-1.4.8-1.5 1.2.2 0 .2.1.2.3-.4.1-.6.3-.6.7v.6H61v-1.2h.7c0 .4.6 1.2 1.8 2.5-.4.1-.6.2-.6.6l1.5.3c0-1.2.2-1.8.7-1.8h.2v2.1h.9c0 .4-.2.6-.6.6 0-.2-.1-.3-.3-.3 0 .4.2 1.2.7 2.1l-.7 1.2h1.2c0-.3-.2-.9-.6-1.8l.9-.6c.2.4.4 1.3.6 2.7 0 .2-.1.3-.2.3l.2 1.5v2.1c.6 0 .9.2.9.7l-.6.9h.6l1.6-1.2h.3v.6c0 .2-.1.3-.3.3.2.4.3.7.3.9h.2l.3-1.2h.7v.7l-.7.9c.4.1.7.2.7.6 0 .2-.1.3-.3.3l.3.7L69.9 65l.6.3c0-.2.1-.3.3-.3.2.3.3.9.3 1.8l.9-.6v.2c0 .4-.7.8-2.1 1.2l-1.2-.6c0 .4-.2.6-.6.6h-.3l-.6-.2c-.2.6-.4.9-.7.9l.7 1.2.6-.3c1.3.4 2 .6 2.1.6l.6-.9c.4.2.9.3 1.6.3v.6h-.6l.2.7v.2h-.2l-1-.6h-.2v.3l.6 1.2L70.2 72c-.4 0-.7-.2-.7-.6 0-.2.1-.3.3-.3-.2-.4-.3-.7-.3-.9h-.2c0 .7-.1 1.2-.3 1.6.2 0 .3.1.3.2l-.7.3h-.3l-1.2-1.2v.3c.2.3.2.8.2 1.5l-.6.3.3.7v.6c-1.3-.5-1.9-1-1.9-1.2.4 0 .7-.2.7-.6v-.3h-.3c-.2 0-.5.3-.9.9 0 .2.1.3.3.3l-.3 1.5.3 1.6c-.4.1-.7.2-.7.6h.9c0-.6.4-.9 1.2-.9v-.2l-.6-1h.6c.4.2.7.3.9.3v.3C67 76.6 66.5 77 65.9 77v.2c1 .1 1.5.4 1.5 1-.4 0-.6.1-.6.2l-.7-.2c-.3.2-.7.2-1.2.2v.7h.6c0 .6-.4.9-1.2.9v1.2H65l.6-.3v.9H64l-.6-2.1c.3 0 .6-.3.9-.9h-.6c-1 .6-1.6 1-1.6 1.2.6 0 .9.7.9 2.1h-.2c.2.3.2.9.2 1.8h.3v-2.1h.3c0 .4.2.7.6.7v.6L63.8 84c.3.2.8.3 1.5.3v.3c-.5 0-1 .2-1.5.6h-.3v-.6h-.6c0 .6-.1.9-.3.9 0 .4.6.9 1.8 1.5v.3H64l.3.7v.2c0 .4-.2.7-.6.7l-.3-.7h.3L63.1 87c-.6.2-.9.4-.9.7.2.4.3.7.3.9-.2 0-.3-.1-.3-.3-.9.4-1.4.8-1.5 1.2.2 0 .2.1.2.3-.4.1-.6.2-.6.6v1.9c-.6 0-.9.2-.9.6h.2l.7-.3.3.7c-.4 1.6-.9 2.4-1.2 2.4h-.3V96h.6l-.6.9v.7c.6 0 .9.2.9.6-.3 0-.6.3-.9.9v.3c0 .2.1.3.3.3l-.3.6v.3l.6.9h-.6v7.7c0 3.5-.2 5.2-.6 5.2l.2.6v.7c-1 2-1.6 3.1-1.8 3.1h-.3v-1.6l-.2-1.5h-.3c0 .8-.1 1.7-.3 2.5h-.6v-.3c0-.3.1-1.6.2-3.7l-.6.3c0-.4-.2-.6-.6-.6H54l.3.6-.7.3-.3-.7.3-.6c-.1-1-.4-1.6-.9-1.6v-.2l.3-.7h-1.6l.7-.9v-.3h-.3v.7c-.4 0-.7-.2-.7-.7.5-.4.9-.6 1.2-.6v-.3c-.8 0-1.2-.2-1.2-.6v-.7l.3-.6-.6-.3c0-.4.2-1.2.6-2.5-.2 0-.3-.1-.3-.2.2 0 .3-.1.3-.3l-.6-.3h-.3v3.4c0 .2-.1.3-.3.3 0 .2.1.3.3.3l-.3 1.5v1.6c0 .2.1.2.3.2-.2 2.3-.5 3.4-.9 3.4H49c.2-1.8.3-2.9.3-3.4l-.3-.6.3-.6-.3-.7.3-.6-.3-1.9c.2 0 .3-.1.3-.2-.4 0-.6-.2-.6-.7.2 0 .2-.1.2-.2h-1.2v1.8h-.3l-.7-.3-.2.7h.6v.6c-.7.2-1.1.3-1.2.3v-.3c0-.2.1-.3.3-.3L46 107v-.3h.7l-.9-1.5c.4 0 .6-.2.6-.7V104c-.5 0-.8-.6-.9-1.9H45c-.3 1.5-.7 4.8-1.2 9.8 0 .2.1.3.3.3-.2.8-.3 1.5-.3 2.1h-.6v-.9c0-.2.1-.3.3-.3-.2-.4-.3-.7-.3-.9l.3-1.2-.3-.6c.2-.6.4-.9.6-.9l-.2-.7c0-.2.1-.3.2-.3l-.2-.6v-2.5c0-.2.1-.2.2-.2l-.2-.7.2-.6c-.2-.4-.2-.7-.2-.9h.2c0-.2-.1-.3-.2-.3.2-1.9.4-3.2.6-3.7v-.9h.3l-.7-.9c.1-.4.3-.6.7-.6-.4-1-.7-1.8-.7-2.1h.3l-.3-.7c0-.2.1-.3.3-.3l-.3-.6v-.3h.7c-.4-.7-.7-1.5-.7-2.4h.7v-1.2L43.8 88v-.3c.6 0 .9-.3.9-.9h-.2l.2-.7c0-.4-.2-.6-.6-.6 0 .2-.1.3-.3.3l-.2-.7c.8 0 1.2-.2 1.2-.6v-.9c0-.2-.1-.3-.2-.3.2-1.3.4-1.9.6-1.9l-.3-.6c0-.2.1-.3.3-.3L44.7 80v-.3l.3-1.5c-1.1.2-1.9.2-2.5.2.1.4.3.7.7.7.4-.2.7-.3.9-.3l.3.6c0 .6-.2 1.2-.7 1.9.4.1.7.2.7.6-.4.1-.7.3-.7.7l.7.2c-.3.8-.6 1.2-.9 1.2l.2.7c0 .3-.3.6-.9.9v-.7h-.3c0 .6-.3 1.5-.9 2.8.2 0 .3.1.3.3-.6.2-.9.4-.9.6v2.1h.3v-1.8H42v2.4h-.9v1l.6-.3c.4.1.7.2.7.6L42 93.2h.3l.6-.3.3.6v1.2c0 .4-.2.7-.7.7h-.2l.2-.7v-1.2h-.9v.7h-1.2V92c0-.5.1-.9.3-1.2-.4-.8-.6-1.4-.6-1.8h-.3v.9c0 .2.1.3.3.3l-.3 1.5v.7c0 .4.1.8.3 1.2-.2.4-.3.8-.3 1.2h.6v.7c-.4 0-.6.3-.6.9h-.6l.2-1.2-.2-.6c.2-.4.2-.8.2-1.2l-.2-.7c.2-.4.2-.7.2-.9l-.2-1.8h.2l-.2-.7v-.6c.1-.4.2-.6.6-.6l.6.2V87l-.2-.6h.6v-1.6h-.6c0 .7-.2 1-.7 1v-.7c0-.2.1-.3.3-.3l-.3-.6c0-2.4.2-4 .7-5-.2-.3-.3-.7-.3-1.2l.6-.3-.2-.7v-4c-.4.2-.7.3-.9.3v-.3c-.9.4-1.5.7-1.9.7v-.3c-2.7.8-4.3 1.4-4.9 1.8-.4-.2-.8-.3-1.2-.3 0 .7-4 1.3-11.9 2.1L.9 75.7v-.7h.7v1h.6v-1.6H1.6l.2-.6v-1.2l-.6.2c-.4 0-.7-.2-.7-.6v-.6c0-.2.1-.3.3-.3l-.3-.7.3-1.5-.3-1.6.3-.6c-.2-.4-.3-.8-.3-1.2 0-.2.1-.3.3-.3L.6 65v-.3h.7c0 .7.5 1.4 1.5 2.1v-.6h1v1.2H4v-1.6H3.7L4 65.3v-.7H3.7c-.4.1-.7.3-.7.7L2.5 65l-.7.3c0-.2-.1-.3-.2-.3l.2-2.1v-.3c0-.4-.2-.6-.6-.6v1.5H.6v-1.2C.6 62 .7 62 .9 62c-.4-.9-.6-2-.6-3.1h.2l1 .6c0-.2.1-.3.2-.3l.3.7c-.5.4-.9.6-1.2.6l.3.7.6-.3c.4 0 .7.3.7.9l-.3.6c.2.4.3.8.3 1.2v.3l-.3.6h.3c.5-.6.9-.9 1.2-.9v-.2c-.6 0-.9-.4-1-1.2v-.9H2.5v-.7c0-.4.1-.9.2-1.2-.2-.4-.2-.7-.2-.9h.2c-.2-.4-.4-1.3-.6-2.7h.3l-.3-.7v-2.4H1.6v-1h.6c-.2-1-.3-1.7-.3-1.8C2 49.3 2.1 49 2.1 48.8c-.2-.3-.3-.7-.3-1.2.2 0 .3-.1.3-.3l-.6-.2c0-.2.1-.8.2-1.9 0-.1-.1-1.4-.2-4 .2 0 .2-.1.2-.3-.4 0-.6-.3-.6-.9 0-.2.1-.2.3-.2-.4-1.6-.7-3.4-.7-5.3 0-.2.1-.2.3-.2l-.3-.7v-.6h.7v.9h.6v-1.6H1.6l.2-.6v-1.2l-.6.3c-.4 0-.7-.2-.7-.7v-.6c0-.2.1-.3.3-.3l-.3-.6c0-.2.1-.8.3-1.8l-.3-.7c.2-.3.3-.7.3-1.2l-.3-.6c.2-.4.3-.7.3-.9-.2-.4-.3-.7-.3-.9h.7c0 .6.2.9.6.9v.6H1.2c0 .6.1.9.3.9l-.3 1.6V27c0 .5.1.9.3 1.2-.2.4-.3.8-.3 1.2v.3h.3c0-1 .2-1.6.6-1.6l-.3-1.5v-2.1h1.2v.6H4v-1.2l-.2-.6H4c.4.1.7.2.7.6v1.2l-.3.6-.6-.2H3.4l.3.6c0 .4-.2.7-.7.7l-.6-.3v.9h.9v2.5H2.7v-1.9H2.5c0 1.7.1 2.5.2 2.5.4.1.7.3.7.7H3.1C3.7 32.3 4 33.2 4 33.7h.3v-.6c.3 0 .6.3.9.9l-.3.6c.3 0 .7.4 1 1.2-.4.1-.7.2-.7.6.4.1.7.3.7.7l-.7.3c.4.7.7 1.3.7 1.8 0 .4-.2.6-.7.6-.4-.2-.7-.2-.9-.2L4 40.2c.5 0 1.4.1 2.5.3l-.3-1.6v-.3c0-.2.1-.2.3-.2l-.3-.7c0-.2.1-.2.3-.2-.2-1.3-.4-1.9-.6-1.9L6.1 35v-.9c0-.4-.4-.7-1.2-.7C5 33 5.2 32.8 5.5 32.8c0 .2.1.3.3.3l.2-.7-.2-.6h.2c0-.6-.3-.9-.9-.9v-.3l.7-.9v-1.2H5.2c0-.9.2-1.7.7-2.5H5.2v-.3c0-.2.1-.2.3-.2l-.3-.7c0-.2.1-.2.3-.2 0-.2-.1-.3-.3-.3 0-.4.2-1.1.7-2.1-.4 0-.7-.2-.7-.7l.7-.9c-.4 0-.7-.1-.7-.2 0-.2.1-.3.3-.3l-.7-4h.3l-.3-.7.3-.6C5 14.3 4.9 14 4.9 13.9h.3l-.3-.7v-2.5c0-.2.1-.2.3-.2L4.9 9.8c0-.2.1-.3.3-.3L4.6 8.3l.2-.7L4.6 5.9h.2L4.6 5.2V4.3h.6c0 .9.1 1.6.3 1.9 0 .2-.1.2-.3.2.5 6.8 1 10.1 1.6 10.1.1-1.2.4-1.8.9-1.8v-.7L7 13.2c.3 0 .7-.4 1-1.2H7.3v-.2c0-.2.1-.3.3-.3l-.3-.7v-.2h.3c.4.2.7.2.9.2v.7H8L8.3 12l.7-.2h.2v1.8h1.2l-.2-.7.6-.2c-.2-.4-.3-.7-.3-.9l.3-1.2-.3-.7.3-.6c0-.2-.1-.3-.3-.3l.3-1.6-.3-2.7h.7c.3 0 .6 1 .9 3.1l-.3.7v1.5l.3 1.6h-.3L12 12v3.4h.3c.4 0 .6-.2.6-.6-.2 0-.3-.1-.3-.3h.3c-.4-1.3-.6-2.1-.6-2.5l.6-.2-.3-.7v-.6c0-.4.4-.7 1.2-.7V9.5c-.8 0-1.2-.3-1.2-.9l.7-.2v.6h.2V8.3c-.4 0-.6-.2-.6-.7h1.6l-.3-.6V6.8c.5 0 .8-.5.9-1.6-.2-.4-.3-.7-.3-.9L15.3 4l.2.6c-.2 0-.2.1-.2.3h.2l1-.7c0 .2.1.3.2.3V4.3l-.2-3.6h.6c.2.8.3 1.6.3 2.4h.2l.3-1.5V0zM.3 16.9h.2l.7.2-.3.7.3 1.5h.3v-.9h.2c.4.1.7.3.7.7-.4 0-.7.3-.7.9l-.6-.3v1.6H.6V20c0-.2.1-.3.3-.3C.5 18.7.3 17.8.3 16.9zM1.2 31l.3.6v.3H1.2c-.4 0-.7-.2-.7-.7L1.2 31zM1.2 73.3l.3.7v.2H1.2c-.4 0-.7-.2-.7-.6L1.2 73.3zM1.2 66.3c.2.3.3 1 .3 2.1h.2v-2.1H1.2zM1.6 69.6l-.3 2.1V72h.3l.6-2.1L1.6 69.6zM2.1 21.8l.3.7c0 .4-.2.6-.7.6l-.2-.6C1.6 22 1.8 21.8 2.1 21.8zM1.8 20c.4.1.7.2.7.6v.7H1.8V20zM3.1 17.2l.3.7v.3c0 .4-.2.6-.7.6H2.5v-.9C2.5 17.4 2.7 17.2 3.1 17.2zM2.5 32.8c.2.3.2.8.2 1.5.4 0 .7-.2.7-.6v-.3c0-.4-.2-.6-.7-.6H2.5zM3.1 69l-.6-.3v1c.8 0 1.2.5 1.2 1.5H4c0-.8.2-1.2.7-1.2 0 .6.2.9.6.9l-.3 1.6H4.6c-.4 0-.7-.2-.7-.6.2 0 .3-.1.3-.3H3.4V72H2.7v-1.8H2.5c0 1.7.1 2.5.2 2.5.4.1.7.2.7.6H3.1l.6 1.2h.1c0-.1-.1-.2-.2-.4l.7 2.1v-.7c.3 0 .7.1 1.2.2l.2.1c0 .1-.3.1-.8.1.1-.4.3-.7.7-.7 0 .2.1.3.3.3l.2-.6-.2-.7h.2c0-.6-.3-.9-.9-.9v-.3L5.9 72v-.6c-.7-.7-1-2-1-4L3.1 69zM2.5 75.1c.2.4.5.7.9 1v-.3c0-.4-.2-.7-.7-.7H2.5zM3.1 36.5c0 .4-.1.7-.3.7.2.4.3.7.3.9.4 0 .7-.2.7-.6-.2-.4-.3-.8-.3-1H3.1zM3.1 21.2c.4.1.7.2.7.6 0 .4-.2.7-.7.7V21.2zM3.4 34.7c0 .3.3.6.9.9v-1.2C3.9 34.5 3.6 34.7 3.4 34.7zM3.7 16.6h.6v1.2H3.7V16.6zM4.3 19.6l.3.7v.2H4.3c-.4 0-.6-.2-.6-.6L4.3 19.6zM3.7 49.1l.6.2.3-.6v-.3H4.3C3.9 48.5 3.7 48.7 3.7 49.1zM4 21.8h.7v.9H4V21.8zM4.6 27.6c0 .6.2.9.6.9L4.9 30H4.3L4 27.9 4.6 27.6zM4 50.9v1.6h.3c.4 0 .6-.2.6-.7-.4 0-.6-.3-.6-.9H4zM5.9 16.9v.6h.6L7 17.2c.1.4.3.7.7.7v-1.2C7.3 16.8 6.7 16.9 5.9 16.9zM5.9 41.1V42h.6v-.9H5.9zM5.9 42.3v.9h.9v-.3c0-.4-.2-.6-.7-.6H5.9zM6.1 19.6V20h1.6v-.7L6.1 19.6zM7 4.3h.7L8 5.9v.6H7.3C7.3 5.8 7.2 5.1 7 4.3zM8 8.3l.2.6c0 .4-.2.6-.6.6H7.3V8.9C7.4 8.5 7.6 8.3 8 8.3zM8.3 14.1c.1.4.3.7.7.7 0-.2.1-.3.2-.3 0 .2.1.3.3.3v-.9C9.2 14 8.7 14.1 8.3 14.1zM9.2 4.6h.7V5c0 .2-.1.2-.3.2l.3.7v1.5c0 .2-.1.3-.3.3l.3.7v.6c0 .4-.2.6-.7.6L8.9 8.9V8.6c0-.2.1-.2.2-.2C9.2 8.1 9.1 8 8.9 8l.2-1.6V4.6zM9.8 9.5l.3.7H9.8l.3.6c0 .4-.2.7-.7.7l-.6-.9C8.9 10.1 9.2 9.8 9.8 9.5zM9.5 15c0 .8-.2 1.2-.6 1.2v.3h.6L9.8 16v-1H9.5zM12 15.7v.6l.3 2.8h.2c0-.2.1-.8.3-1.9C12.6 16.2 12.3 15.7 12 15.7zM21.8 10.5l.2.6h-.9C21.2 10.7 21.4 10.5 21.8 10.5zM21.5 14.1H22c-.2.4-.2.7-.2.9h-.7C21.3 14.6 21.5 14.3 21.5 14.1zM21.8 31.3v.3c.8 0 1.2.3 1.2.9h.2v-.9L23 31C22.6 31.2 22.2 31.3 21.8 31.3zM22 23h.7c0 .8.4 1.4 1.2 1.8 0 .4-.3.7-.9.7-.4-.2-.8-.3-1-.3v-.6c0-.2.1-.3.3-.3L22 23.6V23zM22.7 25.7l.6.3.7-.3c0 .4.2.7.6.7V27c-.2 0-.5.1-.9.3 0-.6-.2-.9-.6-.9v.9h.6v.6c-.4 0-.6.3-.6 1h-.7c0-.9-.1-1.6-.3-1.9L22.7 25.7zM22.7 34.3c.3.8.6 1.2.9 1.2h.3V35c-.4 0-.7-.4-.7-1.2C22.9 33.8 22.7 34 22.7 34.3zM23 35.9v1.2h.2v-1.2H23zM24.8 43.6c0 .4-.5.6-1.6.6v.3h.9v1.8l-.2.7h.6c.4 0 .7-.2.7-.7v-2.7H24.8zM24.2 28.9v.9c-.4 0-.6-.2-.6-.7L24.2 28.9zM24.8 41.7v.6c.2 0 .3.1.3.3-.4.2-.8.2-1 .2v.3h.7c.1-.4.2-.6.6-.6-.2-.4-.2-.7-.2-.9H24.8zM24.5 47.9l-.3.6c.2.4.3.8.3 1.2-.2 0-.3.1-.3.3.4 0 .7.2.7.6h.3c.4 0 .6-.2.6-.6v-.3L25.2 50h-.3v-.3l.3-1.5L24.5 47.9zM26.3 24.3l.3.6-.6.3h-.3v-.3C25.8 24.5 26 24.3 26.3 24.3zM26.6 35H27v.3c0 .4-.2.6-.7.6l-.2-.6L26.6 35zM26.6 40.2H27c.4.2.7.3.9.3 0-.2.1-.3.3-.3l.2.6c0 .4-.4.7-1.2.7v.3c.6 0 .9.2.9.6v1.2h-.9l.6-.9v-.3c-.8 0-1.2-.2-1.2-.6v-.7h.7v-.3h-.7V40.2zM27.6 35.9h.7v.3l-.3.6c.2 0 .3.1.3.3l-.7.3-.2-.7C27.5 36.4 27.6 36.1 27.6 35.9zM27.6 38h.7l-.3.6.6.3c-.2.4-.2.7-.2.9h-.7c0-.2-.1-.5-.2-.9C27.5 38.6 27.6 38.3 27.6 38zM30.9 41.4v.9c0 .4-.2.6-.6.6v-.2l.2-.7c-.2 0-.2-.1-.2-.2L30.9 41.4zM30.9 50.9h.7v.9h-.7V50.9zM34 69.9v.3h.3c1.1-.2 2-.3 2.8-.3h2.7c0 .5-1.1.8-3.4.9v-.2c-.8.4-1.6.6-2.5.6v.7h.3c.4-.2.7-.3.9-.3 0 .2.1.3.3.3l.3-.7.6.3h1.8v.3c0 .4-.3.6-.9.6v.6c1.7-.2 2.8-.7 3.4-1.5l-.3-.7.3-1.2c-.2-.4-.3-.8-.3-1L34 69.9zM34 73.3h.7l1.5-.3c0 .2.1.3.3.3 0-.4.2-.6.7-.6v-.3h-.7C34.8 72.5 34 72.8 34 73.3zM38.3 75.1h1.2v.7h-1.2V75.1zM39.9 16l.3.6c0 .3-.3.6-.9.9h-.3v-.3C39.2 16.4 39.5 16 39.9 16zM39.3 97.5h.6V99l.6-.2c0 .3.2.7.7 1.2l-.7.3h-.2v-.9h-.3c-.2 1-.3 1.7-.3 1.8.2 0 .3.1.3.3l-.6.3h-.3v-.3c0-1.4.2-2.1.6-2.1l-.2-.6c0-.2.1-.3.2-.3l-.2-.7V97.5zM39.9 44.5h.3v.3c0 .4-.2.6-.7.6l-.2-.6L39.9 44.5zM39.9 86.8h.3V87c0 .4-.2.7-.7.7L39.3 87 39.9 86.8zM39.9 46.6v.6l.3 1.9c.4 0 .6-.2.6-.7-.4-.8-.6-1.4-.6-1.8H39.9zM40.2 50.3c0 1.2-.1 1.9-.3 2.1h.6v-2.1H40.2zM40.2 6.8h.6v.9h-.6V6.8zM40.8 95.6l.3.7c0 .4-.2.6-.7.6l-.2-.6C40.2 95.8 40.4 95.6 40.8 95.6zM40.4 97.5h.7v.6c0 .4-.2.7-.7.7V97.5zM42.6 36.2c.1.4.3.6.7.6.4-.2.7-.3.9-.3l.3.7c0 .5-.2 1.2-.7 1.8.4.1.7.3.7.7-.4.1-.7.2-.7.6l.7.3c-.3.8-.6 1.2-.9 1.2l.2.6c0 .3-.3.6-.9.9v-.6h-.3c0 .6-.3 1.5-.9 2.7.2 0 .3.1.3.3-.6.2-.9.4-.9.6v2.1h.3v-1.8H42v.6h.9l-.3-.6.7-.3h.3v1.6c-.2 0-.3.3-.3.9-.4 0-.7-.4-.7-1.2-.5 1-.9 1.6-1.2 1.6h-.3V50l.6-.3 1.9 1.6c0-1.9.3-3.3.9-4v-.6l-.7-.9v-.3c.6 0 .9-.3.9-.9h-.2l.2-.6c0-.4-.2-.7-.6-.7 0 .2-.1.3-.3.3l-.2-.7c.8 0 1.2-.2 1.2-.6v-.9c0-.2-.1-.3-.2-.3.2-1.2.4-1.8.6-1.8l-.3-.7c0-.2.1-.2.3-.2l-.3-.7v-.2l.3-1.6C43.9 36.1 43.1 36.2 42.6 36.2zM41.4 42c0 .7-.1 1.2-.3 1.6h.3c.4 0 .6-.2.6-.7v-.2C42 42.2 41.8 42 41.4 42zM41.4 84.3c0 .7-.1 1.2-.3 1.6h.3c.4 0 .6-.2.6-.7v-.3C42 84.5 41.8 84.3 41.4 84.3zM41.1 99.9h.3c.4.1.6.3.6.7v.3c0 .4-.2.6-.6.6l-.3-.6V99.9zM42 9.2l.3.6v.3h-.9V9.8C41.5 9.4 41.7 9.2 42 9.2zM41.7 38.4c0 .4-.1.6-.2.6.2.4.2.7.2.9H42l.3-1.2L41.7 38.4zM41.7 80.6c0 .4-.1.7-.2.7.2.4.2.7.2.9H42l.3-1.2L41.7 80.6zM41.7 96.3c.4.1.7.2.7.6 0 .4-.2.7-.7.7V96.3zM42 41.7c.2 0 .5.1.9.2v-1.2C42.6 40.8 42.3 41.1 42 41.7zM42 84c.2 0 .5.1.9.3v-1.2C42.6 83.1 42.3 83.4 42 84zM42.6 27l-.2.7.6.2h.3v-.2C43.2 27.2 43 27 42.6 27zM42.9 98.1h.3v.3c0 .4-.2.6-.7.6l-.2-.6L42.9 98.1zM42.3 100.9h.6v1.2h-.6V100.9zM42.6 23.9v1.6h.3c0-.3.2-.7.7-1.2l-.7-.3H42.6zM42.9 88.6h.7v1.6c-.2 0-.3.3-.3.9-.4 0-.7-.3-.7-.9L42.9 88.6zM42.6 96h.7v.9h-.7V96zM44.5 3.7H45V4l-.3 1.5h-.2V3.7zM44.5 33.2v.9h.2c.4 0 .7-.2.7-.7v-.2H44.5zM44.5 34.3v1H45v-1H44.5zM44.5 75.4v.9h.2c.4 0 .7-.2.7-.6v-.3H44.5zM44.5 76.7v.9H45v-.9H44.5zM45.7 101.5l-.7-.3h-.6v.7c.9 0 1.5.1 1.8.2v-1.2C45.9 101 45.7 101.2 45.7 101.5zM44.7.9h.7v1h-.7V.9zM44.7 98.8V99l1.6.3v-.6H44.7zM46 112.2h.7v.6l-.3 1.6h-.6C45.9 113.5 46 112.8 46 112.2zM46 109.2h.3c.4.1.6.2.6.6 0 .4-.2.7-.6.7l-.3-.7V109.2zM47.2 104l-.3.6c.5 0 .9.1 1.2.3V104l-.6.2C47.5 104 47.4 104 47.2 104zM47.5 102.1v.3c.4 0 .6.4.6 1.2h.3v-1.2l-.6-.3H47.5zM48.4 107.3l.3.6-.3.6c.2 0 .3.1.3.3l-.7.3-.6-.9C47.5 107.9 47.8 107.6 48.4 107.3zM48.1 109.2l.3.6v.7c0 .2-.1.2-.3.2l.3.7v1.5c0 .2-.1.3-.3.3l.3.7v.2h-.6v-1.8l-.3-1.6h.3l-.3-.6v-.3C47.6 109.4 47.8 109.2 48.1 109.2zM49.3 5.5L49 7.3c.4 0 .7-.5 1-1.5L49.3 5.5zM50.9 99.7c-.2 1.8-.3 2.9-.3 3.4.5 0 .8-.7.9-2.1-.2-.4-.3-.8-.3-1.2H50.9zM52.1 0l.2.7-.2 1.8h-.3c-.4 0-.7-.2-.7-.6v-1C51.2.6 51.5.3 52.1 0zM59.7 103.6h.7c0 .2.1.5.3.9h-.7C60.1 104.3 60 104 59.7 103.6zM59.7 107.6h1c0 .4-.2.7-.7.7L59.7 107.6zM61.6 43.9c0 .6-.4.9-1.2.9V45c.4 0 .9.1 1.2.3l.2-.6v-.9H61.6zM61.6 86.1c0 .6-.4.9-1.2.9v.3c.4 0 .9.1 1.2.3l.2-.7v-.9H61.6zM62.2 93.2l.3.6c-.8.5-1.2 1.1-1.2 1.8h-.6V95c0-.2.1-.3.2-.3l-.2-.6v-.7L62.2 93.2zM61 89.9h.7c0 .6.2.9.6.9v.6h-.6v1c.4 0 .6-.3.6-1 .4.2.7.3.9.3v.7c-.4 0-.6.2-.6.6l-.7-.3-.6.3L61 92.3V89.9zM61.3 42.3l.6.3c0-.8.2-1.2.7-1.2v-.7h-.3C61.8 40.8 61.5 41.3 61.3 42.3zM61.3 84.7l.6.2c0-.8.2-1.2.7-1.2v-.7h-.3C61.8 83.1 61.5 83.6 61.3 84.7zM61.6 39.3v1.2h.6c-.2-.4-.3-.8-.3-1.2H61.6zM61.6 49.1V50c.4 0 .6-.2.6-.7v-.2H61.6zM61.6 81.5v1.2h.6c-.2-.3-.3-.7-.3-1.2H61.6zM62.5 29.5l.3.6v1.9h-1v.2c1 0 1.6.2 1.6.7h.3V30c0-.4-.2-.6-.7-.6H62.5zM62.9 46.6v.9c-.4 0-.7-.2-.7-.6L62.9 46.6zM62.9 88.9v.9c-.4 0-.7-.2-.7-.7L62.9 88.9zM62.5 15.7v.6c.2 0 .3.1.3.3-.2 0-.3.1-.3.3h.3c.4 0 .6-.2.6-.7-.4 0-.6-.2-.6-.6H62.5zM62.9 17.8v.3c.2.4.2.7.2.9-.2 0-.2.1-.2.2h.9l-.3-1.5H62.9zM63.1 24.8l.3.7v.9h-.6c.2.4.2.7.2.9-.2.4-.2.7-.2.9l.6.3c0-.2.1-.3.3-.3l-.3-1.5v-.3h.3l.6.3L64 24.8H63.1zM62.9 33.2v.2c.2 0 .5.1.9.3l-.3.6v.3h.3c0-.2.1-.5.2-.9l-.9-.6H62.9zM62.9 72.4c0 .3.2 1.2.6 2.7h.3v-1.2l-.3-1.6H62.9zM62.9 75.4v.3c.2 0 .5.1.9.3l-.3.6V77h.3c0-.2.1-.5.2-.9l-.9-.7H62.9zM63.1 10.5c.1.4.3.6.7.6H64v-.6H63.1zM63.1 19.6V20c.2.3.3.7.3 1.2.3 0 .6-.3.9-.9-.6 0-.9-.2-.9-.7H63.1zM63.1 52.7c.1.4.3.7.7.7H64v-.7H63.1zM65.3 16.9c0 1-.3 1.5-.9 1.5.2.3.3 1 .3 2.1H65V20h.6v.9l-.3.6-.6-.2c-.5.4-.9.6-1.2.6.1.4.2.7.6.7.1-.4.3-.7.7-.7h.6v.3c0 .2-.1.3-.2.3.2.3.2.7.2 1.2h.3c.4 0 .6-.2.6-.6-.2-.4-.2-.8-.2-1.2h.2c-.2-.2-.4-1.8-.6-4.9H65.3zM64.4 16.6v.9c.4 0 .7-.2.7-.6L64.4 16.6zM64.4 93.5h.3c.4.1.6.3.6.7l-.6.3-.3-.7V93.5zM65.3 40.5l.3.6v.3h-.3c-.4 0-.6-.2-.6-.7L65.3 40.5zM64.7 69c.2.4.3.7.3.9.4 0 .6-.2.6-.6L65 69H64.7zM65.3 82.8l.3.7v.3h-.3c-.4 0-.6-.2-.6-.7L65.3 82.8zM65.9 32.8h.9v1.2c0 .4-.3.6-.9.6V35c.8 0 1.2.2 1.2.6l-.3.7-.7-.3c-.4.2-.7.3-.9.3v-.7h.7v-.2h-.7v-.7c0-.4.4-.6 1.2-.6v-.3L65.9 32.8zM66.2 36.5h.7c0 .2.1.5.3 1-.4.1-.7.2-.7.6.2 0 .3.1.3.3h-.7c0-.2-.1-.5-.2-.9C66.1 37 66.2 36.7 66.2 36.5zM66.5 38.9l.3.7h-.3l.3.6v.3h-.7l-.2-1.2L66.5 38.9zM65.9 56.8c.2 1.4.2 2.2.2 2.4-.2 0-.2.1-.2.3h.2l.7-.3c-.2 0-.3-1.1-.3-3.4C66.1 55.8 65.9 56.1 65.9 56.8zM66.2 78.8h.7c0 .2.1.5.3.9-.4.1-.7.3-.7.7.2 0 .3.1.3.2h-.7c0-.2-.1-.5-.2-.9C66.1 79.3 66.2 79 66.2 78.8zM66.5 81.3l.3.6h-.3l.3.7v.2h-.7l-.2-1.2L66.5 81.3zM66.5 19.6V20l.3 1.5h.3c0-.2.1-.5.2-.9-.4 0-.6-.2-.6-.6.2 0 .3-.1.3-.3H66.5zM68.3 62.5v.3l.7.9v.3h-.7v-.7h-.2c0 .6-.4.9-1.2.9l.3 2.1c.4 0 .6-.2.6-.6L67.2 65l.6-.3c.4.8 1 1.2 1.8 1.2l-.2-.6V65l.2-.7c-.2 0-.2-.1-.2-.2.3 0 .6-.5.9-1.6h-.7c-.4.2-.7.3-.9.3C68.6 62.7 68.5 62.5 68.3 62.5zM68.1 77.9h.2c0 .4-.2.6-.6.6h-.3C67.5 78.1 67.7 77.9 68.1 77.9zM69 12.9h.6V15c0 .4-.2.7-.6.7L68.6 15c.4 0 .7-.2.7-.6v-.9h-1C68.4 13.1 68.6 12.9 69 12.9zM69 55.2h.6v2.1c0 .4-.2.6-.6.6l-.3-.6c.4 0 .7-.2.7-.6v-1h-1C68.4 55.4 68.6 55.2 69 55.2zM68.6 9.8H69c.4.1.6.3.6.7l.7-.3c.3 0 .6.3.9.9v.3L70.8 12c.4.1.7.3.7.7 0 .2-.1.2-.3.2l.3.7v.3c0 .4-.2.6-.7.6-.3 0-.6-.3-.9-.9.3 0 .6-.4.9-1.2-1.2-.3-1.9-.8-2.1-1.6l.3-.6C68.8 10.1 68.6 10 68.6 9.8zM68.6 52.1H69c.4.1.6.2.6.6l.7-.2c.3 0 .6.3.9.9v.2l-.3.7c.4.1.7.2.7.6 0 .2-.1.3-.3.3l.3.6v.3c0 .4-.2.7-.7.7-.3 0-.6-.3-.9-1 .3 0 .6-.4.9-1.2-1.2-.3-1.9-.9-2.1-1.6l.3-.6C68.8 52.5 68.6 52.4 68.6 52.1zM69.6 18.4c.9 1.3 1.4 1.9 1.6 1.9v.9c0 .4-.5.7-1.6.9v-.7h.7l-.3-.6.3-.6c-.5 0-.9-.4-1.2-1.2C69 18.6 69.2 18.4 69.6 18.4zM69 33.4c.4.1.6.3.6.7V35c-.4 0-.6-.2-.6-.7h.3L69 33.7V33.4zM69 75.7c.4.1.6.2.6.6v.9c-.4 0-.6-.2-.6-.6h.3L69 76.1V75.7zM69.9 72.7c.2 0 .3.1.3.2l.6-.2h.9v.2c0 .4-.2.7-.6.7l-.7-.3c-.4.2-.7.3-.9.3l-.2-.7L69.9 72.7zM69.6 22.7l1.6.3v.6h-.3l-.6-.2c0 .2-.1.2-.3.2L69.6 23V22.7zM69.6 24.6h.7v.9h-.7V24.6zM69.9 65.9c.2.4.3.7.3.9h.2v-1.2L69.9 65.9zM70.8 14.8l.7 1.2h-.3c-.3 0-.6-.3-.9-1L70.8 14.8zM70.8 57l.7 1.2h-.3c-.3 0-.6-.3-.9-.9L70.8 57zM70.8 8.6h.7v.3c0 .2-.1.3-.3.3l.3.6v.3h-.7V8.6zM70.8 50.9h.7v.3c0 .2-.1.2-.3.2l.3.7v.3h-.7V50.9zM78.3 66.9h-.6V66h.6V66.9zM78.6 56.3h-.6V55h.6V56.3zM82 49.3c-.6.5-.9 1.3-.9 2.4-.8 0-1.6.6-2.5 1.8h-.3c0-1.4.5-2.1 1.6-2.1.9-1.7 1.5-2.5 1.8-2.5H82V49.3zM80.4 47.7l-.2.7L79.5 48c.2-.4.3-.7.3-.9h.6V47.7zM81.7 43.5c-.4.4-.6 1.1-.6 2.1h-.7V45c0-1 .3-1.6.9-1.8h.3V43.5zM82 41.3h-.7l.3-1.2h.6L82 41.3zM82.3 46.5L82 47.1c-.4 0-.7-.2-.7-.7v-.6c0-.3.2-.5.7-.6h.2V46.5zM83.5 36.7c0 .3-.4.6-1.2.9H82c.3-.8.6-1.2.9-1.2h.6V36.7zM83.2 71.8V72c-.4-.2-.7-.2-.9-.2v-.9h.7C82.9 71.1 83 71.4 83.2 71.8zM129.5 5.1c.8 0 1.2.2 1.2.6h.3l1.2-.9v.3c1.6.8 2.4 1.4 2.4 1.8.3 0 .5-.2.6-.7V6h-.6V5.4c1.8.3 2.7.8 2.7 1.6h.3l.6-.3c0 .2.1.3.3.3l-.3.6c-.3 0-1.1-.2-2.4-.6h-.3v.2c2 .4 3.1.9 3.1 1.6.3 0 .5-.2.6-.6h-.6V7.8h1.2v.6c.2 0 .2-.1.2-.2.4 0 .7.4.7 1.2h.9V9.1l-.3-.7h.3c1.8 1.1 2.7 1.8 2.7 2.1h-1.2v.6c.4 0 .9.3 1.6.9h.2l-.2-.6v-.6h.2c.7 1 1.4 1.5 2.1 1.5 2 2.4 3.1 3.6 3.4 3.6h.3v-.6c-.6 0-1.7-1.4-3.4-4.3v-.2c.2 0 .3.1.3.2l.6-.2 1.8 2.4c.4 1.3 1.8 3.2 4 5.5v.2l-.2.7-.7-.3h-.3c1.7 3.7 3 6.1 4 7.3v-.7l.7.3-.3 1.5c.6 1 .9 1.8.9 2.1l.7-.2h.2c0 .4-.1.8-.2 1.2l.9 1.6c-.6 0-.9.2-.9.6v.3c1.2 1.9 1.8 3.7 1.8 5.4h.2V38l-.9-4.3c.2 0 .3.1.3.3.2 0 .3-.1.3-.3l.6.3c0 .2-.1.5-.3.9 1 1.8 1.6 3.2 1.6 4.3v.6h.6v.3c0 .4-.2.6-.6.6-.4 0-.7-.8-.7-2.4h-.2c0 .8-.2 1.2-.7 1.2v.2c.8.7 1.2 1.8 1.2 3.4l.7-.3c0 .4-.2 1-.7 1.8v.7h.3c0-.8.3-1.2.9-1.2l.3.6V45c-.4 0-.9.5-1.2 1.5v1h.6V48l-.6.9v.6l.6-.2.7.2c0-.8.2-1.2.6-1.2l-.3 2.1-.6-.2H163v.2c0 .4.2.7.7.7l-.9 1.5v1.6h.6v1.8c.5 0 .8.5.9 1.5-.3 1.2-.6 2-.9 2.5v.3c.6 0 .9.2.9.6l-.6.9c0 .4.2.6.6.6l-1.2 2.8h-.6v-.7H162c0 .2-.1.5-.3.9v.3h.3l.7-.3v.3l.6-.3.6.3-.9 1.5h.3c-.6 1.8-1.2 2.8-1.8 2.8v.2c.8 0 1.2.2 1.2.7 0 .4-.2.6-.7.6 0 .2.1.3.3.3-.7 3.2-1.4 4.9-2.1 4.9 0 .4.1.9.3 1.2 0 .4-.2.6-.7.6 0 .2.1.5.3.9 0 .2-.3.4-.9.6l.3.7v.2c0 .4-.3.7-.9.7.4.7.6 1.3.6 1.8v.9c-.4 0-.9.1-1.2.3 0 .2.1.5.3.9-.6 1.8-1.1 2.7-1.6 2.7 0 .2.1.5.3.9-.7 1.7-1.3 2.5-1.8 2.5v.6c0 1.5-.3 2.3-.9 2.4-.5 1.5-1 2.7-1.6 3.7l1 .6h.2c0-.7.9-2.3 2.7-4.9 0-.2-.1-.5-.2-.9l1.2-1.5c-.2 0-.2-.1-.2-.3l1.8-2.7v-.3l-.6.3h-.3l.3-1.2h.2l.7.3c0-.4.2-.6.6-.7h.3v.7l-1.8 3.3c-1.2 4.3-3.2 8.2-6.1 11.6v.3l1.8-1.5c1.2-2.5 2.2-3.7 3.1-3.7 0-.2-.1-.2-.3-.2.8-3.2 1.7-4.9 2.7-4.9l-.6-.9h.6c1-2.5 1.6-3.7 1.8-3.7h.3v.3c0 1.1-.4 1.8-1.2 2.1 0 .4.1.9.3 1.2l-2.1 3.3c-.8 2.4-1.4 3.6-1.8 3.6 0 1.3-1.5 3.1-4.5 5.5-1 2.6-3.8 5.3-8.3 8.3h-.9c1.2-1 1.8-1.6 1.8-1.9 2.6-1.4 4.4-3 5.5-4.9-1.6 1.7-2.6 2.5-3.1 2.5l-5.5 4-.6-.3c.2-.4.3-.7.3-.9 2.2-.9 3.3-1.7 3.3-2.4.2 0 .3.1.3.2 2.1-1.2 3.3-2.3 3.6-3.3V105h-.3c-2.3 1.6-3.7 2.4-4.2 2.4-.7 1.3-2.3 2.2-4.6 2.8 0 .2.1.2.3.2l-.3.7-1.5-.7v.3c-1.8.6-3.3 1.4-4.5 2.5h-1.6v.6h-.6v-.6h-.3c-1 .8-1.8 1.2-2.4 1.2v-.6c-1 .8-1.7 1.2-1.9 1.2l-.6-.3c0 .2-.1.3-.3.3-.4 0-.6-.3-.6-.9l-1.2.9h-1.5l.3-.7c-.8 0-1.2-.2-1.2-.6h-.7l-.9.6-.6-.2c0 .6-.2.9-.6.9h-.7l.7-.9v-.3c-.2 0-.6.1-1 .3-.2 0-.2-.2-.2-.7h-.3l-1.2.9v-.2c-1.6-.9-2.4-1.5-2.4-1.8-.4 0-.7.2-.7.6v.3h.7v.6c-.8 0-1.8-.5-3.1-1.5l-.6.2c0-.2-.1-.2-.3-.2l.3-.7c.3 0 1.1.2 2.4.7h.3V112c-2-.4-3.1-.9-3.1-1.6h-.7v.7h.7v.2h-1.2v-.6c-.2 0-.3.1-.3.3-.4 0-.6-.4-.6-1.2h-.9v.3l.3.6h-.3l-2.7-1.8c0-.2.1-.3.2-.3l-.2-.6.2-.7c-.2 0-.2-.1-.2-.2-.4 0-.7.3-.7.9h-.6l.3-.7v-.2c0-.3-.2-.5-.7-.7-.6.3-.9.6-.9.9-1-.6-1.5-1.3-1.5-2.1h-.7v.6h-.2c-.9-1.2-1.7-1.8-2.1-1.8v.3l1.8 2.7v.2c-.2 0-.3-.1-.3-.2l-.6.2-1.8-2.4c-.4-1.3-1.8-3.1-4-5.4v-.7h.6v.7h.3c0-.2.1-.5.3-1 0-.1-1.3-2.4-4-6.9v.6l-.7-.3.3-1.5c-.6-1-.9-1.8-.9-2.1L88 88.5h-.2c0-.5.1-.9.2-1.2l-.9-1.6c.6 0 .9-.2.9-.6v-.3c-1.2-1.9-1.8-3.7-1.8-5.4H86v.9l.9 4.3c-.2 0-.3-.1-.3-.3-.2 0-.3.1-.3.3l-.6-.3c0-.2.1-.5.3-.9-1-1.8-1.6-3.2-1.6-4.3v-.6h-.6v-.3c0-.3.2-.5.6-.6.4 0 .7.8.7 2.4h.2c0-.8.2-1.2.7-1.2v-.3c-.8-.7-1.2-1.8-1.2-3.4l-.7.3c0-.4.2-1 .7-1.8v-.7h-.3c0 .8-.3 1.2-.9 1.2l-.3-.6v-.3c.4 0 .9-.5 1.2-1.5v-.9h-.6v-.7l.6-.9v-.6l-.6.3-.7-.3c0 .8-.2 1.2-.6 1.2l.3-2.1.6.2h.3v-.2c0-.3-.2-.5-.7-.7l.9-1.5v-1.6h-.6v-1.8c-.5 0-.8-.5-.9-1.5.3-1.2.6-2 .9-2.5v-.2c-.6 0-.9-.2-.9-.7l.6-.9c0-.3-.2-.5-.6-.6l1.2-2.7h.6v.6h.3c0-.2.1-.5.3-.9v-.3h-.3l-.7.3v-.3l-.6.3-.6-.3.9-1.5h-.3c.5-1.8 1.2-2.7 1.8-2.7V48c-.8 0-1.2-.2-1.2-.6s.2-.6.7-.7c0-.2-.1-.3-.3-.3.7-3.2 1.4-4.9 2.1-4.9 0-.4-.1-.8-.3-1.2 0-.4.2-.6.7-.7 0-.2-.1-.5-.3-.9 0-.2.3-.4.9-.6l-.3-.7v-.2c0-.4.3-.7.9-.7-.4-.7-.6-1.3-.6-1.8V34c.4 0 .9-.1 1.2-.3 0-.2-.1-.5-.3-.9.5-1.7 1.1-2.6 1.6-2.7 0-.2-.1-.5-.3-.9.7-1.6 1.3-2.4 1.8-2.4v-.7c1.2-4.1 3-7.6 5.4-10.6h-.2c-1.2.8-1.8 1.4-1.8 1.8-.4.1-2 2.4-4.9 7 0 .2.1.5.2.9L89 26.7c.2 0 .2.1.2.2l-1.8 2.8V30l.6-.2h.3L88 30.9h-.2l-.7-.2c0 .4-.2.6-.6.6h-.3v-.6c.6-.8 1.5-2.8 2.8-6.1 1.3-4 3.3-7.2 6-9.5v-.2c-.2 0-.9.5-2.1 1.5-1.8 2.9-3 4.3-3.7 4.3 0 .2.1.3.3.3-.8 3.2-1.7 4.9-2.7 4.9l.6.9h-.6c-1 2.4-1.6 3.6-1.8 3.6h-.3V30c0-1.1.4-1.8 1.2-2.1 0-.4-.1-.8-.3-1.2l2.1-3.4c.8-2.4 1.4-3.6 1.8-3.6 0-1.3 1.7-3.3 5.2-6.1.4 0 .8.1 1.2.3l1.2-.7c1-1.7 3.5-3.8 7.3-6.4h.6v.6c-.8 0-1.3.4-1.5 1.2-2.1 1.2-3.9 2.6-5.2 4.3h.3c1.2-1.3 2-1.9 2.4-1.9l5.5-4 .6.3c-.2.4-.3.7-.3.9-2.2.9-3.3 1.8-3.3 2.5-.2 0-.3-.1-.3-.3-.7 0-1.2.7-1.5 2.1h.2c2.5-1.8 4.7-3 6.7-3.6 0-.2-.1-.3-.2-.3l.2-.6 1.6.6V8.4c1.8-.6 3.3-1.4 4.5-2.4h1.6V5.4h.2c.4 0 .6.2.7.7 1-.8 1.8-1.2 2.4-1.2v.6c1-.8 1.6-1.2 1.8-1.2l.7.2c0-.2.1-.2.2-.2.4 0 .7.3.7.9l1.2-.9h1.5l-.3.6c.8 0 1.2.2 1.2.6h.6l1-.6.6.3c0-.6.2-.9.6-.9h.7L129.5 5.1zM84.4 41c-.8.5-1.2 1.1-1.2 1.8h-.2c0-.2-.1-.5-.3-.9.5-.8.9-1.2 1.2-1.2h.6V41zM83.8 80.9l-.3.7-.6-.3.2-.6L83.8 80.9zM85.1 31.6l-.7.9v.6l.3.6-.9.7.2.6c0 .4-.2.7-.6.7l-.3-2.1c.7-1.4 1.2-2.1 1.6-2.1h.3V31.6zM86.6 36.1l-2.7 2.7h-.3c.5-1.3 1.6-2.4 3.1-3.3V36.1zM84.4 82.8l-.3.6c-.4 0-.6-.2-.6-.6v-.3h.3L84.4 82.8zM84.1 55.9v.9h.7v-.3C84.7 56.2 84.5 56 84.1 55.9zM85.3 66c0 .2-.1.5-.2.9.2 1.8.2 2.8.2 3.1h.3c0-.7.1-1.2.3-1.6h-.3l.3-1.5c-.2-.4-.3-.7-.3-.9H85.3zM86.6 32.8v.3c0 .4-.2.6-.6.6h-.7v-.6l.7-.9C86.3 32.2 86.5 32.4 86.6 32.8zM85.3 46.5v1h.3c0-.7.2-1 .6-1L86 45.9C85.5 45.9 85.3 46.1 85.3 46.5zM85.6 59.2v1.2H86v-1.2H85.6zM86.9 90.7v.2h-.3c-.4 0-.6-.2-.6-.6V90h.2C86.6 90 86.8 90.2 86.9 90.7zM86.9 71.1c0 .8.1 1.5.2 2.1h.7c-.2-1.4-.3-2.2-.3-2.4L86.9 71.1zM87.5 73.9l.3.6c0 .4-.2.6-.7.6.2 1.1.3 2.1.3 3.1.2 0 .3-.1.3-.2.4 0 .6.3.6.9h.3v-2.1L88 76.9h-.2V76c0-.5.2-1.2.6-1.8L88 73.6 87.5 73.9zM88.4 90.7h-.6c0-.4-.2-.9-.7-1.6 0-.3.2-.5.7-.6L88.4 90.7zM87.8 93.1v.6h-.7v-1.2C87.5 92.5 87.7 92.7 87.8 93.1zM88.7 79.4L88 79c0 .2-.2.3-.6.3v1.2l1.8 4.5c.2 1 .7 2.4 1.6 4h.2v-.3c0-.4-.3-1.2-.9-2.4.2-1.1.3-1.7.3-1.8-.6 0-1-.4-1.2-1.2V83h.7v.7h.2v-.3c-.2-.3-.2-.8-.2-1.5-.2 0-.3.1-.3.2-.6-.2-.9-.8-.9-1.8h.6V79L88.7 79.4zM89.3 90.3v.6c-.3 0-.6-.4-.9-1.2v-.2H89C89 89.7 89.1 90 89.3 90.3zM90.2 93.4v.2l-.2.7c-.3 0-.7-.8-1.2-2.5v-.2C88.9 91.6 89.4 92.2 90.2 93.4zM89.9 88.8v.3l1.8 4.5H92v-.2c0-1.5-.6-3-1.8-4.6H89.9zM90.2 67.8v1.2h.7v-1.2H90.2zM90.2 71.8c0 .4.2.6.7.6h.2c-.2-.4-.2-.7-.2-.9L90.2 71.8zM91.7 77.2v.9H92c0-.2.1-.5.3-.9v-.3L91.7 77.2zM96.3 101.9H96v.6c.3 0 .9.3 1.9.9C97.1 102.4 96.6 101.9 96.3 101.9zM98.4 69.1v1.5l.3 1.2c-.3.4-.6.6-.9.6v.9l.6-.3.6.3c0-.4-.1-.9-.2-1.2l.2-.6c-.2-.8-.2-1.6-.2-2.4H98.4zM98.1 58.3c0 .4.2.7.7.7v-.9L98.1 58.3zM98.8 74.5v.6l.2 1.8c-.2.4-.2.8-.2 1 .2.4.2.7.2.9h.7v-1.9l.2-.6c-.4 0-.6-.8-.6-2.4C99 73.9 98.8 74.1 98.8 74.5zM99.9 80.6c0 .4.2.6.7.6 0 .2-.1.5-.3.9v.3h.3l.6-.3-.6-1.8L99.9 80.6zM100.2 78.8V80h.3v-1.2H100.2zM101.5 108l-.3.6c-.6-.3-.9-.6-.9-.9v-.3h.3L101.5 108zM100.6 60.8v.3h.2c0-.3.2-.7.7-1.2v-.7C101.1 59.2 100.8 59.8 100.6 60.8zM100.6 73.3c0 .1.1.5.2 1.2h.3v-1.2H100.6zM100.8 57.2v1.5h.7l-.3-1.5H100.8zM100.8 70v1.5h.3V70H100.8zM100.8 78.5v.3c0 .4.2.6.7.6V79C101.5 78.7 101.3 78.5 100.8 78.5zM101.2 80.6c.2.4.3.7.3.9h.3v-1.2L101.2 80.6zM131.9 21.2c0 .1.2.9.6 2.5-.8-.7-1.2-1.4-1.2-2.1H131c-.5.4-1 .6-1.6.6v.3l1.8.3v.9c-.2 0-.5-.1-.9-.3h-.6c.2.4.3.7.3.9h.6l.9-.6c0 .2-.1.5-.3.9l.3.6v.3H131v-.7h-.3v.7h-.6c0-.6-.4-1.1-1.2-1.6 0-.2.1-.2.3-.2 0-.2-.1-.3-.3-.3 0-.2.1-.5.3-.9v-.3l-.7.3h-.2l-1-.6-.2 1.8h-.7V23h-.6v.7c.4 0 .6.4.6 1.2h.7l-.3-.6c0-.3.2-.5.6-.6v.9c.4 0 .7-.3.7-.9.4.2.7.2.9.2l-.3.7.7.9h-.3l-.6-.3c0 .2-.3.4-1 .7l-1.5-.7c0 .2-.1.3-.3.3v-.7h-.6v1h-.3c-.8-.5-1.2-.9-1.2-1.2v-.7h.2l.9.7c0-.8.2-1.2.7-1.2v-.6c0-.4-.2-.6-.7-.7V23h-.9l-.6-.2-.3.6c-.2 0-.3-.1-.3-.3l-1.8 1.6.3.6c0 .4-.2.7-.6.7l-.7-.3-1.5 3.1c.2 0 .2.1.2.2v1c0 .4-.6.7-1.8.9-.4 0-.6-.2-.6-.7v-.6l1.5-1.2v-.6l-1.5.6c-.5 1.2-.9 1.8-1.2 1.8v.7c.2 0 .3-.1.3-.3 1.2.4 1.8.8 1.8 1.2.3 0 .5-.2.6-.7l.7.3c.3 0 .5-.2.6-.6 1.4.2 2.1.5 2.1.9 0 .4-.3.6-.9.6v.3l.3.6.6-.3h.3v.3c-1.6 1.1-2.5 1.8-2.5 2.1h-.6c0-.2-.1-.5-.3-.9h.3c0-1-.3-1.7-.9-1.8-1.4.8-2.3 1.7-2.8 2.7v.6l1.2-.6-.2-.6V34h.6v.7c.2 0 .3-.1.3-.3.2 0 .6.8 1.2 2.4V37c-.5 0-1.2.3-2.1.9-.7-.7-1-1.3-1-1.8h-.2v2.1l.2.6 1-.6v.3l-.7.9-1.5-1.2H113c0 .2-.1.5-.3.9h.3l-.3 1.5.3 1.2c-.4 0-.6.2-.6.6l-1.2-.6-.6.3c0 .2.1.2.2.2l-.2 1.6v.6h.6v.7c-.2 0-.5-.1-.9-.3-.4 0-.7.2-.7.6v.9h.3v-.6h.7v.6l-.7 1 .3.6c-.2 0-.3.1-.3.3-.4 0-.6-.2-.6-.7v-.2l.2-.7h-.9c0 .8-.2 1.2-.6 1.2l1.2 1.5c-1 0-1.6.2-1.6.7h-.6v-.7h-.3v.3c.4.7.7 1.2.7 1.6.8-.5 1.2-.9 1.2-1.2.4 0 .6.2.7.6 0 .4-.2.7-.7.7l-1.5 1.2v.3c0 .4.2.6.6.6-.4.5-.6.9-.6 1.2h-.6c0-.5-.7-1-2.1-1.5v.2l.9 1.2c.2 0 .2-.1.2-.3.3 0 .8.6 1.6 1.9l-.6.9.6.9v.2h-.6l-1.9-.9c0 .4-.2.7-.6.7l.3 2.1v.6h-.3l-.6-.3c0 .2-.1.5-.3.9.3 0 .5.2.6.7.8 0 1.2-.5 1.2-1.6l.9.7h.3v-1.2c-.6 0-.9-.2-.9-.7l.2-.6c.8 0 1.6.7 2.5 2.1v.6h-.3l-.6-.2c0 .4-.3.6-.9.6V62h.6V63c0 .1.2.9.7 2.4 0 .2-.1.5-.3.9l.3.7c-.2.3-.3.7-.3 1.2h-.6l-.3-1.5-.7.3h-.6v-.7c.8 0 1.2-.2 1.2-.6v-.3c-.7 0-1.2-.1-1.6-.2-.3.2-.8.2-1.5.2V66l.6.9v.9h-.6v.6c.2 0 .5.1.9.3v-.7h.3l.6.3c0-.3.2-.5.6-.6v1.8l.7-.3h.3c0 .4.3.9.9 1.6-.6 0-1.2-.2-1.9-.7v.3l-.6-.3c0-.2.1-.2.3-.2 0-.4-.2-.6-.7-.7 0 .5-.1.9-.2 1.2.4.5.6.9.6 1.2h.6v-.7h.3c1 .6 1.5 1 1.6 1.2v.3h-.7c-.4 0-.6-.2-.6-.7l-.9.7c-.3 0-.8-.6-1.6-1.8v-.7l.7-.9v-.2l-.7.2-.6-.2v1.2l.3.7c-.2 0-.3.1-.3.2l-.6-.2V72c.6 0 .9.1.9.3 0 .3.5.7 1.5 1.2v.6c-.6-.3-.9-.6-.9-.9-.2 0-.3.1-.3.3-.4 0-1-.2-1.8-.7 0 1.4-.1 2.3-.2 2.5h.6c0-.7.1-1.2.3-1.5 1 .4 1.6.9 1.8 1.5v.3c-1.4 0-2.1.7-2.1 2.1l1.2.9v-1.2l-.3-.7.6-.2c1.9.8 2.8 2.1 2.8 4H106c-.1-1.7-.5-2.6-1.2-2.7l-.6.2.3.7V79l-1.6.3v.9c.3 0 .7.2 1.2.6v-1.5h.6c0 .6.3.9.9.9v.9c-.8.6-1.4.9-1.8.9v.3h1.2c.1 0 .6-.5 1.6-1.6h.9c.3 0 .5.2.6.7h-.9v.9l.9 1.2v.2l-.6.9h.9c.4 0 .6-.5.6-1.5h.3c.8.4 1.2 1.1 1.2 2.1h.2c0-.6.5-.9 1.6-.9 0 .8 1.6 1.6 4.9 2.4l-.3.7c.5.8 1 1.8 1.2 3.1l-.9.6c0-.2-.1-.5-.3-.9.2 0 .3-.1.3-.3 0-1.5-1.5-2.9-4.6-4v.3l-2.1-.7v1.6l.9-.6v.9h.6c.3 0 .5-.2.6-.7.4 0 .7.3.7.9h.2l.7-.2v.6l-.3.6-1.5-.6v.3l-1.8-.9c-.4.2-.8.2-1 .2v.3h1.2v.6h-.6v.3h.3c.3-.2.7-.3 1.2-.3v.3l-.2.6h.2l-.2.7-.9-.7c-.7.3-1 .7-1 1 1.9.3 2.8.7 2.8 1.2.2 0 .5-.1.9-.2.2 0 .5.1.9.2l-.3.7h1.6c.3 0 .5-.2.6-.7.2 0 .3.1.3.3l.9-.6v.2c0 .4-.2.7-.7.7v.2c1.1.4 2.2 1.3 3.4 2.5 0 .2-.1.3-.3.3l.3.6v.3l-.6-.3h-.3l.3.6h-.3l-1.6-.2v1.2h.3l1.8-.9V97l.7-.3h.2l.9.7.3-1.8h.6v.6h.7v-.6c-.4 0-.7-.4-.7-1.2h-.6v.6c-.2 0-.3-.1-.3-.3-.4 0-.6.3-.6 1-.4-.2-.7-.3-.9-.3l.3-.7-.7-.9h.3l.6.3c0-.2.3-.4.9-.6l1.6.6.9-.9c1 .5 1.5 1.3 1.5 2.1h.7l-.3-.7V94h.3c1.2-2 1.9-3.1 2.1-3.1 0-.2-.1-.5-.3-.9 1.1-1 1.7-1.8 1.8-2.4.6.3.9.6.9.9v.2h-.6v.7c.7-.6 1.3-.9 1.8-.9l-.3-1.6-.9.7c-.4 0-.6-.4-.6-1.2-.6.3-.9.6-.9.9l-.7-.3c-.4 0-.6.2-.6.7-1.4-.2-2.1-.5-2.1-.9 0-.4.3-.7.9-.7v-.3l-.3-.6-.6.3h-.3v-.3c1.7-1.1 2.5-1.8 2.5-2.1h.6c0 .2.1.5.3.9h-.3c0 1 .3 1.7.9 1.8 1.4-.8 2.3-1.7 2.8-2.7v-.6L131 83l.2.7v.6h-.6v-.6c-.2 0-.3.1-.3.2-.2 0-.6-.8-1.2-2.4v-.3c.5 0 1.2-.3 2.1-.9.7.7 1 1.3 1 1.8h.2V80l-.2-.6-1 .6v-.2l.7-.9 1.5 1.2h.3c0-.2.1-.5.3-.9h-.3l.3-1.5-.3-1.2c.3 0 .5-.2.6-.6l1.2.6.6-.3c0-.2-.1-.2-.2-.2l.2-1.6v-.6h-.6v-.7c.2 0 .5.1.9.3.3 0 .5-.2.7-.6v-.9h-.3v.6h-.7v-.6l.7-.9-.3-.7c.2 0 .3-.1.3-.2.3 0 .5.2.6.6v.3l-.2.6h.9c0-.8.2-1.2.6-1.2l-1.2-1.5c1 0 1.6-.2 1.6-.7h.6v.7h.3v-.3c-.4-.7-.7-1.2-.7-1.5-.8.5-1.2.9-1.2 1.2-.4 0-.7-.2-.7-.6 0-.4.3-.6.9-.6.3-.8.7-1.2 1.2-1.2v-.3c0-.3-.2-.5-.6-.6.4-.5.6-.9.6-1.2h.6c0 .5.7 1 2.1 1.6v-.3l-.9-1.2c-.2 0-.2.1-.2.3-.3 0-.8-.6-1.6-1.8l.6-.9-.6-.9v-.3h.6l1.9.9c0-.4.2-.6.6-.6l-.3-2.1v-.7h.3l.6.3c0-.2.1-.5.3-.9-.4 0-.6-.2-.6-.6-.8 0-1.2.5-1.2 1.5l-.9-.6h-.3v1.2c.6 0 .9.2.9.7l-.2.6c-.8 0-1.7-.7-2.5-2.1v-.6h.3l.6.3c0-.4.3-.7.9-.7v-.2h-.6v-1l-.7-2.4c0-.2.1-.5.3-.9l-.3-.6c.2-.4.3-.8.3-1.2h.6l.3 1.5.7-.2h.6V52c-.8 0-1.2.2-1.2.6v.3c.7 0 1.2.1 1.6.3.3-.2.8-.3 1.5-.3v-.6l-.6-.9v-1h.6v-.6c-.2 0-.5-.1-.9-.3v.7h-.3l-.6-.3c0 .4-.2.6-.6.6v-1.8l-.7.3h-.3c0-.3-.3-.8-.9-1.5.5 0 1.2.2 1.9.6v-.3l.6.3c0 .2-.1.3-.3.3 0 .4.2.6.7.6 0-.4.1-.9.2-1.2-.4-.5-.6-.9-.6-1.2h-.6v.7h-.3c-1-.5-1.5-1-1.6-1.2v-.3h.7c.3 0 .5.2.6.7l.9-.7c.3 0 .8.6 1.6 1.9V48l-.7.9v.3l.7-.3.6.3V48l-.3-.6c.2 0 .3-.1.3-.3l.6.3v-1.2c-.6 0-.9-.1-.9-.3 0-.3-.5-.7-1.5-1.2v-.6c.6.3.9.6.9.9.2 0 .3-.1.3-.3.4 0 1 .2 1.8.7 0-1.4.1-2.3.2-2.5h-.6c0 .7-.1 1.2-.3 1.6-1-.4-1.7-1-1.8-1.6v-.3c1.4 0 2.1-.7 2.1-2.1l-1.2-.9v1.2l.3.7-.6.2c-1.9-.8-2.8-2.1-2.8-4h.7c0 1.4.4 2.4 1.2 2.8l.6-.3-.3-.6v-.3l1.6-.3c0-.1-.2-1.2-.7-3.3 0-.4.2-.6.7-.7.5 0 .9 1 1.2 3.1l.7-.3-.3-.6v-.6h.7c0 .7.1 1.2.2 1.5l.7-.3c0-.3-.2-.5-.7-.6 0-.2.1-.5.3-.9-.3-.6-.6-.9-.9-.9l-.7.3c0-1.1-.1-2-.2-2.8.2 0 .2-.1.2-.2-.6-.3-.9-.6-.9-.9-.3 0-.6.4-.9 1.2.2 0 .4.3.7.9-.4.6-.7 1.1-.7 1.6l-1.2-.9c0 .2.1.5.2.9v.3c-.4 0-1.2.6-2.1 1.8h-.9c-.4 0-.6-.2-.6-.7h.9v-.9l-.9-1.5.3-.7c.4 0 .7.7.9 2.1h.2c0-.3.4-.7 1.2-1.2v-.3h-1.2c-.6-1.2-1.1-1.8-1.5-1.8v.2c-.8-.5-1.2-.9-1.2-1.2v-.7c.3 0 .5.2.7.7 2.2.8 3.3 1.6 3.3 2.4.4-.2.7-.3.9-.3l-.9-2.1c.3 0 .5-.2.7-.7l.9.7-.3-1.2c-.2 0-.3.1-.3.3-.4 0-.6-.3-.6-.9h-.9v.6h.6v.6h-.6c-.4 0-.7-.2-.7-.6V30l.3-.6c-.2 0-.3-.1-.3-.3.4-.8.8-1.2 1.2-1.2 0-.3-.2-.5-.6-.6v.6c-.5 0-1.6-.8-3.4-2.4h-.6c0 .2.4 1.1 1.2 2.7l-.3.6c.3.7.6 1 .9 1 0-.7.2-1 .6-1h.3v1h-.6l.6.9c0 .4-.2.6-.6.6H138c0-.2.1-.5.2-.9-.9-.5-1.4-1-1.5-1.6l-.7.3c-.4 0-.6-.2-.6-.6v-.3l.6.3c.4 0 .6-.2.7-.7 0-.3-.2-.5-.7-.6h-.2l-.7.3-.9-1.6h.3l.6.3c-.4-1.3-.6-2.1-.6-2.5h-.3c0 .5-.1.9-.2 1.2l-.7-.3c0 .7-.2 1-.6 1h-.3c0-.8-.2-1.2-.6-1.2v-.7c.6 0 .9-.2.9-.6l.6.3v-.3c-.6-.6-.9-1.3-.9-2.1H131.9zM101.8 78.1v.3c.2.3.2.7.2 1.2h.3V79c-.2-.4-.3-.7-.3-.9H101.8zM103 42.2c0 .2-.1.5-.2.9v.3h.2c0-.2.1-.5.3-1v-.2H103zM103.6 62.6v2.1h.2v-1.2h.3l.6.3c0 .4.7.9 2.1 1.5l-.2-1.2c-1-.4-1.6-.9-1.6-1.5H103.6zM104.2 40.7V41h.6v-.9C104.4 40.1 104.2 40.3 104.2 40.7zM107.8 74.5c0 .4-.2.6-.6.6h-.6v-.6H106c0 .4-.2 1-.6 1.8-.4 0-.7-.2-.7-.6l.3-.7c-.2 0-.3-.1-.3-.2v-.3c.6 0 .9-.4.9-1.2h.3C106 74 106.6 74.4 107.8 74.5zM105.7 55.3h-.2c0 .2-.1.6-.3 1v.6c.5-.4 1-.6 1.6-.6C106.4 55.6 106 55.3 105.7 55.3zM105.4 108h-.3v.6h.9C106 108.3 105.8 108.1 105.4 108zM105.7 6.9h-.2V6.6c0-.3.2-.5.6-.6h.7C106.4 6.6 106 6.9 105.7 6.9zM105.4 83.3v.3h1.2v-.3H105.4zM105.7 52v.3c0 .4.2.6.7.6h.6V52H105.7zM106.9 76.9h-1.2l.3-1.8C106.5 75.1 106.8 75.7 106.9 76.9zM109.7 4.8v.6c-.3 0-1.2.2-2.7.7 0-.1.5-.6 1.6-1.6C109.2 4.7 109.6 4.8 109.7 4.8zM108.5 7.5h-.3l-.6-.3c0-.3.2-.5.6-.6h.3V7.5zM107.8 107.7h-.2c0 .4 1.7 1.5 5.1 3.4.4 0 .6-.2.7-.7v-.9c-.2 0-.5.1-.9.3-1.4-.5-2.1-.9-2.1-1.2h-.9L107.8 107.7zM110 78.8l-.3.6c-1.2 0-1.8-.7-1.8-2.1v-.3C108.6 78.1 109.3 78.7 110 78.8zM108.2 44.1v1.2l.6-.3v-1.2L108.2 44.1zM109.4 85.5h-.9v.2c.7 0 1.2.1 1.5.3h.3v-.3C110.1 85.7 109.8 85.6 109.4 85.5zM109.7 81.8h-.9v-1.6h.7L109.7 81.8zM109.1 42.8v.3c.5-.8 1-1.2 1.2-1.2v-1.2C110 40.7 109.6 41.4 109.1 42.8zM110.9 4.2c0 .4-.2.6-.6.6H110V4.5c0-.3.2-.5.7-.6h.2V4.2zM110.6 39.2l-.7.3c.3.8.6 1.2.9 1.2h.3l-.3-1.5H110.6zM111.2 56.5v.3c-.2 0-.5.1-.9.3 0-.2-.1-.3-.3-.3l.7-.9C111 55.9 111.2 56.1 111.2 56.5zM110.9 59.9h-.2c-.4 0-.7-.2-.7-.7v-.6h.7C110.6 59.1 110.7 59.5 110.9 59.9zM111.6 5.4c-.3.6-.6.9-.9.9h-.3c.5-.8.9-1.2 1.2-1.2V5.4zM110.9 35.8v.9h.3c.3 0 .5-.2.6-.6v-.3H110.9zM112.1 43.2c0 .4-.2.6-.6.6-.4 0-.7-.2-.7-.6.2 0 .5-.1.9-.3C111.8 43 111.9 43.2 112.1 43.2zM111.8 54.7h-.6v-.3c0-.3.2-.5.6-.6V54.7zM112.1 82.4l-.3.6-.6-.2.3-.7L112.1 82.4zM111.6 37.6v1.6h.2c0-.2.1-.5.3-.9-.2 0-.3-.2-.3-.7H111.6zM112.7 48.9l.3.6c-.4.5-.6.9-.6 1.2h-.9v-.3c0-.3.2-.5.6-.6l-.3-1.5V48h1.2C113 48.2 112.9 48.5 112.7 48.9zM113.4 5.1c0 .4-.2.6-.7.6V4.5h.7V5.1zM114.5 32.5c0 .6-.6 1.2-1.8 1.8v1.2h.3c0-.7.6-1.4 1.8-2.1v-.9H114.5zM113.9 45.5h-.3l-.6-.2c.2-.4.3-.7.3-.9h.6V45.5zM114.3 94.3h-.9v.2c.2 0 .5.1.9.3h.6C114.9 94.6 114.7 94.4 114.3 94.3zM115.8 2.3l-1.5 1.2c-.4 0-.7-.2-.7-.6.3 0 .9-.3 1.9-.9C115.5 2.2 115.6 2.3 115.8 2.3zM113.6 109.8l.7 1.2c.5 0 1.3-.1 2.4-.3l1.6.9v-.3c0-.2-.6-.6-1.8-1.2l-.9.6h-.7v-.9H113.6zM115.5 41.6c-.8-.3-1.2-.6-1.2-.9h1.2V41.6zM115.5 47.1v.3l-.7.9-.6-.3c0-.4.2-.9.6-1.6C115.2 46.5 115.4 46.7 115.5 47.1zM115.8 3.9h-.6c0-.3.2-.5.6-.7h.7C116.4 3.7 116.2 3.9 115.8 3.9zM115.2 100.7v.7h1.2v-.7H115.2zM115.8 35.6l-.2 1.5h.2l.7-.3c-.2-.7-.3-1.1-.3-1.2H115.8zM116.4 97c0 .6-.3.9-.9.9v.3h1.8C117 97.4 116.7 97 116.4 97zM116.7 95.2c-.3 0-.6.4-.9 1.2.2 0 .5.1.9.2 0-.2-.1-.5-.2-.9 0-.2.2-.2.6-.2v-.3H116.7zM117.3 1.7L117 2.3l-.6-.2.2-.7L117.3 1.7zM116.4 27v.3h1.2v-.6L116.4 27zM118.2 35.6c0 .4-.2.6-.7.6h-.2v-.3c0-.3.2-.5.6-.6h.3V35.6zM120.4 1.2H120c-1 1.4-1.8 2.1-2.1 2.1h-.3l.3-.6c.4 0 1-.7 1.8-2.1h.7V1.2zM118.2 32.2l.2 1.5h.3v-.2l-.3-.7.3-.6v-.3L118.2 32.2zM118.2 94.9v.9h.9c-.2-.4-.3-.7-.3-.9H118.2zM119.7 40.1c0 .4-.2.6-.6.6h-.3v-.2l.3-.7L119.7 40.1zM120 112.5l-.6-.2-.3.6h2.1l-.3-.6C120.7 112.3 120.4 112.4 120 112.5zM121 28.8v.7c-.2 0-.5.1-.9.3h-.3v-.7l.3-.6C120.4 28.7 120.7 28.8 121 28.8zM121.5 27.6H121V27c.3-.6.6-.9.9-.9h.3C121.8 26.7 121.5 27.3 121.5 27.6zM123.1 25.2h-.3l-.6-.3c0 .2-.1.3-.3.3h-.3c.4-.7.7-1.2.7-1.5h.6L123.1 25.2zM122.4 20v.3c.2 0 .5.1 1 .3V20H122.4zM124.6 19.7c-.6 0-.9.2-.9.6l1.2-.3v-.2H124.6zM124.3 94.6c0 .8-.2 1.2-.7 1.2v.7c0 .4.2.6.7.6 0-.8.4-1.2 1.2-1.2C125 95 124.6 94.6 124.3 94.6zM124.9 98.8c-.4.2-.7.3-.9.3v.3h.3c.4-.2.7-.3.9-.3v-.3H124.9zM124.9 92.2h-.3l.3-.6-.3-.7.7-.2h.6C125.7 91.7 125.4 92.2 124.9 92.2zM125.5 98.5v.7h.9v-.3C126.2 98.8 125.9 98.7 125.5 98.5zM127.3 93.6c0 .6-.2 1.1-.6 1.6v.6c.6-.3.9-.6.9-.9.4 0 .7.3.7.9h.2v-.9H128c0-.2.1-.3.3-.3C128 93.9 127.6 93.6 127.3 93.6zM128 77.9l-.3.6-.6-.3c0-.3.2-.5.6-.6h.3V77.9zM128.9 6c0 .2-.4.2-1.2.2l.3.7c.2 0 .5-.1.9-.3l.6.3.3-.7C129.6 6.3 129.3 6.2 128.9 6zM128 84.6v.2l.3.7-.3.6v.3l.6-.3-.2-1.5H128zM129.2 90v1.6c-.8.9-1.2 1.5-1.2 1.8v.2l.6-.2.7.2c.2-.7.5-1.6 1.2-2.7v-1.2L129.2 90zM129.5 82.4c0 .4-.2.6-.6.6h-.3v-.2c0-.4.2-.6.7-.7h.2V82.4zM129.2 118.6h-.7v-.6h.3c1-1.4 1.8-2.1 2.1-2.1h.2C130.6 116.6 129.9 117.5 129.2 118.6zM131 81.2l-.7.3.3 1.2h.3l.2-1.6H131zM130.7 7.5v.3c0 .3.6.7 1.8 1.2l.9-.7h.7v.9h.6c0-.2.1-.5.3-.9-.2 0-.3-.1-.3-.2-.5 0-1.3.1-2.4.2L130.7 7.5zM132.5 70.2c0 .4-.2.9-.6 1.6-.4 0-.7-.2-.7-.7v-.2l.7-.9L132.5 70.2zM132.5 77.6h-1.2v-.9C132.1 76.9 132.5 77.2 132.5 77.6zM132.5 117.2l-.2.6-.7-.3.3-.6L132.5 117.2zM134.1 82.1c0 .8-.7 1.7-2.1 2.7v.9h.3c0-.5.6-1.2 1.8-1.8V83l.2-.6v-.3H134.1zM133.2 115.9h-.7c0-.3.2-.5.7-.7h.6C133.7 115.7 133.6 115.9 133.2 115.9zM133.7 72.9c-.2.4-.3.8-.3 1h-.6v-1.2h.3L133.7 72.9zM135.2 116.2c-.3 0-.9.3-1.8 1 0-.2-.1-.3-.2-.3l1.5-1.2C135 115.6 135.2 115.8 135.2 116.2zM133.7 30.9h-.3v-.6c.2 0 .5-.1.9-.3h.3C134.3 30.6 134 30.9 133.7 30.9zM134.7 18.2h-.9v.9c.3-.2.8-.2 1.5-.2C135.2 18.4 135 18.2 134.7 18.2zM133.7 22.4v.9h.6c-.2-.4-.2-.7-.2-.9H133.7zM135.2 67.8c0 .4-.2.6-.6.6L135 70v.2h-1.2c0-.2.1-.5.3-.9l-.3-.6c.4-.5.6-.9.6-1.2h.9V67.8zM134.3 21.5v.6l2.1.7c.3 0 .5-.2.7-.7-.2 0-.5-.1-1-.2l-1.2.2v-.6H134.3zM136.1 23.9c0-.6-.5-.9-1.5-.9v.3c0 .4.8.9 2.5 1.2 0-.2.1-.5.2-.9V23L136.1 23.9zM135.6 32.8c-.4-.2-.7-.2-.9-.2v-.3h.9V32.8zM135.6 35.6l-.3.6-.6-.3.3-.6L135.6 35.6zM135.9 75.1c-.2 0-.5.1-.9.3 0-.2-.1-.3-.3-.3 0-.3.2-.5.6-.6C135.6 74.5 135.8 74.7 135.9 75.1zM135 79c0 .2-.1.5-.3.9.2 0 .3.2.3.7h.2V79H135zM135.6 63.9c0 .4-.2.6-.6.6v-.9h.6V63.9zM135.6 81.5c-.4 0-.6.2-.6.6v.3h.9v-.9H135.6zM135.2 8.4c.2.4.3.7.3.9h.9c.7.6 1.4 1 2.1 1.2h.9l.6.3c0-.2-.3-.5-.9-.9-1.8-1-2.7-1.6-2.7-1.8L135.2 8.4zM136.8 61.4l-.7.9c-.4 0-.6-.2-.6-.6v-.3c.2 0 .5-.1.9-.2C136.5 61.3 136.6 61.4 136.8 61.4zM135.9 77.6h-.3l.3 1.5h.2l.7-.2C136.5 78 136.2 77.6 135.9 77.6zM136.1 114.7h-.6v-.6c0-.4.2-.6.6-.7V114.7zM135.9 24.8v.3c0 .4.2.7.6.7v-1H135.9zM136.8 59v.6h-.7c0-.4-.1-.9-.2-1.2h.2C136.5 58.3 136.7 58.6 136.8 59zM137.4 33.7v.7h-.2c-.4 0-.7-.2-.7-.7v-.2C136.9 33.6 137.2 33.7 137.4 33.7zM136.5 76.3v1.2c.3 0 .7-.7 1.2-2.1v-.3C137.2 75.9 136.7 76.3 136.5 76.3zM138.9 41v.3c-.8-1.2-1.5-1.8-2.1-1.8l.3-.7C138.3 38.9 138.9 39.6 138.9 41zM138 38h-.7l-.2-1.5h.9V38zM137.4 114.1v-.3c.3-.6.6-.9.9-.9h.3C138.1 113.7 137.7 114.1 137.4 114.1zM138 20.6v1.5l.6-.2-.3-1.2H138zM138 24.6v.9h.6c-.2-.4-.3-.7-.3-.9H138zM138 73.3v1.2l.6-.3v-1.2L138 73.3zM138.9 114.7c0 .4-.2.6-.7.6H138V115c0-.4.2-.6.6-.7h.3V114.7zM142 42.5l-.3.7c.2 0 .3.1.3.3v.2c-.6 0-.9.4-.9 1.2h-.3c0-.7-.6-1.1-1.8-1.2 0-.3.2-.5.6-.6h.6v.6h.7c0-.4.2-1 .6-1.8C141.7 41.9 141.9 42.1 142 42.5zM143.5 112.5c-2 1.2-3.1 1.9-3.1 2.1l-1.2-.3v-.6c1.1 0 2.4-.5 4-1.5h.3V112.5zM139.5 24.6v1.2h.6c-.2-.4-.2-.8-.2-1.2H139.5zM140.8 43.2c-.6-.2-.9-.8-.9-1.8h1.2L140.8 43.2zM142 54.4c0-.4-.7-.9-2.1-1.5 0 .2.1.5.2.9l1.6 1.8h1.5v-2.1h-.2v1.2h-.3L142 54.4zM140.4 65.3h-.6v.9h1.2V66C141.1 65.6 140.9 65.4 140.4 65.3zM140.1 62c.3.6.7.9 1 .9h.2c0-.2.1-.5.3-.9v-.7C141.2 61.8 140.6 62 140.1 62zM141.3 112c0 .4-.2.6-.6.6h-.3v-.9h.3L141.3 112zM142.6 37.4v1.5H142c0-.6-.3-.9-.9-.9V37c.2 0 .5-.1.9-.3C142.3 36.7 142.5 36.9 142.6 37.4zM142 10.9c.4.5.6.9.6 1.2h.3v-.2c-.2-.4-.3-.7-.3-.9H142zM142 77.2v.9c.3 0 .5-.2.6-.6v-.3H142zM143.2 29.5c0 .2.1.3.3.3 0 .2-.1.5-.3.9v.2h.3v-.2h1.2C144.6 30.3 144.1 29.8 143.2 29.5zM143.5 11.8v.6c.2 0 .5.1.9.3C144.1 12.1 143.8 11.8 143.5 11.8zM143.8 74.8c0 .2-.1.5-.3.9V76h.3c0-.2.1-.5.2-.9v-.2H143.8zM144.4 38.6v.6c.2.4.3.7.3.9h.2v-.3c-.2-.3-.2-.7-.2-1.2H144.4zM146.5 10.6v.3h-.3l-.9-.7.3-.6C146.2 10 146.5 10.3 146.5 10.6zM145.3 38.9v.3c0 .4.2.6.7.6v-.2C146 39.1 145.7 38.9 145.3 38.9zM146 57.2c0 .3-.2.7-.7 1.2V59c.4 0 .7-.5.9-1.6v-.2H146zM145.3 59.6l.3 1.6h.3v-1.6H145.3zM145.6 32.2v.3c0 .6.2.9.6.9l-.2-1.2H145.6zM145.6 43.7V45h.6l-.2-1.2H145.6zM145.6 46.8v1.6h.3v-1.6H145.6zM146 13v.2c.3 0 .7.2 1.2.7l-.2-1.2C146.4 12.9 146.1 13 146 13zM146.2 38.3v1.2h.3v-1.2H146.2zM147.1 39.5v1.8l-.2.6c.4 0 .6.8.6 2.5.3 0 .5-.2.6-.7v-.6l-.2-1.8c.2-.4.2-.7.2-.9-.2-.4-.2-.7-.2-.9H147.1zM148.4 45.3l-.6-.3c0 .4.1.9.2 1.2l-.2.6c.2.8.2 1.6.2 2.5h.3v-1.6l-.3-1.2c.3-.4.6-.6.9-.6V45L148.4 45.3zM148 59.2v1l.7-.3C148.7 59.6 148.5 59.4 148 59.2zM148.9 95.2c-.4 0-.6.2-.6.6v.3c.6-.3.9-.6.9-.9H148.9zM151.1 23.9h-.2l.6 1.2.6-.3C151.7 24.2 151.4 23.9 151.1 23.9zM151.1 20.6V21c.3.6.6.9.9.9v-.3C151.7 20.9 151.4 20.6 151.1 20.6zM151.7 33.4v.2h.9v-.2l-.3-.7C151.9 32.8 151.7 33 151.7 33.4zM153.9 23v.3c0 .6.2.9.6.9l-.3-1.2H153.9zM154.5 24.6v.6c.7 2 1.4 3.5 2.1 4.3h.2v-.3l-1.8-4.5H154.5zM154.8 40.1c0 .2-.1.5-.3.9v.3L155 41v-.9H154.8zM155.7 29.1v.3c0 .5.3 1.3.9 2.4-.2 1.1-.3 1.7-.3 1.8.6 0 1 .4 1.2 1.2v.3h-.7v-.6h-.2v.2c.2.3.2.9.2 1.6.2 0 .3-.1.3-.3.5 0 .8.6.9 1.8h-.6v1.2l.6-.3.7.3c0-.2.2-.3.6-.3v-1.2l-1.8-4.5c-.2-1-.7-2.4-1.6-4H155.7zM155.9 45.9h-.2c.2.4.2.7.2.9l.7-.3C156.6 46.1 156.4 45.9 155.9 45.9zM155.9 49.3v1.2h.7v-1.2H155.9zM158.1 26.4v.3c-.2 0-.7-.6-1.5-1.9v-.2l.2-.7C157.2 23.9 157.6 24.8 158.1 26.4zM158.4 28.5v.2h-.7c0-.2-.1-.5-.2-.9v-.6C157.8 27.3 158.1 27.7 158.4 28.5zM158.1 39.5v2.1l.7-.2h.2v.9c0 .6-.2 1.2-.6 1.8l.3.6.6-.2-.3-.7c0-.3.2-.5.7-.6-.2-1-.3-2.1-.3-3.1-.2 0-.3.1-.3.3-.4 0-.6-.3-.6-.9H158.1zM159.7 29.1c0 .4-.2.7-.7.7 0-.2-.2-.9-.6-2.1h.6C159 28 159.2 28.5 159.7 29.1zM159.7 25.8c-.4 0-.7-.2-.7-.7v-.6h.7V25.8zM159 45c0 .2.1 1 .3 2.5l.6-.3c0-.8-.1-1.5-.2-2.1H159zM160.8 27.9v.3h-.2c-.4 0-.7-.2-.7-.6v-.3h.3C160.6 27.3 160.8 27.5 160.8 27.9zM160.2 82.8v-.7l2.7-2.7h.3C162.7 80.7 161.7 81.9 160.2 82.8zM161.5 85.1l-.7.9c-.4 0-.6-.2-.6-.6v-.3c0-.3.2-.5.6-.6h.7V85.1zM161.1 70.9c0 .6-.2.9-.6.9l.2.6c.4 0 .6-.2.7-.6v-.9H161.1zM161.1 48.3c0 .7-.1 1.2-.3 1.5h.3l-.3 1.6c.2.4.3.7.3.9h.3c0-.2.1-.5.2-.9 0-.3-.1-1.3-.2-3.1H161.1zM160.8 57.8V59h.3v-1.2H160.8zM163.6 84.8c-.7 1.4-1.2 2.1-1.6 2.1h-.3v-.2l.7-1v-.6l-.3-.6.9-.7-.2-.6c0-.3.2-.5.6-.6L163.6 84.8zM162 61.4v.3c0 .4.2.6.7.6v-.9H162zM163.3 35.6v.2H163l-.6-.2.3-.7C163 34.9 163.2 35.1 163.3 35.6zM164.2 76.3c-.5.8-.9 1.2-1.2 1.2h-.6v-.3c.8-.4 1.2-1 1.2-1.8h.2C163.9 75.6 164 75.9 164.2 76.3zM163.9 37l-.2.6-.7-.2.3-.7L163.9 37zM163.9 81.8h-.6v-.3c0-.3.4-.6 1.2-.9h.2C164.5 81.4 164.2 81.8 163.9 81.8zM164.5 46.5v1h-.7c0-.2-.1-.5-.2-1v-.2C164 46.4 164.3 46.5 164.5 46.5zM165.4 71.8v.6c0 .4-.2.6-.7.6h-.2v-1.2l.2-.7C165.2 71.1 165.4 71.3 165.4 71.8zM165.1 78.1h-.6l.2-1.2h.7L165.1 78.1zM166.9 66.9c-.9 1.6-1.5 2.4-1.8 2.4h-.3v-.2c.6-.5.9-1.4.9-2.5.8 0 1.6-.6 2.5-1.8h.3C168.5 66.2 168 66.9 166.9 66.9zM166.3 73.3c0 1-.3 1.6-.9 1.8h-.3v-.2c.4-.5.6-1.2.6-2.1h.7V73.3zM167.2 70.2c-.2.4-.3.7-.3.9h-.6v-.6l.2-.6L167.2 70.2zM168.7 63.2h-.6V62h.6V63.2zM169.1 52.3h-.6v-.9h.6V52.3zM177.6 66.9h-.6V66h.6V66.9zM178 56.3h-.6V55h.6V56.3zM181.4 49.3c-.6.5-.9 1.3-.9 2.4-.8 0-1.6.6-2.5 1.8h-.3c0-1.4.5-2.1 1.6-2.1.9-1.7 1.5-2.5 1.8-2.5h.3V49.3zM179.8 47.7l-.2.7-.7-.3c.2-.4.3-.7.3-.9h.6V47.7zM181 43.5c-.4.4-.6 1.1-.6 2.1h-.7V45c0-1 .3-1.6.9-1.8h.3V43.5zM181.4 41.3h-.7l.3-1.2h.6L181.4 41.3zM181.6 46.5l-.2.7c-.4 0-.7-.2-.7-.7v-.6c0-.3.2-.5.7-.6h.2V46.5zM182.8 36.7c0 .3-.4.6-1.2.9h-.2c.3-.8.6-1.2.9-1.2h.6V36.7zM182.5 71.8V72c-.4-.2-.7-.2-.9-.2v-.9h.7C182.3 71.1 182.3 71.4 182.5 71.8zM228.8 5.1c.8 0 1.2.2 1.2.6h.3l1.2-.9v.3c1.6.8 2.4 1.4 2.4 1.8.3 0 .5-.2.6-.7V6H234V5.4c1.8.3 2.7.8 2.7 1.6h.3l.6-.3c0 .2.1.3.3.3l-.3.6c-.3 0-1.1-.2-2.4-.6h-.3v.2c2 .4 3.1.9 3.1 1.6.3 0 .5-.2.6-.6H238V7.8h1.2v.6c.2 0 .2-.1.2-.2.4 0 .7.4.7 1.2h.9V9.1l-.3-.7h.3c1.8 1.1 2.7 1.8 2.7 2.1h-1.2v.6c.4 0 .9.3 1.6.9h.2l-.2-.6v-.6h.2c.7 1 1.4 1.5 2.1 1.5 2 2.4 3.1 3.6 3.4 3.6h.3v-.6c-.6 0-1.7-1.4-3.4-4.3v-.2c.2 0 .3.1.3.2l.6-.2 1.8 2.4c.4 1.3 1.8 3.2 4 5.5v.2l-.2.7-.7-.3h-.3c1.7 3.7 3 6.1 4 7.3v-.7l.7.3-.3 1.5c.6 1 .9 1.8.9 2.1l.7-.2h.2c0 .4-.1.8-.2 1.2l.9 1.6c-.6 0-.9.2-.9.6v.3c1.2 1.9 1.8 3.7 1.8 5.4h.2V38l-.9-4.3c.2 0 .3.1.3.3.2 0 .3-.1.3-.3l.6.3c0 .2-.1.5-.3.9 1 1.8 1.6 3.2 1.6 4.3v.6h.6v.3c0 .4-.2.6-.6.6-.4 0-.7-.8-.7-2.4h-.2c0 .8-.2 1.2-.7 1.2v.2c.8.7 1.2 1.8 1.2 3.4l.7-.3c0 .4-.2 1-.7 1.8v.7h.3c0-.8.3-1.2.9-1.2l.3.6V45c-.4 0-.9.5-1.2 1.5v1h.6V48l-.6.9v.6l.6-.2.7.2c0-.8.2-1.2.6-1.2l-.3 2.1-.6-.2h-.3v.2c0 .4.2.7.7.7l-.9 1.5v1.6h.6v1.8c.5 0 .8.5.9 1.5-.3 1.2-.6 2-.9 2.5v.3c.6 0 .9.2.9.6l-.6.9c0 .4.2.6.6.6l-1.2 2.8h-.6v-.7h-.3c0 .2-.1.5-.3.9v.3h.3l.7-.3v.3l.6-.3.6.3-.9 1.5h.3c-.5 1.8-1.2 2.8-1.8 2.8v.2c.8 0 1.2.2 1.2.7 0 .4-.2.6-.7.6 0 .2.1.3.3.3-.7 3.2-1.4 4.9-2.1 4.9 0 .4.1.9.3 1.2 0 .4-.2.6-.7.6 0 .2.1.5.3.9 0 .2-.3.4-.9.6l.3.7v.2c0 .4-.3.7-.9.7.4.7.6 1.3.6 1.8v.9c-.4 0-.9.1-1.2.3 0 .2.1.5.3.9-.6 1.8-1.1 2.7-1.6 2.7 0 .2.1.5.3.9-.7 1.7-1.3 2.5-1.8 2.5v.6c0 1.5-.3 2.3-.9 2.4-.5 1.5-1 2.7-1.6 3.7l1 .6h.2c0-.7.9-2.3 2.7-4.9 0-.2-.1-.5-.2-.9l1.2-1.5c-.2 0-.2-.1-.2-.3l1.8-2.7v-.3l-.6.3h-.3l.3-1.2h.2l.7.3c0-.4.2-.6.6-.7h.3v.7l-1.8 3.3c-1.2 4.3-3.2 8.2-6.1 11.6v.3l1.8-1.5c1.2-2.5 2.2-3.7 3.1-3.7 0-.2-.1-.2-.3-.2.8-3.2 1.7-4.9 2.7-4.9l-.6-.9h.6c1-2.5 1.6-3.7 1.8-3.7h.3v.3c0 1.1-.4 1.8-1.2 2.1 0 .4.1.9.3 1.2l-2.1 3.3c-.8 2.4-1.4 3.6-1.8 3.6 0 1.3-1.5 3.1-4.5 5.5-1 2.6-3.8 5.3-8.3 8.3h-.9c1.2-1 1.8-1.6 1.8-1.9 2.6-1.4 4.4-3 5.5-4.9-1.6 1.7-2.6 2.5-3.1 2.5l-5.5 4-.6-.3c.2-.4.3-.7.3-.9 2.2-.9 3.3-1.7 3.3-2.4.2 0 .3.1.3.2 2.1-1.2 3.3-2.3 3.6-3.3V105h-.3c-2.3 1.6-3.7 2.4-4.2 2.4-.7 1.3-2.3 2.2-4.6 2.8 0 .2.1.2.3.2l-.3.7-1.5-.7v.3c-1.8.6-3.3 1.4-4.5 2.5h-1.6v.6h-.6v-.6h-.3c-1 .8-1.8 1.2-2.4 1.2v-.6c-1 .8-1.7 1.2-1.9 1.2l-.6-.3c0 .2-.1.3-.3.3-.4 0-.6-.3-.6-.9l-1.2.9h-1.5l.3-.7c-.8 0-1.2-.2-1.2-.6h-.7l-.9.6-.6-.2c0 .6-.2.9-.6.9h-.7l.7-.9v-.3c-.2 0-.6.1-1 .3-.2 0-.2-.2-.2-.7h-.3l-1.2.9v-.2c-1.6-.9-2.4-1.5-2.4-1.8-.4 0-.7.2-.7.6v.3h.7v.6c-.8 0-1.8-.5-3.1-1.5l-.6.2c0-.2-.1-.2-.3-.2l.3-.7c.3 0 1.1.2 2.4.7h.3V112c-2-.4-3.1-.9-3.1-1.6H209v.7h.7v.2h-1.2v-.6c-.2 0-.3.1-.3.3-.4 0-.6-.4-.6-1.2h-.9v.3l.3.6h-.3l-2.7-1.8c0-.2.1-.3.2-.3l-.2-.6.2-.7c-.2 0-.2-.1-.2-.2-.4 0-.7.3-.7.9h-.6l.3-.7v-.2c0-.3-.2-.5-.7-.7-.6.3-.9.6-.9.9-1-.6-1.5-1.3-1.5-2.1h-.7v.6H199c-.9-1.2-1.7-1.8-2.1-1.8v.3l1.8 2.7v.2c-.2 0-.3-.1-.3-.2l-.6.2L196 105c-.4-1.3-1.8-3.1-4-5.4v-.7h.6v.7h.3c0-.2.1-.5.3-1 0-.1-1.3-2.4-4-6.9v.6l-.7-.3.3-1.5c-.6-1-.9-1.8-.9-2.1l-.7.3h-.2c0-.5.1-.9.2-1.2l-.9-1.6c.6 0 .9-.2.9-.6v-.3c-1.2-1.9-1.8-3.7-1.8-5.4h-.2v.9l.9 4.3c-.2 0-.3-.1-.3-.3-.2 0-.3.1-.3.3l-.6-.3c0-.2.1-.5.3-.9-1-1.8-1.6-3.2-1.6-4.3v-.6h-.6v-.3c0-.3.2-.5.6-.6.4 0 .7.8.7 2.4h.2c0-.8.2-1.2.7-1.2v-.3c-.8-.7-1.2-1.8-1.2-3.4l-.7.3c0-.4.2-1 .7-1.8v-.7h-.3c0 .8-.3 1.2-.9 1.2l-.3-.6v-.3c.4 0 .9-.5 1.2-1.5v-.9h-.6v-.7l.6-.9v-.6l-.6.3-.7-.3c0 .8-.2 1.2-.6 1.2l.3-2.1.6.2h.3v-.2c0-.3-.2-.5-.7-.7l.9-1.5v-1.6h-.6v-1.8c-.5 0-.8-.5-.9-1.5.3-1.2.6-2 .9-2.5v-.2c-.6 0-.9-.2-.9-.7l.6-.9c0-.3-.2-.5-.6-.6l1.2-2.7h.6v.6h.3c0-.2.1-.5.3-.9v-.3h-.3l-.7.3v-.3l-.6.3-.6-.3.9-1.5h-.3c.5-1.8 1.2-2.7 1.8-2.7V48c-.8 0-1.2-.2-1.2-.6s.2-.6.7-.7c0-.2-.1-.3-.3-.3.7-3.2 1.4-4.9 2.1-4.9 0-.4-.1-.8-.3-1.2 0-.4.2-.6.7-.7 0-.2-.1-.5-.3-.9 0-.2.3-.4.9-.6l-.3-.7v-.2c0-.4.3-.7.9-.7-.4-.7-.6-1.3-.6-1.8V34c.4 0 .9-.1 1.2-.3 0-.2-.1-.5-.3-.9.5-1.7 1.1-2.6 1.6-2.7 0-.2-.1-.5-.3-.9.7-1.6 1.3-2.4 1.8-2.4v-.7c1.2-4.1 3-7.6 5.4-10.6H196c-1.2.8-1.8 1.4-1.8 1.8-.4.1-2 2.4-4.9 7 0 .2.1.5.2.9l-1.2 1.6c.2 0 .2.1.2.2l-1.8 2.8V30l.6-.2h.3l-.3 1.2h-.2l-.7-.2c0 .4-.2.6-.6.6h-.3v-.6c.6-.8 1.5-2.8 2.8-6.1 1.3-4 3.3-7.2 6-9.5v-.2c-.2 0-.9.5-2.1 1.5-1.8 2.9-3 4.3-3.7 4.3 0 .2.1.3.3.3-.8 3.2-1.7 4.9-2.7 4.9l.6.9h-.6c-1 2.4-1.6 3.6-1.8 3.6h-.3V30c0-1.1.4-1.8 1.2-2.1 0-.4-.1-.8-.3-1.2l2.1-3.4c.8-2.4 1.4-3.6 1.8-3.6 0-1.3 1.7-3.3 5.2-6.1.4 0 .8.1 1.2.3l1.2-.7c1-1.7 3.5-3.8 7.3-6.4h.6v.6c-.8 0-1.3.4-1.5 1.2-2.1 1.2-3.9 2.6-5.2 4.3h.3c1.2-1.3 2-1.9 2.4-1.9l5.5-4 .6.3c-.2.4-.3.7-.3.9-2.2.9-3.3 1.8-3.3 2.5-.2 0-.3-.1-.3-.3-.7 0-1.2.7-1.5 2.1h.2c2.5-1.8 4.7-3 6.7-3.6 0-.2-.1-.3-.2-.3l.2-.6 1.6.6V8.4c1.8-.6 3.3-1.4 4.5-2.4h1.6V5.4h.2c.4 0 .6.2.7.7 1-.8 1.8-1.2 2.4-1.2v.6c1-.8 1.6-1.2 1.8-1.2l.7.2c0-.2.1-.2.2-.2.4 0 .7.3.7.9l1.2-.9h1.5l-.3.6c.8 0 1.2.2 1.2.6h.6l1-.6.6.3c0-.6.2-.9.6-.9h.7L228.8 5.1zM183.7 41c-.8.5-1.2 1.1-1.2 1.8h-.2c0-.2-.1-.5-.3-.9.5-.8.9-1.2 1.2-1.2h.6V41zM183.2 80.9l-.3.7-.6-.3.2-.6L183.2 80.9zM184.4 31.6l-.7.9v.6l.3.6-.9.7.2.6c0 .4-.2.7-.6.7l-.3-2.1c.7-1.4 1.2-2.1 1.6-2.1h.3V31.6zM185.9 36.1l-2.7 2.7h-.3c.5-1.3 1.6-2.4 3.1-3.3V36.1zM183.7 82.8l-.3.6c-.4 0-.6-.2-.6-.6v-.3h.3L183.7 82.8zM183.4 55.9v.9h.7v-.3C184.1 56.2 183.9 56 183.4 55.9zM184.7 66c0 .2-.1.5-.2.9.2 1.8.2 2.8.2 3.1h.3c0-.7.1-1.2.3-1.6H185l.3-1.5c-.2-.4-.3-.7-.3-.9H184.7zM185.9 32.8v.3c0 .4-.2.6-.6.6h-.7v-.6l.7-.9C185.6 32.2 185.8 32.4 185.9 32.8zM184.7 46.5v1h.3c0-.7.2-1 .6-1l-.2-.6C184.9 45.9 184.7 46.1 184.7 46.5zM185 59.2v1.2h.3v-1.2H185zM186.2 90.7v.2h-.3c-.4 0-.6-.2-.6-.6V90h.2C185.9 90 186.2 90.2 186.2 90.7zM186.2 71.1c0 .8.1 1.5.2 2.1h.7c-.2-1.4-.3-2.2-.3-2.4L186.2 71.1zM186.8 73.9l.3.6c0 .4-.2.6-.7.6.2 1.1.3 2.1.3 3.1.2 0 .3-.1.3-.2.4 0 .6.3.6.9h.3v-2.1l-.7.2h-.2V76c0-.5.2-1.2.6-1.8l-.3-.6L186.8 73.9zM187.7 90.7h-.6c0-.4-.2-.9-.7-1.6 0-.3.2-.5.7-.6L187.7 90.7zM187.1 93.1v.6h-.7v-1.2C186.9 92.5 187.1 92.7 187.1 93.1zM188 79.4l-.7-.3c0 .2-.2.3-.6.3v1.2l1.8 4.5c.2 1 .7 2.4 1.6 4h.2v-.3c0-.4-.3-1.2-.9-2.4.2-1.1.3-1.7.3-1.8-.6 0-1-.4-1.2-1.2V83h.7v.7h.2v-.3c-.2-.3-.2-.8-.2-1.5-.2 0-.3.1-.3.2-.6-.2-.9-.8-.9-1.8h.6V79L188 79.4zM188.6 90.3v.6c-.3 0-.6-.4-.9-1.2v-.2h.7C188.4 89.7 188.4 90 188.6 90.3zM189.5 93.4v.2l-.2.7c-.3 0-.7-.8-1.2-2.5v-.2C188.3 91.6 188.8 92.2 189.5 93.4zM189.3 88.8v.3l1.8 4.5h.2v-.2c0-1.5-.6-3-1.8-4.6H189.3zM189.5 67.8v1.2h.7v-1.2H189.5zM189.5 71.8c0 .4.2.6.7.6h.2c-.2-.4-.2-.7-.2-.9L189.5 71.8zM191.1 77.2v.9h.2c0-.2.1-.5.3-.9v-.3L191.1 77.2zM195.6 101.9h-.3v.6c.3 0 .9.3 1.9.9C196.4 102.4 195.9 101.9 195.6 101.9zM197.8 69.1v1.5l.3 1.2c-.3.4-.6.6-.9.6v.9l.6-.3.6.3c0-.4-.1-.9-.2-1.2l.2-.6c-.2-.8-.2-1.6-.2-2.4H197.8zM197.4 58.3c0 .4.2.7.7.7v-.9L197.4 58.3zM198.1 74.5v.6l.2 1.8c-.2.4-.2.8-.2 1 .2.4.2.7.2.9h.7v-1.9l.2-.6c-.4 0-.6-.8-.6-2.4C198.3 73.9 198.1 74.1 198.1 74.5zM199.3 80.6c0 .4.2.6.7.6 0 .2-.1.5-.3.9v.3h.3l.6-.3-.6-1.8L199.3 80.6zM199.6 78.8V80h.3v-1.2H199.6zM200.8 108l-.3.6c-.6-.3-.9-.6-.9-.9v-.3h.3L200.8 108zM199.9 60.8v.3h.2c0-.3.2-.7.7-1.2v-.7C200.4 59.2 200.1 59.8 199.9 60.8zM199.9 73.3c0 .1.1.5.2 1.2h.3v-1.2H199.9zM200.2 57.2v1.5h.7l-.3-1.5H200.2zM200.2 70v1.5h.3V70H200.2zM200.2 78.5v.3c0 .4.2.6.7.6V79C200.8 78.7 200.6 78.5 200.2 78.5zM200.5 80.6c.2.4.3.7.3.9h.3v-1.2L200.5 80.6zM231.3 21.2c0 .1.2.9.6 2.5-.8-.7-1.2-1.4-1.2-2.1h-.2c-.5.4-1 .6-1.6.6v.3l1.8.3v.9c-.2 0-.5-.1-.9-.3h-.6c.2.4.3.7.3.9h.6l.9-.6c0 .2-.1.5-.3.9l.3.6v.3h-.6v-.7H230v.7h-.6c0-.6-.4-1.1-1.2-1.6 0-.2.1-.2.3-.2 0-.2-.1-.3-.3-.3 0-.2.1-.5.3-.9v-.3l-.7.3h-.2l-1-.6-.2 1.8h-.7V23h-.6v.7c.4 0 .6.4.6 1.2h.7l-.3-.6c0-.3.2-.5.6-.6v.9c.4 0 .7-.3.7-.9.4.2.7.2.9.2l-.3.7.7.9h-.3l-.6-.3c0 .2-.3.4-1 .7l-1.5-.7c0 .2-.1.3-.3.3v-.7h-.6v1h-.3c-.8-.5-1.2-.9-1.2-1.2v-.7h.2l.9.7c0-.8.2-1.2.7-1.2v-.6c0-.4-.2-.6-.7-.7V23H223l-.6-.2-.3.6c-.2 0-.3-.1-.3-.3l-1.8 1.6.3.6c0 .4-.2.7-.6.7l-.7-.3-1.5 3.1c.2 0 .2.1.2.2v1c0 .4-.6.7-1.8.9-.4 0-.6-.2-.6-.7v-.6l1.5-1.2v-.6l-1.5.6c-.5 1.2-.9 1.8-1.2 1.8v.7c.2 0 .3-.1.3-.3 1.2.4 1.8.8 1.8 1.2.3 0 .5-.2.6-.7l.7.3c.3 0 .5-.2.6-.6 1.4.2 2.1.5 2.1.9 0 .4-.3.6-.9.6v.3l.3.6.6-.3h.3v.3c-1.6 1.1-2.5 1.8-2.5 2.1h-.6c0-.2-.1-.5-.3-.9h.3c0-1-.3-1.7-.9-1.8-1.4.8-2.3 1.7-2.8 2.7v.6l1.2-.6-.2-.6V34h.6v.7c.2 0 .3-.1.3-.3.2 0 .6.8 1.2 2.4V37c-.5 0-1.2.3-2.1.9-.7-.7-1-1.3-1-1.8h-.2v2.1l.2.6 1-.6v.3l-.7.9-1.5-1.2h-.3c0 .2-.1.5-.3.9h.3l-.3 1.5.3 1.2c-.4 0-.6.2-.6.6l-1.2-.6-.6.3c0 .2.1.2.2.2l-.2 1.6v.6h.6v.7c-.2 0-.5-.1-.9-.3-.4 0-.7.2-.7.6v.9h.3v-.6h.7v.6l-.7 1 .3.6c-.2 0-.3.1-.3.3-.4 0-.6-.2-.6-.7v-.2l.2-.7h-.9c0 .8-.2 1.2-.6 1.2l1.2 1.5c-1 0-1.6.2-1.6.7h-.6v-.7h-.3v.3c.4.7.7 1.2.7 1.6.8-.5 1.2-.9 1.2-1.2.4 0 .6.2.7.6 0 .4-.2.7-.7.7l-1.5 1.2v.3c0 .4.2.6.6.6-.4.5-.6.9-.6 1.2H206c0-.5-.7-1-2.1-1.5v.2l.9 1.2c.2 0 .2-.1.2-.3.3 0 .8.6 1.6 1.9l-.6.9.6.9v.2H206l-1.9-.9c0 .4-.2.7-.6.7l.3 2.1v.6h-.3l-.6-.3c0 .2-.1.5-.3.9.3 0 .5.2.6.7.8 0 1.2-.5 1.2-1.6l.9.7h.3v-1.2c-.6 0-.9-.2-.9-.7l.2-.6c.8 0 1.7.7 2.5 2.1v.6h-.3l-.6-.2c0 .4-.3.6-.9.6V62h.6V63c0 .1.2.9.7 2.4 0 .2-.1.5-.3.9l.3.7c-.2.3-.3.7-.3 1.2H206l-.3-1.5-.7.3h-.6v-.7c.8 0 1.2-.2 1.2-.6v-.3c-.7 0-1.2-.1-1.6-.2-.3.2-.8.2-1.5.2V66l.6.9v.9h-.6v.6c.2 0 .5.1.9.3v-.7h.3l.6.3c0-.3.2-.5.6-.6v1.8l.7-.3h.3c0 .4.3.9.9 1.6-.6 0-1.2-.2-1.9-.7v.3l-.6-.3c0-.2.1-.2.3-.2 0-.4-.2-.6-.7-.7 0 .5-.1.9-.2 1.2.4.5.6.9.6 1.2h.6v-.7h.3c1 .6 1.5 1 1.6 1.2v.3h-.7c-.4 0-.6-.2-.6-.7l-.9.7c-.3 0-.8-.6-1.6-1.8v-.7l.7-.9v-.2l-.7.2-.6-.2v1.2l.3.7c-.2 0-.3.1-.3.2l-.6-.2V72c.6 0 .9.1.9.3 0 .3.5.7 1.5 1.2v.6c-.6-.3-.9-.6-.9-.9-.2 0-.3.1-.3.3-.4 0-1-.2-1.8-.7 0 1.4-.1 2.3-.2 2.5h.6c0-.7.1-1.2.3-1.5 1 .4 1.6.9 1.8 1.5v.3c-1.4 0-2.1.7-2.1 2.1l1.2.9v-1.2l-.3-.7.6-.2c1.9.8 2.8 2.1 2.8 4h-.7c-.1-1.7-.5-2.6-1.2-2.7l-.6.2.3.7V79l-1.6.3v.9c.3 0 .7.2 1.2.6v-1.5h.6c0 .6.3.9.9.9v.9c-.8.6-1.4.9-1.8.9v.3h1.2c.1 0 .6-.5 1.6-1.6h.9c.3 0 .5.2.6.7h-.9v.9l.9 1.2v.2l-.6.9h.9c.4 0 .6-.5.6-1.5h.3c.8.4 1.2 1.1 1.2 2.1h.2c0-.6.5-.9 1.6-.9 0 .8 1.6 1.6 4.9 2.4l-.3.7c.5.8 1 1.8 1.2 3.1l-.9.6c0-.2-.1-.5-.3-.9.2 0 .3-.1.3-.3 0-1.5-1.5-2.9-4.6-4v.3l-2.1-.7v1.6l.9-.6v.9h.6c.3 0 .5-.2.6-.7.4 0 .7.3.7.9h.2l.7-.2v.6l-.3.6-1.5-.6v.3l-1.8-.9c-.4.2-.8.2-1 .2v.3h1.2v.6h-.6v.3h.3c.3-.2.7-.3 1.2-.3v.3l-.2.6h.2l-.2.7-.9-.7c-.7.3-1 .7-1 1 1.9.3 2.8.7 2.8 1.2.2 0 .5-.1.9-.2.2 0 .5.1.9.2l-.3.7h1.6c.3 0 .5-.2.6-.7.2 0 .3.1.3.3l.9-.6v.2c0 .4-.2.7-.7.7v.2c1.1.4 2.2 1.3 3.4 2.5 0 .2-.1.3-.3.3l.3.6v.3l-.6-.3h-.3l.3.6h-.3l-1.6-.2v1.2h.3l1.8-.9V97l.7-.3h.2l.9.7.3-1.8h.6v.6h.7v-.6c-.4 0-.7-.4-.7-1.2h-.6v.6c-.2 0-.3-.1-.3-.3-.4 0-.6.3-.6 1-.4-.2-.7-.3-.9-.3l.3-.7-.7-.9h.3L220 94c0-.2.3-.4.9-.6l1.6.6.9-.9c1 .5 1.5 1.3 1.5 2.1h.7l-.3-.7V94h.3c1.2-2 1.9-3.1 2.1-3.1 0-.2-.1-.5-.3-.9 1.1-1 1.7-1.8 1.8-2.4.6.3.9.6.9.9v.2h-.6v.7c.7-.6 1.3-.9 1.8-.9l-.3-1.6-.9.7c-.4 0-.6-.4-.6-1.2-.6.3-.9.6-.9.9l-.7-.3c-.4 0-.6.2-.6.7-1.4-.2-2.1-.5-2.1-.9 0-.4.3-.7.9-.7v-.3l-.3-.6-.6.3h-.3v-.3c1.7-1.1 2.5-1.8 2.5-2.1h.6c0 .2.1.5.3.9h-.3c0 1 .3 1.7.9 1.8 1.4-.8 2.3-1.7 2.8-2.7v-.6l-1.2.6.2.7v.6H230v-.6c-.2 0-.3.1-.3.2-.2 0-.6-.8-1.2-2.4v-.3c.5 0 1.2-.3 2.1-.9.7.7 1 1.3 1 1.8h.2V80l-.2-.6-1 .6v-.2l.7-.9 1.5 1.2h.3c0-.2.1-.5.3-.9h-.3l.3-1.5-.3-1.2c.3 0 .5-.2.6-.6l1.2.6.6-.3c0-.2-.1-.2-.2-.2l.2-1.6v-.6h-.6v-.7c.2 0 .5.1.9.3.3 0 .5-.2.7-.6v-.9h-.3v.6h-.7v-.6l.7-.9-.3-.7c.2 0 .3-.1.3-.2.3 0 .5.2.6.6v.3l-.2.6h.9c0-.8.2-1.2.6-1.2l-1.2-1.5c1 0 1.6-.2 1.6-.7h.6v.7h.3v-.3c-.4-.7-.7-1.2-.7-1.5-.8.5-1.2.9-1.2 1.2-.4 0-.7-.2-.7-.6 0-.4.3-.6.9-.6.3-.8.7-1.2 1.2-1.2v-.3c0-.3-.2-.5-.6-.6.4-.5.6-.9.6-1.2h.6c0 .5.7 1 2.1 1.6v-.3l-.9-1.2c-.2 0-.2.1-.2.3-.3 0-.8-.6-1.6-1.8l.6-.9-.6-.9v-.3h.6l1.9.9c0-.4.2-.6.6-.6l-.3-2.1v-.7h.3l.6.3c0-.2.1-.5.3-.9-.4 0-.6-.2-.6-.6-.8 0-1.2.5-1.2 1.5l-.9-.6h-.3v1.2c.6 0 .9.2.9.7l-.2.6c-.8 0-1.7-.7-2.5-2.1v-.6h.3l.6.3c0-.4.3-.7.9-.7v-.2h-.6v-1l-.7-2.4c0-.2.1-.5.3-.9l-.3-.6c.2-.4.3-.8.3-1.2h.6l.3 1.5.7-.2h.6V52c-.8 0-1.2.2-1.2.6v.3c.7 0 1.2.1 1.6.3.3-.2.8-.3 1.5-.3v-.6l-.6-.9v-1h.6v-.6c-.2 0-.5-.1-.9-.3v.7h-.3l-.6-.3c0 .4-.2.6-.6.6v-1.8l-.7.3h-.3c0-.3-.3-.8-.9-1.5.5 0 1.2.2 1.9.6v-.3L241 48c0 .2-.1.3-.3.3 0 .4.2.6.7.6 0-.4.1-.9.2-1.2-.4-.5-.6-.9-.6-1.2h-.6v.7h-.3c-1-.5-1.5-1-1.6-1.2v-.3h.7c.3 0 .5.2.6.7l.9-.7c.3 0 .8.6 1.6 1.9V48l-.7.9v.3l.7-.3.6.3V48l-.3-.6c.2 0 .3-.1.3-.3l.6.3v-1.2c-.6 0-.9-.1-.9-.3 0-.3-.5-.7-1.5-1.2v-.6c.6.3.9.6.9.9.2 0 .3-.1.3-.3.4 0 1 .2 1.8.7 0-1.4.1-2.3.2-2.5h-.6c0 .7-.1 1.2-.3 1.6-1-.4-1.7-1-1.8-1.6v-.3c1.4 0 2.1-.7 2.1-2.1l-1.2-.9v1.2l.3.7-.6.2c-1.9-.8-2.8-2.1-2.8-4h.7c0 1.4.4 2.4 1.2 2.8l.6-.3-.3-.6v-.3l1.6-.3c0-.1-.2-1.2-.7-3.3 0-.4.2-.6.7-.7.5 0 .9 1 1.2 3.1l.7-.3-.3-.6v-.6h.7c0 .7.1 1.2.2 1.5l.7-.3c0-.3-.2-.5-.7-.6 0-.2.1-.5.3-.9-.3-.6-.6-.9-.9-.9l-.7.3c0-1.1-.1-2-.2-2.8.2 0 .2-.1.2-.2-.6-.3-.9-.6-.9-.9-.3 0-.6.4-.9 1.2.2 0 .4.3.7.9-.4.6-.7 1.1-.7 1.6l-1.2-.9c0 .2.1.5.2.9v.3c-.4 0-1.2.6-2.1 1.8h-.9c-.4 0-.6-.2-.6-.7h.9v-.9l-.9-1.5.3-.7c.4 0 .7.7.9 2.1h.2c0-.3.4-.7 1.2-1.2v-.3h-1.2c-.6-1.2-1.1-1.8-1.5-1.8v.2c-.8-.5-1.2-.9-1.2-1.2v-.7c.3 0 .5.2.7.7 2.2.8 3.3 1.6 3.3 2.4.4-.2.7-.3.9-.3l-.9-2.1c.3 0 .5-.2.7-.7l.9.7-.3-1.2c-.2 0-.3.1-.3.3-.4 0-.6-.3-.6-.9h-.9v.6h.6v.6h-.6c-.4 0-.7-.2-.7-.6V30l.3-.6c-.2 0-.3-.1-.3-.3.4-.8.8-1.2 1.2-1.2 0-.3-.2-.5-.6-.6v.6c-.5 0-1.6-.8-3.4-2.4h-.6c0 .2.4 1.1 1.2 2.7l-.3.6c.3.7.6 1 .9 1 0-.7.2-1 .6-1h.3v1h-.6l.6.9c0 .4-.2.6-.6.6h-.9c0-.2.1-.5.2-.9-.9-.5-1.4-1-1.5-1.6l-.7.3c-.4 0-.6-.2-.6-.6v-.3l.6.3c.4 0 .6-.2.7-.7 0-.3-.2-.5-.7-.6h-.2l-.7.3-.9-1.6h.3l.6.3c-.4-1.3-.6-2.1-.6-2.5h-.3c0 .5-.1.9-.2 1.2l-.7-.3c0 .7-.2 1-.6 1h-.3c0-.8-.2-1.2-.6-1.2v-.7c.6 0 .9-.2.9-.6l.6.3v-.3c-.6-.6-.9-1.3-.9-2.1H231.3zM201.2 78.1v.3c.2.3.2.7.2 1.2h.3V79c-.2-.4-.3-.7-.3-.9H201.2zM202.3 42.2c0 .2-.1.5-.2.9v.3h.2c0-.2.1-.5.3-1v-.2H202.3zM203 62.6v2.1h.2v-1.2h.3l.6.3c0 .4.7.9 2.1 1.5l-.2-1.2c-1-.4-1.6-.9-1.6-1.5H203zM203.5 40.7V41h.6v-.9C203.7 40.1 203.5 40.3 203.5 40.7zM207.2 74.5c0 .4-.2.6-.6.6H206v-.6h-.7c0 .4-.2 1-.6 1.8-.4 0-.7-.2-.7-.6l.3-.7c-.2 0-.3-.1-.3-.2v-.3c.6 0 .9-.4.9-1.2h.3C205.4 74 206 74.4 207.2 74.5zM205 55.3h-.2c0 .2-.1.6-.3 1v.6c.5-.4 1-.6 1.6-.6C205.7 55.6 205.4 55.3 205 55.3zM204.8 108h-.3v.6h.9C205.4 108.3 205.2 108.1 204.8 108zM205 6.9h-.2V6.6c0-.3.2-.5.6-.6h.7C205.7 6.6 205.4 6.9 205 6.9zM204.8 83.3v.3h1.2v-.3H204.8zM205 52v.3c0 .4.2.6.7.6h.6V52H205zM206.3 76.9H205l.3-1.8C205.9 75.1 206.2 75.7 206.3 76.9zM209 4.8v.6c-.3 0-1.2.2-2.7.7 0-.1.5-.6 1.6-1.6C208.6 4.7 208.9 4.8 209 4.8zM207.8 7.5h-.3l-.6-.3c0-.3.2-.5.6-.6h.3V7.5zM207.2 107.7h-.2c0 .4 1.7 1.5 5.1 3.4.4 0 .6-.2.7-.7v-.9c-.2 0-.5.1-.9.3-1.4-.5-2.1-.9-2.1-1.2h-.9L207.2 107.7zM209.3 78.8l-.3.6c-1.2 0-1.8-.7-1.8-2.1v-.3C207.9 78.1 208.7 78.7 209.3 78.8zM207.5 44.1v1.2l.6-.3v-1.2L207.5 44.1zM208.7 85.5h-.9v.2c.7 0 1.2.1 1.5.3h.3v-.3C209.4 85.7 209.1 85.6 208.7 85.5zM209 81.8h-.9v-1.6h.7L209 81.8zM208.4 42.8v.3c.5-.8 1-1.2 1.2-1.2v-1.2C209.3 40.7 208.9 41.4 208.4 42.8zM210.2 4.2c0 .4-.2.6-.6.6h-.3V4.5c0-.3.2-.5.7-.6h.2V4.2zM210 39.2l-.7.3c.3.8.6 1.2.9 1.2h.3l-.3-1.5H210zM210.6 56.5v.3c-.2 0-.5.1-.9.3 0-.2-.1-.3-.3-.3l.7-.9C210.3 55.9 210.5 56.1 210.6 56.5zM210.2 59.9H210c-.4 0-.7-.2-.7-.7v-.6h.7C210 59.1 210.1 59.5 210.2 59.9zM210.9 5.4c-.3.6-.6.9-.9.9h-.3c.5-.8.9-1.2 1.2-1.2V5.4zM210.2 35.8v.9h.3c.3 0 .5-.2.6-.6v-.3H210.2zM211.5 43.2c0 .4-.2.6-.6.6-.4 0-.7-.2-.7-.6.2 0 .5-.1.9-.3C211.1 43 211.2 43.2 211.5 43.2zM211.1 54.7h-.6v-.3c0-.3.2-.5.6-.6V54.7zM211.5 82.4l-.3.6-.6-.2.3-.7L211.5 82.4zM210.9 37.6v1.6h.2c0-.2.1-.5.3-.9-.2 0-.3-.2-.3-.7H210.9zM212 48.9l.3.6c-.4.5-.6.9-.6 1.2h-.9v-.3c0-.3.2-.5.6-.6l-.3-1.5V48h1.2C212.4 48.2 212.3 48.5 212 48.9zM212.7 5.1c0 .4-.2.6-.7.6V4.5h.7V5.1zM213.9 32.5c0 .6-.6 1.2-1.8 1.8v1.2h.3c0-.7.6-1.4 1.8-2.1v-.9H213.9zM213.3 45.5H213l-.6-.2c.2-.4.3-.7.3-.9h.6V45.5zM213.6 94.3h-.9v.2c.2 0 .5.1.9.3h.6C214.2 94.6 214 94.4 213.6 94.3zM215.1 2.3l-1.5 1.2c-.4 0-.7-.2-.7-.6.3 0 .9-.3 1.9-.9C214.9 2.2 214.9 2.3 215.1 2.3zM213 109.8l.7 1.2c.5 0 1.3-.1 2.4-.3l1.6.9v-.3c0-.2-.6-.6-1.8-1.2l-.9.6h-.7v-.9H213zM214.9 41.6c-.8-.3-1.2-.6-1.2-.9h1.2V41.6zM214.9 47.1v.3l-.7.9-.6-.3c0-.4.2-.9.6-1.6C214.5 46.5 214.7 46.7 214.9 47.1zM215.1 3.9h-.6c0-.3.2-.5.6-.7h.7C215.8 3.7 215.5 3.9 215.1 3.9zM214.5 100.7v.7h1.2v-.7H214.5zM215.1 35.6l-.2 1.5h.2l.7-.3c-.2-.7-.3-1.1-.3-1.2H215.1zM215.8 97c0 .6-.3.9-.9.9v.3h1.8C216.3 97.4 216 97 215.8 97zM216 95.2c-.3 0-.6.4-.9 1.2.2 0 .5.1.9.2 0-.2-.1-.5-.2-.9 0-.2.2-.2.6-.2v-.3H216zM216.7 1.7l-.3.6-.6-.2.2-.7L216.7 1.7zM215.8 27v.3h1.2v-.6L215.8 27zM217.6 35.6c0 .4-.2.6-.7.6h-.2v-.3c0-.3.2-.5.6-.6h.3V35.6zM219.7 1.2h-.3c-1 1.4-1.8 2.1-2.1 2.1h-.3l.3-.6c.4 0 1-.7 1.8-2.1h.7V1.2zM217.6 32.2l.2 1.5h.3v-.2l-.3-.7.3-.6v-.3L217.6 32.2zM217.6 94.9v.9h.9c-.2-.4-.3-.7-.3-.9H217.6zM219.1 40.1c0 .4-.2.6-.6.6h-.3v-.2l.3-.7L219.1 40.1zM219.4 112.5l-.6-.2-.3.6h2.1l-.3-.6C220.1 112.3 219.8 112.4 219.4 112.5zM220.3 28.8v.7c-.2 0-.5.1-.9.3h-.3v-.7l.3-.6C219.8 28.7 220.1 28.8 220.3 28.8zM220.9 27.6h-.6V27c.3-.6.6-.9.9-.9h.3C221.1 26.7 220.9 27.3 220.9 27.6zM222.4 25.2h-.3l-.6-.3c0 .2-.1.3-.3.3h-.3c.4-.7.7-1.2.7-1.5h.6L222.4 25.2zM221.8 20v.3c.2 0 .5.1 1 .3V20H221.8zM223.9 19.7c-.6 0-.9.2-.9.6l1.2-.3v-.2H223.9zM223.7 94.6c0 .8-.2 1.2-.7 1.2v.7c0 .4.2.6.7.6 0-.8.4-1.2 1.2-1.2C224.3 95 224 94.6 223.7 94.6zM224.3 98.8c-.4.2-.7.3-.9.3v.3h.3c.4-.2.7-.3.9-.3v-.3H224.3zM224.3 92.2h-.3l.3-.6-.3-.7.7-.2h.6C225 91.7 224.7 92.2 224.3 92.2zM224.8 98.5v.7h.9v-.3C225.5 98.8 225.2 98.7 224.8 98.5zM226.6 93.6c0 .6-.2 1.1-.6 1.6v.6c.6-.3.9-.6.9-.9.4 0 .7.3.7.9h.2v-.9h-.6c0-.2.1-.3.3-.3C227.3 93.9 227 93.6 226.6 93.6zM227.3 77.9l-.3.6-.6-.3c0-.3.2-.5.6-.6h.3V77.9zM228.2 6c0 .2-.4.2-1.2.2l.3.7c.2 0 .5-.1.9-.3l.6.3.3-.7C228.9 6.3 228.6 6.2 228.2 6zM227.3 84.6v.2l.3.7-.3.6v.3l.6-.3-.2-1.5H227.3zM228.5 90v1.6c-.8.9-1.2 1.5-1.2 1.8v.2l.6-.2.7.2c.2-.7.5-1.6 1.2-2.7v-1.2L228.5 90zM228.8 82.4c0 .4-.2.6-.6.6h-.3v-.2c0-.4.2-.6.7-.7h.2V82.4zM228.5 118.6h-.7v-.6h.3c1-1.4 1.8-2.1 2.1-2.1h.2C229.9 116.6 229.3 117.5 228.5 118.6zM230.4 81.2l-.7.3.3 1.2h.3l.2-1.6H230.4zM230 7.5v.3c0 .3.6.7 1.8 1.2l.9-.7h.7v.9h.6c0-.2.1-.5.3-.9-.2 0-.3-.1-.3-.2-.5 0-1.3.1-2.4.2L230 7.5zM231.8 70.2c0 .4-.2.9-.6 1.6-.4 0-.7-.2-.7-.7v-.2l.7-.9L231.8 70.2zM231.8 77.6h-1.2v-.9C231.4 76.9 231.8 77.2 231.8 77.6zM231.8 117.2l-.2.6-.7-.3.3-.6L231.8 117.2zM233.4 82.1c0 .8-.7 1.7-2.1 2.7v.9h.3c0-.5.6-1.2 1.8-1.8V83l.2-.6v-.3H233.4zM232.5 115.9h-.7c0-.3.2-.5.7-.7h.6C233.1 115.7 232.9 115.9 232.5 115.9zM233.1 72.9c-.2.4-.3.8-.3 1h-.6v-1.2h.3L233.1 72.9zM234.6 116.2c-.3 0-.9.3-1.8 1 0-.2-.1-.3-.2-.3l1.5-1.2C234.3 115.6 234.5 115.8 234.6 116.2zM233.1 30.9h-.3v-.6c.2 0 .5-.1.9-.3h.3C233.7 30.6 233.4 30.9 233.1 30.9zM234 18.2h-.9v.9c.3-.2.8-.2 1.5-.2C234.6 18.4 234.4 18.2 234 18.2zM233.1 22.4v.9h.6c-.2-.4-.2-.7-.2-.9H233.1zM234.6 67.8c0 .4-.2.6-.6.6l.3 1.6v.2h-1.2c0-.2.1-.5.3-.9l-.3-.6c.4-.5.6-.9.6-1.2h.9V67.8zM233.7 21.5v.6l2.1.7c.3 0 .5-.2.7-.7-.2 0-.5-.1-1-.2l-1.2.2v-.6H233.7zM235.5 23.9c0-.6-.5-.9-1.5-.9v.3c0 .4.8.9 2.5 1.2 0-.2.1-.5.2-.9V23L235.5 23.9zM234.9 32.8c-.4-.2-.7-.2-.9-.2v-.3h.9V32.8zM234.9 35.6l-.3.6-.6-.3.3-.6L234.9 35.6zM235.2 75.1c-.2 0-.5.1-.9.3 0-.2-.1-.3-.3-.3 0-.3.2-.5.6-.6C235 74.5 235.2 74.7 235.2 75.1zM234.3 79c0 .2-.1.5-.3.9.2 0 .3.2.3.7h.2V79H234.3zM234.9 63.9c0 .4-.2.6-.6.6v-.9h.6V63.9zM234.9 81.5c-.4 0-.6.2-.6.6v.3h.9v-.9H234.9zM234.6 8.4c.2.4.3.7.3.9h.9c.7.6 1.4 1 2.1 1.2h.9l.6.3c0-.2-.3-.5-.9-.9-1.8-1-2.7-1.6-2.7-1.8L234.6 8.4zM236.1 61.4l-.7.9c-.4 0-.6-.2-.6-.6v-.3c.2 0 .5-.1.9-.2C235.8 61.3 235.9 61.4 236.1 61.4zM235.2 77.6h-.3l.3 1.5h.2l.7-.2C235.8 78 235.5 77.6 235.2 77.6zM235.5 114.7h-.6v-.6c0-.4.2-.6.6-.7V114.7zM235.2 24.8v.3c0 .4.2.7.6.7v-1H235.2zM236.1 59v.6h-.7c0-.4-.1-.9-.2-1.2h.2C235.9 58.3 236.1 58.6 236.1 59zM236.7 33.7v.7h-.2c-.4 0-.7-.2-.7-.7v-.2C236.2 33.6 236.5 33.7 236.7 33.7zM235.8 76.3v1.2c.3 0 .7-.7 1.2-2.1v-.3C236.5 75.9 236.1 76.3 235.8 76.3zM238.3 41v.3c-.8-1.2-1.5-1.8-2.1-1.8l.3-.7C237.7 38.9 238.3 39.6 238.3 41zM237.4 38h-.7l-.2-1.5h.9V38zM236.7 114.1v-.3c.3-.6.6-.9.9-.9h.3C237.5 113.7 237 114.1 236.7 114.1zM237.4 20.6v1.5l.6-.2-.3-1.2H237.4zM237.4 24.6v.9h.6c-.2-.4-.3-.7-.3-.9H237.4zM237.4 73.3v1.2l.6-.3v-1.2L237.4 73.3zM238.3 114.7c0 .4-.2.6-.7.6h-.2V115c0-.4.2-.6.6-.7h.3V114.7zM241.3 42.5l-.3.7c.2 0 .3.1.3.3v.2c-.6 0-.9.4-.9 1.2h-.3c0-.7-.6-1.1-1.8-1.2 0-.3.2-.5.6-.6h.6v.6h.7c0-.4.2-1 .6-1.8C241 41.9 241.2 42.1 241.3 42.5zM242.8 112.5c-2 1.2-3.1 1.9-3.1 2.1l-1.2-.3v-.6c1.1 0 2.4-.5 4-1.5h.3V112.5zM238.9 24.6v1.2h.6c-.2-.4-.2-.8-.2-1.2H238.9zM240.1 43.2c-.6-.2-.9-.8-.9-1.8h1.2L240.1 43.2zM241.3 54.4c0-.4-.7-.9-2.1-1.5 0 .2.1.5.2.9l1.6 1.8h1.5v-2.1h-.2v1.2h-.3L241.3 54.4zM239.8 65.3h-.6v.9h1.2V66C240.4 65.6 240.2 65.4 239.8 65.3zM239.4 62c.3.6.7.9 1 .9h.2c0-.2.1-.5.3-.9v-.7C240.5 61.8 240 62 239.4 62zM240.7 112c0 .4-.2.6-.6.6h-.3v-.9h.3L240.7 112zM241.9 37.4v1.5h-.6c0-.6-.3-.9-.9-.9V37c.2 0 .5-.1.9-.3C241.7 36.7 241.9 36.9 241.9 37.4zM241.3 10.9c.4.5.6.9.6 1.2h.3v-.2c-.2-.4-.3-.7-.3-.9H241.3zM241.3 77.2v.9c.3 0 .5-.2.6-.6v-.3H241.3zM242.5 29.5c0 .2.1.3.3.3 0 .2-.1.5-.3.9v.2h.3v-.2h1.2C243.9 30.3 243.4 29.8 242.5 29.5zM242.8 11.8v.6c.2 0 .5.1.9.3C243.4 12.1 243.1 11.8 242.8 11.8zM243.2 74.8c0 .2-.1.5-.3.9V76h.3c0-.2.1-.5.2-.9v-.2H243.2zM243.7 38.6v.6c.2.4.3.7.3.9h.2v-.3c-.2-.3-.2-.7-.2-1.2H243.7zM245.9 10.6v.3h-.3l-.9-.7.3-.6C245.6 10 245.9 10.3 245.9 10.6zM244.6 38.9v.3c0 .4.2.6.7.6v-.2C245.3 39.1 245.1 38.9 244.6 38.9zM245.3 57.2c0 .3-.2.7-.7 1.2V59c.4 0 .7-.5.9-1.6v-.2H245.3zM244.6 59.6l.3 1.6h.3v-1.6H244.6zM245 32.2v.3c0 .6.2.9.6.9l-.2-1.2H245zM245 43.7V45h.6l-.2-1.2H245zM245 46.8v1.6h.3v-1.6H245zM245.3 13v.2c.3 0 .7.2 1.2.7l-.2-1.2C245.8 12.9 245.5 13 245.3 13zM245.5 38.3v1.2h.3v-1.2H245.5zM246.5 39.5v1.8l-.2.6c.4 0 .6.8.6 2.5.3 0 .5-.2.6-.7v-.6l-.2-1.8c.2-.4.2-.7.2-.9-.2-.4-.2-.7-.2-.9H246.5zM247.7 45.3l-.6-.3c0 .4.1.9.2 1.2l-.2.6c.2.8.2 1.6.2 2.5h.3v-1.6l-.3-1.2c.3-.4.6-.6.9-.6V45L247.7 45.3zM247.4 59.2v1l.7-.3C248 59.6 247.8 59.4 247.4 59.2zM248.3 95.2c-.4 0-.6.2-.6.6v.3c.6-.3.9-.6.9-.9H248.3zM250.4 23.9h-.2l.6 1.2.6-.3C251 24.2 250.7 23.9 250.4 23.9zM250.4 20.6V21c.3.6.6.9.9.9v-.3C251 20.9 250.7 20.6 250.4 20.6zM251.1 33.4v.2h.9v-.2l-.3-.7C251.3 32.8 251.1 33 251.1 33.4zM253.2 23v.3c0 .6.2.9.6.9l-.3-1.2H253.2zM253.8 24.6v.6c.7 2 1.4 3.5 2.1 4.3h.2v-.3l-1.8-4.5H253.8zM254.1 40.1c0 .2-.1.5-.3.9v.3l.6-.3v-.9H254.1zM255 29.1v.3c0 .5.3 1.3.9 2.4-.2 1.1-.3 1.7-.3 1.8.6 0 1 .4 1.2 1.2v.3h-.7v-.6h-.2v.2c.2.3.2.9.2 1.6.2 0 .3-.1.3-.3.5 0 .8.6.9 1.8h-.6v1.2l.6-.3.7.3c0-.2.2-.3.6-.3v-1.2l-1.8-4.5c-.2-1-.7-2.4-1.6-4H255zM255.3 45.9H255c.2.4.2.7.2.9l.7-.3C255.9 46.1 255.7 45.9 255.3 45.9zM255.3 49.3v1.2h.7v-1.2H255.3zM257.4 26.4v.3c-.2 0-.7-.6-1.5-1.9v-.2l.2-.7C256.5 23.9 256.9 24.8 257.4 26.4zM257.8 28.5v.2h-.7c0-.2-.1-.5-.2-.9v-.6C257.1 27.3 257.4 27.7 257.8 28.5zM257.4 39.5v2.1l.7-.2h.2v.9c0 .6-.2 1.2-.6 1.8l.3.6.6-.2-.3-.7c0-.3.2-.5.7-.6-.2-1-.3-2.1-.3-3.1-.2 0-.3.1-.3.3-.4 0-.6-.3-.6-.9H257.4zM259 29.1c0 .4-.2.7-.7.7 0-.2-.2-.9-.6-2.1h.6C258.3 28 258.6 28.5 259 29.1zM259 25.8c-.4 0-.7-.2-.7-.7v-.6h.7V25.8zM258.3 45c0 .2.1 1 .3 2.5l.6-.3c0-.8-.1-1.5-.2-2.1H258.3zM260.1 27.9v.3h-.2c-.4 0-.7-.2-.7-.6v-.3h.3C259.9 27.3 260.1 27.5 260.1 27.9zM259.6 82.8v-.7l2.7-2.7h.3C262.1 80.7 261.1 81.9 259.6 82.8zM260.8 85.1l-.7.9c-.4 0-.6-.2-.6-.6v-.3c0-.3.2-.5.6-.6h.7V85.1zM260.5 70.9c0 .6-.2.9-.6.9l.2.6c.4 0 .6-.2.7-.6v-.9H260.5zM260.5 48.3c0 .7-.1 1.2-.3 1.5h.3l-.3 1.6c.2.4.3.7.3.9h.3c0-.2.1-.5.2-.9 0-.3-.1-1.3-.2-3.1H260.5zM260.1 57.8V59h.3v-1.2H260.1zM263 84.8c-.7 1.4-1.2 2.1-1.6 2.1h-.3v-.2l.7-1v-.6l-.3-.6.9-.7-.2-.6c0-.3.2-.5.6-.6L263 84.8zM261.4 61.4v.3c0 .4.2.6.7.6v-.9H261.4zM262.6 35.6v.2h-.3l-.6-.2.3-.7C262.4 34.9 262.6 35.1 262.6 35.6zM263.5 76.3c-.5.8-.9 1.2-1.2 1.2h-.6v-.3c.8-.4 1.2-1 1.2-1.8h.2C263.2 75.6 263.3 75.9 263.5 76.3zM263.2 37l-.2.6-.7-.2.3-.7L263.2 37zM263.2 81.8h-.6v-.3c0-.3.4-.6 1.2-.9h.2C263.8 81.4 263.5 81.8 263.2 81.8zM263.9 46.5v1h-.7c0-.2-.1-.5-.2-1v-.2C263.3 46.4 263.6 46.5 263.9 46.5zM264.8 71.8v.6c0 .4-.2.6-.7.6h-.2v-1.2l.2-.7C264.5 71.1 264.7 71.3 264.8 71.8zM264.4 78.1h-.6l.2-1.2h.7L264.4 78.1zM266.3 66.9c-.9 1.6-1.5 2.4-1.8 2.4h-.3v-.2c.6-.5.9-1.4.9-2.5.8 0 1.6-.6 2.5-1.8h.3C267.8 66.2 267.3 66.9 266.3 66.9zM265.7 73.3c0 1-.3 1.6-.9 1.8h-.3v-.2c.4-.5.6-1.2.6-2.1h.7V73.3zM266.6 70.2c-.2.4-.3.7-.3.9h-.6v-.6l.2-.6L266.6 70.2zM268.1 63.2h-.6V62h.6V63.2zM268.4 52.3h-.6v-.9h.6V52.3z" fill="#f33535" class="color000 svgShape"></path></svg></g></svg>