<svg id="SvgjsSvg1011" width="288" height="288" xmlns="http://www.w3.org/2000/svg" version="1.1" xmlns:xlink="http://www.w3.org/1999/xlink" xmlns:svgjs="http://svgjs.com/svgjs"><defs id="SvgjsDefs1012"></defs><g id="SvgjsG1013"><svg xmlns="http://www.w3.org/2000/svg" enable-background="new 0 0 213.2 119.6" viewBox="0 0 213.2 119.6" width="288" height="288"><path d="M0 57h.3c.4.1.6.3.6.7v.9H.3C.3 57.9.2 57.3 0 57zM18.1.9h.3c.2 0 .8 1 1.8 3.1v.7c0 .2-.1.3-.3.3.4 1 .7 2.8.7 5.4v7.7h.6l-.6 1v.2c0 .2.1.3.3.3l-.3.6v.3l.9 1.2c-.4.2-.7.3-.9.3v.6l.6.9h-.6v.3c.8 0 1.2.7 1.2 2.1.2 0 .2.2.2.6-.2 0-.2.1-.2.3l-.7-.3h-.2c0 .4.3.7.9.7v1.8l.6.9c-.2 0-.3.1-.3.3l1.6.9c0-.2.1-.3.3-.3v1.2l.6.3c0-.3.2-.7.7-1.2-.2 0-.3-.1-.3-.3l.6-.2.3.6v.3l-.3.6c.2 0 .3.1.3.3l-1.8 1.2c.2.3.2.7.2 1.2h.7v-.7h.3c.5.4 1 .7 1.5.7v.2c-1 0-1.5.2-1.5.7.4.1.6.2.6.6v.7c-.4 0-.6.2-.6.6h-.3v-1.5h-.3c0 .6-.1.9-.3.9.2.4.3.7.3.9 0 1-.3 1.5-.9 1.5 0 .3.5.7 1.6 1.2h.6c-.6-.7-.9-1.2-.9-1.5.4-.7.6-1.2.6-1.6H27v.9l-.7-.2h-.6v1.2c.8.1 1.2.4 1.2 1-.7 0-1.1.7-1.2 2.1l.6.2-.2 1.6.2 1.5h-.2l.2.7c0 .4-.2.6-.6.6l.3.7v.2l-.3.7c.6 0 .9.2.9.6-.4.1-.6.3-.6.7v2.7l1.2.3c0-.2.1-.3.2-.3l-.2-.6v-.3l.2-.6h-.2c-.4.2-.8.2-1 .2v-.2c.5-1 1-1.6 1.2-1.6L27 46c.5 0 1-.3 1.5-.9v.7l-.6.9c.4.1.6.2.6.6-.4.1-.6.3-.6.7 0 .4.2 1.1.6 2.1-.2.6-.4.9-.6.9.2 2 .7 3.1 1.6 3.1l.6-.3.6.3c.4-.2.8-.3 1-.3V54l.6-.3h.3v.7l3.4-.7.6.3c.4-.2.7-.3.9-.3V54c1.4-.4 2.1-1 2.1-1.6-.2-.4-.2-.7-.2-.9l.2-1.2-.2-1.8h.2l-.2-.6v-.7c.1-.4.2-.6.6-.6l.6.3v-1.2L40.2 45h.6v-1.5h-.6c0 .6-.2.9-.7.9v-.7c0-.2.1-.2.3-.2l-.3-.7c0-2.4.2-4 .7-4.9-.2-.4-.3-.8-.3-1.2l.6-.3-.2-.6c0-.1.1-1.4.2-4l-.2-1.6.6-.3-.3-.6c0-.2.1-.5.3-.9L40.4 27c.2-.3.3-.7.3-1.2h-.6v-.9h.6v-2.5c0-.2.1-.2.3-.2 0-.2-.1-.3-.3-.3.4-2.6.7-4 .9-4l-.2-.7c.9-5.1 1.8-7.7 2.7-7.7l-.6-.9c.2-1.4.5-2.1.9-2.1v1.8l-.3.7.6.3c-.2 2.1-.4 3.3-.6 3.6v.3h.3l2.4-10.7-.2-.7V1.6h.6c.4 0 .7.3.7.9-.2 1-.3 1.7-.3 1.8L47.9 5c-.4 1-.7 1.8-.7 2.4V8h.3c.7-4.5 1.2-6.8 1.5-6.8h.7c.4.1.6.2.6.6-.4 2.1-.6 3.4-.6 4v.2H50C50.2 4.7 50.5 4 50.9 4l.6.3c0-.2.1-.3.3-.3l.3.7c0 .4-.1.9-.3 1.2.2.3.3 1 .3 2.1h.2c.4-2.7.9-4 1.2-4H54c-.3 1.9-.5 3.2-.7 3.7H54c0-.5.1-1.3.3-2.5h.2l.7.3.2-2.1h.7c0 1-.2 1.6-.7 1.6 0 .2.1.2.3.2l-.6 5v.9h.2c0-2 .4-3.1 1.2-3.1 0-.2-.1-.3-.2-.3C56.8 6.8 57 6.2 57 5.9h.9l-.3 3.1c.4 0 .9.3 1.6.9h.3c.1-1.8.7-2.7 1.8-2.7l.3.6v3.7h.6c0-.7-.1-1-.3-1l.3-1.5V7.7h.7c0 1.2.5 1.8 1.5 1.8 0-1.2.2-1.8.7-1.8 0 1.4.4 2.1 1.2 2.1 0 .4-.2.6-.6.6 0-.2-.1-.2-.3-.2 0 .4.2 1.1.7 2.1l-.7 1.2h1.2c0-.4-.2-1-.6-1.9l.9-.6.6 2.7c0 .2-.1.3-.2.3l.2 1.6v2.1h.7v.6c-.2 0-.3-.1-.3-.3l-.6.3h-.3c-.2-1-.3-2.3-.3-4-.4 0-.6.3-.6.9.2 1.4.2 2.3.2 2.5-.2 0-.2.1-.2.2.4.1.6.3.6.7l-.3.6h.3l.7-.2c.3.6.6 1.8.9 3.6-.3.2-.9.3-1.6.3l.3 1.5v2.1c0 .2-.1.3-.3.3l.7 1.2c-.4 1-.7 1.9-.7 2.5.4.1.7.2.7.6-.4.1-.7.3-.7.7.4.1.7.2.7.6v.6c-.6-.6-1.1-.9-1.6-.9l.6-3.6C65.9 28.5 65.5 28 65 27v-.3h.2c.4.2.7.3.9.3l-.2-.6v-.3l.2-.6c-1.2-.7-1.9-1-2.1-1h-.2v.3c.6 0 .9.2.9.7v2.7l.6.9c-.4.2-.7.3-.9.3l.3.6v.3l-.3.6c.4.1.7.3.7.7 0 .2-.1.3-.3.3 0 .2.1.2.3.2l-.3 1.6.3 1.5-.7.3c.1 1.4.5 2.1 1.2 2.1 0 .6-.4.9-1.2.9v1.2H65l.6-.3v1H64l-.6-2.1c.3 0 .6-.3.9-1h-.6c-1 .5-1.6 1-1.6 1.2.6 0 .9.7.9 2.1h-.2c.2.3.2 1 .2 1.9h.3v-2.1h.3c0 .4.2.6.6.6v.6l-.6 1c.3.2.8.2 1.5.2v.3c-.5 0-1 .2-1.5.6h-.3v-.6h-.6c0 .6-.1.9-.3.9 0 .4.6.9 1.8 1.6V46H64l.3.7v.3c0 .4-.2.6-.6.6l-.3-.6h.3l-.7-1.2c-.6.2-.9.4-.9.6.2.4.3.7.3.9-.2 0-.3-.1-.3-.2-.9.4-1.4.8-1.5 1.2.2 0 .2.1.2.3-.4.1-.6.3-.6.7v.6H61v-1.2h.7c0 .4.6 1.2 1.8 2.5-.4.1-.6.2-.6.6l1.5.3c0-1.2.2-1.8.7-1.8h.2v2.1h.9c0 .4-.2.6-.6.6 0-.2-.1-.3-.3-.3 0 .4.2 1.2.7 2.1l-.7 1.2h1.2c0-.3-.2-.9-.6-1.8l.9-.6c.2.4.4 1.3.6 2.7 0 .2-.1.3-.2.3l.2 1.5v2.1c.6 0 .9.2.9.7l-.6.9h.6l1.6-1.2h.3V61c0 .2-.1.3-.3.3.2.4.3.7.3.9h.2l.3-1.2h.7v.7l-.7.9c.4.1.7.2.7.6 0 .2-.1.3-.3.3l.3.7-1.6 1.8.6.3c0-.2.1-.3.3-.3.2.3.3.9.3 1.8l.9-.6v.2c0 .4-.7.8-2.1 1.2l-1.2-.6c0 .4-.2.6-.6.6h-.3l-.6-.2c-.2.6-.4.9-.7.9l.7 1.2.6-.3c1.3.4 2 .6 2.1.6l.6-.9c.4.2.9.3 1.6.3v.6h-.6l.2.7v.2h-.2l-1-.6h-.2v.3l.6 1.2-.6.2c-.4 0-.7-.2-.7-.6 0-.2.1-.3.3-.3-.2-.4-.3-.7-.3-.9h-.2c0 .7-.1 1.2-.3 1.6.2 0 .3.1.3.2l-.7.3h-.3L67.2 72v.3c.2.3.2.8.2 1.5l-.6.3.3.7v.6c-1.3-.5-1.9-1-1.9-1.2.4 0 .7-.2.7-.6v-.3h-.3c-.2 0-.5.3-.9.9 0 .2.1.3.3.3L64.7 76l.3 1.6c-.4.1-.7.2-.7.6h.9c0-.6.4-.9 1.2-.9V77l-.6-1h.6c.4.2.7.3.9.3v.3c-.4.8-.9 1.2-1.5 1.2v.2c1 .1 1.5.4 1.5 1-.4 0-.6.1-.6.2l-.7-.2c-.3.2-.7.2-1.2.2V80h.6c0 .6-.4.9-1.2.9v1.2H65l.6-.3v.9H64l-.6-2.1c.3 0 .6-.3.9-.9h-.6c-1 .6-1.6 1-1.6 1.2.6 0 .9.7.9 2.1h-.2c.2.3.2.9.2 1.8h.3v-2.1h.3c0 .4.2.7.6.7V84l-.6.9c.3.2.8.3 1.5.3v.3c-.5 0-1 .2-1.5.6h-.3v-.6h-.6c0 .6-.1.9-.3.9 0 .4.6.9 1.8 1.5v.3H64l.3.7v.2c0 .4-.2.7-.6.7l-.3-.7h.3L63.1 88c-.6.2-.9.4-.9.7.2.4.3.7.3.9-.2 0-.3-.1-.3-.3-.9.4-1.4.8-1.5 1.2.2 0 .2.1.2.3-.4.1-.6.2-.6.6v1.9c-.6 0-.9.2-.9.6h.2l.7-.3.3.7c-.4 1.6-.9 2.4-1.2 2.4h-.3v.3h.6l-.6.9v.7c.6 0 .9.2.9.6-.3 0-.6.3-.9.9v.3c0 .2.1.3.3.3l-.3.6v.3l.6.9h-.6v7.7c0 3.5-.2 5.2-.6 5.2l.2.6v.7c-1 2-1.6 3.1-1.8 3.1h-.3V118l-.2-1.5h-.3c0 .8-.1 1.7-.3 2.5h-.6v-.3c0-.3.1-1.6.2-3.7l-.6.3c0-.4-.2-.6-.6-.6H54l.3.6-.7.3-.3-.7.3-.6c-.1-1-.4-1.6-.9-1.6v-.2l.3-.7h-1.6l.7-.9v-.3h-.3v.7c-.4 0-.7-.2-.7-.7.5-.4.9-.6 1.2-.6v-.3c-.8 0-1.2-.2-1.2-.6v-.7l.3-.6-.6-.3c0-.4.2-1.2.6-2.5-.2 0-.3-.1-.3-.2.2 0 .3-.1.3-.3l-.6-.3h-.3v3.4c0 .2-.1.3-.3.3 0 .2.1.3.3.3l-.3 1.5v1.6c0 .2.1.2.3.2-.2 2.3-.5 3.4-.9 3.4H49c.2-1.8.3-2.9.3-3.4L49 111l.3-.6-.3-.7.3-.6-.3-1.9c.2 0 .3-.1.3-.2-.4 0-.6-.2-.6-.7.2 0 .2-.1.2-.2h-1.2v1.8h-.3l-.7-.3-.2.7h.6v.6c-.7.2-1.1.3-1.2.3v-.3c0-.2.1-.3.3-.3l-.3-.6v-.3h.7l-.9-1.5c.4 0 .6-.2.6-.7v-.6c-.5 0-.8-.6-.9-1.9H45c-.3 1.5-.7 4.8-1.2 9.8 0 .2.1.3.3.3-.2.8-.3 1.5-.3 2.1h-.6v-.9c0-.2.1-.3.3-.3-.2-.4-.3-.7-.3-.9l.3-1.2-.3-.6c.2-.6.4-.9.6-.9l-.2-.7c0-.2.1-.3.2-.3l-.2-.6v-2.5c0-.2.1-.2.2-.2l-.2-.7.2-.6c-.2-.4-.2-.7-.2-.9h.2c0-.2-.1-.3-.2-.3.2-1.9.4-3.2.6-3.7V99h.3l-.7-.9c.1-.4.3-.6.7-.6-.4-1-.7-1.8-.7-2.1h.3l-.3-.7c0-.2.1-.3.3-.3l-.3-.6v-.3h.7c-.4-.7-.7-1.5-.7-2.4h.7v-1.2l-.7-.9v-.3c.6 0 .9-.3.9-.9h-.2l.2-.7c0-.4-.2-.6-.6-.6 0 .2-.1.3-.3.3l-.2-.7c.8 0 1.2-.2 1.2-.6v-.9c0-.2-.1-.3-.2-.3.2-1.3.4-1.9.6-1.9l-.3-.6c0-.2.1-.3.3-.3l-.3-.6v-.3l.3-1.5c-1.1.2-1.9.2-2.5.2.1.4.3.7.7.7.4-.2.7-.3.9-.3l.3.6c0 .6-.2 1.2-.7 1.9.4.1.7.2.7.6-.4.1-.7.3-.7.7l.7.2c-.3.8-.6 1.2-.9 1.2l.2.7c0 .3-.3.6-.9.9v-.7h-.3c0 .6-.3 1.5-.9 2.8.2 0 .3.1.3.3-.6.2-.9.4-.9.6v2.1h.3v-1.8H42v2.4h-.9v1l.6-.3c.4.1.7.2.7.6L42 94.1h.3l.6-.3.3.6v1.2c0 .4-.2.7-.7.7h-.2l.2-.7v-1.2h-.9V95h-1.2v-2.1c0-.5.1-.9.3-1.2-.4-.8-.6-1.4-.6-1.8h-.3v.9c0 .2.1.3.3.3l-.3 1.5v.7c0 .4.1.8.3 1.2-.2.4-.3.8-.3 1.2h.6v.7c-.4 0-.6.3-.6.9h-.6l.2-1.2-.2-.6c.2-.4.2-.8.2-1.2l-.2-.7c.2-.4.2-.7.2-.9l-.2-1.8h.2l-.2-.7v-.6c.1-.4.2-.6.6-.6l.6.2V88l-.2-.6h.6v-1.6h-.6c0 .7-.2 1-.7 1v-.7c0-.2.1-.3.3-.3l-.3-.6c0-2.4.2-4 .7-5-.2-.3-.3-.7-.3-1.2l.6-.3-.2-.7v-4c-.4.2-.7.3-.9.3v-.3c-.9.4-1.5.7-1.9.7v-.3c-2.7.8-4.3 1.4-4.9 1.8-.4-.2-.8-.3-1.2-.3 0 .7-4 1.3-11.9 2.1L.9 76.6V76h.7v1h.6v-1.6H1.6l.2-.6v-1.2l-.6.2c-.4 0-.7-.2-.7-.6v-.6c0-.2.1-.3.3-.3l-.3-.7.3-1.5-.3-1.6.3-.6c-.2-.4-.3-.8-.3-1.2 0-.2.1-.3.3-.3l-.3-.6v-.3h.7c0 .7.5 1.4 1.5 2.1v-.6h1v1.2H4v-1.6H3.7L4 66.3v-.7H3.7c-.4.1-.7.3-.7.7l-.6-.3-.7.3c0-.2-.1-.3-.2-.3l.2-2.1v-.3c0-.4-.2-.6-.6-.6v1.5H.6v-1.2c0-.2.1-.2.3-.2-.4-.9-.6-2-.6-3.1h.2l1 .6c0-.2.1-.3.2-.3l.3.7c-.5.4-.9.6-1.2.6L1.2 62l.6-.3c.4 0 .7.3.7.9l-.3.6c.2.4.3.8.3 1.2v.3l-.3.6h.3c.5-.6.9-.9 1.2-.9v-.2c-.6 0-.9-.4-1-1.2V62H2.5v-.7c0-.4.1-.9.2-1.2-.2-.4-.2-.7-.2-.9h.2c-.2-.4-.4-1.3-.6-2.7h.3l-.3-.7v-2.4H1.6v-1h.6c-.2-1-.3-1.7-.3-1.8.2-.4.3-.7.3-.9-.2-.3-.3-.7-.3-1.2.2 0 .3-.1.3-.3l-.6-.2c0-.2.1-.8.2-1.9 0-.1-.1-1.4-.2-4 .2 0 .2-.1.2-.3-.4 0-.6-.3-.6-.9 0-.2.1-.2.3-.2-.4-1.6-.7-3.4-.7-5.3C.9 35.1 1 35 1.2 35l-.3-.7v-.6h.7v.9h.6v-1.6H1.6l.2-.6v-1.2l-.6.3c-.4 0-.7-.2-.7-.7v-.6c0-.2.1-.3.3-.3l-.3-.6c0-.2.1-.8.3-1.8L.6 27c.2-.3.3-.7.3-1.2l-.3-.6c.2-.4.3-.7.3-.9-.2-.4-.3-.7-.3-.9h.7c0 .6.2.9.6.9v.6H1.2c0 .6.1.9.3.9l-.3 1.6v.6c0 .5.1.9.3 1.2-.2.4-.3.8-.3 1.2v.3h.3c0-1 .2-1.6.6-1.6l-.3-1.5v-2.1h1.2v.6H4v-1.2l-.2-.6H4c.4.1.7.2.7.6v1.2l-.3.6-.6-.2H3.4L3.7 27c0 .4-.2.7-.7.7l-.6-.3v.9h.9v2.5H2.7v-1.9H2.5c0 1.7.1 2.5.2 2.5.4.1.7.3.7.7H3.1C3.7 33.2 4 34.1 4 34.7h.3v-.6c.3 0 .6.3.9.9l-.3.6c.3 0 .7.4 1 1.2-.4.1-.7.2-.7.6.4.1.7.3.7.7l-.7.3c.4.7.7 1.3.7 1.8 0 .4-.2.6-.7.6-.4-.2-.7-.2-.9-.2L4 41.1c.5 0 1.4.1 2.5.3l-.3-1.6v-.3c0-.2.1-.2.3-.2l-.3-.7c0-.2.1-.2.3-.2-.2-1.3-.4-1.9-.6-1.9l.2-.6V35c0-.4-.4-.7-1.2-.7.1-.4.3-.6.7-.6 0 .2.1.3.3.3l.2-.7-.2-.6h.2c0-.6-.3-.9-.9-.9v-.3l.7-.9v-1.2H5.2c0-.9.2-1.7.7-2.5H5.2v-.3c0-.2.1-.2.3-.2l-.3-.7c0-.2.1-.2.3-.2 0-.2-.1-.3-.3-.3 0-.4.2-1.1.7-2.1-.4 0-.7-.2-.7-.7l.7-.9c-.4 0-.7-.1-.7-.2 0-.2.1-.3.3-.3l-.7-4h.3l-.3-.7.3-.6c-.2-.4-.3-.7-.3-.9h.3l-.3-.7v-2.5c0-.2.1-.2.3-.2l-.3-.7c0-.2.1-.3.3-.3L4.6 9.2l.2-.7L4.6 6.8h.2L4.6 6.1V5.2h.6c0 .9.1 1.6.3 1.9 0 .2-.1.2-.3.2.5 6.8 1 10.1 1.6 10.1.1-1.2.4-1.8.9-1.8V15L7 14.1c.3 0 .7-.4 1-1.2H7.3v-.2c0-.2.1-.3.3-.3l-.3-.7v-.2h.3c.4.2.7.2.9.2v.7H8l.2.6.7-.2h.2v1.8h1.2l-.2-.7.6-.2c-.2-.4-.3-.7-.3-.9l.3-1.2-.3-.7.3-.6c0-.2-.1-.3-.3-.3l.3-1.6-.3-2.7h.7c.3 0 .6 1 .9 3.1l-.3.7v1.5l.3 1.6h-.3l.3.6v3.4h.3c.4 0 .6-.2.6-.6-.2 0-.3-.1-.3-.3h.3c-.4-1.3-.6-2.1-.6-2.5l.6-.2L12.5 12v-.6c0-.4.4-.7 1.2-.7v-.3c-.8 0-1.2-.3-1.2-.9l.7-.2v.6h.2V9.2c-.4 0-.6-.2-.6-.7h1.6L14.1 8V7.7c.5 0 .8-.5.9-1.6-.2-.4-.3-.7-.3-.9L15.3 5l.2.6c-.2 0-.2.1-.2.3h.2l1-.7c0 .2.1.3.2.3V5.2l-.2-3.6h.6c.2.8.3 1.6.3 2.4h.2l.3-1.5V.9zM.3 17.8h.2l.7.2-.3.7.3 1.5h.3v-.9h.2c.4.1.7.3.7.7-.4 0-.7.3-.7.9l-.6-.3v1.6H.6v-1.2c0-.2.1-.3.3-.3C.5 19.6.3 18.7.3 17.8zM1.2 31.9l.3.6v.3H1.2c-.4 0-.7-.2-.7-.7L1.2 31.9zM1.2 74.2l.3.7v.2H1.2c-.4 0-.7-.2-.7-.6L1.2 74.2zM1.2 67.2c.2.3.3 1 .3 2.1h.2v-2.1H1.2zM1.6 70.5l-.3 2.1v.2h.3l.6-2.1L1.6 70.5zM2.1 22.7l.3.7c0 .4-.2.6-.7.6l-.2-.6C1.6 22.9 1.8 22.7 2.1 22.7zM1.8 20.9c.4.1.7.2.7.6v.7H1.8V20.9zM3.1 18.1l.3.7v.3c0 .4-.2.6-.7.6H2.5v-.9C2.5 18.3 2.7 18.1 3.1 18.1zM2.5 33.7c.2.3.2.8.2 1.5.4 0 .7-.2.7-.6v-.3c0-.4-.2-.6-.7-.6H2.5zM3.1 69.9l-.6-.3v1c.8 0 1.2.5 1.2 1.5H4c0-.8.2-1.2.7-1.2 0 .6.2.9.6.9l-.3 1.6H4.6c-.4 0-.7-.2-.7-.6.2 0 .3-.1.3-.3H3.4v.6H2.7v-1.8H2.5c0 1.7.1 2.5.2 2.5.4.1.7.2.7.6H3.1l.6 1.2h.1c0-.1-.1-.2-.2-.4L4.3 77v-.7c.3 0 .7.1 1.2.2l.2.1c0 .1-.3.1-.8.1C5 76.2 5.2 76 5.5 76c0 .2.1.3.3.3l.2-.6-.2-.7h.2c0-.6-.3-.9-.9-.9v-.3l.7-.9v-.6c-.7-.7-1-2-1-4L3.1 69.9zM2.5 76c.2.4.5.7.9 1v-.3c0-.4-.2-.7-.7-.7H2.5zM3.1 37.4c0 .4-.1.7-.3.7.2.4.3.7.3.9.4 0 .7-.2.7-.6-.2-.4-.3-.8-.3-1H3.1zM3.1 22.1c.4.1.7.2.7.6 0 .4-.2.7-.7.7V22.1zM3.4 35.6c0 .3.3.6.9.9v-1.2C3.9 35.5 3.6 35.6 3.4 35.6zM3.7 17.5h.6v1.2H3.7V17.5zM4.3 20.5l.3.7v.2H4.3c-.4 0-.6-.2-.6-.6L4.3 20.5zM3.7 50l.6.2.3-.6v-.3H4.3C3.9 49.4 3.7 49.6 3.7 50zM4 22.7h.7v.9H4V22.7zM4.6 28.5c0 .6.2.9.6.9l-.3 1.5H4.3L4 28.8 4.6 28.5zM4 51.8v1.6h.3c.4 0 .6-.2.6-.7-.4 0-.6-.3-.6-.9H4zM5.9 17.8v.6h.6L7 18.1c.1.4.3.7.7.7v-1.2C7.3 17.7 6.7 17.8 5.9 17.8zM5.9 42v.9h.6V42H5.9zM5.9 43.2v.9h.9v-.3c0-.4-.2-.6-.7-.6H5.9zM6.1 20.5v.3h1.6v-.7L6.1 20.5zM7 5.2h.7L8 6.8v.6H7.3C7.3 6.7 7.2 6 7 5.2zM8 9.2l.2.6c0 .4-.2.6-.6.6H7.3V9.8C7.4 9.4 7.6 9.2 8 9.2zM8.3 15c.1.4.3.7.7.7 0-.2.1-.3.2-.3 0 .2.1.3.3.3v-.9C9.2 14.9 8.7 15 8.3 15zM9.2 5.5h.7v.3c0 .2-.1.2-.3.2l.3.7v1.5c0 .2-.1.3-.3.3l.3.7v.6c0 .4-.2.6-.7.6L8.9 9.8V9.5c0-.2.1-.2.2-.2 0-.2-.1-.3-.2-.3l.2-1.6V5.5zM9.8 10.4l.3.7H9.8l.3.6c0 .4-.2.7-.7.7l-.6-.9C8.9 11.1 9.2 10.7 9.8 10.4zM9.5 15.9c0 .8-.2 1.2-.6 1.2v.3h.6l.3-.6v-1H9.5zM12 16.6v.6l.3 2.8h.2c0-.2.1-.8.3-1.9C12.6 17.1 12.3 16.6 12 16.6zM21.8 11.4L22 12h-.9C21.2 11.6 21.4 11.4 21.8 11.4zM21.5 15H22c-.2.4-.2.7-.2.9h-.7C21.3 15.5 21.5 15.2 21.5 15zM21.8 32.2v.3c.8 0 1.2.3 1.2.9h.2v-.9L23 31.9C22.6 32.1 22.2 32.2 21.8 32.2zM22 23.9h.7c0 .8.4 1.4 1.2 1.8 0 .4-.3.7-.9.7-.4-.2-.8-.3-1-.3v-.6c0-.2.1-.3.3-.3L22 24.5V23.9zM22.7 26.6l.6.3.7-.3c0 .4.2.7.6.7v.6c-.2 0-.5.1-.9.3 0-.6-.2-.9-.6-.9v.9h.6v.6c-.4 0-.6.3-.6 1h-.7c0-.9-.1-1.6-.3-1.9L22.7 26.6zM22.7 35.2c.3.8.6 1.2.9 1.2h.3v-.6c-.4 0-.7-.4-.7-1.2C22.9 34.7 22.7 34.9 22.7 35.2zM23 36.8V38h.2v-1.2H23zM24.8 44.5c0 .4-.5.6-1.6.6v.3h.9v1.8l-.2.7h.6c.4 0 .7-.2.7-.7v-2.7H24.8zM24.2 29.8v.9c-.4 0-.6-.2-.6-.7L24.2 29.8zM24.8 42.7v.6c.2 0 .3.1.3.3-.4.2-.8.2-1 .2v.3h.7c.1-.4.2-.6.6-.6-.2-.4-.2-.7-.2-.9H24.8zM24.5 48.8l-.3.6c.2.4.3.8.3 1.2-.2 0-.3.1-.3.3.4 0 .7.2.7.6h.3c.4 0 .6-.2.6-.6v-.3l-.6.3h-.3v-.3l.3-1.5L24.5 48.8zM26.3 25.2l.3.6-.6.3h-.3v-.3C25.8 25.4 26 25.2 26.3 25.2zM26.6 35.9H27v.3c0 .4-.2.6-.7.6l-.2-.6L26.6 35.9zM26.6 41.1H27c.4.2.7.3.9.3 0-.2.1-.3.3-.3l.2.6c0 .4-.4.7-1.2.7v.3c.6 0 .9.2.9.6v1.2h-.9l.6-.9v-.3c-.8 0-1.2-.2-1.2-.6V42h.7v-.3h-.7V41.1zM27.6 36.8h.7v.3l-.3.6c.2 0 .3.1.3.3l-.7.3-.2-.7C27.5 37.3 27.6 37 27.6 36.8zM27.6 38.9h.7l-.3.6.6.3c-.2.4-.2.7-.2.9h-.7c0-.2-.1-.5-.2-.9C27.5 39.5 27.6 39.2 27.6 38.9zM30.9 42.3v.9c0 .4-.2.6-.6.6v-.2l.2-.7c-.2 0-.2-.1-.2-.2L30.9 42.3zM30.9 51.8h.7v.9h-.7V51.8zM34 70.8v.3h.3c1.1-.2 2-.3 2.8-.3h2.7c0 .5-1.1.8-3.4.9v-.2C35.7 71.8 34.9 72 34 72v.7h.3c.4-.2.7-.3.9-.3 0 .2.1.3.3.3l.3-.7.6.3h1.8v.3c0 .4-.3.6-.9.6v.6c1.7-.2 2.8-.7 3.4-1.5l-.3-.7.3-1.2c-.2-.4-.3-.8-.3-1L34 70.8zM34 74.2h.7l1.5-.3c0 .2.1.3.3.3 0-.4.2-.6.7-.6v-.3h-.7C34.8 73.4 34 73.7 34 74.2zM38.3 76h1.2v.7h-1.2V76zM39.9 16.9l.3.6c0 .3-.3.6-.9.9h-.3v-.3C39.2 17.3 39.5 16.9 39.9 16.9zM39.3 98.4h.6v1.5l.6-.2c0 .3.2.7.7 1.2l-.7.3h-.2v-.9h-.3c-.2 1-.3 1.7-.3 1.8.2 0 .3.1.3.3l-.6.3h-.3v-.3c0-1.4.2-2.1.6-2.1l-.2-.6c0-.2.1-.3.2-.3l-.2-.7V98.4zM39.9 45.4h.3v.3c0 .4-.2.6-.7.6l-.2-.6L39.9 45.4zM39.9 87.7h.3V88c0 .4-.2.7-.7.7L39.3 88 39.9 87.7zM39.9 47.5v.6l.3 1.9c.4 0 .6-.2.6-.7-.4-.8-.6-1.4-.6-1.8H39.9zM40.2 51.2c0 1.2-.1 1.9-.3 2.1h.6v-2.1H40.2zM40.2 7.7h.6v.9h-.6V7.7zM40.8 96.5l.3.7c0 .4-.2.6-.7.6l-.2-.6C40.2 96.8 40.4 96.5 40.8 96.5zM40.4 98.4h.7V99c0 .4-.2.7-.7.7V98.4zM42.6 37.1c.1.4.3.6.7.6.4-.2.7-.3.9-.3l.3.7c0 .5-.2 1.2-.7 1.8.4.1.7.3.7.7-.4.1-.7.2-.7.6l.7.3c-.3.8-.6 1.2-.9 1.2l.2.6c0 .3-.3.6-.9.9v-.6h-.3c0 .6-.3 1.5-.9 2.7.2 0 .3.1.3.3-.6.2-.9.4-.9.6v2.1h.3v-1.8H42v.6h.9l-.3-.6.7-.3h.3v1.6c-.2 0-.3.3-.3.9-.4 0-.7-.4-.7-1.2-.5 1-.9 1.6-1.2 1.6h-.3v.9l.6-.3 1.9 1.6c0-1.9.3-3.3.9-4v-.6l-.7-.9v-.3c.6 0 .9-.3.9-.9h-.2l.2-.6c0-.4-.2-.7-.6-.7 0 .2-.1.3-.3.3l-.2-.7c.8 0 1.2-.2 1.2-.6v-.9c0-.2-.1-.3-.2-.3.2-1.2.4-1.8.6-1.8l-.3-.7c0-.2.1-.2.3-.2l-.3-.7v-.2l.3-1.6C43.9 37 43.1 37.1 42.6 37.1zM41.4 42.9c0 .7-.1 1.2-.3 1.6h.3c.4 0 .6-.2.6-.7v-.2C42 43.1 41.8 42.9 41.4 42.9zM41.4 85.2c0 .7-.1 1.2-.3 1.6h.3c.4 0 .6-.2.6-.7v-.3C42 85.4 41.8 85.2 41.4 85.2zM41.1 100.8h.3c.4.1.6.3.6.7v.3c0 .4-.2.6-.6.6l-.3-.6V100.8zM42 10.1l.3.6v.3h-.9v-.3C41.5 10.3 41.7 10.1 42 10.1zM41.7 39.3c0 .4-.1.6-.2.6.2.4.2.7.2.9H42l.3-1.2L41.7 39.3zM41.7 81.5c0 .4-.1.7-.2.7.2.4.2.7.2.9H42l.3-1.2L41.7 81.5zM41.7 97.2c.4.1.7.2.7.6 0 .4-.2.7-.7.7V97.2zM42 42.7c.2 0 .5.1.9.2v-1.2C42.6 41.7 42.3 42 42 42.7zM42 84.9c.2 0 .5.1.9.3V84C42.6 84 42.3 84.3 42 84.9zM42.6 27.9l-.2.7.6.2h.3v-.2C43.2 28.1 43 27.9 42.6 27.9zM42.9 99h.3v.3c0 .4-.2.6-.7.6l-.2-.6L42.9 99zM42.3 101.8h.6v1.2h-.6V101.8zM42.6 24.8v1.6h.3c0-.3.2-.7.7-1.2l-.7-.3H42.6zM42.9 89.5h.7v1.6c-.2 0-.3.3-.3.9-.4 0-.7-.3-.7-.9L42.9 89.5zM42.6 96.9h.7v.9h-.7V96.9zM44.5 4.6H45V5l-.3 1.5h-.2V4.6zM44.5 34.1V35h.2c.4 0 .7-.2.7-.7v-.2H44.5zM44.5 35.2v1H45v-1H44.5zM44.5 76.3v.9h.2c.4 0 .7-.2.7-.6v-.3H44.5zM44.5 77.6v.9H45v-.9H44.5zM45.7 102.4l-.7-.3h-.6v.7c.9 0 1.5.1 1.8.2v-1.2C45.9 101.9 45.7 102.1 45.7 102.4zM44.7 1.8h.7v1h-.7V1.8zM44.7 99.7v.2l1.6.3v-.6H44.7zM46 113.1h.7v.6l-.3 1.6h-.6C45.9 114.4 46 113.7 46 113.1zM46 110.1h.3c.4.1.6.2.6.6 0 .4-.2.7-.6.7l-.3-.7V110.1zM47.2 104.9l-.3.6c.5 0 .9.1 1.2.3v-.9l-.6.2C47.5 105 47.4 104.9 47.2 104.9zM47.5 103v.3c.4 0 .6.4.6 1.2h.3v-1.2l-.6-.3H47.5zM48.4 108.3l.3.6-.3.6c.2 0 .3.1.3.3l-.7.3-.6-.9C47.5 108.8 47.8 108.5 48.4 108.3zM48.1 110.1l.3.6v.7c0 .2-.1.2-.3.2l.3.7v1.5c0 .2-.1.3-.3.3l.3.7v.2h-.6v-1.8l-.3-1.6h.3l-.3-.6v-.3C47.6 110.3 47.8 110.1 48.1 110.1zM49.3 6.4L49 8.3c.4 0 .7-.5 1-1.5L49.3 6.4zM50.9 100.6c-.2 1.8-.3 2.9-.3 3.4.5 0 .8-.7.9-2.1-.2-.4-.3-.8-.3-1.2H50.9zM52.1.9l.2.7-.2 1.8h-.3c-.4 0-.7-.2-.7-.6v-1C51.2 1.5 51.5 1.2 52.1.9zM59.7 104.5h.7c0 .2.1.5.3.9h-.7C60.1 105.2 60 104.9 59.7 104.5zM59.7 108.5h1c0 .4-.2.7-.7.7L59.7 108.5zM61.6 44.8c0 .6-.4.9-1.2.9V46c.4 0 .9.1 1.2.3l.2-.6v-.9H61.6zM61.6 87c0 .6-.4.9-1.2.9v.3c.4 0 .9.1 1.2.3l.2-.7V87H61.6zM62.2 94.1l.3.6c-.8.5-1.2 1.1-1.2 1.8h-.6V96c0-.2.1-.3.2-.3L60.7 95v-.7L62.2 94.1zM61 90.8h.7c0 .6.2.9.6.9v.6h-.6v1c.4 0 .6-.3.6-1 .4.2.7.3.9.3v.7c-.4 0-.6.2-.6.6l-.7-.3-.6.3L61 93.2V90.8zM61.3 43.2l.6.3c0-.8.2-1.2.7-1.2v-.7h-.3C61.8 41.7 61.5 42.2 61.3 43.2zM61.3 85.6l.6.2c0-.8.2-1.2.7-1.2V84h-.3C61.8 84 61.5 84.5 61.3 85.6zM61.6 40.2v1.2h.6c-.2-.4-.3-.8-.3-1.2H61.6zM61.6 50v.9c.4 0 .6-.2.6-.7V50H61.6zM61.6 82.4v1.2h.6c-.2-.3-.3-.7-.3-1.2H61.6zM62.5 30.4l.3.6v1.9h-1v.2c1 0 1.6.2 1.6.7h.3v-2.8c0-.4-.2-.6-.7-.6H62.5zM62.9 47.5v.9c-.4 0-.7-.2-.7-.6L62.9 47.5zM62.9 89.9v.9c-.4 0-.7-.2-.7-.7L62.9 89.9zM62.5 16.6v.6c.2 0 .3.1.3.3-.2 0-.3.1-.3.3h.3c.4 0 .6-.2.6-.7-.4 0-.6-.2-.6-.6H62.5zM62.9 18.7v.3c.2.4.2.7.2.9-.2 0-.2.1-.2.2h.9l-.3-1.5H62.9zM63.1 25.7l.3.7v.9h-.6c.2.4.2.7.2.9-.2.4-.2.7-.2.9l.6.3c0-.2.1-.3.3-.3l-.3-1.5v-.3h.3l.6.3L64 25.7H63.1zM62.9 34.1v.2c.2 0 .5.1.9.3l-.3.6v.3h.3c0-.2.1-.5.2-.9l-.9-.6H62.9zM62.9 73.3c0 .3.2 1.2.6 2.7h.3v-1.2l-.3-1.6H62.9zM62.9 76.3v.3c.2 0 .5.1.9.3l-.3.6v.3h.3c0-.2.1-.5.2-.9l-.9-.7H62.9zM63.1 11.4c.1.4.3.6.7.6H64v-.6H63.1zM63.1 20.5v.3c.2.3.3.7.3 1.2.3 0 .6-.3.9-.9-.6 0-.9-.2-.9-.7H63.1zM63.1 53.6c.1.4.3.7.7.7H64v-.7H63.1zM65.3 17.8c0 1-.3 1.5-.9 1.5.2.3.3 1 .3 2.1H65v-.6h.6v.9l-.3.6-.6-.2c-.5.4-.9.6-1.2.6.1.4.2.7.6.7.1-.4.3-.7.7-.7h.6V23c0 .2-.1.3-.2.3.2.3.2.7.2 1.2h.3c.4 0 .6-.2.6-.6-.2-.4-.2-.8-.2-1.2h.2c-.2-.2-.4-1.8-.6-4.9H65.3zM64.4 17.5v.9c.4 0 .7-.2.7-.6L64.4 17.5zM64.4 94.4h.3c.4.1.6.3.6.7l-.6.3-.3-.7V94.4zM65.3 41.4l.3.6v.3h-.3c-.4 0-.6-.2-.6-.7L65.3 41.4zM64.7 69.9c.2.4.3.7.3.9.4 0 .6-.2.6-.6L65 69.9H64.7zM65.3 83.7l.3.7v.3h-.3c-.4 0-.6-.2-.6-.7L65.3 83.7zM65.9 33.7h.9V35c0 .4-.3.6-.9.6v.3c.8 0 1.2.2 1.2.6l-.3.7-.7-.3c-.4.2-.7.3-.9.3v-.7h.7v-.2h-.7v-.7c0-.4.4-.6 1.2-.6v-.3L65.9 33.7zM66.2 37.4h.7c0 .2.1.5.3 1-.4.1-.7.2-.7.6.2 0 .3.1.3.3h-.7c0-.2-.1-.5-.2-.9C66.1 37.9 66.2 37.6 66.2 37.4zM66.5 39.9l.3.7h-.3l.3.6v.3h-.7l-.2-1.2L66.5 39.9zM65.9 57.7c.2 1.4.2 2.2.2 2.4-.2 0-.2.1-.2.3h.2l.7-.3c-.2 0-.3-1.1-.3-3.4C66.1 56.7 65.9 57 65.9 57.7zM66.2 79.7h.7c0 .2.1.5.3.9-.4.1-.7.3-.7.7.2 0 .3.1.3.2h-.7c0-.2-.1-.5-.2-.9C66.1 80.2 66.2 79.9 66.2 79.7zM66.5 82.2l.3.6h-.3l.3.7v.2h-.7l-.2-1.2L66.5 82.2zM66.5 20.5v.3l.3 1.5h.3c0-.2.1-.5.2-.9-.4 0-.6-.2-.6-.6.2 0 .3-.1.3-.3H66.5zM68.3 63.4v.3l.7.9V65h-.7v-.7h-.2c0 .6-.4.9-1.2.9l.3 2.1c.4 0 .6-.2.6-.6l-.6-.9.6-.3c.4.8 1 1.2 1.8 1.2l-.2-.6v-.3l.2-.7c-.2 0-.2-.1-.2-.2.3 0 .6-.5.9-1.6h-.7c-.4.2-.7.3-.9.3C68.6 63.6 68.5 63.4 68.3 63.4zM68.1 78.8h.2c0 .4-.2.6-.6.6h-.3C67.5 79 67.7 78.8 68.1 78.8zM69 13.8h.6v2.1c0 .4-.2.7-.6.7l-.3-.7c.4 0 .7-.2.7-.6v-.9h-1C68.4 14 68.6 13.8 69 13.8zM69 56.1h.6v2.1c0 .4-.2.6-.6.6l-.3-.6c.4 0 .7-.2.7-.6v-1h-1C68.4 56.3 68.6 56.1 69 56.1zM68.6 10.7H69c.4.1.6.3.6.7l.7-.3c.3 0 .6.3.9.9v.3l-.3.6c.4.1.7.3.7.7 0 .2-.1.2-.3.2l.3.7v.3c0 .4-.2.6-.7.6-.3 0-.6-.3-.9-.9.3 0 .6-.4.9-1.2-1.2-.3-1.9-.8-2.1-1.6l.3-.6C68.8 11.1 68.6 10.9 68.6 10.7zM68.6 53.1H69c.4.1.6.2.6.6l.7-.2c.3 0 .6.3.9.9v.2l-.3.7c.4.1.7.2.7.6 0 .2-.1.3-.3.3l.3.6V57c0 .4-.2.7-.7.7-.3 0-.6-.3-.9-1 .3 0 .6-.4.9-1.2-1.2-.3-1.9-.9-2.1-1.6l.3-.6C68.8 53.4 68.6 53.3 68.6 53.1zM69.6 19.3c.9 1.3 1.4 1.9 1.6 1.9v.9c0 .4-.5.7-1.6.9v-.7h.7l-.3-.6.3-.6c-.5 0-.9-.4-1.2-1.2C69 19.5 69.2 19.3 69.6 19.3zM69 34.3c.4.1.6.3.6.7v.9c-.4 0-.6-.2-.6-.7h.3L69 34.7V34.3zM69 76.6c.4.1.6.2.6.6v.9c-.4 0-.6-.2-.6-.6h.3L69 77V76.6zM69.9 73.6c.2 0 .3.1.3.2l.6-.2h.9v.2c0 .4-.2.7-.6.7l-.7-.3c-.4.2-.7.3-.9.3l-.2-.7L69.9 73.6zM69.6 23.6l1.6.3v.6h-.3l-.6-.2c0 .2-.1.2-.3.2l-.3-.6V23.6zM69.6 25.5h.7v.9h-.7V25.5zM69.9 66.8c.2.4.3.7.3.9h.2v-1.2L69.9 66.8zM70.8 15.7l.7 1.2h-.3c-.3 0-.6-.3-.9-1L70.8 15.7zM70.8 57.9l.7 1.2h-.3c-.3 0-.6-.3-.9-.9L70.8 57.9zM70.8 9.5h.7v.3c0 .2-.1.3-.3.3l.3.6v.3h-.7V9.5zM70.8 51.8h.7v.3c0 .2-.1.2-.3.2l.3.7v.3h-.7V51.8zM78.3 67.8h-.6v-.9h.6V67.8zM78.6 57.2h-.6v-1.2h.6V57.2zM82 50.2c-.6.5-.9 1.3-.9 2.4-.8 0-1.6.6-2.5 1.8h-.3c0-1.4.5-2.1 1.6-2.1.9-1.7 1.5-2.5 1.8-2.5H82V50.2zM80.4 48.6l-.2.7-.7-.3c.2-.4.3-.7.3-.9h.6V48.6zM81.7 44.4c-.4.4-.6 1.1-.6 2.1h-.7v-.6c0-1 .3-1.6.9-1.8h.3V44.4zM82 42.2h-.7l.3-1.2h.6L82 42.2zM82.3 47.4L82 48c-.4 0-.7-.2-.7-.7v-.6c0-.3.2-.5.7-.6h.2V47.4zM83.5 37.6c0 .3-.4.6-1.2.9H82c.3-.8.6-1.2.9-1.2h.6V37.6zM83.2 72.7v.2c-.4-.2-.7-.2-.9-.2v-.9h.7C82.9 72 83 72.3 83.2 72.7zM129.5 6c.8 0 1.2.2 1.2.6h.3l1.2-.9V6c1.6.8 2.4 1.4 2.4 1.8.3 0 .5-.2.6-.7V6.9h-.6V6.3c1.8.3 2.7.8 2.7 1.6h.3l.6-.3c0 .2.1.3.3.3l-.3.6c-.3 0-1.1-.2-2.4-.6h-.3v.2c2 .4 3.1.9 3.1 1.6.3 0 .5-.2.6-.6h-.6V8.7h1.2v.6c.2 0 .2-.1.2-.2.4 0 .7.4.7 1.2h.9V10l-.3-.7h.3c1.8 1.1 2.7 1.8 2.7 2.1h-1.2V12c.4 0 .9.3 1.6.9h.2l-.2-.6v-.6h.2c.7 1 1.4 1.5 2.1 1.5 2 2.4 3.1 3.6 3.4 3.6h.3v-.6c-.6 0-1.7-1.4-3.4-4.3v-.2c.2 0 .3.1.3.2l.6-.2 1.8 2.4c.4 1.3 1.8 3.2 4 5.5V20l-.2.7-.7-.3h-.3c1.7 3.7 3 6.1 4 7.3V27l.7.3-.3 1.5c.6 1 .9 1.8.9 2.1l.7-.2h.2c0 .4-.1.8-.2 1.2l.9 1.6c-.6 0-.9.2-.9.6v.3c1.2 1.9 1.8 3.7 1.8 5.4h.2v-.9l-.9-4.3c.2 0 .3.1.3.3.2 0 .3-.1.3-.3l.6.3c0 .2-.1.5-.3.9 1 1.8 1.6 3.2 1.6 4.3v.6h.6V41c0 .4-.2.6-.6.6-.4 0-.7-.8-.7-2.4h-.2c0 .8-.2 1.2-.7 1.2v.2c.8.7 1.2 1.8 1.2 3.4l.7-.3c0 .4-.2 1-.7 1.8v.7h.3c0-.8.3-1.2.9-1.2l.3.6v.3c-.4 0-.9.5-1.2 1.5v1h.6v.6l-.6.9v.6l.6-.2.7.2c0-.8.2-1.2.6-1.2l-.3 2.1-.6-.2H163v.2c0 .4.2.7.7.7l-.9 1.5V55h.6v1.8c.5 0 .8.5.9 1.5-.3 1.2-.6 2-.9 2.5v.3c.6 0 .9.2.9.6l-.6.9c0 .4.2.6.6.6L163 66h-.6v-.7H162c0 .2-.1.5-.3.9v.3h.3l.7-.3v.3l.6-.3.6.3-.9 1.5h.3c-.6 1.8-1.2 2.8-1.8 2.8v.2c.8 0 1.2.2 1.2.7 0 .4-.2.6-.7.6 0 .2.1.3.3.3-.7 3.2-1.4 4.9-2.1 4.9 0 .4.1.9.3 1.2 0 .4-.2.6-.7.6 0 .2.1.5.3.9 0 .2-.3.4-.9.6l.3.7v.2c0 .4-.3.7-.9.7.4.7.6 1.3.6 1.8v.9c-.4 0-.9.1-1.2.3 0 .2.1.5.3.9-.6 1.8-1.1 2.7-1.6 2.7 0 .2.1.5.3.9-.7 1.7-1.3 2.5-1.8 2.5v.6c0 1.5-.3 2.3-.9 2.4-.5 1.5-1 2.7-1.6 3.7l1 .6h.2c0-.7.9-2.3 2.7-4.9 0-.2-.1-.5-.2-.9l1.2-1.5c-.2 0-.2-.1-.2-.3l1.8-2.7v-.3l-.6.3h-.3l.3-1.2h.2l.7.3c0-.4.2-.6.6-.7h.3v.7l-1.8 3.3c-1.2 4.3-3.2 8.2-6.1 11.6v.3l1.8-1.5c1.2-2.5 2.2-3.7 3.1-3.7 0-.2-.1-.2-.3-.2.8-3.2 1.7-4.9 2.7-4.9l-.6-.9h.6c1-2.5 1.6-3.7 1.8-3.7h.3v.3c0 1.1-.4 1.8-1.2 2.1 0 .4.1.9.3 1.2l-2.1 3.3c-.8 2.4-1.4 3.6-1.8 3.6 0 1.3-1.5 3.1-4.5 5.5-1 2.6-3.8 5.3-8.3 8.3h-.9c1.2-1 1.8-1.6 1.8-1.9 2.6-1.4 4.4-3 5.5-4.9-1.6 1.7-2.6 2.5-3.1 2.5l-5.5 4-.6-.3c.2-.4.3-.7.3-.9 2.2-.9 3.3-1.7 3.3-2.4.2 0 .3.1.3.2 2.1-1.2 3.3-2.3 3.6-3.3v-.3h-.3c-2.3 1.6-3.7 2.4-4.2 2.4-.7 1.3-2.3 2.2-4.6 2.8 0 .2.1.2.3.2l-.3.7-1.5-.7v.3c-1.8.6-3.3 1.4-4.5 2.5h-1.6v.6h-.6v-.6h-.3c-1 .8-1.8 1.2-2.4 1.2v-.6c-1 .8-1.7 1.2-1.9 1.2l-.6-.3c0 .2-.1.3-.3.3-.4 0-.6-.3-.6-.9l-1.2.9h-1.5l.3-.7c-.8 0-1.2-.2-1.2-.6h-.7l-.9.6L120 115c0 .6-.2.9-.6.9h-.7l.7-.9v-.3c-.2 0-.6.1-1 .3-.2 0-.2-.2-.2-.7h-.3l-1.2.9V115c-1.6-.9-2.4-1.5-2.4-1.8-.4 0-.7.2-.7.6v.3h.7v.6c-.8 0-1.8-.5-3.1-1.5l-.6.2c0-.2-.1-.2-.3-.2l.3-.7c.3 0 1.1.2 2.4.7h.3v-.3c-2-.4-3.1-.9-3.1-1.6h-.7v.7h.7v.2h-1.2v-.6c-.2 0-.3.1-.3.3-.4 0-.6-.4-.6-1.2h-.9v.3l.3.6h-.3l-2.7-1.8c0-.2.1-.3.2-.3l-.2-.6.2-.7c-.2 0-.2-.1-.2-.2-.4 0-.7.3-.7.9h-.6l.3-.7V108c0-.3-.2-.5-.7-.7-.6.3-.9.6-.9.9-1-.6-1.5-1.3-1.5-2.1h-.7v.6h-.2c-.9-1.2-1.7-1.8-2.1-1.8v.3l1.8 2.7v.2c-.2 0-.3-.1-.3-.2l-.6.2-1.8-2.4c-.4-1.3-1.8-3.1-4-5.4v-.7h.6v.7h.3c0-.2.1-.5.3-1 0-.1-1.3-2.4-4-6.9v.6l-.7-.3.3-1.5c-.6-1-.9-1.8-.9-2.1L88 89.4h-.2c0-.5.1-.9.2-1.2l-.9-1.6c.6 0 .9-.2.9-.6v-.3c-1.2-1.9-1.8-3.7-1.8-5.4H86v.9l.9 4.3c-.2 0-.3-.1-.3-.3-.2 0-.3.1-.3.3l-.6-.3c0-.2.1-.5.3-.9-1-1.8-1.6-3.2-1.6-4.3v-.6h-.6V79c0-.3.2-.5.6-.6.4 0 .7.8.7 2.4h.2c0-.8.2-1.2.7-1.2v-.3c-.8-.7-1.2-1.8-1.2-3.4l-.7.3c0-.4.2-1 .7-1.8v-.7h-.3c0 .8-.3 1.2-.9 1.2l-.3-.6v-.3c.4 0 .9-.5 1.2-1.5v-.9h-.6v-.7l.6-.9v-.6L83.8 70l-.7-.3c0 .8-.2 1.2-.6 1.2l.3-2.1.6.2h.3v-.2c0-.3-.2-.5-.7-.7l.9-1.5V65h-.6v-1.8c-.5 0-.8-.5-.9-1.5.3-1.2.6-2 .9-2.5V59c-.6 0-.9-.2-.9-.7l.6-.9c0-.3-.2-.5-.6-.6l1.2-2.7h.6v.6h.3c0-.2.1-.5.3-.9v-.3h-.3l-.7.3v-.3l-.6.3-.6-.3.9-1.5h-.3c.5-1.8 1.2-2.7 1.8-2.7v-.3c-.8 0-1.2-.2-1.2-.6s.2-.6.7-.7c0-.2-.1-.3-.3-.3.7-3.2 1.4-4.9 2.1-4.9 0-.4-.1-.8-.3-1.2 0-.4.2-.6.7-.7 0-.2-.1-.5-.3-.9 0-.2.3-.4.9-.6l-.3-.7v-.2c0-.4.3-.7.9-.7-.4-.7-.6-1.3-.6-1.8v-.9c.4 0 .9-.1 1.2-.3 0-.2-.1-.5-.3-.9.5-1.7 1.1-2.6 1.6-2.7 0-.2-.1-.5-.3-.9.7-1.6 1.3-2.4 1.8-2.4V27c1.2-4.1 3-7.6 5.4-10.6h-.2c-1.2.8-1.8 1.4-1.8 1.8-.4.1-2 2.4-4.9 7 0 .2.1.5.2.9L89 27.6c.2 0 .2.1.2.2l-1.8 2.8v.2l.6-.2h.3L88 31.8h-.2l-.7-.2c0 .4-.2.6-.6.6h-.3v-.6c.6-.8 1.5-2.8 2.8-6.1 1.3-4 3.3-7.2 6-9.5v-.2c-.2 0-.9.5-2.1 1.5-1.8 2.9-3 4.3-3.7 4.3 0 .2.1.3.3.3-.8 3.2-1.7 4.9-2.7 4.9l.6.9h-.6c-1 2.4-1.6 3.6-1.8 3.6h-.3v-.3c0-1.1.4-1.8 1.2-2.1 0-.4-.1-.8-.3-1.2l2.1-3.4c.8-2.4 1.4-3.6 1.8-3.6 0-1.3 1.7-3.3 5.2-6.1.4 0 .8.1 1.2.3l1.2-.7c1-1.7 3.5-3.8 7.3-6.4h.6v.6c-.8 0-1.3.4-1.5 1.2-2.1 1.2-3.9 2.6-5.2 4.3h.3c1.2-1.3 2-1.9 2.4-1.9l5.5-4 .6.3c-.2.4-.3.7-.3.9-2.2.9-3.3 1.8-3.3 2.5-.2 0-.3-.1-.3-.3-.7 0-1.2.7-1.5 2.1h.2c2.5-1.8 4.7-3 6.7-3.6 0-.2-.1-.3-.2-.3l.2-.6 1.6.6V9.3c1.8-.6 3.3-1.4 4.5-2.4h1.6V6.3h.2c.4 0 .6.2.7.7 1-.8 1.8-1.2 2.4-1.2v.6c1-.8 1.6-1.2 1.8-1.2l.7.2c0-.2.1-.2.2-.2.4 0 .7.3.7.9l1.2-.9h1.5l-.3.6c.8 0 1.2.2 1.2.6h.6l1-.6.6.3c0-.6.2-.9.6-.9h.7L129.5 6zM84.4 41.9c-.8.5-1.2 1.1-1.2 1.8h-.2c0-.2-.1-.5-.3-.9.5-.8.9-1.2 1.2-1.2h.6V41.9zM83.8 81.8l-.3.7-.6-.3.2-.6L83.8 81.8zM85.1 32.5l-.7.9V34l.3.6-.9.7.2.6c0 .4-.2.7-.6.7l-.3-2.1c.7-1.4 1.2-2.1 1.6-2.1h.3V32.5zM86.6 37l-2.7 2.7h-.3c.5-1.3 1.6-2.4 3.1-3.3V37zM84.4 83.7l-.3.6c-.4 0-.6-.2-.6-.6v-.3h.3L84.4 83.7zM84.1 56.8v.9h.7v-.3C84.7 57.1 84.5 56.9 84.1 56.8zM85.3 66.9c0 .2-.1.5-.2.9.2 1.8.2 2.8.2 3.1h.3c0-.7.1-1.2.3-1.6h-.3l.3-1.5c-.2-.4-.3-.7-.3-.9H85.3zM86.6 33.7V34c0 .4-.2.6-.6.6h-.7V34l.7-.9C86.3 33.1 86.5 33.3 86.6 33.7zM85.3 47.4v1h.3c0-.7.2-1 .6-1L86 46.8C85.5 46.8 85.3 47 85.3 47.4zM85.6 60.1v1.2H86v-1.2H85.6zM86.9 91.6v.2h-.3c-.4 0-.6-.2-.6-.6v-.3h.2C86.6 90.9 86.8 91.1 86.9 91.6zM86.9 72c0 .8.1 1.5.2 2.1h.7c-.2-1.4-.3-2.2-.3-2.4L86.9 72zM87.5 74.8l.3.6c0 .4-.2.6-.7.6.2 1.1.3 2.1.3 3.1.2 0 .3-.1.3-.2.4 0 .6.3.6.9h.3v-2.1L88 77.8h-.2v-.9c0-.5.2-1.2.6-1.8L88 74.5 87.5 74.8zM88.4 91.6h-.6c0-.4-.2-.9-.7-1.6 0-.3.2-.5.7-.6L88.4 91.6zM87.8 94v.6h-.7v-1.2C87.5 93.4 87.7 93.6 87.8 94zM88.7 80.3L88 80c0 .2-.2.3-.6.3v1.2l1.8 4.5c.2 1 .7 2.4 1.6 4h.2v-.3c0-.4-.3-1.2-.9-2.4.2-1.1.3-1.7.3-1.8-.6 0-1-.4-1.2-1.2v-.3h.7v.7h.2v-.3c-.2-.3-.2-.8-.2-1.5-.2 0-.3.1-.3.2-.6-.2-.9-.8-.9-1.8h.6V80L88.7 80.3zM89.3 91.3v.6c-.3 0-.6-.4-.9-1.2v-.2H89C89 90.6 89.1 90.9 89.3 91.3zM90.2 94.3v.2l-.2.7c-.3 0-.7-.8-1.2-2.5v-.2C88.9 92.5 89.4 93.1 90.2 94.3zM89.9 89.7V90l1.8 4.5H92v-.2c0-1.5-.6-3-1.8-4.6H89.9zM90.2 68.7V70h.7v-1.2H90.2zM90.2 72.7c0 .4.2.6.7.6h.2c-.2-.4-.2-.7-.2-.9L90.2 72.7zM91.7 78.1V79H92c0-.2.1-.5.3-.9v-.3L91.7 78.1zM96.3 102.8H96v.6c.3 0 .9.3 1.9.9C97.1 103.3 96.6 102.8 96.3 102.8zM98.4 70v1.5l.3 1.2c-.3.4-.6.6-.9.6v.9l.6-.3.6.3c0-.4-.1-.9-.2-1.2l.2-.6c-.2-.8-.2-1.6-.2-2.4H98.4zM98.1 59.2c0 .4.2.7.7.7V59L98.1 59.2zM98.8 75.4V76l.2 1.8c-.2.4-.2.8-.2 1 .2.4.2.7.2.9h.7v-1.9l.2-.6c-.4 0-.6-.8-.6-2.4C99 74.8 98.8 75 98.8 75.4zM99.9 81.5c0 .4.2.6.7.6 0 .2-.1.5-.3.9v.3h.3l.6-.3-.6-1.8L99.9 81.5zM100.2 79.7v1.2h.3v-1.2H100.2zM101.5 108.9l-.3.6c-.6-.3-.9-.6-.9-.9v-.3h.3L101.5 108.9zM100.6 61.7V62h.2c0-.3.2-.7.7-1.2v-.7C101.1 60.1 100.8 60.7 100.6 61.7zM100.6 74.2c0 .1.1.5.2 1.2h.3v-1.2H100.6zM100.8 58.1v1.5h.7l-.3-1.5H100.8zM100.8 70.9v1.5h.3v-1.5H100.8zM100.8 79.4v.3c0 .4.2.6.7.6V80C101.5 79.6 101.3 79.4 100.8 79.4zM101.2 81.5c.2.4.3.7.3.9h.3v-1.2L101.2 81.5zM131.9 22.1c0 .1.2.9.6 2.5-.8-.7-1.2-1.4-1.2-2.1H131c-.5.4-1 .6-1.6.6v.3l1.8.3v.9c-.2 0-.5-.1-.9-.3h-.6c.2.4.3.7.3.9h.6l.9-.6c0 .2-.1.5-.3.9l.3.6v.3H131v-.7h-.3v.7h-.6c0-.6-.4-1.1-1.2-1.6 0-.2.1-.2.3-.2 0-.2-.1-.3-.3-.3 0-.2.1-.5.3-.9V23l-.7.3h-.2l-1-.6-.2 1.8h-.7v-.7h-.6v.7c.4 0 .6.4.6 1.2h.7l-.3-.6c0-.3.2-.5.6-.6v.9c.4 0 .7-.3.7-.9.4.2.7.2.9.2l-.3.7.7.9h-.3l-.6-.3c0 .2-.3.4-1 .7l-1.5-.7c0 .2-.1.3-.3.3v-.7h-.6v1h-.3c-.8-.5-1.2-.9-1.2-1.2v-.7h.2l.9.7c0-.8.2-1.2.7-1.2v-.6c0-.4-.2-.6-.7-.7v.9h-.9l-.6-.2-.3.6c-.2 0-.3-.1-.3-.3l-1.8 1.6.3.6c0 .4-.2.7-.6.7l-.7-.3-1.5 3.1c.2 0 .2.1.2.2v1c0 .4-.6.7-1.8.9-.4 0-.6-.2-.6-.7v-.6l1.5-1.2v-.6l-1.5.6c-.5 1.2-.9 1.8-1.2 1.8v.7c.2 0 .3-.1.3-.3 1.2.4 1.8.8 1.8 1.2.3 0 .5-.2.6-.7l.7.3c.3 0 .5-.2.6-.6 1.4.2 2.1.5 2.1.9 0 .4-.3.6-.9.6v.3l.3.6.6-.3h.3V34c-1.6 1.1-2.5 1.8-2.5 2.1h-.6c0-.2-.1-.5-.3-.9h.3c0-1-.3-1.7-.9-1.8-1.4.8-2.3 1.7-2.8 2.7v.6l1.2-.6-.2-.6v-.7h.6v.7c.2 0 .3-.1.3-.3.2 0 .6.8 1.2 2.4V38c-.5 0-1.2.3-2.1.9-.7-.7-1-1.3-1-1.8h-.2v2.1l.2.6 1-.6v.3l-.7.9-1.5-1.2H113c0 .2-.1.5-.3.9h.3l-.3 1.5.3 1.2c-.4 0-.6.2-.6.6l-1.2-.6-.6.3c0 .2.1.2.2.2l-.2 1.6v.6h.6v.7c-.2 0-.5-.1-.9-.3-.4 0-.7.2-.7.6v.9h.3v-.6h.7v.6l-.7 1 .3.6c-.2 0-.3.1-.3.3-.4 0-.6-.2-.6-.7v-.2l.2-.7h-.9c0 .8-.2 1.2-.6 1.2l1.2 1.5c-1 0-1.6.2-1.6.7h-.6v-.7h-.3v.3c.4.7.7 1.2.7 1.6.8-.5 1.2-.9 1.2-1.2.4 0 .6.2.7.6 0 .4-.2.7-.7.7l-1.5 1.2v.3c0 .4.2.6.6.6-.4.5-.6.9-.6 1.2h-.6c0-.5-.7-1-2.1-1.5v.2l.9 1.2c.2 0 .2-.1.2-.3.3 0 .8.6 1.6 1.9l-.6.9.6.9v.2h-.6l-1.9-.9c0 .4-.2.7-.6.7l.3 2.1v.6h-.3l-.6-.3c0 .2-.1.5-.3.9.3 0 .5.2.6.7.8 0 1.2-.5 1.2-1.6L106 62h.3v-1.2c-.6 0-.9-.2-.9-.7l.2-.6c.8 0 1.6.7 2.5 2.1v.6h-.3l-.6-.2c0 .4-.3.6-.9.6V63h.6v.9c0 .1.2.9.7 2.4 0 .2-.1.5-.3.9l.3.7c-.2.3-.3.7-.3 1.2h-.6l-.3-1.5-.7.3h-.6v-.7c.8 0 1.2-.2 1.2-.6v-.3c-.7 0-1.2-.1-1.6-.2-.3.2-.8.2-1.5.2v.7l.6.9v.9h-.6v.6c.2 0 .5.1.9.3V69h.3l.6.3c0-.3.2-.5.6-.6v1.8l.7-.3h.3c0 .4.3.9.9 1.6-.6 0-1.2-.2-1.9-.7v.3l-.6-.3c0-.2.1-.2.3-.2 0-.4-.2-.6-.7-.7 0 .5-.1.9-.2 1.2.4.5.6.9.6 1.2h.6V72h.3c1 .6 1.5 1 1.6 1.2v.3h-.7c-.4 0-.6-.2-.6-.7l-.9.7c-.3 0-.8-.6-1.6-1.8v-.7l.7-.9V70l-.7.2-.6-.2v1.2l.3.7c-.2 0-.3.1-.3.2l-.6-.2v1.2c.6 0 .9.1.9.3 0 .3.5.7 1.5 1.2v.6c-.6-.3-.9-.6-.9-.9-.2 0-.3.1-.3.3-.4 0-1-.2-1.8-.7 0 1.4-.1 2.3-.2 2.5h.6c0-.7.1-1.2.3-1.5 1 .4 1.6.9 1.8 1.5v.3c-1.4 0-2.1.7-2.1 2.1l1.2.9v-1.2l-.3-.7.6-.2c1.9.8 2.8 2.1 2.8 4H106c-.1-1.7-.5-2.6-1.2-2.7l-.6.2.3.7V80l-1.6.3v.9c.3 0 .7.2 1.2.6v-1.5h.6c0 .6.3.9.9.9v.9c-.8.6-1.4.9-1.8.9v.3h1.2c.1 0 .6-.5 1.6-1.6h.9c.3 0 .5.2.6.7h-.9v.9l.9 1.2v.2l-.6.9h.9c.4 0 .6-.5.6-1.5h.3c.8.4 1.2 1.1 1.2 2.1h.2c0-.6.5-.9 1.6-.9 0 .8 1.6 1.6 4.9 2.4l-.3.7c.5.8 1 1.8 1.2 3.1l-.9.6c0-.2-.1-.5-.3-.9.2 0 .3-.1.3-.3 0-1.5-1.5-2.9-4.6-4v.3l-2.1-.7v1.6l.9-.6v.9h.6c.3 0 .5-.2.6-.7.4 0 .7.3.7.9h.2l.7-.2v.6l-.3.6-1.5-.6v.3l-1.8-.9c-.4.2-.8.2-1 .2v.3h1.2v.6h-.6V90h.3c.3-.2.7-.3 1.2-.3V90l-.2.6h.2l-.2.7-.9-.7c-.7.3-1 .7-1 1 1.9.3 2.8.7 2.8 1.2.2 0 .5-.1.9-.2.2 0 .5.1.9.2l-.3.7h1.6c.3 0 .5-.2.6-.7.2 0 .3.1.3.3l.9-.6v.2c0 .4-.2.7-.7.7v.2c1.1.4 2.2 1.3 3.4 2.5 0 .2-.1.3-.3.3L120 97v.3l-.6-.3h-.3l.3.6h-.3l-1.6-.2v1.2h.3l1.8-.9v.3l.7-.3h.2l.9.7.3-1.8h.6V97h.7v-.6c-.4 0-.7-.4-.7-1.2h-.6v.6c-.2 0-.3-.1-.3-.3-.4 0-.6.3-.6 1-.4-.2-.7-.3-.9-.3l.3-.7-.7-.9h.3l.6.3c0-.2.3-.4.9-.6l1.6.6L124 94c1 .5 1.5 1.3 1.5 2.1h.7l-.3-.7v-.6h.3c1.2-2 1.9-3.1 2.1-3.1 0-.2-.1-.5-.3-.9 1.1-1 1.7-1.8 1.8-2.4.6.3.9.6.9.9v.2h-.6v.7c.7-.6 1.3-.9 1.8-.9l-.3-1.6-.9.7c-.4 0-.6-.4-.6-1.2-.6.3-.9.6-.9.9l-.7-.3c-.4 0-.6.2-.6.7-1.4-.2-2.1-.5-2.1-.9 0-.4.3-.7.9-.7v-.3l-.3-.6-.6.3h-.3v-.3c1.7-1.1 2.5-1.8 2.5-2.1h.6c0 .2.1.5.3.9h-.3c0 1 .3 1.7.9 1.8 1.4-.8 2.3-1.7 2.8-2.7v-.6l-1.2.6.2.7v.6h-.6v-.6c-.2 0-.3.1-.3.2-.2 0-.6-.8-1.2-2.4v-.3c.5 0 1.2-.3 2.1-.9.7.7 1 1.3 1 1.8h.2v-2.1l-.2-.6-1 .6v-.2l.7-.9 1.5 1.2h.3c0-.2.1-.5.3-.9h-.3l.3-1.5-.3-1.2c.3 0 .5-.2.6-.6l1.2.6.6-.3c0-.2-.1-.2-.2-.2l.2-1.6v-.6h-.6v-.7c.2 0 .5.1.9.3.3 0 .5-.2.7-.6v-.9h-.3v.6h-.7v-.6l.7-.9-.3-.7c.2 0 .3-.1.3-.2.3 0 .5.2.6.6v.3l-.2.6h.9c0-.8.2-1.2.6-1.2l-1.2-1.5c1 0 1.6-.2 1.6-.7h.6v.7h.3v-.3c-.4-.7-.7-1.2-.7-1.5-.8.5-1.2.9-1.2 1.2-.4 0-.7-.2-.7-.6 0-.4.3-.6.9-.6.3-.8.7-1.2 1.2-1.2v-.3c0-.3-.2-.5-.6-.6.4-.5.6-.9.6-1.2h.6c0 .5.7 1 2.1 1.6v-.3l-.9-1.2c-.2 0-.2.1-.2.3-.3 0-.8-.6-1.6-1.8l.6-.9-.6-.9v-.3h.6l1.9.9c0-.4.2-.6.6-.6l-.3-2.1v-.7h.3l.6.3c0-.2.1-.5.3-.9-.4 0-.6-.2-.6-.6-.8 0-1.2.5-1.2 1.5l-.9-.6h-.3v1.2c.6 0 .9.2.9.7l-.2.6c-.8 0-1.7-.7-2.5-2.1v-.6h.3l.6.3c0-.4.3-.7.9-.7v-.2h-.6v-1l-.7-2.4c0-.2.1-.5.3-.9l-.3-.6c.2-.4.3-.8.3-1.2h.6l.3 1.5.7-.2h.6v.6c-.8 0-1.2.2-1.2.6v.3c.7 0 1.2.1 1.6.3.3-.2.8-.3 1.5-.3v-.6l-.6-.9v-1h.6v-.6c-.2 0-.5-.1-.9-.3v.7h-.3l-.6-.3c0 .4-.2.6-.6.6v-1.8l-.7.3h-.3c0-.3-.3-.8-.9-1.5.5 0 1.2.2 1.9.6v-.3l.6.3c0 .2-.1.3-.3.3 0 .4.2.6.7.6 0-.4.1-.9.2-1.2-.4-.5-.6-.9-.6-1.2h-.6V48h-.3c-1-.5-1.5-1-1.6-1.2v-.3h.7c.3 0 .5.2.6.7l.9-.7c.3 0 .8.6 1.6 1.9v.6l-.7.9v.3l.7-.3.6.3v-1.2l-.3-.6c.2 0 .3-.1.3-.3l.6.3v-1.2c-.6 0-.9-.1-.9-.3 0-.3-.5-.7-1.5-1.2V45c.6.3.9.6.9.9.2 0 .3-.1.3-.3.4 0 1 .2 1.8.7 0-1.4.1-2.3.2-2.5h-.6c0 .7-.1 1.2-.3 1.6-1-.4-1.7-1-1.8-1.6v-.3c1.4 0 2.1-.7 2.1-2.1l-1.2-.9v1.2l.3.7-.6.2c-1.9-.8-2.8-2.1-2.8-4h.7c0 1.4.4 2.4 1.2 2.8l.6-.3-.3-.6v-.3l1.6-.3c0-.1-.2-1.2-.7-3.3 0-.4.2-.6.7-.7.5 0 .9 1 1.2 3.1l.7-.3-.3-.6v-.6h.7c0 .7.1 1.2.2 1.5l.7-.3c0-.3-.2-.5-.7-.6 0-.2.1-.5.3-.9-.3-.6-.6-.9-.9-.9l-.7.3c0-1.1-.1-2-.2-2.8.2 0 .2-.1.2-.2-.6-.3-.9-.6-.9-.9-.3 0-.6.4-.9 1.2.2 0 .4.3.7.9-.4.6-.7 1.1-.7 1.6l-1.2-.9c0 .2.1.5.2.9v.3c-.4 0-1.2.6-2.1 1.8h-.9c-.4 0-.6-.2-.6-.7h.9v-.9l-.9-1.5.3-.7c.4 0 .7.7.9 2.1h.2c0-.3.4-.7 1.2-1.2v-.3h-1.2c-.6-1.2-1.1-1.8-1.5-1.8v.2c-.8-.5-1.2-.9-1.2-1.2v-.7c.3 0 .5.2.7.7 2.2.8 3.3 1.6 3.3 2.4.4-.2.7-.3.9-.3l-.9-2.1c.3 0 .5-.2.7-.7l.9.7-.3-1.2c-.2 0-.3.1-.3.3-.4 0-.6-.3-.6-.9h-.9v.6h.6v.6h-.6c-.4 0-.7-.2-.7-.6v-.3l.3-.6c-.2 0-.3-.1-.3-.3.4-.8.8-1.2 1.2-1.2 0-.3-.2-.5-.6-.6v.6c-.5 0-1.6-.8-3.4-2.4h-.6c0 .2.4 1.1 1.2 2.7l-.3.6c.3.7.6 1 .9 1 0-.7.2-1 .6-1h.3v1h-.6l.6.9c0 .4-.2.6-.6.6H138c0-.2.1-.5.2-.9-.9-.5-1.4-1-1.5-1.6l-.7.3c-.4 0-.6-.2-.6-.6v-.3l.6.3c.4 0 .6-.2.7-.7 0-.3-.2-.5-.7-.6h-.2l-.7.3-.9-1.6h.3l.6.3c-.4-1.3-.6-2.1-.6-2.5h-.3c0 .5-.1.9-.2 1.2l-.7-.3c0 .7-.2 1-.6 1h-.3c0-.8-.2-1.2-.6-1.2v-.7c.6 0 .9-.2.9-.6l.6.3v-.3c-.6-.6-.9-1.3-.9-2.1H131.9zM101.8 79v.3c.2.3.2.7.2 1.2h.3V80c-.2-.4-.3-.7-.3-.9H101.8zM103 43.2c0 .2-.1.5-.2.9v.3h.2c0-.2.1-.5.3-1v-.2H103zM103.6 63.5v2.1h.2v-1.2h.3l.6.3c0 .4.7.9 2.1 1.5l-.2-1.2c-1-.4-1.6-.9-1.6-1.5H103.6zM104.2 41.6v.3h.6V41C104.4 41 104.2 41.2 104.2 41.6zM107.8 75.4c0 .4-.2.6-.6.6h-.6v-.6H106c0 .4-.2 1-.6 1.8-.4 0-.7-.2-.7-.6l.3-.7c-.2 0-.3-.1-.3-.2v-.3c.6 0 .9-.4.9-1.2h.3C106 74.9 106.6 75.3 107.8 75.4zM105.7 56.2h-.2c0 .2-.1.6-.3 1v.6c.5-.4 1-.6 1.6-.6C106.4 56.5 106 56.2 105.7 56.2zM105.4 108.9h-.3v.6h.9C106 109.2 105.8 109 105.4 108.9zM105.7 7.8h-.2V7.5c0-.3.2-.5.6-.6h.7C106.4 7.5 106 7.8 105.7 7.8zM105.4 84.2v.3h1.2v-.3H105.4zM105.7 52.9v.3c0 .4.2.6.7.6h.6v-.9H105.7zM106.9 77.8h-1.2L106 76C106.5 76 106.8 76.6 106.9 77.8zM109.7 5.7v.6c-.3 0-1.2.2-2.7.7 0-.1.5-.6 1.6-1.6C109.2 5.6 109.6 5.7 109.7 5.7zM108.5 8.4h-.3l-.6-.3c0-.3.2-.5.6-.6h.3V8.4zM107.8 108.6h-.2c0 .4 1.7 1.5 5.1 3.4.4 0 .6-.2.7-.7v-.9c-.2 0-.5.1-.9.3-1.4-.5-2.1-.9-2.1-1.2h-.9L107.8 108.6zM110 79.7l-.3.6c-1.2 0-1.8-.7-1.8-2.1v-.3C108.6 79 109.3 79.6 110 79.7zM108.2 45v1.2l.6-.3v-1.2L108.2 45zM109.4 86.4h-.9v.2c.7 0 1.2.1 1.5.3h.3v-.3C110.1 86.6 109.8 86.6 109.4 86.4zM109.7 82.8h-.9v-1.6h.7L109.7 82.8zM109.1 43.7v.3c.5-.8 1-1.2 1.2-1.2v-1.2C110 41.6 109.6 42.3 109.1 43.7zM110.9 5.1c0 .4-.2.6-.6.6H110V5.4c0-.3.2-.5.7-.6h.2V5.1zM110.6 40.1l-.7.3c.3.8.6 1.2.9 1.2h.3l-.3-1.5H110.6zM111.2 57.4v.3c-.2 0-.5.1-.9.3 0-.2-.1-.3-.3-.3l.7-.9C111 56.8 111.2 57 111.2 57.4zM110.9 60.8h-.2c-.4 0-.7-.2-.7-.7v-.6h.7C110.6 60 110.7 60.4 110.9 60.8zM111.6 6.3c-.3.6-.6.9-.9.9h-.3c.5-.8.9-1.2 1.2-1.2V6.3zM110.9 36.7v.9h.3c.3 0 .5-.2.6-.6v-.3H110.9zM112.1 44.1c0 .4-.2.6-.6.6-.4 0-.7-.2-.7-.6.2 0 .5-.1.9-.3C111.8 43.9 111.9 44.1 112.1 44.1zM111.8 55.6h-.6v-.3c0-.3.2-.5.6-.6V55.6zM112.1 83.3l-.3.6-.6-.2.3-.7L112.1 83.3zM111.6 38.5v1.6h.2c0-.2.1-.5.3-.9-.2 0-.3-.2-.3-.7H111.6zM112.7 49.8l.3.6c-.4.5-.6.9-.6 1.2h-.9v-.3c0-.3.2-.5.6-.6l-.3-1.5v-.3h1.2C113 49.1 112.9 49.5 112.7 49.8zM113.4 6c0 .4-.2.6-.7.6V5.4h.7V6zM114.5 33.4c0 .6-.6 1.2-1.8 1.8v1.2h.3c0-.7.6-1.4 1.8-2.1v-.9H114.5zM113.9 46.5h-.3l-.6-.2c.2-.4.3-.7.3-.9h.6V46.5zM114.3 95.2h-.9v.2c.2 0 .5.1.9.3h.6C114.9 95.5 114.7 95.3 114.3 95.2zM115.8 3.2l-1.5 1.2c-.4 0-.7-.2-.7-.6.3 0 .9-.3 1.9-.9C115.5 3.1 115.6 3.2 115.8 3.2zM113.6 110.7l.7 1.2c.5 0 1.3-.1 2.4-.3l1.6.9v-.3c0-.2-.6-.6-1.8-1.2l-.9.6h-.7v-.9H113.6zM115.5 42.5c-.8-.3-1.2-.6-1.2-.9h1.2V42.5zM115.5 48v.3l-.7.9-.6-.3c0-.4.2-.9.6-1.6C115.2 47.4 115.4 47.6 115.5 48zM115.8 4.8h-.6c0-.3.2-.5.6-.7h.7C116.4 4.6 116.2 4.8 115.8 4.8zM115.2 101.6v.7h1.2v-.7H115.2zM115.8 36.5l-.2 1.5h.2l.7-.3c-.2-.7-.3-1.1-.3-1.2H115.8zM116.4 97.9c0 .6-.3.9-.9.9v.3h1.8C117 98.3 116.7 97.9 116.4 97.9zM116.7 96.1c-.3 0-.6.4-.9 1.2.2 0 .5.1.9.2 0-.2-.1-.5-.2-.9 0-.2.2-.2.6-.2v-.3H116.7zM117.3 2.6L117 3.2 116.4 3l.2-.7L117.3 2.6zM116.4 27.9v.3h1.2v-.6L116.4 27.9zM118.2 36.5c0 .4-.2.6-.7.6h-.2v-.3c0-.3.2-.5.6-.6h.3V36.5zM120.4 2.1H120c-1 1.4-1.8 2.1-2.1 2.1h-.3l.3-.6c.4 0 1-.7 1.8-2.1h.7V2.1zM118.2 33.1l.2 1.5h.3v-.2l-.3-.7.3-.6v-.3L118.2 33.1zM118.2 95.8v.9h.9c-.2-.4-.3-.7-.3-.9H118.2zM119.7 41c0 .4-.2.6-.6.6h-.3v-.2l.3-.7L119.7 41zM120 113.4l-.6-.2-.3.6h2.1l-.3-.6C120.7 113.2 120.4 113.3 120 113.4zM121 29.7v.7c-.2 0-.5.1-.9.3h-.3V30l.3-.6C120.4 29.6 120.7 29.7 121 29.7zM121.5 28.5H121v-.7c.3-.6.6-.9.9-.9h.3C121.8 27.6 121.5 28.2 121.5 28.5zM123.1 26.1h-.3l-.6-.3c0 .2-.1.3-.3.3h-.3c.4-.7.7-1.2.7-1.5h.6L123.1 26.1zM122.4 20.9v.3c.2 0 .5.1 1 .3v-.7H122.4zM124.6 20.6c-.6 0-.9.2-.9.6l1.2-.3v-.2H124.6zM124.3 95.5c0 .8-.2 1.2-.7 1.2v.7c0 .4.2.6.7.6 0-.8.4-1.2 1.2-1.2C125 95.9 124.6 95.5 124.3 95.5zM124.9 99.8c-.4.2-.7.3-.9.3v.3h.3c.4-.2.7-.3.9-.3v-.3H124.9zM124.9 93.1h-.3l.3-.6-.3-.7.7-.2h.6C125.7 92.6 125.4 93.1 124.9 93.1zM125.5 99.4v.7h.9v-.3C126.2 99.8 125.9 99.6 125.5 99.4zM127.3 94.6c0 .6-.2 1.1-.6 1.6v.6c.6-.3.9-.6.9-.9.4 0 .7.3.7.9h.2v-.9H128c0-.2.1-.3.3-.3C128 94.9 127.6 94.6 127.3 94.6zM128 78.8l-.3.6-.6-.3c0-.3.2-.5.6-.6h.3V78.8zM128.9 6.9c0 .2-.4.2-1.2.2l.3.7c.2 0 .5-.1.9-.3l.6.3.3-.7C129.6 7.2 129.3 7.1 128.9 6.9zM128 85.5v.2l.3.7L128 87v.3l.6-.3-.2-1.5H128zM129.2 90.9v1.6c-.8.9-1.2 1.5-1.2 1.8v.2l.6-.2.7.2c.2-.7.5-1.6 1.2-2.7v-1.2L129.2 90.9zM129.5 83.3c0 .4-.2.6-.6.6h-.3v-.2c0-.4.2-.6.7-.7h.2V83.3zM129.2 119.6h-.7V119h.3c1-1.4 1.8-2.1 2.1-2.1h.2C130.6 117.5 129.9 118.4 129.2 119.6zM131 82.1l-.7.3.3 1.2h.3l.2-1.6H131zM130.7 8.4v.3c0 .3.6.7 1.8 1.2l.9-.7h.7v.9h.6c0-.2.1-.5.3-.9-.2 0-.3-.1-.3-.2-.5 0-1.3.1-2.4.2L130.7 8.4zM132.5 71.1c0 .4-.2.9-.6 1.6-.4 0-.7-.2-.7-.7v-.2l.7-.9L132.5 71.1zM132.5 78.5h-1.2v-.9C132.1 77.8 132.5 78.1 132.5 78.5zM132.5 118.1l-.2.6-.7-.3.3-.6L132.5 118.1zM134.1 83c0 .8-.7 1.7-2.1 2.7v.9h.3c0-.5.6-1.2 1.8-1.8v-.9l.2-.6V83H134.1zM133.2 116.8h-.7c0-.3.2-.5.7-.7h.6C133.7 116.6 133.6 116.8 133.2 116.8zM133.7 73.8c-.2.4-.3.8-.3 1h-.6v-1.2h.3L133.7 73.8zM135.2 117.1c-.3 0-.9.3-1.8 1 0-.2-.1-.3-.2-.3l1.5-1.2C135 116.5 135.2 116.7 135.2 117.1zM133.7 31.8h-.3v-.6c.2 0 .5-.1.9-.3h.3C134.3 31.5 134 31.8 133.7 31.8zM134.7 19.1h-.9V20c.3-.2.8-.2 1.5-.2C135.2 19.3 135 19.1 134.7 19.1zM133.7 23.3v.9h.6c-.2-.4-.2-.7-.2-.9H133.7zM135.2 68.7c0 .4-.2.6-.6.6l.3 1.6v.2h-1.2c0-.2.1-.5.3-.9l-.3-.6c.4-.5.6-.9.6-1.2h.9V68.7zM134.3 22.4V23l2.1.7c.3 0 .5-.2.7-.7-.2 0-.5-.1-1-.2L135 23v-.6H134.3zM136.1 24.8c0-.6-.5-.9-1.5-.9v.3c0 .4.8.9 2.5 1.2 0-.2.1-.5.2-.9v-.7L136.1 24.8zM135.6 33.7c-.4-.2-.7-.2-.9-.2v-.3h.9V33.7zM135.6 36.5l-.3.6-.6-.3.3-.6L135.6 36.5zM135.9 76c-.2 0-.5.1-.9.3 0-.2-.1-.3-.3-.3 0-.3.2-.5.6-.6C135.6 75.4 135.8 75.6 135.9 76zM135 80c0 .2-.1.5-.3.9.2 0 .3.2.3.7h.2V80H135zM135.6 64.8c0 .4-.2.6-.6.6v-.9h.6V64.8zM135.6 82.4c-.4 0-.6.2-.6.6v.3h.9v-.9H135.6zM135.2 9.3c.2.4.3.7.3.9h.9c.7.6 1.4 1 2.1 1.2h.9l.6.3c0-.2-.3-.5-.9-.9-1.8-1-2.7-1.6-2.7-1.8L135.2 9.3zM136.8 62.3l-.7.9c-.4 0-.6-.2-.6-.6v-.3c.2 0 .5-.1.9-.2C136.5 62.2 136.6 62.3 136.8 62.3zM135.9 78.5h-.3l.3 1.5h.2l.7-.2C136.5 78.9 136.2 78.5 135.9 78.5zM136.1 115.6h-.6V115c0-.4.2-.6.6-.7V115.6zM135.9 25.7v.3c0 .4.2.7.6.7v-1H135.9zM136.8 59.9v.6h-.7c0-.4-.1-.9-.2-1.2h.2C136.5 59.2 136.7 59.5 136.8 59.9zM137.4 34.6v.7h-.2c-.4 0-.7-.2-.7-.7v-.2C136.9 34.5 137.2 34.6 137.4 34.6zM136.5 77.2v1.2c.3 0 .7-.7 1.2-2.1V76C137.2 76.8 136.7 77.2 136.5 77.2zM138.9 41.9v.3c-.8-1.2-1.5-1.8-2.1-1.8l.3-.7C138.3 39.8 138.9 40.5 138.9 41.9zM138 38.9h-.7l-.2-1.5h.9V38.9zM137.4 115v-.3c.3-.6.6-.9.9-.9h.3C138.1 114.6 137.7 115 137.4 115zM138 21.5V23l.6-.2-.3-1.2H138zM138 25.5v.9h.6c-.2-.4-.3-.7-.3-.9H138zM138 74.2v1.2l.6-.3v-1.2L138 74.2zM138.9 115.6c0 .4-.2.6-.7.6H138v-.2c0-.4.2-.6.6-.7h.3V115.6zM142 43.4l-.3.7c.2 0 .3.1.3.3v.2c-.6 0-.9.4-.9 1.2h-.3c0-.7-.6-1.1-1.8-1.2 0-.3.2-.5.6-.6h.6v.6h.7c0-.4.2-1 .6-1.8C141.7 42.8 141.9 43 142 43.4zM143.5 113.4c-2 1.2-3.1 1.9-3.1 2.1l-1.2-.3v-.6c1.1 0 2.4-.5 4-1.5h.3V113.4zM139.5 25.5v1.2h.6c-.2-.4-.2-.8-.2-1.2H139.5zM140.8 44.1c-.6-.2-.9-.8-.9-1.8h1.2L140.8 44.1zM142 55.3c0-.4-.7-.9-2.1-1.5 0 .2.1.5.2.9l1.6 1.8h1.5v-2.1h-.2v1.2h-.3L142 55.3zM140.4 66.3h-.6v.9h1.2v-.2C141.1 66.5 140.9 66.3 140.4 66.3zM140.1 63c.3.6.7.9 1 .9h.2c0-.2.1-.5.3-.9v-.7C141.2 62.7 140.6 63 140.1 63zM141.3 112.9c0 .4-.2.6-.6.6h-.3v-.9h.3L141.3 112.9zM142.6 38.3v1.5H142c0-.6-.3-.9-.9-.9V38c.2 0 .5-.1.9-.3C142.3 37.6 142.5 37.8 142.6 38.3zM142 11.8c.4.5.6.9.6 1.2h.3v-.2c-.2-.4-.3-.7-.3-.9H142zM142 78.1V79c.3 0 .5-.2.6-.6v-.3H142zM143.2 30.4c0 .2.1.3.3.3 0 .2-.1.5-.3.9v.2h.3v-.2h1.2C144.6 31.2 144.1 30.7 143.2 30.4zM143.5 12.7v.6c.2 0 .5.1.9.3C144.1 13 143.8 12.7 143.5 12.7zM143.8 75.7c0 .2-.1.5-.3.9v.2h.3c0-.2.1-.5.2-.9v-.2H143.8zM144.4 39.5v.6c.2.4.3.7.3.9h.2v-.3c-.2-.3-.2-.7-.2-1.2H144.4zM146.5 11.5v.3h-.3l-.9-.7.3-.6C146.2 10.9 146.5 11.2 146.5 11.5zM145.3 39.8v.3c0 .4.2.6.7.6v-.2C146 40 145.7 39.8 145.3 39.8zM146 58.1c0 .3-.2.7-.7 1.2v.7c.4 0 .7-.5.9-1.6v-.2H146zM145.3 60.5l.3 1.6h.3v-1.6H145.3zM145.6 33.1v.3c0 .6.2.9.6.9l-.2-1.2H145.6zM145.6 44.6v1.2h.6l-.2-1.2H145.6zM145.6 47.7v1.6h.3v-1.6H145.6zM146 13.9v.2c.3 0 .7.2 1.2.7l-.2-1.2C146.4 13.8 146.1 13.9 146 13.9zM146.2 39.2v1.2h.3v-1.2H146.2zM147.1 40.4v1.8l-.2.6c.4 0 .6.8.6 2.5.3 0 .5-.2.6-.7v-.6l-.2-1.8c.2-.4.2-.7.2-.9-.2-.4-.2-.7-.2-.9H147.1zM148.4 46.2l-.6-.3c0 .4.1.9.2 1.2l-.2.6c.2.8.2 1.6.2 2.5h.3v-1.6l-.3-1.2c.3-.4.6-.6.9-.6v-.9L148.4 46.2zM148 60.1v1l.7-.3C148.7 60.5 148.5 60.3 148 60.1zM148.9 96.1c-.4 0-.6.2-.6.6V97c.6-.3.9-.6.9-.9H148.9zM151.1 24.8h-.2l.6 1.2.6-.3C151.7 25.1 151.4 24.8 151.1 24.8zM151.1 21.5v.3c.3.6.6.9.9.9v-.3C151.7 21.8 151.4 21.5 151.1 21.5zM151.7 34.3v.2h.9v-.2l-.3-.7C151.9 33.7 151.7 33.9 151.7 34.3zM153.9 23.9v.3c0 .6.2.9.6.9l-.3-1.2H153.9zM154.5 25.5v.6c.7 2 1.4 3.5 2.1 4.3h.2V30l-1.8-4.5H154.5zM154.8 41c0 .2-.1.5-.3.9v.3l.6-.3V41H154.8zM155.7 30v.3c0 .5.3 1.3.9 2.4-.2 1.1-.3 1.7-.3 1.8.6 0 1 .4 1.2 1.2v.3h-.7v-.6h-.2v.2c.2.3.2.9.2 1.6.2 0 .3-.1.3-.3.5 0 .8.6.9 1.8h-.6v1.2l.6-.3.7.3c0-.2.2-.3.6-.3v-1.2l-1.8-4.5c-.2-1-.7-2.4-1.6-4H155.7zM155.9 46.8h-.2c.2.4.2.7.2.9l.7-.3C156.6 47 156.4 46.8 155.9 46.8zM155.9 50.2v1.2h.7v-1.2H155.9zM158.1 27.3v.3c-.2 0-.7-.6-1.5-1.9v-.2l.2-.7C157.2 24.8 157.6 25.7 158.1 27.3zM158.4 29.5v.2h-.7c0-.2-.1-.5-.2-.9v-.6C157.8 28.2 158.1 28.6 158.4 29.5zM158.1 40.4v2.1l.7-.2h.2v.9c0 .6-.2 1.2-.6 1.8l.3.6.6-.2-.3-.7c0-.3.2-.5.7-.6-.2-1-.3-2.1-.3-3.1-.2 0-.3.1-.3.3-.4 0-.6-.3-.6-.9H158.1zM159.7 30c0 .4-.2.7-.7.7 0-.2-.2-.9-.6-2.1h.6C159 28.9 159.2 29.4 159.7 30zM159.7 26.7c-.4 0-.7-.2-.7-.7v-.6h.7V26.7zM159 45.9c0 .2.1 1 .3 2.5l.6-.3c0-.8-.1-1.5-.2-2.1H159zM160.8 28.8v.3h-.2c-.4 0-.7-.2-.7-.6v-.3h.3C160.6 28.2 160.8 28.4 160.8 28.8zM160.2 83.7V83l2.7-2.7h.3C162.7 81.7 161.7 82.8 160.2 83.7zM161.5 86.1l-.7.9c-.4 0-.6-.2-.6-.6v-.3c0-.3.2-.5.6-.6h.7V86.1zM161.1 71.8c0 .6-.2.9-.6.9l.2.6c.4 0 .6-.2.7-.6v-.9H161.1zM161.1 49.3c0 .7-.1 1.2-.3 1.5h.3l-.3 1.6c.2.4.3.7.3.9h.3c0-.2.1-.5.2-.9 0-.3-.1-1.3-.2-3.1H161.1zM160.8 58.7v1.2h.3v-1.2H160.8zM163.6 85.7c-.7 1.4-1.2 2.1-1.6 2.1h-.3v-.2l.7-1v-.6l-.3-.6.9-.7-.2-.6c0-.3.2-.5.6-.6L163.6 85.7zM162 62.3v.3c0 .4.2.6.7.6v-.9H162zM163.3 36.5v.2H163l-.6-.2.3-.7C163 35.8 163.2 36 163.3 36.5zM164.2 77.2c-.5.8-.9 1.2-1.2 1.2h-.6v-.3c.8-.4 1.2-1 1.2-1.8h.2C163.9 76.5 164 76.8 164.2 77.2zM163.9 38l-.2.6-.7-.2.3-.7L163.9 38zM163.9 82.8h-.6v-.3c0-.3.4-.6 1.2-.9h.2C164.5 82.3 164.2 82.8 163.9 82.8zM164.5 47.4v1h-.7c0-.2-.1-.5-.2-1v-.2C164 47.3 164.3 47.4 164.5 47.4zM165.4 72.7v.6c0 .4-.2.6-.7.6h-.2v-1.2l.2-.7C165.2 72 165.4 72.3 165.4 72.7zM165.1 79h-.6l.2-1.2h.7L165.1 79zM166.9 67.8c-.9 1.6-1.5 2.4-1.8 2.4h-.3V70c.6-.5.9-1.4.9-2.5.8 0 1.6-.6 2.5-1.8h.3C168.5 67.1 168 67.8 166.9 67.8zM166.3 74.2c0 1-.3 1.6-.9 1.8h-.3v-.2c.4-.5.6-1.2.6-2.1h.7V74.2zM167.2 71.1c-.2.4-.3.7-.3.9h-.6v-.6l.2-.6L167.2 71.1zM168.7 64.1h-.6V63h.6V64.1zM169.1 53.2h-.6v-.9h.6V53.2zM177.6 52.8h-.6v-.2c0-.2.1-.3.3-.3l-.3-.7v-.2h.6V52.8zM177.6 57.2c-.4-.1-.6-.3-.6-.7v-.2c0-.2.1-.3.3-.3l-.3-.7c0-.4.2-.6.6-.6l-.2-.7v-.2c0-.3.3-.7.9-1l.6.3c0-.4.2-.6.7-.6h.3c0 .2-.1.2-.3.2l.3.7c-.2.7-1 1.2-2.2 1.6l1 1.5L177.6 57.2zM177.4 59c0-.2-.1-.2-.3-.2.3-.8.6-1.2.9-1.2l.3.6C178.3 58.4 178 58.7 177.4 59zM178.9 64.9h-.2c-.8-.3-1.2-.6-1.2-.9v-.3c.7-1.7 1.2-2.5 1.5-2.5.4 0 .7.2.7.7-.3.8-.7 1.2-1.2 1.2l.3.6-.3.7h.6V64.9zM178.3 66.4v-.3l-.7.3h-.2v-.6l1.5-.3v.3C178.8 66.2 178.6 66.4 178.3 66.4zM178.9 68.3h-.6v-1h.6V68.3zM179.2 58.4l-.3-.7v-2.1h.7c.4 0 .6.2.6.7h-.9v.9l.7.9L179.2 58.4zM178.9 77.9v-1c0-.4.2-.6.7-.6v.3l-.3.6c.2 0 .3.1.3.3L178.9 77.9zM191.9 119.6h-.3c-.2 0-.9-1-1.9-3.1v-.7c0-.2.1-.3.3-.3-.4-1-.6-2.9-.6-5.5v-7.8h-.7l.7-.9V101c0-.2-.1-.2-.3-.2l.3-.7v-.3l-.9-1.2c.4-.2.7-.2.9-.2v-.7l-.7-.9h.7v-.3c-.8 0-1.2-.7-1.2-2.1-.2 0-.3-.2-.3-.6.2 0 .3-.1.3-.3l.6.3h.3c0-.4-.3-.7-.9-.7v-1.8l-.7-1c.2 0 .3-.1.3-.2l-1.6-1c0 .2-.1.3-.2.3V88l-.7-.3c0 .3-.2.7-.6 1.2.2 0 .2.1.2.3l-.6.3-.3-.7v-.2l.3-.7c-.2 0-.3-.1-.3-.3l1.9-1.2c-.2-.3-.3-.7-.3-1.2h-.7v.7h-.2c-.6-.4-1.1-.7-1.6-.7V85c1 0 1.6-.2 1.6-.7-.4-.1-.7-.2-.7-.6v-.7c.4 0 .7-.2.7-.6h.2V84h.3c0-.6.1-.9.3-.9-.2-.4-.3-.7-.3-.9 0-1 .3-1.6.9-1.6 0-.3-.5-.7-1.5-1.2h-.7c.6.7.9 1.2.9 1.6-.4.7-.6 1.2-.6 1.6h-1.6v-.9l.7.2h.6v-1.2c-.8-.1-1.2-.4-1.2-.9.7 0 1.1-.7 1.2-2.1l-.6-.3.2-1.6-.2-1.5h.2l-.2-.7c0-.4.2-.6.6-.6l-.3-.7v-.3l.3-.6c-.6 0-.9-.2-.9-.6.4-.1.6-.3.6-.7v-.3l-.2-1.8c.2-.8.6-1.2 1.2-1.2v-.3h-1c-.8.7-1.3 1.5-1.5 2.5h.2c.4-.2.8-.3 1-.3v.3c-.6 1-1 1.6-1.2 1.6l.6 3.7c-.5 0-1 .3-1.6.9v-.7l.7-.9c-.4-.1-.7-.2-.7-.6.4-.1.7-.3.7-.7 0-.4-.2-1.1-.7-2.1.2-.6.4-.9.7-.9-.2-2.3-.5-3.4-.9-3.4 0 .2-.1.2-.3.2v-.6h1.2v-.7c-.7 0-1.2-.1-1.6-.2l.3-1.6v-.3h-.7c.5-1.2 1-1.8 1.6-1.8v-.7c-.2 0-.5-.1-.9-.3 0 .2-.1.3-.3.3 0-.2-.1-.3-.3-.3.5-1.6.8-2.4 1-2.4l-.3-.7c0-.2.1-.3.3-.3l-.3-.6.6-1.2c-.3 0-.6-.4-.9-1.2h.7v-.7h-.7v-.6h.7v-.7h-.7v-.2h.7c0-.2-.1-.3-.3-.3l.3-1.2-.3-1.9h.3l-.3-.6v-.6c0-.4.2-.7.6-.7l.7.3v-1.2l-.3-.7h.7V43h-.7c0 .6-.2.9-.6.9v-.7c0-.2.1-.2.2-.2l-.2-.7c0-2.4.2-4.1.6-5-.2-.3-.3-.7-.3-1.2l.7-.3-.3-.6c0-.1.1-1.5.3-4l-.3-1.5.7-.3-.3-.7c0-.2.1-.5.3-.9l-.3-1.6c.2-.3.3-.7.3-1.2h-.7v-.9h.7v-2.5c0-.2.1-.2.2-.2 0-.2-.1-.3-.2-.3.4-2.7.7-4 .9-4l-.3-.6c1-5.2 1.9-7.8 2.8-7.8l-.7-.9c.2-1.4.5-2.1 1-2.1v1.8l-.3.7.6.2c-.2 2.1-.4 3.4-.6 3.7v.3h.3l2.5-10.8-.3-.7V.7h.6c.4 0 .7.3.7.9 0 .2-.1.8-.3 1.8l.3.7c-.4 1-.7 1.9-.7 2.5v.6h.3c.7-4.5 1.2-6.8 1.6-6.8h.6c.4 0 .7.2.7.6-.4 2.1-.7 3.4-.7 4v.3h.3c.2-1.4.5-2.1.9-2.1l.7.2c0-.2.1-.2.2-.2l.3.6c0 .5-.1.9-.3 1.2.2.3.3 1 .3 2.1h.3c.4-2.6.8-4 1.2-4h.3c-.3 1.9-.5 3.2-.7 3.7h.7c0-.5.1-1.4.2-2.5h.3l.7.2.2-2.1h.7c0 1-.2 1.6-.7 1.6 0 .2.1.3.3.3l-.6 5v.9h.2c0-2.1.4-3.1 1.2-3.1 0-.2-.1-.2-.2-.2.4-.9.6-1.5.6-1.9h.9l-.2 3.1c.3 0 .8.3 1.5.9h.3c0-1.9.6-2.8 1.8-2.8l.3.7v3.7h.7c0-.7-.1-1-.3-1l.3-1.5V6.8h.6c0 1.2.5 1.8 1.6 1.8 0-1.2.2-1.8.6-1.8 0 1.4.4 2.1 1.2 2.1-.1.4-.2.6-.6.6 0-.2-.1-.2-.3-.2 0 .4.2 1.1.7 2.1l-.7 1.2h1.2c0-.4-.2-1-.6-1.9l.9-.6.6 2.7c0 .2-.1.3-.2.3l.2 1.6V17h.7v.7c-.2 0-.3-.1-.3-.3l-.6.3h-.3c-.2-1-.3-2.4-.3-4-.4 0-.6.3-.6.9 0 .2.1 1 .2 2.5-.2 0-.2.1-.2.3.4 0 .6.2.6.6l-.3.7h.3l.7-.3c.3.5.6 1.8.9 3.7-.3.2-.9.3-1.6.3l.3 1.5V26c0 .2-.1.2-.3.2l.7 1.2c-.4 1.1-.7 1.9-.7 2.5.4 0 .7.2.7.7-.4 0-.7.2-.7.6.4 0 .7.2.7.7v.6c-.6-.6-1.1-.9-1.6-.9l.6-3.7c-.3 0-.7-.5-1.2-1.6V26h.3c.4.2.7.2.9.2l-.2-.6v-.3l.2-.6c-1.2-.7-1.9-1-2.1-1h-.3v.3c.7 0 1 .2 1 .7v2.7l.6 1c-.4.2-.7.2-.9.2l.3.7v.3l-.3.6c.4 0 .6.2.6.7 0 .2-.1.2-.2.2 0 .2.1.3.2.3l-.2 1.6.2 1.6-.6.2c.1 1.4.5 2.1 1.2 2.1 0 .6-.4.9-1.2 1v1.2h.6l.7-.3v.9h-1.6l-.6-2.1c.3 0 .6-.3.9-.9h-.7c-1 .6-1.5 1-1.5 1.2.6 0 .9.7.9 2.1h-.3c.2.3.3.9.3 1.8h.3v-2.1h.2c0 .4.2.7.7.7v.6l-.7.9c.4.2.9.3 1.6.3v.3c-.5 0-1 .2-1.6.6h-.2v-.6h-.7c0 .6-.1.9-.3.9 0 .4.6.9 1.9 1.6v.3h-.3l.3.6v.3c-.1.4-.3.6-.7.6h-.2v-.2c0-.2.1-.3.2-.3-.3-.8-.6-1.2-.9-1.2L204 46c.4 0 .6.2.6.7h-.3c.7 2.2 1 3.5 1 4-.4 0-.7.2-.7.7.9 0 1.9 2.7 2.8 8H207c.2.4.5 1.8.9 4.3h-.2c.2 1.7.5 2.7.9 3.1v.9h-.7c0 .2.1.8.3 1.9-.2.4-.3.7-.3.9.2.3.3.7.3 1.2-.2 0-.3.1-.3.2l.7.3c0 .2-.1.8-.3 1.9 0 .1.1 1.4.3 4-.2 0-.3.1-.3.3.4 0 .7.3.7.9 0 .2-.1.3-.3.3.4 1.7.6 3.4.6 5.3 0 .2-.1.2-.2.2l.2.7v.6h-.6v-.9h-.7v1.6h.7l-.3.6v1.2l.7-.2c.4 0 .6.2.6.6v.7c0 .2-.1.2-.3.2l.3.7c0 .2-.1.8-.3 1.8l.3.7c-.2.3-.3.7-.3 1.2l.3.6c-.2.4-.3.7-.3.9.2.4.3.8.3 1h-.6c0-.7-.2-1-.7-1v-.6h.7c0-.6-.1-.9-.3-.9l.3-1.6v-.6c0-.5-.1-.9-.3-1.2.2-.4.3-.8.3-1.2v-.3h-.3c0 1-.2 1.6-.7 1.6l.3 1.5v2.2H207v-.7h-.9v1.2l.3.6h-.3c-.4-.1-.7-.2-.7-.6v-1.2l.3-.6.7.2h.2l-.2-.6c0-.4.2-.7.6-.7l.7.3v-.9h-1v-2.5h.7v1.8h.3c0-1.7-.1-2.5-.3-2.5-.4-.1-.7-.2-.7-.6h.3c-.6-1.3-.9-2.3-.9-2.8h-.3v.7c-.3 0-.6-.3-.9-1l.3-.6c-.3 0-.7-.4-1-1.2.4-.1.7-.2.7-.6-.4-.1-.7-.3-.7-.7l.7-.3c-.4-.7-.7-1.3-.7-1.8 0-.4.2-.7.7-.7.4.2.7.3.9.3l.3-.6c-.5 0-1.3-.1-2.5-.3l.3 1.6v.2c0 .2-.1.3-.3.3l.3.7c0 .2-.1.2-.3.2.2 1.3.4 1.9.6 1.9l-.2.6v.9c0 .4.4.7 1.2.7-.1.4-.3.6-.7.6 0-.2-.1-.2-.3-.2l-.2.6.2.7H204c0 .6.3.9.9.9v.3l-.7.9v1.2h.7c0 .9-.2 1.7-.7 2.5h.7v.3c0 .2-.1.2-.3.2l.3.7c0 .2-.1.3-.3.3 0 .2.1.2.3.2 0 .4-.2 1.2-.7 2.1.4 0 .7.2.7.7l-.7.9c.4 0 .7.1.7.3 0 .2-.1.3-.3.3l.7 4h-.3l.3.7-.3.6c.2.4.3.8.3 1h-.3l.3.6v2.5c0 .2-.1.3-.3.3l.3.6c0 .2-.1.3-.3.3l.6 1.2-.2.6.2 1.9h-.2l.2.6v1h-.6c0-.9-.1-1.6-.3-1.9 0-.2.1-.3.3-.3-.5-6.8-1-10.1-1.6-10.1-.1 1.2-.4 1.8-.9 1.8v.7l.6.9c-.3 0-.6.4-.9 1.2h.7v.3c0 .2-.1.2-.3.2l.3.7v.3h-.3c-.4-.2-.7-.3-.9-.3v-.7h.6l-.3-.6-.6.3h-.3v-1.9h-1.2l.3.7-.6.3c.2.4.2.7.2.9l-.2 1.2.2.6-.2.7c0 .2.1.2.2.2l-.2 1.6.2 2.8H199c-.4 0-.7-1-.9-3.1l.2-.6v-1.6l-.2-1.6h.2l-.2-.6v-3.4h-.3c-.4 0-.7.2-.7.6.2 0 .3.1.3.3h-.3c.4 1.3.7 2.1.7 2.5l-.7.3.3.6v.7c0 .4-.4.6-1.2.6v.3c.8 0 1.2.3 1.2.9l-.6.3v-.7h-.3v.7c.4 0 .6.2.6.6h-1.5l.2.7v.3c-.5 0-.8.5-.9 1.5.2.4.3.8.3 1l-.7.2-.2-.6c.2 0 .2-.1.2-.3h-.2l-1 .7c0-.2-.1-.3-.2-.3v.3l.2 3.7h-.6c-.2-.8-.3-1.7-.3-2.5h-.3l-.2 1.5V119.6zM180.8 17.7h-.3v-.3c.3-.8.6-1.2.9-1.2l.3.6C181.7 17 181.4 17.3 180.8 17.7zM181.1 45.7l-.3-.6.6-.3h.3v.3C181.6 45.5 181.4 45.7 181.1 45.7zM181.7 64.3v-.9h-.6c.2.4.2.7.2.9H181.7zM182 50.1c0-.5.1-.9.3-1.2-.4-.9-.7-1.5-.7-1.9h-.3v.9l.3.7c-.2.4-.3.8-.3 1.2L182 50.1zM182.9 53.8v-1.6c-.6 0-.9-.3-.9-.9h-.3l-.3 1.5c.8 0 1.2.3 1.2 1H182.9zM183.3 79.1h-.3c-.4-.2-.7-.3-.9-.3 0 .2-.1.3-.3.3l-.3-.7c0-.4.4-.6 1.2-.6v-.3c-.6 0-.9-.2-.9-.7v-1.2h.9l-.6 1v.2c.8 0 1.2.2 1.2.7v.6h-.7v.3h.7V79.1zM182.3 81.3h-.7l.3-.7-.7-.2c.2-.4.3-.8.3-1h.7c0 .2.1.6.2 1C182.4 80.7 182.3 81.1 182.3 81.3zM182.3 7.8h-.7V6.8h.7V7.8zM182.3 83.4h-.7v-.3l.3-.6c-.2 0-.3-.1-.3-.3l.7-.3.2.7C182.4 82.9 182.3 83.2 182.3 83.4zM183.3 55.3c-.2-.4-.3-.7-.3-.9-.3 0-.6.3-.9.9H183.3zM183.3 66.4c0-.6.1-.9.3-.9l-.3-.7v-.2h.6l1 .6.2-.6c-.3 0-.7-.2-1.2-.7l-.6.3c-.1-.4-.3-.7-.7-.7 0 .4-.1.7-.2.7.2.4.2.7.2.9-.2.4-.2.7-.2.9l.6.3H183.3zM185.1 51.3v-1l.7.3v-2.5h.3v-1.2l-.7-.9v-.3c.6 0 .9-.3.9-.9h-.2l.2-.6c-.1-.4-.2-.7-.6-.7 0 .2-.1.3-.3.3l-.3-.7c.8 0 1.2-.2 1.2-.6v-.9c0-.2-.1-.3-.2-.3.2-1.3.4-1.9.6-1.9l-.3-.6c0-.2.1-.3.3-.3l-.3-.6v-.3l.3-1.6c-1.2.2-2 .3-2.5.3 0 .4.2.6.7.6.4-.2.7-.2.9-.2l.3.6c0 .5-.2 1.2-.7 1.9.4 0 .7.2.7.6-.4 0-.7.2-.7.7l.7.2c-.3.8-.7 1.2-1 1.2l.3.7c0 .3-.3.6-.9.9V43h-.3c0 .6-.3 1.5-.9 2.7.2 0 .3.1.3.3-.7.2-1 .4-1 .7v2.1h.3v-1.9h.7v2.1l1.5 1.2c-.6 0-.9.2-.9.7C184.4 51 184.7 51.1 185.1 51.3zM183.6 43.2V43c-.1-.4-.3-.7-.7-.7 0 .7-.1 1.2-.3 1.6h.3C183.4 43.8 183.6 43.6 183.6 43.2zM183.6 50.1c-.1-.4-.3-.7-.7-.7h-.3v.9C183 50.2 183.4 50.1 183.6 50.1zM183.8 63v-1.2c0-.3-.3-.6-.9-.9l-.3 1.5V63l.7-.3L183.8 63zM183.8 10.2h-.9V9.9c0-.4.2-.6.7-.6l.2.6V10.2zM183.6 40.2l.2-1.2-.6-.3c0 .4-.1.7-.3.7.2.4.3.7.3.9H183.6zM183.3 84.3h-.3V84c0-.4.2-.6.7-.6l.2.6L183.3 84.3zM183.6 95.1l-.3-.6.6-.3h.3v.3C184.1 94.9 183.9 95.1 183.6 95.1zM184.5 42.3v-1.2c-.3 0-.6.3-.9.9C183.8 42 184.1 42.1 184.5 42.3zM184.8 28.1v-.3c-.1-.4-.3-.6-.7-.6l-.3.6.7.3H184.8zM184.5 25.7c0-.3.2-.7.6-1.2l-.6-.3h-.3v1.6H184.5zM184.8 49.1c-.4 0-.7-.3-.7-.9l.3-1.5h.6v1.5C184.9 48.2 184.8 48.5 184.8 49.1zM185.1 63.9V63h-.9C184.2 63.3 184.5 63.6 185.1 63.9zM185.1 53.8l.3-.7h-.9C184.5 53.6 184.7 53.8 185.1 53.8zM185.1 68v-.3c-.4 0-.6.2-.6.7v.2C184.9 68.5 185.1 68.3 185.1 68zM185.1 77.6v-.7c-.2 0-.2-.1-.2-.2.4-.2.7-.3.9-.3V76h-.7c-.1.4-.2.7-.6.7.2.4.3.7.3.9H185.1zM185.1 75.7c0-.3.2-.7.7-1.2v-1.2c-.1-.4-.3-.6-.7-.6l-.2.6v2.5H185.1zM187.3 93.6l-.7-.3-.6.3c0-.4-.2-.7-.7-.7v-.6c.2 0 .5-.1.9-.3 0 .6.2.9.7.9v-.9h-.7v-.7c.4 0 .7-.3.7-.9h.6c0 .9.1 1.6.3 1.9L187.3 93.6zM185.7 90.5v-.9c.4 0 .6.2.6.6L185.7 90.5zM186.3 5.6h-.2V3.7h.6V4L186.3 5.6zM187 33.7v-.2h-.9v.9h.2C186.7 34.3 187 34 187 33.7zM186.6 35.6v-.9h-.6v.9H186.6zM187.3 85c-.3-.8-.7-1.2-1-1.2h-.2v.6c.4 0 .6.4.6 1.2C187.1 85.5 187.3 85.3 187.3 85zM187.9 96.4h-.6c0-.7-.4-1.3-1.2-1.8 0-.4.3-.7.9-.7.4.2.7.3.9.3v.7c0 .2-.1.2-.3.2l.3.7V96.4zM187 1.9h-.7v-1h.7V1.9zM187 83.4v-1.2h-.3v1.2H187zM188.2 88v-.3c-.8 0-1.2-.3-1.2-.9h-.3v.9l.3.7C187.3 88.1 187.7 88 188.2 88zM188.5 105.4h-.7c.2-.4.3-.7.3-.9h.6C188.6 104.8 188.5 105.1 188.5 105.4zM188.2 109.1l-.3-.7h.9C188.7 108.9 188.5 109.1 188.2 109.1zM191.6 5.9l-.7-.2-.2 1.8C191 7.4 191.3 6.9 191.6 5.9zM193.7 2.5h-.3c-.4-.1-.6-.2-.6-.6v-1c0-.3.3-.6.9-.9l.3.7L193.7 2.5zM198.1 103.8v-.6l-.3-2.8h-.3c0 .2-.1.8-.3 1.8C197.4 103.3 197.7 103.8 198.1 103.8zM200.2 110l-.3-.7h.3l-.3-.6c0-.4.2-.7.7-.7l.6 1C201.2 109.4 200.9 109.7 200.2 110zM200.6 104.5c0-.8.2-1.2.6-1.2v-.3h-.6l-.3.6v1H200.6zM200.8 114.9h-.6v-.3c0-.2.1-.3.3-.3l-.3-.6v-1.6c0-.2.1-.3.3-.3l-.3-.6v-.7c0-.4.2-.6.6-.6l.3.6v.3c0 .2-.1.3-.3.3 0 .2.1.3.3.3l-.3 1.5V114.9zM201.7 105.4c-.1-.4-.2-.7-.6-.7 0 .2-.1.3-.3.3 0-.2-.1-.3-.2-.3v1C200.9 105.5 201.3 105.4 201.7 105.4zM202.1 111.2l-.3-.7c0-.4.2-.6.7-.6h.3v.6C202.7 111 202.4 111.2 202.1 111.2zM203.3 45.7l.3-.6v-.7c-.5.4-1 .7-1.6.7v.3C202.6 45.5 203 45.5 203.3 45.7zM203 115.3h-.6l-.3-1.6V113h.7C202.7 113.7 202.8 114.4 203 115.3zM204.2 49.1v-.6c-.4-.5-.6-1.1-.6-1.8h-.3c-.3 0-.6.3-.9.9.5 0 1 .5 1.6 1.5H204.2zM204 99.8v-.2h-1.6v.6L204 99.8zM204.2 102.6V102h-.6l-.7.2c-.1-.4-.2-.6-.6-.6v1.2C202.7 102.7 203.3 102.6 204.2 102.6zM203.6 43c0-.8.2-1.2.6-1.2v-.7H204c-.5 0-.8.5-1 1.6L203.6 43zM204 40.8c-.2-.3-.3-.7-.3-1.2h-.3v1.2H204zM204 49.8l-.7-.3v.9C203.7 50.3 204 50.1 204 49.8zM204.2 76.9V76h-.9v.3c0 .4.2.6.7.6H204.2zM205.4 33.1v-2.8c-.1-.4-.2-.6-.6-.6h-.7l.3.6v1.9h-.9v.2c1 0 1.6.2 1.6.7H205.4zM204.2 78.1v-.9h-.6v.9H204.2zM204.5 55v-.3c-.2-.4-.3-.7-.3-.9H204V54c.2.4.2.8.2 1H204.5zM205.2 16.4c-.4 0-.7-.2-.7-.7h-.3v.7c.2 0 .3.1.3.2-.2 0-.3.1-.3.3h.3C205 16.9 205.2 16.7 205.2 16.4zM205.4 19.5l-.2-1.6h-.7v.3c.2.4.3.7.3.9-.2 0-.3.1-.3.3H205.4zM205.2 28.7c0-.2.1-.2.2-.2l-.2-1.6v-.3h.2l.7.3-.3-1.9h-.9l.3.7v.9h-.7c.2.4.3.7.3.9-.2.4-.3.8-.3 1L205.2 28.7zM205.4 34.9c0-.2.1-.5.3-.9l-.9-.6h-.3v.2c.2 0 .5.1.9.3l-.2.7v.2H205.4zM205.8 11.1v-.6h-.9c0 .4.2.6.6.6H205.8zM206.1 20.4c-.6 0-.9-.2-.9-.6h-.3v.3c.2.3.3.7.3 1.2C205.5 21.4 205.8 21 206.1 20.4zM205.4 91.7c0-.6-.2-.9-.6-.9l.3-1.6h.6l.3 2.1L205.4 91.7zM207.9 23.2c-.2-.4-.2-.8-.2-1.2h.2c-.2-.2-.4-1.9-.6-5H207c0 1-.3 1.6-.9 1.6.2.3.3 1 .3 2.1h.2v-.6h.7V21l-.3.6-.6-.2c-.5.4-.9.6-1.2.6 0 .4.2.7.6.7 0-.4.2-.7.7-.7h.6v.3c0 .2-.1.3-.3.3.2.3.3.7.3 1.2h.3C207.7 23.7 207.9 23.5 207.9 23.2zM206.1 68.3v-1.6h-.3c-.4 0-.6.2-.6.6.4 0 .6.3.6 1H206.1zM206.4 70.1l-.7-.3-.3.7v.3h.3C206.2 70.7 206.4 70.5 206.4 70.1zM206.1 97.6h-.7v-.9h.7V97.6zM205.8 99.8l-.3-.6v-.3h.3c.4 0 .7.2.7.7L205.8 99.8zM206.7 84.7c0-.3-.3-.6-.9-.9V85C206.2 84.8 206.5 84.7 206.7 84.7zM206.4 102.9h-.7v-1.2h.7V102.9zM206.7 17l-.6-.3v1C206.5 17.5 206.7 17.3 206.7 17zM207.3 52.8h-.7c-.4-.1-.6-.2-.6-.6v-.3l.3-.6c-.2 0-.3-.1-.3-.3h.6c0 .5.2 1 .7 1.6V52.8zM207.3 41.7H207c-.4-.1-.6-.3-.6-.7l.6-.3.3.7V41.7zM207 82.8c0-.4.1-.7.3-.7-.2-.4-.3-.7-.3-.9-.4 0-.6.2-.6.6.2.4.2.8.2 1H207zM207 98.3c-.4-.1-.6-.3-.6-.7 0-.4.2-.6.6-.6V98.3zM207.7 86.5c-.2-.3-.3-.8-.3-1.5-.4 0-.7.2-.7.6v.3c0 .4.2.6.7.6H207.7zM207 102.2l-.3-.6v-.3c0-.4.2-.6.7-.6h.3v.9C207.6 102 207.3 102.2 207 102.2zM208.6 36.5l-.7-.3c-.4.2-.7.3-.9.3v-.7h.7v-.2H207v-.7c0-.4.4-.6 1.2-.6V34l-.6-.9h.9v1.2c0 .4-.3.6-.9.6v.3c.8 0 1.2.2 1.2.6L208.6 36.5zM208.6 38.6h-.7c0-.2-.1-.5-.2-.9.2-.4.2-.7.2-.9h.7c0 .2.1.5.3.9-.4 0-.7.2-.7.6C208.5 38.3 208.6 38.4 208.6 38.6zM208.6 40.8h-.7l-.2-1.2.6-.2.3.6h-.3l.3.7V40.8zM207.9 97.6l-.2-.6c0-.4.2-.7.6-.7l.3.7C208.5 97.4 208.3 97.6 207.9 97.6zM209.8 102.6h-.3l-.6-.3.2-.6-.2-1.6h-.3v.9h-.3c-.4-.1-.6-.2-.6-.6.4 0 .6-.3.6-.9l.7.2v-1.5h.6v1.2c0 .2-.1.2-.3.2C209.6 100.7 209.8 101.7 209.8 102.6zM208.3 99.5c-.4-.1-.6-.3-.6-.7v-.6h.6V99.5zM208.6 50.3h-.7v-.9h.7V50.3zM208.9 55.6h-1V55h1V55.6zM208.9 57.5h-1c0-.4.2-.7.7-.7h.3V57.5zM208.9 21.6c0-.2.1-.5.2-.9-.4-.1-.6-.2-.6-.6.2 0 .3-.1.3-.3h-.7v.3l.3 1.5H208.9zM209.8 60.2h-.3c-.3 0-.6-.3-.9-.9 0-.4.2-.6.6-.6C209.6 59.4 209.8 59.9 209.8 60.2zM208.9 88.4l-.3-.7v-.2h.3c.4 0 .6.2.6.6L208.9 88.4zM210.7 15.8l-.3-.6c.4-.1.7-.3.7-.7v-.9h-.9c0-.4.2-.7.6-.7h.7v2.2C211.3 15.6 211.1 15.8 210.7 15.8zM212.6 14.5c-.3 0-.7-.3-1-.9.3 0 .7-.4 1-1.2-1.3-.3-2-.8-2.2-1.6l.3-.6c-.2 0-.3-.1-.3-.3h.3c.4 0 .7.2.7.7l.6-.3c.3 0 .6.3.9.9v.3l-.2.6c.4 0 .6.2.6.7 0 .2-.1.2-.3.2l.3.7v.3C213.1 14.3 213 14.5 212.6 14.5zM211.4 22.3v-.7h.6l-.3-.6.3-.7c-.5 0-.9-.4-1.2-1.2 0-.4.2-.6.7-.6.8 1.2 1.3 1.8 1.5 1.8v1C212.9 21.8 212.4 22.1 211.4 22.3zM211.4 35.2c-.4-.1-.7-.2-.7-.6h.3l-.3-.7v-.3c.4 0 .7.2.7.7V35.2zM212.9 23.8h-.2l-.7-.2c0 .2-.1.2-.3.2l-.2-.6v-.3l1.5.3V23.8zM212 25.7h-.6v-.9h.6V25.7zM213.2 16.1h-.3c-.3 0-.6-.3-.9-.9l.7-.3L213.2 16.1zM213.2 10.2h-.6V8.7h.6V9c0 .2-.1.3-.3.3l.3.6V10.2z" fill="#f33535" class="color000 svgShape"></path></svg></g></svg>