<svg id="SvgjsSvg1026" width="288" height="288" xmlns="http://www.w3.org/2000/svg" version="1.1" xmlns:xlink="http://www.w3.org/1999/xlink" xmlns:svgjs="http://svgjs.com/svgjs"><defs id="SvgjsDefs1027"></defs><g id="SvgjsG1028"><svg xmlns="http://www.w3.org/2000/svg" enable-background="new 0 0 271 118.8" viewBox="0 0 271 118.8" width="288" height="288"><path d="M33.3 118.5l-1-.6c-.4.2-.7.3-.9.3l-1.2-.7c0 .6-.2.9-.7.9h-.2v-.2l.6-.9c-.4 0-.6-.4-.6-1.2H29l-.7.2c.4.9.7 1.5.7 1.9h-.3c-2.2 0-3.3-.4-3.3-1.2H25l-.9.6c-6.3-2.2-10.1-4.2-11.6-6.1-2.2-1.6-3.3-3.9-3.3-7-.2 0-.3-.1-.3-.2 0-.2.1-.3.3-.3l-.3-.6c0-.2.1-.5.3-.9l-.7-2.5c.4-.2.7-.3.9-.3-.4-.7-.6-1.3-.6-1.8.3 0 .6-.6.9-1.8H11l-.9-1.2c0-.5.3-1.2.9-2.1-.4 0-.7-.5-.9-1.5.4-.2.7-.3.9-.3l-.3-.6c0-.4.2-.7.7-.7.4.2.7.3.9.3.4-.2.7-.3.9-.3l.2.7.7-.3.6.3v-.7c-.7 0-1.2-.4-1.5-1.2-.4 0-.7-.2-.7-.7L11.9 88h-.3v-.3c.5-1.4 1-2.1 1.2-2.1h.3c1.6 2.1 3.6 3.8 6.1 5.2h.6V92c0 .4-.3.6-.9.6v.3l1.5.3-.2-.7V92h1.2l2.4 1.5h.3c-1.6-1.3-2.5-2-2.5-2.1l.7-.3c4.4 2.9 8.4 4.3 12.1 4.3h2.5c.2 0 .3.1.3.2l.6-.2.6.2c1.2 0 2.1-.5 2.8-1.5 0 .8.4 1.2 1.2 1.2l2.8-1.6v-.9h.6v.9H46l.6-.3c-.2-.2-.3-.7-.3-1.5h.3c-.2-.4-.3-.7-.3-.9H46V92c-.4-.1-.7-.2-.7-.6l.3-.7c-.4 0-.7-.5-.9-1.5h.6v.6h.3v-.9c-.4-.1-.6-.2-.6-.6l-.7.2h-.3V88h.7c-.8-3.3-2-5.6-3.6-7l.2-.6c-.1-.4-.2-.7-.6-.7-.4.2-.7.3-.9.3v-.3l.2-.6c-.8-.1-1.2-.4-1.2-.9V78h.6c-.1-.4-.2-.6-.6-.6 0 .4-.1.6-.3.6l-3.6-2.4v-.3l.2-1.6-.6-.2h-.3v.9h-.6c0-.4-1.6-1.9-4.9-4.6 0-.2-2.3-2.4-7-6.7-1.2-.2-1.8-.5-1.8-.9.2 0 .2-.1.2-.3-.2 0-.2-.1-.2-.2l-.7.2c-1.6-.7-2.4-1.2-2.4-1.5.4-.1.6-.2.6-.6v-.7c-.7.4-1.2.7-1.5.7v-1.2l.2-.7-2.1-.9c0 .2-.1.3-.3.3v-.3l-.7.3h-.2c0-.2.1-.3.2-.3l-.2-.6V56h1.2v-.6h-1.6v-.9L12.5 53h-.6l.3 1.6v.6h-.7c0-.2.1-.3.3-.3-.3-1.2-1-1.8-2.1-1.8l.3-1.5c-.4 0-.9-.6-1.2-1.8C9 49.3 9.2 49 9.2 48.8H8.5v.6H7.9v-.9l.6-.9H7.9c-.4.2-.7.3-.9.3v-1l.3-.6c-1-.5-1.6-1-1.6-1.2v-.2c0-.2.1-.3.3-.3C5.6 42.8 5.3 42 5.2 42l.6-1.2c-.8 0-1.2-.4-1.2-1.2.3 0 .6-.3.9-.9v-.3l-.9.6-.2-.6v-.9h.6v-.6H3.6L4 35.3l-.3-1.2C3.8 34.1 4 34 4 33.8c-.6 0-.9-.4-.9-1.2H2.7l-.2 1.5.6 3.7H2.7l.3.6v.3c0 .2-.1.2-.3.2l.9 1.6-.2 1.8c.6 0 1 1.4 1.2 4.3 1 0 1.6 1.2 1.6 3.6H5.2v.3c1.2 0 2.2.5 3.1 1.5v.3L7.9 53c.8 0 1.6 1.3 2.5 4-.2 0-.3.1-.3.3 1 0 1.5.3 1.5.9v.3c-.6 0-.9.1-.9.2.4.7.7 1.2.7 1.6-1.7-1.6-2.5-2.9-2.5-4l-.6.3-.9-1.6.2-1.8c-2.2-1-3.3-2.4-3.3-4.3C4.1 49 4 48.8 4 48.4c.4-.1.6-.2.6-.6v-.7l-.9.7H3.4v-.3l.2-.7c-1.1 0-2.3-4.3-3.6-12.8h.3L0 33.5c0-4.5 1.8-8.3 5.4-11.3L7 20.4c-.2 0-.3-.1-.3-.3h.7L7 19.5c3.5-3.1 5.2-5 5.2-5.4h.6l-.3.6.7.3c.9-.9 2.3-2 4.2-3.4 0-1 .3-1.5 1-1.5h.2c.2 0 .3.1.3.2 1.2-.5 1.8-1.1 1.8-1.8h.7c0 .6.2.9.6.9 0-.2 1.1-.9 3.4-2.1H25c-1.7.4-2.5.8-2.5 1.2h-.6V8.2c0-.7 1.5-1.5 4.5-2.4v.6L25 6.7V7h1.2c0-.4.6-.7 1.8-.7V6.1c-.6 0-.9-.2-.9-.7h.2l1.9.9h.2V6.1c-.6 0-.9-.3-.9-.9l.7-.3c0 .3.4.7 1.2 1.2h.3V5.4h.9v.7H32c0-.5.1-.9.2-1.2h-.6V4.2c.4.2.8.3 1.2.3l-.3.7v.2h.3c.4-.2.7-.2.9-.2 0 .4.2.6.6.6h.3c.5-.4 1-.6 1.5-.6L36 4.5h2.1L39 5.2c0-.4.2-.7.6-.7.2 0 .3.1.3.3.4-.2.7-.3.9-.3.2 0 .8.4 1.8 1.2V5.4l-.3-.6h.3c.4 0 .6.2.6.6l.7-.2 1.5 1.2h.3V5.8h.6v.6l1.6-.2c.7 1 2 1.8 4 2.4v.3l.6-.3h.3v.9C53.4 9 54 8.8 54.5 8.8l.3.6c-.2 0-.3.1-.3.3 3.2 1.1 4.9 2.1 4.9 3.1l.7-.3c5.4 3.7 8.4 6.8 8.8 9.5v.6h-.3c-1.6-1.8-2.5-2.7-2.7-2.7V20c2.2 1.9 3.3 3.6 3.3 5v.6h-.2c-1.6-1.3-2.5-2.3-2.5-3.1h-.9v.9c.6 0 1.7 1.2 3.4 3.6v.3c-.1.4-.3.7-.7.7 0-.2-.1-.3-.2-.3.4.7.6 1.3.6 1.8H68c0-.6-1.7-2.4-5.2-5.5h-.3v.3c0 .4 1 1.3 3.1 2.7l.3 1.2h-.3l-.6-.2-.3.6V29c.5 0 1 .5 1.5 1.5V31c-.4 0-.6-.3-.6-.9h-.9l-.3 1.2L63.7 31c.4.7.6 1.2.6 1.6L62.5 31c0 .4.7 1.8 2.1 4v.3l-3.1-2.4h-.3c-.5.4-.9.6-1.2.6 0 .3 1.4 1.8 4.2 4.3-.1.4-.2.6-.6.6 0-.3-.7-1-2.1-2.1 0 .4-.1.7-.3.7l.3.6v.3h-.3l-4.9-3.4v.3l.3 1.5-.6.3c.4 1.4.6 2.6.6 3.6l-.6.3c0-.5-.5-.8-1.6-.9.2-.8.6-1.2 1.2-1.2V38h-.7c-.4.5-.6.9-.6 1.2-.6-1-1-1.5-1.2-1.5v-.3c.7 0 1.2-.1 1.6-.3 0 .4.2.7.6.7v-.7c0-1-.5-1.8-1.5-2.4-.2.4-.3.7-.3.9h-.3l-.6-.3L52.4 36l.7.2 1.2-.9h.3c0 1-.6 1.7-1.8 2.1 0-.5-.3-1.2-.9-1.8v-.3c.8-.1 1.2-.5 1.2-1.2-.8 0-1.4-.4-1.9-1.2h-.9l-.6.2-.3-.6.3-1.6-.6-.2h-1L47.5 31c0-.8-.2-1.2-.6-1.2h-.3l.3.6v.3h-.3c-.3 0-.6-.3-.9-.9h.6v-.7c-.4 0-.8-.1-1.2-.2v.6h-.7V29l.3-.7h-.9v.3c.2.4.2.7.2.9-1-.7-1.5-1.3-1.5-1.8l-.6.3-.9-.7.2-.6v-.3l-.6.3c0-.8-.2-1.2-.7-1.2h-.2c0 .3.2.9.6 1.8h-.3l-.6-.3c-.1.4-.2.7-.6.7 0-.2-.1-.3-.3-.3l.9-2.1C39.2 25.2 39 25 39 24.7L38.4 25h-1.2v-.3l.2-.7h-.2l-1 .7H36V24h-.7l.3.7V25c-.1.4-.2.6-.6.6h-.3l-.3-1.8h-.2l-.9.6h-.3L32.3 24v.3c-1-.1-1.5-.4-1.5-.9h-.6V24l.2.7.7-.3H32L31.7 25H32l1.5-.3v.6h-.9l.3.7v.2c-1.2 0-1.8.7-1.8 2.1l.6.3-.3.6c1 1.2 1.6 2.2 1.6 3.1h-.7c0-.6-.4-1.3-1.2-2.1v-1.5h-.7v-.3l.3-.6h-.3c-.8.2-1.2.4-1.2.6-.4-.2-.8-.2-1.2-.2v-.7l.2-.6h-.2c-.4 0-.7.4-.7 1.2h-.2l-.3-1.9h-.3c-.4 0-.6.6-.6 1.9h1.2l-.7 1.2c.3 0 1.4.9 3.4 2.8 0-.2.1-.3.3-.3 0 .4.9 1.3 2.7 2.7l-1.6.3c0-.3-.3-.6-.9-.9h-.6v.6h-.6v-1.5h.6v.6c.4-.1.6-.2.6-.6-.3 0-.7-.2-1.2-.7-.1.4-.3.7-.7.7v-.7h-.6v.9h-.3l-.9-.6v.6h.6v.3l-.2.6c.3 0 .6.4.9 1.2l.6-.3H29c0 1.2.9 2 2.7 2.5 0 .5.5 1 1.6 1.5h.9c0 .7.3 1 .9 1l-.3 1.5.9-.6H36l.6.2c0-1.1.4-1.9 1.2-2.4.8.3 1.2.6 1.2.9v.3l-1.2-.7-.9 1.6c.6 0 .9.2.9.6l-.6.3-1.9-.3c0 .4 1.4 1.6 4.3 3.6 0 .2.1.5.3.9l.6-.2c2.3 1.6 3.4 2.7 3.4 3.1-.2.4-.3.7-.3.9.4 0 .6.5.6 1.5l.7-.3.6 1c-.4 0-.6.2-.6.6l.9.6c0-.6.2-.9.6-.9.4 0 .7.2.7.7L46 53.9v.3h.2l1.6-.9c.3 0 .6.3.9.9v.3c-.4-.1-.7-.3-.7-.7-.4.2-.7.3-.9.3v.9h.3c.4-.2.7-.3.9-.3V56h-.3l-.6-.2v.6c0 .3.3.6.9.9h.3l.9-.6c.9.4 1.4.8 1.5 1.2v.3c-1.3-.4-2-.6-2.1-.6v1.2h.6v.3c0 .2-.1.3-.3.3.2.6.8 1.1 1.8 1.5 1-.1 1.6-.4 1.6-.9h.9l-.6.9c.3 0 .7.4 1.2 1.2v.3l-.6.9c.3 0 .7.4 1.2 1.2h-.3l-1.2-.9h-.6c0 .3.7.9 2.1 1.8v-.7h.6c0 .5.3 1 .9 1.6-.4 0-.6.2-.6.6v.7c.6 0 .9-.3.9-.9h.6v.9c0 1 .3 1.7.9 1.8v-.3l-.2-.6h.9v.2l-.3.7h1.6v.9L59.7 71l.6.3H61V70h.9v.3L61 71.9c1.9 1.4 4 3.2 6.4 5.5 0-.6.3-.9.9-.9v-.3c-1.4 0-2.4-.8-3.1-2.5-.5 0-.9-.8-1.2-2.4-.4 0-.7-.3-.7-.9l-.6.3V70h.6v-.6c-.6 0-.9-.3-.9-.9l-.6.2h-.3c0-.2.4-.5 1.2-.9-.4-.7-.7-1.2-.7-1.5 1.7 1.6 2.5 2.9 2.5 4l.6-.3.9 1.6-.2 1.8c2.2 1 3.3 2.4 3.3 4.2.2 0 .3.2.3.7-.4 0-.6.2-.6.6v.7l.9-.7H70v.3l-.2.6c1.1 0 2.3 4.3 3.6 12.8h-.3l.3.7c0 5.7-3.5 10.9-10.6 15.5l-.7-.3c0 .7-1 1.1-3.1 1.2v-.2l1-1.6h-.7c0 .8-.6 1.7-1.8 2.5h-.3v-.7l-.9.7c-.3-.2-.7-.3-1.2-.3v.6H54v-1.5l.2-.7h-.6c-.4 0-.6.2-.6.7 0 .4.1.9.2 1.2-.2.3-.2.7-.2 1.2h-.7v-1.8l.3-.6h-.3c-.4 0-.6.2-.6.6v1.8h-.7v-1.8h-.6v1.8c-.4 0-.9.1-1.2.3l-.2-1.5c-1.3 1.2-2.1 1.8-2.5 1.8v-.7H46c0 .6-.1.9-.3.9-.7-.4-1.2-.6-1.6-.6l-.6.9c.2 0 .3.1.3.3H43l.2.6-.6.9c.2 0 .3.1.3.3l-.7.3-.2-.7h.2c-.4-.9-.8-1.4-1.2-1.5h-1.2c0 .6.5.9 1.5.9v1.2h-.6c0-.7-.6-1.1-1.8-1.2v-.3l-.7.3c-.4-.2-.7-.3-.9-.3l-.6.9c.2 0 .3.1.3.3l.6-.3h.3c.4 0 .6.2.6.7l.6-.3h.3v.6l-1.5.3c-.2 0-.3-.1-.3-.3l-2.1.3h-2.1c-2.6 0-4-.6-4-1.8h-.2c-.3 0-.7.3-1 .9v.6c1 0 2 .6 2.8 1.9l.6.2c.3-.8.6-1.2.9-1.2.4 0 .7.2.7.7V118.5zM3.4 32.3v-1.5H3.1L2.7 32 3.4 32.3zM11.3 17.7v-.6h-.7c-1.2 1.2-2 1.8-2.4 1.8v.6h.2C10 18.3 10.9 17.7 11.3 17.7zM12.5 60.3c-.5-.4-.9-.6-1.2-.6 0-.3.3-.7.9-1l.2.7V60.3zM18 65.2c-1.5-1.4-2.7-2.1-3.4-2.1-1.6-1.5-2.4-2.3-2.4-2.4l.6-.3c.5.6 1.4 1 2.5 1.2 0 .2.3.7.9 1.5l.6-.3h.3c0 .8.5 1.2 1.5 1.2v.7C18.5 65 18.3 65.2 18 65.2zM14 14h-.3c-.4-.1-.6-.3-.6-.7h.2C13.8 13.4 14 13.6 14 14zM18.6 95v-1.2c-1.2 0-1.8-.4-1.8-1.2l-.6.3h-.7v-.6h.7l-.3-.7L15.3 92h-.3v-1.2h-.3v.7H14v-.7h-.7C15 92.7 16.7 94.1 18.6 95zM15.3 59.4h-.3c-.6-.2-.9-.8-.9-1.8h.3c.3 0 .6.3.9.9h-.3l.3.6V59.4zM16.4 11.2h-.6v-.6l1.5-.3C17.3 10.6 17 10.9 16.4 11.2zM16.4 16.4v-.3c-.1-.4-.2-.6-.6-.6v.9H16.4zM16.7 13.7c0-.5.8-1.2 2.5-1.8v.6c.9-.6 1.5-.9 1.8-.9h.9c0-.4.2-.6.6-.6.4.2.8.2 1.2.2l-.3-.6.9-.6h.3v.6h.7V8.8h-.7l-5.2 3.1h-.2c0-.4-.1-.7-.3-.7-1.4 1-2.3 1.6-2.7 1.6v.3C16.2 13.5 16.4 13.7 16.7 13.7zM18 92.6c0-.2.1-.5.3-.9H18L17.3 92l-.6-.3h-.3V92C16.8 92 17.3 92.2 18 92.6zM18 9.7c0-.3.3-.6.9-.9h.3v.6L18 9.7zM19.8 95v-1.6h-.9l.3.7-.3.6C19.1 94.7 19.4 94.8 19.8 95zM25 98.1c-.3-.4-1.7-1.3-4.3-2.7V95h-.6v.6l-.7-.2h-.2v.2l2.7 1.2c0-.2.1-.3.3-.3C22.3 97.2 23.2 97.7 25 98.1zM20.1 112.1v-.3c-.1-.4-.3-.6-.7-.6l-.2.6.6.3H20.1zM19.5 9.7V9.4c0-.3.3-.6.9-.9v.3C20.4 9.1 20.1 9.4 19.5 9.7zM21.4 65.8c-1.3-.1-1.9-.4-1.9-.9h1.2c.4 0 .7.2.7.7V65.8zM21.4 94.7c0-.3.2-.7.6-1.2v-.2l-1.2-.3v1.8H21.4zM22.3 114.3v-.3c-.1-.4-.3-.6-.7-.6H21c.2.4.3.7.3.9H22.3zM22.3 22.9l-.7-.3v.9C22.1 23.4 22.3 23.2 22.3 22.9zM24.3 95v-.3c-.3 0-.7-.2-1.2-.6V95H24.3zM24.3 114.3v-.7h-.2c-.4 0-.7.2-.7.7H24.3zM25 95.4V95c-.4 0-.7.2-.7.6V96C24.8 95.9 25 95.7 25 95.4zM26.2 25.6V25h-.7v-.3l.3-.7-1.2-.2c.6 1.2.9 2 .9 2.4C26 26.1 26.2 25.9 26.2 25.6zM26.8 96.3V96c-.4 0-.9-.1-1.2-.3h-.2V96c.2 0 .5.1.9.3H26.8zM26.5 115.8c0-.3-.3-.6-.9-.9l-.2.6.6.3H26.5zM27.1 10.1l-.3-.7V9.2h.3c.5 0 1.2.2 1.8.6 0-.4.6-.7 1.8-.9V8.5h-.9L29 9.2h-.3c-.4-.1-.6-.3-.6-.7-1.4.3-2.3.8-2.5 1.6H27.1zM28.6 20v-.6l-2.7.3v.6h.3C27.7 20.2 28.5 20 28.6 20zM29.5 26.2v-.9L29 25.6h-.3c0-.4.2-.6.7-.6-.2-.4-.3-.8-.3-1.2h-.3c-.1.8-.4 1.2-.9 1.2-.2-.3-.3-1-.3-1.9-.4.2-.7.3-.9.3V24h.7v.7l-.7.9.9.6c0-.6.2-.9.7-.9l1.2.9H29.5zM27.7 32l.6-1c-.3 0-.7-.3-1.2-.9v.3l.6.9v.3h-1.2V32H27.7zM27.4 114.3v-.3c-.1-.4-.2-.6-.6-.6v.9H27.4zM28.6 97.4v-.9h-.3c0 .2-.1.5-.2.9H28.6zM29.5 27.7v-1.2h-.9v.6c0 .4.2.7.7.7H29.5zM31.1 38.7V38c-.8 0-1.6-.4-2.5-1.2v.2C29.6 38.2 30.4 38.7 31.1 38.7zM29.5 93.5h-.9v-.6h.9V93.5zM30.4 92h-.9c-.4-.1-.6-.2-.6-.6h1.5V92zM31.4 19.5v-.3h-.2l-.7.3c-.4-.2-.7-.3-.9-.3l-.2.7h.6L31.4 19.5zM30.4 64.3l-.6-.3-.3.7v.2h.3C30.3 64.8 30.4 64.6 30.4 64.3zM30.2 4.9V4.5c0-.4.2-.6.6-.6v.2C30.7 4.6 30.5 4.9 30.2 4.9zM33.3 41.4v-.6c-.4 0-.9-.2-1.6-.7-.3.2-.7.3-1.2.3v.3H32C32 41.1 32.4 41.3 33.3 41.4zM31.4 65.8v-.9h-.9v.3c0 .4.2.6.7.6H31.4zM32 98.1v-.7h-1.6c0 .4.2.7.7.7H32zM31.7 25.9v-.7c-.2 0-.5-.1-.9-.2v1.2C31.2 26 31.5 25.9 31.7 25.9zM38.1 73.4l.6-.9c-.4 0-.9-.5-1.5-1.6-.4.2-.8.3-1 .3V71c.2-.3.3-.7.3-1.2l-4-3c-.2-.4-.3-.8-.3-1h-.6c0 .6-.2 1.2-.6 1.9h.2c.2-.6.4-.9.7-.9.3 0 .8.5 1.5 1.5 1.2 0 2.2 1.2 3.1 3.6l1.6.7v.2l-.3.7H38.1zM36.2 93.5H36c-.5-.3-1.3-.6-2.5-.9-.3.2-.7.3-1.2.3-.8-.3-1.2-.6-1.2-.9v-.3h.6c.2 0 .3.1.3.3.2 0 .2-.1.2-.3 1.4.4 2.7.7 3.7.7h1.2v.2C37.2 92.9 36.9 93.2 36.2 93.5zM33.8 7.3V6.7h-.3L31.4 7v.2H33.8zM32 39.3v-.3c-.1-.4-.3-.6-.7-.6v.9H32zM32.6 12.1l.3-.6H32C32 11.9 32.2 12.1 32.6 12.1zM32.6 70.4v-.9H32v.9H32.6zM33.3 115.4l.2-.6c-.5-.4-.9-.6-1.2-.6H32v.2C32.3 114.5 32.7 114.8 33.3 115.4zM33.3 37.1h-1v-.2c0-.4.2-.7.7-.7l.3.7V37.1zM37.5 28.1c-.4 0-.6-.3-.6-1h-.3v.7H36v-.7c-.8.4-1.2.8-1.2 1-.8-.2-1.5-.3-2.1-.3v-.3c0-.4.3-.6.9-.6l-.2-.7v-.2h.6c0 .6.2.9.6.9v-.7h.3v.9h.6c0-.9.4-1.5 1.2-1.8h.9l-.2 1.6h.6c0-.6.2-.9.6-.9h.3C38.7 27 38.3 27.7 37.5 28.1zM33.5 42h-.2c-.4 0-.7.2-.7.7h.3C33.3 42.6 33.5 42.4 33.5 42zM33.8 98.4v-.7h-1.2v.7H33.8zM34.4 40.8c-.2-.4-.2-.7-.2-.9l-.7.2h-.2v-.6h-.3v.6C33.6 40.6 34.1 40.8 34.4 40.8zM36.2 38.4V38l-.6.3c-.6-.2-.9-.4-.9-.6L34.2 38c-.4-.1-.7-.2-.7-.6v-.3l.7-.9c-.3 0-.6-.3-.9-.9l.9-.6c.3 1.8 1.2 2.7 2.7 2.7v.3C36.8 38.2 36.6 38.4 36.2 38.4zM35.1 43.2c0-.2.1-.3.2-.3-.2-.4-.2-.7-.2-.9h-.3c-.4 0-.6.2-.6.7L35.1 43.2zM37.2 47.2v-.3c-.3 0-1-.6-2.1-1.8h-.3v.7c1.2.4 1.8 1.1 1.8 2.1C37 47.7 37.2 47.5 37.2 47.2zM35.3 72.8v-.9c-.4 0-.6.2-.6.7L35.3 72.8zM35.3 84.4c-.4-.1-.6-.3-.6-.7v-.2c.4 0 .6.2.6.6V84.4zM35.6 117.9c-.4-.2-.7-.3-.9-.3v-.9h.3c.3 0 .6.3.9.9C35.8 117.6 35.6 117.7 35.6 117.9zM36.2 39.3h-.9v-.6h.9V39.3zM43.2 49.9c-.4-.1-.6-.2-.6-.6l.6-.9h-.6l-.6.3v-.3c.2-.4.2-.7.2-.9l-.6-.3h-.3l-.6.3c-1.6-1.8-3.2-2.7-4.6-2.7v-.3c0-.2.1-.3.3-.3-.2-.4-.3-.7-.3-.9h-.9v1.2c.4 0 1.5.7 3.1 2.1-.2 0-.2.1-.2.2 1 0 2.5 1.2 4.5 3.7C43 50.5 43.2 50.3 43.2 49.9zM36.2 98.7v-.6h-.9v.3C35.5 98.4 35.8 98.5 36.2 98.7zM36.6 75.6v-.3c-.1-.4-.2-.6-.6-.6h-.3v.6C35.9 75.2 36.2 75.4 36.6 75.6zM36.6 118.8h-.9v-.6h.9V118.8zM36.2 85.9L36 85.3l.6-.3.3.6L36.2 85.9zM37.2 83.7c-.4-.1-.7-.2-.7-.6v-.6c.4 0 .7.2.7.6V83.7zM38.7 76.7v-.2c-.3 0-.8-.2-1.5-.7h-.3v.3c.4 0 .6.2.6.6H38.7zM39 43.2h-.3c-.5-.4-.9-.6-1.2-.6V42h.3C38.1 42 38.5 42.4 39 43.2zM39.6 50.8c0-.6.3-.9.9-.9 0-.2-.7-.8-2.1-1.8h-.6v.3l1.5 1.8L39 50.8H39.6zM38.4 89.9c-.4-.7-.6-1.2-.6-1.5.3 0 .7.4 1.2 1.2L38.4 89.9zM39.3 92c0-.8-.4-1.2-1.2-1.2 0-.4.2-.6.6-.6h.9l.3 1.5L39.3 92zM39.6 98.4c-.2 0-.3-.1-.3-.3-.4.2-.7.3-.9.3V99H39C39.4 99 39.6 98.8 39.6 98.4zM39.6 21.9v-.3h-.9v.6C39.1 22 39.4 21.9 39.6 21.9zM41.2 76.7v-.6l-1.2-1.2h-.3c.1.6.5 1.1 1.2 1.6v.2H41.2zM39.9 83.2l-.3-.6v-.3h.3c.4 0 .6.2.6.6L39.9 83.2zM40.8 93.8h-.3c-.3 0-.6-.4-.9-1.2l.9-.6.7.3c.2-.4.2-.7.2-.9.4 0 .7.2.7.6l.6-.3H43l-.7.9c.2.4.3.7.3.9h-.6c0-.6-.2-.9-.7-.9-.4.2-.7.3-.9.3l.3.6V93.8zM41.2 98.7v-.2c-.1-.4-.3-.7-.7-.7l-.6.9H41.2zM41.2.6h-1V0h1V.6zM41.4 24v-.2c-.2 0-.5-.1-.9-.3V24H41.4zM40.8 42.9h-.3v-.6h.9C41.4 42.7 41.2 42.9 40.8 42.9zM41.7 50.6v-.3h-.3c-.4.2-.7.3-.9.3v.2h.3C41.2 50.7 41.5 50.6 41.7 50.6zM41.7 75.8v-.2c-.2-.4-.3-.8-.3-1.2-.4 0-.6.2-.6.6C40.8 75.2 41.1 75.5 41.7 75.8zM42.1 26.2v-.9c-.3 0-.6.3-.9.9H42.1zM42.3 78.9c0-.2.1-.2.3-.2-.3-.8-.6-1.2-.9-1.2h-.3C41.7 78.4 42 78.9 42.3 78.9zM43 112.7v-.3h-1.6v.3H43zM44.5 3.1h-.3c-.5 0-1.1-.7-1.8-2.1-.2 0-.2-.1-.2-.3V.2h.2l2.1 2.5V3.1zM43 27.4v-1.2c-.4 0-.7.2-.7.7C42.3 27.2 42.5 27.4 43 27.4zM42.7 52.1c0-.2.1-.5.3-.9h-.7v.9H42.7zM43.2 80.1v-.9h-.6c.2.4.3.7.3.9H43.2zM43.6 86.2c-.3 0-.6-.3-.9-.9V85H43c.4 0 .6.2.6.6V86.2zM44.1 97.8h-1.5c0 .4.2.7.6.7h.3C43.9 98.3 44.1 98.1 44.1 97.8zM47.2 55.8v-.3c-1.9-1.5-3-2.4-3.3-2.7.2-.4.2-.7.2-.9-.6.2-.9.8-.9 1.8h.3l.6-.3v1.2l.7-.3h.3l1.8 1.6H47.2zM46 33.2h-.3c-1.4-.3-2.1-.7-2.1-1.2h.6c.2 0 .3.1.3.2l.7-.2h.2C45.4 32.3 45.6 32.7 46 33.2zM45.7 51.2l-1.8-1.8V49h1.2c0 .4.4 1 1.2 1.6C46.2 51 46 51.2 45.7 51.2zM44.1 114.5h-.2V113c.3.2.7.3 1.2.3v.2C45.1 113.9 44.8 114.2 44.1 114.5zM45.1 91.7h-.3c-.4-.1-.7-.2-.7-.6v-.3h.3c.4 0 .7.2.7.7V91.7zM45.4 56c-.1-.4-.2-.6-.6-.6h-.3c0 .4.2.6.7.6H45.4zM45.1 98.1l.2-.7c-.1-.4-.2-.6-.6-.6l-.3.6C44.5 97.9 44.7 98.1 45.1 98.1zM45.7 46.9h-.3c-.4-.1-.6-.2-.6-.6h.9V46.9zM45.7 78.9v-.2c-.2 0-.5-.1-.9-.3v.6H45.7zM46.6 87.1v-.3c0-1.2-.5-2.2-1.5-3.1v.7c.8 1 1.2 2 1.2 2.7H46.6zM45.7 2.4l-.3-.6L46 1.5l.2.7L45.7 2.4zM46 35.3c-.4-.1-.7-.2-.7-.6 0-.4.2-.7.7-.7l.6.9L46 35.3zM46.9 57.3c-.4-.5-.7-1-.7-1.5-.4 0-.6.2-.6.6v.3c0 .4.2.6.6.6H46.9zM46.3 97.8l.3-.6v-.3h-.3c-.4 0-.6.2-.6.6L46.3 97.8zM46.9 7.6V7c-.2 0-.5-.1-.9-.3V7c0 .4.2.6.6.6H46.9zM46.9 81.4V81c-.2 0-.5-.1-.9-.3v.7H46.9zM46 113.9v-.3c0-.2.1-.2.2-.2l-.2-.7c0-.4.2-.6.6-.6l.3.6v.3C46.9 113.3 46.6 113.6 46 113.9zM47.2 4h-.9V3.3h.9V4zM47.2 34.1l-.2-.6.6-.3c0 .2.1.3.3.3 0-.2.1-.3.2-.3l.3.7C48 33.8 47.6 33.9 47.2 34.1zM47.9 52.7c-.4-.2-.7-.3-.9-.3v-.6l1.5.2C48.4 52.5 48.2 52.7 47.9 52.7zM47.5 89.3c0-.7.1-1.2.3-1.6h-.7v1.6H47.5zM48.1 29.2v-1.2c-.4 0-.6.2-.6.6v.6H48.1zM48.8 58.7c-.1-.4-.3-.6-.7-.6h-.2c.2.4.2.8.2 1.2C48.5 59.4 48.8 59.1 48.8 58.7zM48.4 90.8l.3-.6-.7-.3h-.2v.3C47.9 90.6 48 90.8 48.4 90.8zM49.7 35.6c0-.6-.1-.9-.3-.9C49 34.9 48.7 35 48.4 35v-1.2c.5.4 1.1.6 1.8.6V35C50.2 35.4 50 35.6 49.7 35.6zM50.2 5.8h-.6c0-.6-.2-.9-.6-.9V4.5H50l.2.7V5.8zM50.2 30.4v-.3c-.3 0-.7-.2-1.2-.6v.3l.9.6H50.2zM49.7 82.3v-.3c-.1-.4-.2-.6-.6-.6v.9H49.7zM50.9 4h-.3C50.2 3.9 50 3.7 50 3.3h.2C50.7 3.3 50.9 3.5 50.9 4zM50.6 85v-.9c-.4 0-.6.2-.6.6v.9C50.4 85.5 50.6 85.3 50.6 85zM51.2 30.8v-.3h-.2c-.4 0-.7.2-.7.6v.3h.3C51 31.3 51.2 31.1 51.2 30.8zM52.1 62.7v-.6c-.5 0-1.1-.3-1.8-.9v.3l1.6 1.2H52.1zM51.5 86.6v-.3c-.2-.4-.3-.7-.3-.9h-.2v.2c.2.4.2.8.2 1H51.5zM53.1 7.3c-.3 0-.9-.6-1.6-1.8V5.2c.3 0 .8.5 1.6 1.5V7.3zM52.1 88.6v-1.2h-.2v1.2H52.1zM53.3 5.2h-.2c-.4-.1-.7-.3-.7-.7V4c.3 0 .6.3.9.9V5.2zM53.1 62.7c0-.2.1-.5.2-.9h-.9c.2.4.3.7.3.9H53.1zM55.4 35v-.2c-.8-1.2-1.2-1.9-1.2-2.1h-.9L55.4 35zM54 105.4v-1h-.3c0 .2-.1.6-.3 1H54zM54 106.9v-.3c-.4 0-.7.2-.7.7v.2C53.7 107.5 54 107.3 54 106.9zM56.4 6.4h-.2c-.4-.2-.8-.2-1-.2 0 .2-.1.2-.2.2l-1.2-1.2 1.5-.3 1.2 1.2V6.4zM57.9 63.9c-1 0-1.6-.3-1.6-.9l-1.5.3c0-.2-.1-.3-.3-.3.2-1 .6-1.5 1.2-1.5.4 0 .8.5 1.2 1.5.6 0 .9.2.9.7V63.9zM55.1 7.9l-.2-.7V7h.2c.4 0 .7.2.7.6L55.1 7.9zM55.8 60.6h-.9c0-.4.2-.7.6-.7h.3V60.6zM61.6 31.4c-.2-1-2-2.6-5.2-4.5-.3.2-.7.2-1.2.2v.3h1c0-.2.1-.3.2-.3C57.5 28.4 59.2 29.9 61.6 31.4zM68 19.1h-.3c-1.1-2.4-3.3-5-6.7-7.9l-.7.3c-1.4-1.5-2.8-2.3-4-2.4V8.8h.3l-.3-.7V7.9h.3c6.5 3.7 9.7 6.3 9.7 7.9h.3v-.3c-2.1-3.5-4-5.2-5.5-5.2 0-.2-.6-.8-1.8-1.8.2 0 .3-.1.3-.3-.6 0-1.5-.4-2.7-1.2V6.4h.2c6.1 3.5 9.7 6.8 10.7 9.7l-.3.7.3 2.1V19.1zM58.2 34.4v-.3c-.3 0-.7-.3-1.2-.9h-.3v.7c.3 0 .7.2 1.2.6H58.2zM57 109.4l.2-1.6v-.3c-.4 0-.6.2-.6.7v1.2H57zM61.6 40.2H61c-2.6-2-4-3.1-4-3.3 0-.4.2-.7.6-.7 2.6 2.2 4 3.4 4 3.7V40.2zM60.6 23.1c0-.3-.9-1.1-2.7-2.4h-.3V21c1.7.7 2.5 1.4 2.5 2.1H60.6zM60.6 66.4c-.6-.6-1.4-1-2.5-1.2l-.2-.6v-.3c0-.4.2-.6.6-.6h.6c0 .4.6 1 1.9 1.8v-.7c.4 0 .6.2.6.7C61.6 65.8 61.2 66.1 60.6 66.4zM59.7 41.4h-.3c-.4-.1-.6-.2-.6-.6h.2C59.5 40.8 59.7 41 59.7 41.4zM61 36c-.1-.4-.3-.7-.7-.7 0 .2-.1.3-.2.3V35h-.7v1c.4 0 .7.1.7.2C60.5 36.1 60.8 36 61 36zM61 68.8h-.7c-.4-.1-.6-.2-.6-.6h.6C60.8 68.2 61 68.4 61 68.8zM61.2 67.9L61 67.3v-.9c.5.4.9.6 1.2.6C62.1 67.3 61.8 67.6 61.2 67.9zM61.9 69.5h-.3c-.4-.1-.6-.3-.6-.7h.2C61.7 68.8 61.9 69 61.9 69.5zM62.1 19.1v-.2c-.1-.4-.2-.7-.6-.7l-.3 1.6h.3C61.9 19.7 62.1 19.5 62.1 19.1zM64.6 36.2h-.3c-1.8-1.3-2.7-2.1-2.7-2.4v-.3C62.5 34 63.6 34.9 64.6 36.2zM62.8 41.1h-.3c-.4-.1-.6-.2-.6-.6v-.3h.2c.4 0 .7.2.7.7V41.1zM64.6 28.1v-.7c-.4 0-.6-.2-.6-.6h-.7C63.4 27.1 63.8 27.6 64.6 28.1zM64.3 30.4c-.2-.4-.2-.7-.2-.9h-.7v.3c0 .4.2.6.7.6H64.3zM67.3 26.8v-.3l-.9-.6v.2L67.3 26.8zM70.7 94.1l.2-1.6-.6-3.6h.3l-.3-.6V88c0-.2.1-.3.3-.3l-.9-1.5.2-1.8c-.3 0-.8-1.1-1.5-3.4l-2.1-1.5v.6c.8 0 1.2.7 1.2 2.1H67c.4.5.8 1.3 1.2 2.4l-.6 1.2c.8 0 1.2.4 1.2 1.2-.3 0-.6.3-.9.9v.3l.9-.7h.2v1.6h-.6v.6h1.2l-.3 1.6.3 1.2c-.2 0-.3.1-.3.3.6 0 .9.4.9 1.2H70.7zM70.4 96l.3-1.2L70 94.5V96H70.4zM80.9 67.1h-.6v-.9h.6V67.1zM81.3 56.4h-.6v-1.2h.6V56.4zM84.7 49.4c-.6.5-.9 1.3-.9 2.4-.8 0-1.6.6-2.5 1.8h-.3c0-1.4.5-2.1 1.6-2.1.9-1.7 1.5-2.5 1.8-2.5h.3V49.4zM83.1 47.9l-.2.7-.7-.3c.2-.4.3-.7.3-.9h.6V47.9zM84.3 43.6c-.4.4-.6 1.1-.6 2.1h-.7v-.6c0-1 .3-1.6.9-1.8h.3V43.6zM84.7 41.5H84l.3-1.2h.6L84.7 41.5zM84.9 46.6l-.2.7c-.4 0-.7-.2-.7-.7V46c0-.3.2-.5.7-.6h.2V46.6zM86.1 36.9c0 .3-.4.6-1.2.9h-.2c.3-.8.6-1.2.9-1.2h.6V36.9zM85.8 71.9v.2c-.4-.2-.7-.2-.9-.2V71h.7C85.6 71.3 85.6 71.6 85.8 71.9zM132.1 5.3c.8 0 1.2.2 1.2.6h.3l1.2-.9v.3c1.6.8 2.4 1.4 2.4 1.8.3 0 .5-.2.6-.7V6.2h-.6V5.5c1.8.3 2.7.8 2.7 1.6h.3l.6-.3c0 .2.1.3.3.3l-.3.6c-.3 0-1.1-.2-2.4-.6h-.3v.2c2 .4 3.1.9 3.1 1.6.3 0 .5-.2.6-.6h-.6V8h1.2v.6c.2 0 .2-.1.2-.2.4 0 .7.4.7 1.2h.9V9.2L144 8.6h.3c1.8 1.1 2.7 1.8 2.7 2.1h-1.2v.6c.4 0 .9.3 1.6.9h.2l-.2-.6v-.6h.2c.7 1 1.4 1.5 2.1 1.5 2 2.4 3.1 3.6 3.4 3.6h.3v-.6c-.6 0-1.7-1.4-3.4-4.3v-.2c.2 0 .3.1.3.2l.6-.2 1.8 2.4c.4 1.3 1.8 3.2 4 5.5v.2l-.2.7-.7-.3h-.3c1.7 3.7 3 6.1 4 7.3v-.7l.7.3-.3 1.5c.6 1 .9 1.8.9 2.1l.7-.2h.2c0 .4-.1.8-.2 1.2l.9 1.6c-.6 0-.9.2-.9.6v.3c1.2 1.9 1.8 3.7 1.8 5.4h.2v-.9l-.9-4.3c.2 0 .3.1.3.3.2 0 .3-.1.3-.3l.6.3c0 .2-.1.5-.3.9 1 1.8 1.6 3.2 1.6 4.3v.6h.6v.3c0 .4-.2.6-.6.6-.4 0-.7-.8-.7-2.4h-.2c0 .8-.2 1.2-.7 1.2v.2c.8.7 1.2 1.8 1.2 3.4l.7-.3c0 .4-.2 1-.7 1.8v.7h.3c0-.8.3-1.2.9-1.2l.3.6v.3c-.4 0-.9.5-1.2 1.5v1h.6v.6l-.6.9v.6l.6-.2.7.2c0-.8.2-1.2.6-1.2l-.3 2.1-.6-.2h-.3v.2c0 .4.2.7.7.7l-.9 1.5v1.6h.6v1.8c.5 0 .8.5.9 1.5-.3 1.2-.6 2-.9 2.5v.3c.6 0 .9.2.9.6l-.6.9c0 .4.2.6.6.6l-1.2 2.8H165v-.7h-.3c0 .2-.1.5-.3.9v.3h.3l.7-.3v.3l.6-.3.6.3-.9 1.5h.3c-.5 1.8-1.2 2.8-1.8 2.8v.2c.8 0 1.2.2 1.2.7 0 .4-.2.6-.7.6 0 .2.1.3.3.3-.7 3.2-1.4 4.9-2.1 4.9 0 .4.1.9.3 1.2 0 .4-.2.6-.7.6 0 .2.1.5.3.9 0 .2-.3.4-.9.6l.3.7V81c0 .4-.3.7-.9.7.4.7.6 1.3.6 1.8v.9c-.4 0-.9.1-1.2.3 0 .2.1.5.3.9-.6 1.8-1.1 2.7-1.6 2.7 0 .2.1.5.3.9-.7 1.7-1.3 2.5-1.8 2.5v.6c0 1.5-.3 2.3-.9 2.4-.5 1.5-1 2.7-1.6 3.7l1 .6h.2c0-.7.9-2.3 2.7-4.9 0-.2-.1-.5-.2-.9l1.2-1.5c-.2 0-.2-.1-.2-.3l1.8-2.7v-.3l-.6.3h-.3l.3-1.2h.2l.7.3c0-.4.2-.6.6-.7h.3v.7l-1.8 3.3c-1.2 4.3-3.2 8.2-6.1 11.6v.3l1.8-1.5c1.2-2.5 2.2-3.7 3.1-3.7 0-.2-.1-.2-.3-.2.8-3.2 1.7-4.9 2.7-4.9l-.6-.9h.6c1-2.5 1.6-3.7 1.8-3.7h.3v.3c0 1.1-.4 1.8-1.2 2.1 0 .4.1.9.3 1.2l-2.1 3.3c-.8 2.4-1.4 3.6-1.8 3.6 0 1.3-1.5 3.1-4.5 5.5-1 2.6-3.8 5.3-8.3 8.3h-.9c1.2-1 1.8-1.6 1.8-1.9 2.6-1.4 4.4-3 5.5-4.9-1.6 1.7-2.6 2.5-3.1 2.5l-5.5 4-.6-.3c.2-.4.3-.7.3-.9 2.2-.9 3.3-1.7 3.3-2.4.2 0 .3.1.3.2 2.1-1.2 3.3-2.3 3.6-3.3v-.3h-.3c-2.3 1.6-3.7 2.4-4.2 2.4-.7 1.3-2.3 2.2-4.6 2.8 0 .2.1.2.3.2l-.3.7-1.5-.7v.3c-1.8.6-3.3 1.4-4.5 2.5h-1.6v.6h-.6v-.6h-.3c-1 .8-1.8 1.2-2.4 1.2v-.6c-1 .8-1.7 1.2-1.9 1.2l-.6-.3c0 .2-.1.3-.3.3-.4 0-.6-.3-.6-.9l-1.2.9h-1.5l.3-.7c-.8 0-1.2-.2-1.2-.6h-.7l-.9.6-.6-.2c0 .6-.2.9-.6.9h-.7l.7-.9v-.3c-.2 0-.6.1-1 .3-.2 0-.2-.2-.2-.7h-.3l-1.2.9v-.2c-1.6-.9-2.4-1.5-2.4-1.8-.4 0-.7.2-.7.6v.3h.7v.6c-.8 0-1.8-.5-3.1-1.5l-.6.2c0-.2-.1-.2-.3-.2l.3-.7c.3 0 1.1.2 2.4.7h.3v-.3c-2-.4-3.1-.9-3.1-1.6h-.7v.7h.7v.2h-1.2v-.6c-.2 0-.3.1-.3.3-.4 0-.6-.4-.6-1.2h-.9v.3l.3.6h-.3l-2.7-1.8c0-.2.1-.3.2-.3l-.2-.6.2-.7c-.2 0-.2-.1-.2-.2-.4 0-.7.3-.7.9h-.6l.3-.7v-.2c0-.3-.2-.5-.7-.7-.6.3-.9.6-.9.9-1-.6-1.5-1.3-1.5-2.1h-.7v.6h-.2c-.9-1.2-1.7-1.8-2.1-1.8v.3l1.8 2.7v.2c-.2 0-.3-.1-.3-.2l-.6.2-1.8-2.4c-.4-1.3-1.8-3.1-4-5.4V99h.6v.7h.3c0-.2.1-.5.3-1 0-.1-1.3-2.4-4-6.9v.6L91.9 92l.3-1.5c-.6-1-.9-1.8-.9-2.1l-.7.3h-.2c0-.5.1-.9.2-1.2l-.9-1.6c.6 0 .9-.2.9-.6V85c-1.2-1.9-1.8-3.7-1.8-5.4h-.2v.9l.9 4.3c-.2 0-.3-.1-.3-.3-.2 0-.3.1-.3.3l-.6-.3c0-.2.1-.5.3-.9-1-1.8-1.6-3.2-1.6-4.3v-.6h-.6v-.3c0-.3.2-.5.6-.6.4 0 .7.8.7 2.4H88c0-.8.2-1.2.7-1.2v-.3c-.8-.7-1.2-1.8-1.2-3.4l-.7.3c0-.4.2-1 .7-1.8v-.7H87c0 .8-.3 1.2-.9 1.2l-.3-.6v-.3c.4 0 .9-.5 1.2-1.5V71h-.6v-.7l.6-.9v-.6l-.6.3-.7-.3c0 .8-.2 1.2-.6 1.2l.3-2.1.6.2h.3V68c0-.3-.2-.5-.7-.7l.9-1.5v-1.6h-.6v-1.8c-.5 0-.8-.5-.9-1.5.3-1.2.6-2 .9-2.5v-.2c-.6 0-.9-.2-.9-.7l.6-.9c0-.3-.2-.5-.6-.6l1.2-2.7H87V54h.3c0-.2.1-.5.3-.9v-.3h-.3l-.7.3v-.3l-.6.3-.6-.3.9-1.5h-.3c.5-1.8 1.2-2.7 1.8-2.7v-.3c-.8 0-1.2-.2-1.2-.6s.2-.6.7-.7c0-.2-.1-.3-.3-.3.7-3.2 1.4-4.9 2.1-4.9 0-.4-.1-.8-.3-1.2 0-.4.2-.6.7-.7 0-.2-.1-.5-.3-.9 0-.2.3-.4.9-.6l-.3-.7v-.2c0-.4.3-.7.9-.7-.4-.7-.6-1.3-.6-1.8v-.9c.4 0 .9-.1 1.2-.3 0-.2-.1-.5-.3-.9.5-1.7 1.1-2.6 1.6-2.7 0-.2-.1-.5-.3-.9.7-1.6 1.3-2.4 1.8-2.4v-.7c1.2-4.1 3-7.6 5.4-10.6h-.2c-1.2.8-1.8 1.4-1.8 1.8-.4.1-2 2.4-4.9 7 0 .2.1.5.2.9l-1.2 1.6c.2 0 .2.1.2.2L90.1 30v.2l.6-.2H91l-.3 1.2h-.2l-.7-.2c0 .4-.2.6-.6.6h-.3v-.6c.6-.8 1.5-2.8 2.8-6.1 1.3-4 3.3-7.2 6-9.5V15c-.2 0-.9.5-2.1 1.5-1.8 2.9-3 4.3-3.7 4.3 0 .2.1.3.3.3-.8 3.2-1.7 4.9-2.7 4.9l.6.9h-.6c-1 2.4-1.6 3.6-1.8 3.6h-.3v-.3c0-1.1.4-1.8 1.2-2.1 0-.4-.1-.8-.3-1.2l2.1-3.4c.8-2.4 1.4-3.6 1.8-3.6 0-1.3 1.7-3.3 5.2-6.1.4 0 .8.1 1.2.3l1.2-.7c1-1.7 3.5-3.8 7.3-6.4h.6v.6c-.8 0-1.3.4-1.5 1.2-2.1 1.2-3.9 2.6-5.2 4.3h.3c1.2-1.3 2-1.9 2.4-1.9l5.5-4 .6.3c-.2.4-.3.7-.3.9-2.2.9-3.3 1.8-3.3 2.5-.2 0-.3-.1-.3-.3-.7 0-1.2.7-1.5 2.1h.2c2.5-1.8 4.7-3 6.7-3.6 0-.2-.1-.3-.2-.3l.2-.6 1.6.6V8.6c1.8-.6 3.3-1.4 4.5-2.4h1.6V5.5h.2c.4 0 .6.2.7.7 1-.8 1.8-1.2 2.4-1.2v.6c1-.8 1.6-1.2 1.8-1.2l.7.2c0-.2.1-.2.2-.2.4 0 .7.3.7.9l1.2-.9h1.5L128.1 5c.8 0 1.2.2 1.2.6h.6l1-.6.6.3c0-.6.2-.9.6-.9h.7L132.1 5.3zM87 41.2c-.8.5-1.2 1.1-1.2 1.8h-.2c0-.2-.1-.5-.3-.9.5-.8.9-1.2 1.2-1.2H87V41.2zM86.5 81l-.3.7-.6-.3.2-.6L86.5 81zM87.7 31.8L87 32.7v.6l.3.6-.9.7.2.6c0 .4-.2.7-.6.7l-.3-2.1c.7-1.4 1.2-2.1 1.6-2.1h.3V31.8zM89.2 36.3L86.5 39h-.3c.5-1.3 1.6-2.4 3.1-3.3V36.3zM87 82.9l-.3.6c-.4 0-.6-.2-.6-.6v-.3h.3L87 82.9zM86.7 56.1V57h.7v-.3C87.4 56.4 87.2 56.2 86.7 56.1zM88 66.2c0 .2-.1.5-.2.9.2 1.8.2 2.8.2 3.1h.3c0-.7.1-1.2.3-1.6h-.3l.3-1.5c-.2-.4-.3-.7-.3-.9H88zM89.2 32.9v.3c0 .4-.2.6-.6.6H88v-.6l.7-.9C88.9 32.3 89.1 32.5 89.2 32.9zM88 46.6v1h.3c0-.7.2-1 .6-1L88.6 46C88.2 46 88 46.2 88 46.6zM88.3 59.4v1.2h.3v-1.2H88.3zM89.5 90.8v.2h-.3c-.4 0-.6-.2-.6-.6v-.3h.2C89.2 90.2 89.5 90.4 89.5 90.8zM89.5 71.3c0 .8.1 1.5.2 2.1h.7c-.2-1.4-.3-2.2-.3-2.4L89.5 71.3zM90.1 74.1l.3.6c0 .4-.2.6-.7.6.2 1.1.3 2.1.3 3.1.2 0 .3-.1.3-.2.4 0 .6.3.6.9h.3v-2.1l-.7.2h-.2v-.9c0-.5.2-1.2.6-1.8l-.3-.6L90.1 74.1zM91 90.8h-.6c0-.4-.2-.9-.7-1.6 0-.3.2-.5.7-.6L91 90.8zM90.4 93.2v.6h-.7v-1.2C90.2 92.7 90.4 92.8 90.4 93.2zM91.3 79.5l-.7-.3c0 .2-.2.3-.6.3v1.2l1.8 4.5c.2 1 .7 2.4 1.6 4h.2v-.3c0-.4-.3-1.2-.9-2.4.2-1.1.3-1.7.3-1.8-.6 0-1-.4-1.2-1.2v-.3h.7v.7h.2v-.3c-.2-.3-.2-.8-.2-1.5-.2 0-.3.1-.3.2-.6-.2-.9-.8-.9-1.8h.6v-1.2L91.3 79.5zM91.9 90.5v.6c-.3 0-.6-.4-.9-1.2v-.2h.7C91.7 89.8 91.7 90.1 91.9 90.5zM92.8 93.6v.2l-.2.7c-.3 0-.7-.8-1.2-2.5v-.2C91.6 91.7 92.1 92.4 92.8 93.6zM92.6 88.9v.3l1.8 4.5h.2v-.2c0-1.5-.6-3-1.8-4.6H92.6zM92.8 68v1.2h.7V68H92.8zM92.8 71.9c0 .4.2.6.7.6h.2c-.2-.4-.2-.7-.2-.9L92.8 71.9zM94.4 77.4v.9h.2c0-.2.1-.5.3-.9v-.3L94.4 77.4zM98.9 102.1h-.3v.6c.3 0 .9.3 1.9.9C99.7 102.6 99.2 102.1 98.9 102.1zM101.1 69.2v1.5l.3 1.2c-.3.4-.6.6-.9.6v.9l.6-.3.6.3c0-.4-.1-.9-.2-1.2l.2-.6c-.2-.8-.2-1.6-.2-2.4H101.1zM100.7 58.5c0 .4.2.7.7.7v-.9L100.7 58.5zM101.4 74.7v.6l.2 1.8c-.2.4-.2.8-.2 1 .2.4.2.7.2.9h.7v-1.9l.2-.6c-.4 0-.6-.8-.6-2.4C101.6 74.1 101.4 74.3 101.4 74.7zM102.6 80.8c0 .4.2.6.7.6 0 .2-.1.5-.3.9v.3h.3l.6-.3-.6-1.8L102.6 80.8zM102.9 79v1.2h.3V79H102.9zM104.1 108.2l-.3.6c-.6-.3-.9-.6-.9-.9v-.3h.3L104.1 108.2zM103.2 61v.3h.2c0-.3.2-.7.7-1.2v-.7C103.7 59.4 103.4 59.9 103.2 61zM103.2 73.4c0 .1.1.5.2 1.2h.3v-1.2H103.2zM103.5 57.3v1.5h.7l-.3-1.5H103.5zM103.5 70.1v1.5h.3v-1.5H103.5zM103.5 78.6V79c0 .4.2.6.7.6v-.3C104.1 78.9 103.9 78.7 103.5 78.6zM103.8 80.8c.2.4.3.7.3.9h.3v-1.2L103.8 80.8zM134.6 21.4c0 .1.2.9.6 2.5-.8-.7-1.2-1.4-1.2-2.1h-.2c-.5.4-1 .6-1.6.6v.3l1.8.3v.9c-.2 0-.5-.1-.9-.3h-.6c.2.4.3.7.3.9h.6l.9-.6c0 .2-.1.5-.3.9l.3.6v.3h-.6V25h-.3v.7h-.6c0-.6-.4-1.1-1.2-1.6 0-.2.1-.2.3-.2 0-.2-.1-.3-.3-.3 0-.2.1-.5.3-.9v-.3l-.7.3h-.2l-1-.6-.2 1.8H129v-.7h-.6v.7c.4 0 .6.4.6 1.2h.7l-.3-.6c0-.3.2-.5.6-.6v.9c.4 0 .7-.3.7-.9.4.2.7.2.9.2l-.3.7.7.9h-.3l-.6-.3c0 .2-.3.4-1 .7l-1.5-.7c0 .2-.1.3-.3.3V25h-.6v1h-.3c-.8-.5-1.2-.9-1.2-1.2v-.7h.2l.9.7c0-.8.2-1.2.7-1.2v-.6c0-.4-.2-.6-.7-.7v.9h-.9l-.6-.2-.3.6c-.2 0-.3-.1-.3-.3l-1.8 1.6.3.6c0 .4-.2.7-.6.7l-.7-.3-1.5 3.1c.2 0 .2.1.2.2v1c0 .4-.6.7-1.8.9-.4 0-.6-.2-.6-.7v-.6l1.5-1.2v-.6l-1.5.6c-.5 1.2-.9 1.8-1.2 1.8v.7c.2 0 .3-.1.3-.3 1.2.4 1.8.8 1.8 1.2.3 0 .5-.2.6-.7l.7.3c.3 0 .5-.2.6-.6 1.4.2 2.1.5 2.1.9 0 .4-.3.6-.9.6v.3l.3.6.6-.3h.3v.3c-1.6 1.1-2.5 1.8-2.5 2.1h-.6c0-.2-.1-.5-.3-.9h.3c0-1-.3-1.7-.9-1.8-1.4.8-2.3 1.7-2.8 2.7V36l1.2-.6-.2-.6v-.7h.6v.7c.2 0 .3-.1.3-.3.2 0 .6.8 1.2 2.4v.3c-.5 0-1.2.3-2.1.9-.7-.7-1-1.3-1-1.8h-.2v2.1l.2.6 1-.6v.3l-.7.9-1.5-1.2h-.3c0 .2-.1.5-.3.9h.3l-.3 1.5.3 1.2c-.4 0-.6.2-.6.6l-1.2-.6-.6.3c0 .2.1.2.2.2l-.2 1.6v.6h.6v.7c-.2 0-.5-.1-.9-.3-.4 0-.7.2-.7.6v.9h.3V46h.7v.6l-.7 1 .3.6c-.2 0-.3.1-.3.3-.4 0-.6-.2-.6-.7v-.2l.2-.7h-.9c0 .8-.2 1.2-.6 1.2l1.2 1.5c-1 0-1.6.2-1.6.7h-.6v-.7h-.3V50c.4.7.7 1.2.7 1.6.8-.5 1.2-.9 1.2-1.2.4 0 .6.2.7.6 0 .4-.2.7-.7.7l-1.5 1.2v.3c0 .4.2.6.6.6-.4.5-.6.9-.6 1.2h-.6c0-.5-.7-1-2.1-1.5v.2l.9 1.2c.2 0 .2-.1.2-.3.3 0 .8.6 1.6 1.9l-.6.9.6.9v.2h-.6l-1.9-.9c0 .4-.2.7-.6.7l.3 2.1V61h-.3l-.6-.3c0 .2-.1.5-.3.9.3 0 .5.2.6.7.8 0 1.2-.5 1.2-1.6l.9.7h.3v-1.2c-.6 0-.9-.2-.9-.7l.2-.6c.8 0 1.6.7 2.5 2.1v.6h-.3l-.6-.2c0 .4-.3.6-.9.6v.3h.6v.9c0 .1.2.9.7 2.4 0 .2-.1.5-.3.9l.3.7c-.2.3-.3.7-.3 1.2h-.6l-.3-1.5-.7.3h-.6v-.7c.8 0 1.2-.2 1.2-.6v-.3c-.7 0-1.2-.1-1.6-.2-.3.2-.8.2-1.5.2v.7l.6.9V68h-.6v.6c.2 0 .5.1.9.3v-.7h.3l.6.3c0-.3.2-.5.6-.6v1.8l.7-.3h.3c0 .4.3.9.9 1.6-.6 0-1.2-.2-1.9-.7v.3l-.6-.3c0-.2.1-.2.3-.2 0-.4-.2-.6-.7-.7 0 .5-.1.9-.2 1.2.4.5.6.9.6 1.2h.6v-.7h.3c1 .6 1.5 1 1.6 1.2v.3h-.7c-.4 0-.6-.2-.6-.7l-.9.7c-.3 0-.8-.6-1.6-1.8v-.7l.7-.9v-.2l-.7.2-.6-.2v1.2l.3.7c-.2 0-.3.1-.3.2l-.6-.2v1.2c.6 0 .9.1.9.3 0 .3.5.7 1.5 1.2v.6c-.6-.3-.9-.6-.9-.9-.2 0-.3.1-.3.3-.4 0-1-.2-1.8-.7 0 1.4-.1 2.3-.2 2.5h.6c0-.7.1-1.2.3-1.5 1 .4 1.6.9 1.8 1.5v.3c-1.4 0-2.1.7-2.1 2.1l1.2.9v-1.2l-.3-.7.6-.2c1.9.8 2.8 2.1 2.8 4h-.7c-.1-1.7-.5-2.6-1.2-2.7l-.6.2.3.7v.2l-1.6.3v.9c.3 0 .7.2 1.2.6v-1.5h.6c0 .6.3.9.9.9v.9c-.8.6-1.4.9-1.8.9v.3h1.2c.1 0 .6-.5 1.6-1.6h.9c.3 0 .5.2.6.7h-.9v.9l.9 1.2v.2l-.6.9h.9c.4 0 .6-.5.6-1.5h.3c.8.4 1.2 1.1 1.2 2.1h.2c0-.6.5-.9 1.6-.9 0 .8 1.6 1.6 4.9 2.4l-.3.7c.5.8 1 1.8 1.2 3.1l-.9.6c0-.2-.1-.5-.3-.9.2 0 .3-.1.3-.3 0-1.5-1.5-2.9-4.6-4v.3l-2.1-.7v1.6l.9-.6v.9h.6c.3 0 .5-.2.6-.7.4 0 .7.3.7.9h.2l.7-.2v.6l-.3.6-1.5-.6v.3l-1.8-.9c-.4.2-.8.2-1 .2v.3h1.2v.6H113v.3h.3c.3-.2.7-.3 1.2-.3v.3l-.2.6h.2l-.2.7-.9-.7c-.7.3-1 .7-1 1 1.9.3 2.8.7 2.8 1.2.2 0 .5-.1.9-.2.2 0 .5.1.9.2l-.3.7h1.6c.3 0 .5-.2.6-.7.2 0 .3.1.3.3l.9-.6V92c0 .4-.2.7-.7.7v.2c1.1.4 2.2 1.3 3.4 2.5 0 .2-.1.3-.3.3l.3.6v.3l-.6-.3h-.3l.3.6h-.3l-1.6-.2v1.2h.3l1.8-.9v.3l.7-.3h.2l.9.7.3-1.8h.6v.6h.7v-.6c-.4 0-.7-.4-.7-1.2h-.6V95c-.2 0-.3-.1-.3-.3-.4 0-.6.3-.6 1-.4-.2-.7-.3-.9-.3l.3-.7-.7-.9h.3l.6.3c0-.2.3-.4.9-.6l1.6.6.9-.9c1 .5 1.5 1.3 1.5 2.1h.7l-.3-.7v-.6h.3c1.2-2 1.9-3.1 2.1-3.1 0-.2-.1-.5-.3-.9 1.1-1 1.7-1.8 1.8-2.4.6.3.9.6.9.9v.2h-.6v.7c.7-.6 1.3-.9 1.8-.9l-.3-1.6-.9.7c-.4 0-.6-.4-.6-1.2-.6.3-.9.6-.9.9l-.7-.3c-.4 0-.6.2-.6.7-1.4-.2-2.1-.5-2.1-.9 0-.4.3-.7.9-.7v-.3l-.3-.6-.6.3h-.3v-.3c1.7-1.1 2.5-1.8 2.5-2.1h.6c0 .2.1.5.3.9h-.3c0 1 .3 1.7.9 1.8 1.4-.8 2.3-1.7 2.8-2.7v-.6l-1.2.6.2.7v.6h-.6v-.6c-.2 0-.3.1-.3.2-.2 0-.6-.8-1.2-2.4v-.3c.5 0 1.2-.3 2.1-.9.7.7 1 1.3 1 1.8h.2v-2.1l-.2-.6-1 .6v-.2l.7-.9 1.5 1.2h.3c0-.2.1-.5.3-.9h-.3l.3-1.5-.3-1.2c.3 0 .5-.2.6-.6l1.2.6.6-.3c0-.2-.1-.2-.2-.2l.2-1.6v-.6h-.6v-.7c.2 0 .5.1.9.3.3 0 .5-.2.7-.6v-.9h-.3v.6h-.7v-.6l.7-.9-.3-.7c.2 0 .3-.1.3-.2.3 0 .5.2.6.6V71l-.2.6h.9c0-.8.2-1.2.6-1.2l-1.2-1.5c1 0 1.6-.2 1.6-.7h.6v.7h.3v-.3c-.4-.7-.7-1.2-.7-1.5-.8.5-1.2.9-1.2 1.2-.4 0-.7-.2-.7-.6 0-.4.3-.6.9-.6.3-.8.7-1.2 1.2-1.2v-.3c0-.3-.2-.5-.6-.6.4-.5.6-.9.6-1.2h.6c0 .5.7 1 2.1 1.6v-.3l-.9-1.2c-.2 0-.2.1-.2.3-.3 0-.8-.6-1.6-1.8l.6-.9-.6-.9v-.3h.6l1.9.9c0-.4.2-.6.6-.6l-.3-2.1v-.7h.3l.6.3c0-.2.1-.5.3-.9-.4 0-.6-.2-.6-.6-.8 0-1.2.5-1.2 1.5l-.9-.6h-.3v1.2c.6 0 .9.2.9.7l-.2.6c-.8 0-1.7-.7-2.5-2.1V57h.3l.6.3c0-.4.3-.7.9-.7v-.2h-.6v-1l-.7-2.4c0-.2.1-.5.3-.9l-.3-.6c.2-.4.3-.8.3-1.2h.6l.3 1.5.7-.2h.6v.6c-.8 0-1.2.2-1.2.6v.3c.7 0 1.2.1 1.6.3.3-.2.8-.3 1.5-.3v-.6l-.6-.9v-1h.6V50c-.2 0-.5-.1-.9-.3v.7h-.3l-.6-.3c0 .4-.2.6-.6.6v-1.8l-.7.3h-.3c0-.3-.3-.8-.9-1.5.5 0 1.2.2 1.9.6v-.3l.6.3c0 .2-.1.3-.3.3 0 .4.2.6.7.6 0-.4.1-.9.2-1.2-.4-.5-.6-.9-.6-1.2h-.6v.7h-.3c-1-.5-1.5-1-1.6-1.2v-.3h.7c.3 0 .5.2.6.7l.9-.7c.3 0 .8.6 1.6 1.9v.6l-.7.9v.3l.7-.3.6.3v-1.2l-.3-.6c.2 0 .3-.1.3-.3l.6.3v-1.2c-.6 0-.9-.1-.9-.3 0-.3-.5-.7-1.5-1.2v-.6c.6.3.9.6.9.9.2 0 .3-.1.3-.3.4 0 1 .2 1.8.7 0-1.4.1-2.3.2-2.5H147c0 .7-.1 1.2-.3 1.6-1-.4-1.7-1-1.8-1.6v-.3c1.4 0 2.1-.7 2.1-2.1l-1.2-.9v1.2l.3.7-.6.2c-1.9-.8-2.8-2.1-2.8-4h.7c0 1.4.4 2.4 1.2 2.8l.6-.3-.3-.6v-.3l1.6-.3c0-.1-.2-1.2-.7-3.3 0-.4.2-.6.7-.7.5 0 .9 1 1.2 3.1l.7-.3-.3-.6v-.6h.7c0 .7.1 1.2.2 1.5l.7-.3c0-.3-.2-.5-.7-.6 0-.2.1-.5.3-.9-.3-.6-.6-.9-.9-.9l-.7.3c0-1.1-.1-2-.2-2.8.2 0 .2-.1.2-.2-.6-.3-.9-.6-.9-.9-.3 0-.6.4-.9 1.2.2 0 .4.3.7.9-.4.6-.7 1.1-.7 1.6l-1.2-.9c0 .2.1.5.2.9v.3c-.4 0-1.2.6-2.1 1.8h-.9c-.4 0-.6-.2-.6-.7h.9V36l-.9-1.5.3-.7c.4 0 .7.7.9 2.1h.2c0-.3.4-.7 1.2-1.2v-.3h-1.2c-.6-1.2-1.1-1.8-1.5-1.8v.2c-.8-.5-1.2-.9-1.2-1.2v-.7c.3 0 .5.2.7.7 2.2.8 3.3 1.6 3.3 2.4.4-.2.7-.3.9-.3l-.9-2.1c.3 0 .5-.2.7-.7l.9.7-.3-1.2c-.2 0-.3.1-.3.3-.4 0-.6-.3-.6-.9h-.9v.6h.6v.6h-.6c-.4 0-.7-.2-.7-.6v-.3l.3-.6c-.2 0-.3-.1-.3-.3.4-.8.8-1.2 1.2-1.2 0-.3-.2-.5-.6-.6v.6c-.5 0-1.6-.8-3.4-2.4h-.6c0 .2.4 1.1 1.2 2.7l-.3.6c.3.7.6 1 .9 1 0-.7.2-1 .6-1h.3v1h-.6l.6.9c0 .4-.2.6-.6.6h-.9c0-.2.1-.5.2-.9-.9-.5-1.4-1-1.5-1.6l-.7.3c-.4 0-.6-.2-.6-.6v-.3l.6.3c.4 0 .6-.2.7-.7 0-.3-.2-.5-.7-.6h-.2l-.7.3-.9-1.6h.3l.6.3c-.4-1.3-.6-2.1-.6-2.5H137c0 .5-.1.9-.2 1.2l-.7-.3c0 .7-.2 1-.6 1h-.3c0-.8-.2-1.2-.6-1.2v-.7c.6 0 .9-.2.9-.6l.6.3v-.3c-.6-.6-.9-1.3-.9-2.1H134.6zM104.5 78.3v.3c.2.3.2.7.2 1.2h.3v-.7c-.2-.4-.3-.7-.3-.9H104.5zM105.6 42.4c0 .2-.1.5-.2.9v.3h.2c0-.2.1-.5.3-1v-.2H105.6zM106.3 62.8v2.1h.2v-1.2h.3l.6.3c0 .4.7.9 2.1 1.5l-.2-1.2c-1-.4-1.6-.9-1.6-1.5H106.3zM106.8 40.8v.3h.6v-.9C107 40.3 106.8 40.5 106.8 40.8zM110.5 74.7c0 .4-.2.6-.6.6h-.6v-.6h-.7c0 .4-.2 1-.6 1.8-.4 0-.7-.2-.7-.6l.3-.7c-.2 0-.3-.1-.3-.2v-.3c.6 0 .9-.4.9-1.2h.3C108.7 74.1 109.3 74.6 110.5 74.7zM108.3 55.4h-.2c0 .2-.1.6-.3 1V57c.5-.4 1-.6 1.6-.6C109 55.8 108.7 55.4 108.3 55.4zM108.1 108.2h-.3v.6h.9C108.7 108.4 108.5 108.2 108.1 108.2zM108.3 7.1h-.2V6.8c0-.3.2-.5.6-.6h.7C109 6.8 108.7 7.1 108.3 7.1zM108.1 83.5v.3h1.2v-.3H108.1zM108.3 52.1v.3c0 .4.2.6.7.6h.6v-.9H108.3zM109.6 77.1h-1.2l.3-1.8C109.2 75.2 109.5 75.9 109.6 77.1zM112.3 5v.6c-.3 0-1.2.2-2.7.7 0-.1.5-.6 1.6-1.6C111.9 4.8 112.2 5 112.3 5zM111.1 7.7h-.3l-.6-.3c0-.3.2-.5.6-.6h.3V7.7zM110.5 107.8h-.2c0 .4 1.7 1.5 5.1 3.4.4 0 .6-.2.7-.7v-.9c-.2 0-.5.1-.9.3-1.4-.5-2.1-.9-2.1-1.2H112L110.5 107.8zM112.6 79l-.3.6c-1.2 0-1.8-.7-1.8-2.1v-.3C111.2 78.2 112 78.9 112.6 79zM110.8 44.2v1.2l.6-.3v-1.2L110.8 44.2zM112 85.6h-.9v.2c.7 0 1.2.1 1.5.3h.3v-.3C112.7 85.9 112.4 85.8 112 85.6zM112.3 82h-.9v-1.6h.7L112.3 82zM111.7 43v.3c.5-.8 1-1.2 1.2-1.2v-1.2C112.6 40.8 112.2 41.6 111.7 43zM113.5 4.4c0 .4-.2.6-.6.6h-.3V4.6c0-.3.2-.5.7-.6h.2V4.4zM113.3 39.4l-.7.3c.3.8.6 1.2.9 1.2h.3l-.3-1.5H113.3zM113.9 56.7V57c-.2 0-.5.1-.9.3 0-.2-.1-.3-.3-.3l.7-.9C113.6 56.1 113.8 56.3 113.9 56.7zM113.5 60.1h-.2c-.4 0-.7-.2-.7-.7v-.6h.7C113.3 59.3 113.4 59.7 113.5 60.1zM114.2 5.5c-.3.6-.6.9-.9.9H113c.5-.8.9-1.2 1.2-1.2V5.5zM113.5 36v.9h.3c.3 0 .5-.2.6-.6V36H113.5zM114.8 43.3c0 .4-.2.6-.6.6-.4 0-.7-.2-.7-.6.2 0 .5-.1.9-.3C114.4 43.2 114.5 43.3 114.8 43.3zM114.4 54.9h-.6v-.3c0-.3.2-.5.6-.6V54.9zM114.8 82.6l-.3.6-.6-.2.3-.7L114.8 82.6zM114.2 37.8v1.6h.2c0-.2.1-.5.3-.9-.2 0-.3-.2-.3-.7H114.2zM115.3 49.1l.3.6c-.4.5-.6.9-.6 1.2h-.9v-.3c0-.3.2-.5.6-.6l-.3-1.5v-.3h1.2C115.7 48.4 115.6 48.7 115.3 49.1zM116 5.3c0 .4-.2.6-.7.6V4.6h.7V5.3zM117.2 32.7c0 .6-.6 1.2-1.8 1.8v1.2h.3c0-.7.6-1.4 1.8-2.1v-.9H117.2zM116.6 45.7h-.3l-.6-.2c.2-.4.3-.7.3-.9h.6V45.7zM116.9 94.5H116v.2c.2 0 .5.1.9.3h.6C117.5 94.7 117.3 94.5 116.9 94.5zM118.4 2.5l-1.5 1.2c-.4 0-.7-.2-.7-.6.3 0 .9-.3 1.9-.9C118.2 2.4 118.2 2.5 118.4 2.5zM116.3 110l.7 1.2c.5 0 1.3-.1 2.4-.3l1.6.9v-.3c0-.2-.6-.6-1.8-1.2l-.9.6h-.7V110H116.3zM118.2 41.7c-.8-.3-1.2-.6-1.2-.9h1.2V41.7zM118.2 47.3v.3l-.7.9-.6-.3c0-.4.2-.9.6-1.6C117.8 46.6 118 46.8 118.2 47.3zM118.4 4h-.6c0-.3.2-.5.6-.7h.7C119.1 3.8 118.8 4 118.4 4zM117.8 100.8v.7h1.2v-.7H117.8zM118.4 35.7l-.2 1.5h.2l.7-.3c-.2-.7-.3-1.1-.3-1.2H118.4zM119.1 97.2c0 .6-.3.9-.9.9v.3h1.8C119.6 97.6 119.3 97.2 119.1 97.2zM119.3 95.4c-.3 0-.6.4-.9 1.2.2 0 .5.1.9.2 0-.2-.1-.5-.2-.9 0-.2.2-.2.6-.2v-.3H119.3zM120 1.9l-.3.6-.6-.2.2-.7L120 1.9zM119.1 27.1v.3h1.2v-.6L119.1 27.1zM120.9 35.7c0 .4-.2.6-.7.6H120V36c0-.3.2-.5.6-.6h.3V35.7zM123 1.3h-.3c-1 1.4-1.8 2.1-2.1 2.1h-.3l.3-.6c.4 0 1-.7 1.8-2.1h.7V1.3zM120.9 32.3l.2 1.5h.3v-.2l-.3-.7.3-.6V32L120.9 32.3zM120.9 95V96h.9c-.2-.4-.3-.7-.3-.9H120.9zM122.4 40.3c0 .4-.2.6-.6.6h-.3v-.2l.3-.7L122.4 40.3zM122.7 112.7l-.6-.2-.3.6h2.1l-.3-.6C123.4 112.5 123.1 112.5 122.7 112.7zM123.6 29v.7c-.2 0-.5.1-.9.3h-.3v-.7l.3-.6C123.1 28.9 123.4 29 123.6 29zM124.2 27.8h-.6v-.7c.3-.6.6-.9.9-.9h.3C124.4 26.9 124.2 27.4 124.2 27.8zM125.7 25.3h-.3l-.6-.3c0 .2-.1.3-.3.3h-.3c.4-.7.7-1.2.7-1.5h.6L125.7 25.3zM125.1 20.1v.3c.2 0 .5.1 1 .3v-.7H125.1zM127.2 19.9c-.6 0-.9.2-.9.6l1.2-.3v-.2H127.2zM127 94.7c0 .8-.2 1.2-.7 1.2v.7c0 .4.2.6.7.6 0-.8.4-1.2 1.2-1.2C127.6 95.1 127.3 94.7 127 94.7zM127.6 99c-.4.2-.7.3-.9.3v.3h.3c.4-.2.7-.3.9-.3V99H127.6zM127.6 92.3h-.3l.3-.6-.3-.7.7-.2h.6C128.3 91.8 128 92.3 127.6 92.3zM128.1 98.7v.7h.9V99C128.8 99 128.5 98.9 128.1 98.7zM129.9 93.8c0 .6-.2 1.1-.6 1.6V96c.6-.3.9-.6.9-.9.4 0 .7.3.7.9h.2V95h-.6c0-.2.1-.3.3-.3C130.6 94.1 130.3 93.8 129.9 93.8zM130.6 78.1l-.3.6-.6-.3c0-.3.2-.5.6-.6h.3V78.1zM131.5 6.2c0 .2-.4.2-1.2.2l.3.7c.2 0 .5-.1.9-.3l.6.3.3-.7C132.2 6.4 131.9 6.4 131.5 6.2zM130.6 84.7V85l.3.7-.3.6v.3l.6-.3-.2-1.5H130.6zM131.8 90.2v1.6c-.8.9-1.2 1.5-1.2 1.8v.2l.6-.2.7.2c.2-.7.5-1.6 1.2-2.7v-1.2L131.8 90.2zM132.1 82.6c0 .4-.2.6-.6.6h-.3v-.2c0-.4.2-.6.7-.7h.2V82.6zM131.8 118.8h-.7v-.6h.3c1-1.4 1.8-2.1 2.1-2.1h.2C133.3 116.7 132.6 117.7 131.8 118.8zM133.7 81.4l-.7.3.3 1.2h.3l.2-1.6H133.7zM133.3 7.7V8c0 .3.6.7 1.8 1.2l.9-.7h.7v.9h.6c0-.2.1-.5.3-.9-.2 0-.3-.1-.3-.2-.5 0-1.3.1-2.4.2L133.3 7.7zM135.1 70.4c0 .4-.2.9-.6 1.6-.4 0-.7-.2-.7-.7V71l.7-.9L135.1 70.4zM135.1 77.7h-1.2v-.9C134.7 77.1 135.1 77.4 135.1 77.7zM135.1 117.3l-.2.6-.7-.3.3-.6L135.1 117.3zM136.7 82.3c0 .8-.7 1.7-2.1 2.7v.9h.3c0-.5.6-1.2 1.8-1.8v-.9l.2-.6v-.3H136.7zM135.8 116.1h-.7c0-.3.2-.5.7-.7h.6C136.4 115.9 136.2 116.1 135.8 116.1zM136.4 73.1c-.2.4-.3.8-.3 1h-.6v-1.2h.3L136.4 73.1zM137.9 116.3c-.3 0-.9.3-1.8 1 0-.2-.1-.3-.2-.3l1.5-1.2C137.6 115.8 137.8 116 137.9 116.3zM136.4 31.1h-.3v-.6c.2 0 .5-.1.9-.3h.3C137 30.8 136.7 31.1 136.4 31.1zM137.3 18.3h-.9v.9c.3-.2.8-.2 1.5-.2C137.9 18.6 137.7 18.4 137.3 18.3zM136.4 22.6v.9h.6c-.2-.4-.2-.7-.2-.9H136.4zM137.9 68c0 .4-.2.6-.6.6l.3 1.6v.2h-1.2c0-.2.1-.5.3-.9l-.3-.6c.4-.5.6-.9.6-1.2h.9V68zM137 21.7v.6l2.1.7c.3 0 .5-.2.7-.7-.2 0-.5-.1-1-.2l-1.2.2v-.6H137zM138.8 24.1c0-.6-.5-.9-1.5-.9v.3c0 .4.8.9 2.5 1.2 0-.2.1-.5.2-.9v-.7L138.8 24.1zM138.2 32.9c-.4-.2-.7-.2-.9-.2v-.3h.9V32.9zM138.2 35.7l-.3.6-.6-.3.3-.6L138.2 35.7zM138.5 75.2c-.2 0-.5.1-.9.3 0-.2-.1-.3-.3-.3 0-.3.2-.5.6-.6C138.3 74.7 138.5 74.9 138.5 75.2zM137.6 79.2c0 .2-.1.5-.3.9.2 0 .3.2.3.7h.2v-1.6H137.6zM138.2 64c0 .4-.2.6-.6.6v-.9h.6V64zM138.2 81.7c-.4 0-.6.2-.6.6v.3h.9v-.9H138.2zM137.9 8.6c.2.4.3.7.3.9h.9c.7.6 1.4 1 2.1 1.2h.9l.6.3c0-.2-.3-.5-.9-.9-1.8-1-2.7-1.6-2.7-1.8L137.9 8.6zM139.4 61.6l-.7.9c-.4 0-.6-.2-.6-.6v-.3c.2 0 .5-.1.9-.2C139.1 61.5 139.2 61.6 139.4 61.6zM138.5 77.7h-.3l.3 1.5h.2l.7-.2C139.1 78.1 138.8 77.7 138.5 77.7zM138.8 114.9h-.6v-.6c0-.4.2-.6.6-.7V114.9zM138.5 25v.3c0 .4.2.7.6.7v-1H138.5zM139.4 59.2v.6h-.7c0-.4-.1-.9-.2-1.2h.2C139.2 58.5 139.4 58.7 139.4 59.2zM140 33.8v.7h-.2c-.4 0-.7-.2-.7-.7v-.2C139.5 33.7 139.8 33.8 140 33.8zM139.1 76.5v1.2c.3 0 .7-.7 1.2-2.1v-.3C139.8 76.1 139.4 76.5 139.1 76.5zM141.6 41.2v.3c-.8-1.2-1.5-1.8-2.1-1.8l.3-.7C141 39 141.6 39.7 141.6 41.2zM140.7 38.1H140l-.2-1.5h.9V38.1zM140 114.3v-.3c.3-.6.6-.9.9-.9h.3C140.8 113.9 140.3 114.3 140 114.3zM140.7 20.8v1.5l.6-.2-.3-1.2H140.7zM140.7 24.8v.9h.6c-.2-.4-.3-.7-.3-.9H140.7zM140.7 73.4v1.2l.6-.3v-1.2L140.7 73.4zM141.6 114.9c0 .4-.2.6-.7.6h-.2v-.2c0-.4.2-.6.6-.7h.3V114.9zM144.6 42.7l-.3.7c.2 0 .3.1.3.3v.2c-.6 0-.9.4-.9 1.2h-.3c0-.7-.6-1.1-1.8-1.2 0-.3.2-.5.6-.6h.6v.6h.7c0-.4.2-1 .6-1.8C144.3 42.1 144.5 42.3 144.6 42.7zM146.1 112.7c-2 1.2-3.1 1.9-3.1 2.1l-1.2-.3v-.6c1.1 0 2.4-.5 4-1.5h.3V112.7zM142.2 24.8V26h.6c-.2-.4-.2-.8-.2-1.2H142.2zM143.4 43.3c-.6-.2-.9-.8-.9-1.8h1.2L143.4 43.3zM144.6 54.5c0-.4-.7-.9-2.1-1.5 0 .2.1.5.2.9l1.6 1.8h1.5v-2.1h-.2v1.2h-.3L144.6 54.5zM143.1 65.5h-.6v.9h1.2v-.2C143.7 65.8 143.5 65.6 143.1 65.5zM142.7 62.2c.3.6.7.9 1 .9h.2c0-.2.1-.5.3-.9v-.7C143.8 62 143.3 62.2 142.7 62.2zM144 112.1c0 .4-.2.6-.6.6h-.3v-.9h.3L144 112.1zM145.2 37.5V39h-.6c0-.6-.3-.9-.9-.9v-.9c.2 0 .5-.1.9-.3C145 36.9 145.2 37.1 145.2 37.5zM144.6 11.1c.4.5.6.9.6 1.2h.3V12c-.2-.4-.3-.7-.3-.9H144.6zM144.6 77.4v.9c.3 0 .5-.2.6-.6v-.3H144.6zM145.8 29.6c0 .2.1.3.3.3 0 .2-.1.5-.3.9v.2h.3v-.2h1.2C147.2 30.4 146.7 30 145.8 29.6zM146.1 12v.6c.2 0 .5.1.9.3C146.7 12.3 146.4 12 146.1 12zM146.5 75c0 .2-.1.5-.3.9v.2h.3c0-.2.1-.5.2-.9V75H146.5zM147 38.8v.6c.2.4.3.7.3.9h.2v-.3c-.2-.3-.2-.7-.2-1.2H147zM149.2 10.7v.3h-.3l-.9-.7.3-.6C148.9 10.1 149.2 10.5 149.2 10.7zM147.9 39v.3c0 .4.2.6.7.6v-.2C148.6 39.3 148.4 39.1 147.9 39zM148.6 57.3c0 .3-.2.7-.7 1.2v.7c.4 0 .7-.5.9-1.6v-.2H148.6zM147.9 59.7l.3 1.6h.3v-1.6H147.9zM148.3 32.3v.3c0 .6.2.9.6.9l-.2-1.2H148.3zM148.3 43.9v1.2h.6l-.2-1.2H148.3zM148.3 46.9v1.6h.3v-1.6H148.3zM148.6 13.2v.2c.3 0 .7.2 1.2.7l-.2-1.2C149.1 13.1 148.8 13.2 148.6 13.2zM148.8 38.4v1.2h.3v-1.2H148.8zM149.8 39.7v1.8l-.2.6c.4 0 .6.8.6 2.5.3 0 .5-.2.6-.7v-.6l-.2-1.8c.2-.4.2-.7.2-.9-.2-.4-.2-.7-.2-.9H149.8zM151 45.5l-.6-.3c0 .4.1.9.2 1.2l-.2.6c.2.8.2 1.6.2 2.5h.3v-1.6l-.3-1.2c.3-.4.6-.6.9-.6v-.9L151 45.5zM150.7 59.4v1l.7-.3C151.3 59.7 151.1 59.5 150.7 59.4zM151.6 95.4c-.4 0-.6.2-.6.6v.3c.6-.3.9-.6.9-.9H151.6zM153.7 24.1h-.2l.6 1.2.6-.3C154.3 24.4 154 24.1 153.7 24.1zM153.7 20.8v.3c.3.6.6.9.9.9v-.3C154.3 21.1 154 20.8 153.7 20.8zM154.4 33.6v.2h.9v-.2l-.3-.7C154.6 32.9 154.4 33.1 154.4 33.6zM156.5 23.2v.3c0 .6.2.9.6.9l-.3-1.2H156.5zM157.1 24.8v.6c.7 2 1.4 3.5 2.1 4.3h.2v-.3l-1.8-4.5H157.1zM157.4 40.3c0 .2-.1.5-.3.9v.3l.6-.3v-.9H157.4zM158.3 29.3v.3c0 .5.3 1.3.9 2.4-.2 1.1-.3 1.7-.3 1.8.6 0 1 .4 1.2 1.2v.3h-.7v-.6h-.2v.2c.2.3.2.9.2 1.6.2 0 .3-.1.3-.3.5 0 .8.6.9 1.8h-.6v1.2l.6-.3.7.3c0-.2.2-.3.6-.3v-1.2l-1.8-4.5c-.2-1-.7-2.4-1.6-4H158.3zM158.6 46h-.2c.2.4.2.7.2.9l.7-.3C159.2 46.3 159 46.1 158.6 46zM158.6 49.4v1.2h.7v-1.2H158.6zM160.7 26.6v.3c-.2 0-.7-.6-1.5-1.9v-.2l.2-.7C159.8 24.1 160.2 24.9 160.7 26.6zM161.1 28.7V29h-.7c0-.2-.1-.5-.2-.9v-.6C160.4 27.5 160.7 27.9 161.1 28.7zM160.7 39.7v2.1l.7-.2h.2v.9c0 .6-.2 1.2-.6 1.8l.3.6.6-.2-.3-.7c0-.3.2-.5.7-.6-.2-1-.3-2.1-.3-3.1-.2 0-.3.1-.3.3-.4 0-.6-.3-.6-.9H160.7zM162.3 29.3c0 .4-.2.7-.7.7 0-.2-.2-.9-.6-2.1h.6C161.6 28.1 161.9 28.6 162.3 29.3zM162.3 26c-.4 0-.7-.2-.7-.7v-.6h.7V26zM161.6 45.1c0 .2.1 1 .3 2.5l.6-.3c0-.8-.1-1.5-.2-2.1H161.6zM163.4 28.1v.3h-.2c-.4 0-.7-.2-.7-.6v-.3h.3C163.2 27.5 163.4 27.7 163.4 28.1zM162.9 82.9v-.7l2.7-2.7h.3C165.4 80.9 164.4 82 162.9 82.9zM164.1 85.3l-.7.9c-.4 0-.6-.2-.6-.6v-.3c0-.3.2-.5.6-.6h.7V85.3zM163.8 71c0 .6-.2.9-.6.9l.2.6c.4 0 .6-.2.7-.6V71H163.8zM163.8 48.5c0 .7-.1 1.2-.3 1.5h.3l-.3 1.6c.2.4.3.7.3.9h.3c0-.2.1-.5.2-.9 0-.3-.1-1.3-.2-3.1H163.8zM163.4 57.9v1.2h.3v-1.2H163.4zM166.3 85c-.7 1.4-1.2 2.1-1.6 2.1h-.3v-.2l.7-1v-.6l-.3-.6.9-.7-.2-.6c0-.3.2-.5.6-.6L166.3 85zM164.7 61.6v.3c0 .4.2.6.7.6v-.9H164.7zM165.9 35.7V36h-.3l-.6-.2.3-.7C165.7 35.1 165.9 35.3 165.9 35.7zM166.8 76.5c-.5.8-.9 1.2-1.2 1.2H165v-.3c.8-.4 1.2-1 1.2-1.8h.2C166.5 75.8 166.6 76.1 166.8 76.5zM166.5 37.2l-.2.6-.7-.2.3-.7L166.5 37.2zM166.5 82h-.6v-.3c0-.3.4-.6 1.2-.9h.2C167.1 81.6 166.8 82 166.5 82zM167.2 46.6v1h-.7c0-.2-.1-.5-.2-1v-.2C166.6 46.5 166.9 46.6 167.2 46.6zM168.1 71.9v.6c0 .4-.2.6-.7.6h-.2v-1.2l.2-.7C167.8 71.3 168 71.5 168.1 71.9zM167.7 78.3h-.6l.2-1.2h.7L167.7 78.3zM169.6 67.1c-.9 1.6-1.5 2.4-1.8 2.4h-.3v-.2c.6-.5.9-1.4.9-2.5.8 0 1.6-.6 2.5-1.8h.3C171.1 66.4 170.6 67.1 169.6 67.1zM169 73.4c0 1-.3 1.6-.9 1.8h-.3V75c.4-.5.6-1.2.6-2.1h.7V73.4zM169.9 70.4c-.2.4-.3.7-.3.9H169v-.6l.2-.6L169.9 70.4zM171.4 63.4h-.6v-1.2h.6V63.4zM171.7 52.5h-.6v-.9h.6V52.5zM180.3 67.1h-.6v-.9h.6V67.1zM180.6 56.4H180v-1.2h.6V56.4zM184 49.4c-.6.5-.9 1.3-.9 2.4-.8 0-1.6.6-2.5 1.8h-.3c0-1.4.5-2.1 1.6-2.1.9-1.7 1.5-2.5 1.8-2.5h.3V49.4zM182.4 47.9l-.2.7-.7-.3c.2-.4.3-.7.3-.9h.6V47.9zM183.7 43.6c-.4.4-.6 1.1-.6 2.1h-.7v-.6c0-1 .3-1.6.9-1.8h.3V43.6zM184 41.5h-.7l.3-1.2h.6L184 41.5zM184.2 46.6l-.2.7c-.4 0-.7-.2-.7-.7V46c0-.3.2-.5.7-.6h.2V46.6zM185.5 36.9c0 .3-.4.6-1.2.9H184c.3-.8.6-1.2.9-1.2h.6V36.9zM185.1 71.9v.2c-.4-.2-.7-.2-.9-.2V71h.7C184.9 71.3 185 71.6 185.1 71.9zM231.4 5.3c.8 0 1.2.2 1.2.6h.3l1.2-.9v.3c1.6.8 2.4 1.4 2.4 1.8.3 0 .5-.2.6-.7V6.2h-.6V5.5c1.8.3 2.7.8 2.7 1.6h.3l.6-.3c0 .2.1.3.3.3l-.3.6c-.3 0-1.1-.2-2.4-.6h-.3v.2c2 .4 3.1.9 3.1 1.6.3 0 .5-.2.6-.6h-.6V8h1.2v.6c.2 0 .2-.1.2-.2.4 0 .7.4.7 1.2h.9V9.2l-.3-.7h.3c1.8 1.1 2.7 1.8 2.7 2.1h-1.2v.6c.4 0 .9.3 1.6.9h.2l-.2-.6v-.6h.2c.7 1 1.4 1.5 2.1 1.5 2 2.4 3.1 3.6 3.4 3.6h.3v-.6c-.5 0-1.7-1.4-3.4-4.3v-.2c.2 0 .3.1.3.2l.6-.2 1.8 2.4c.4 1.3 1.8 3.2 4 5.5v.2l-.2.7-.7-.3h-.3c1.7 3.7 3 6.1 4 7.3v-.7l.7.3-.3 1.5c.6 1 .9 1.8.9 2.1l.7-.2h.2c0 .4-.1.8-.2 1.2l.9 1.6c-.6 0-.9.2-.9.6v.3c1.2 1.9 1.8 3.7 1.8 5.4h.2v-.9l-.9-4.3c.2 0 .3.1.3.3.2 0 .3-.1.3-.3l.6.3c0 .2-.1.5-.3.9 1 1.8 1.6 3.2 1.6 4.3v.6h.6v.3c0 .4-.2.6-.6.6-.4 0-.7-.8-.7-2.4h-.2c0 .8-.2 1.2-.7 1.2v.2c.8.7 1.2 1.8 1.2 3.4l.7-.3c0 .4-.2 1-.7 1.8v.7h.3c0-.8.3-1.2.9-1.2l.3.6v.3c-.4 0-.9.5-1.2 1.5v1h.6v.6l-.6.9v.6l.6-.2.7.2c0-.8.2-1.2.6-1.2l-.3 2.1-.6-.2h-.3v.2c0 .4.2.7.7.7l-.9 1.5v1.6h.6v1.8c.5 0 .8.5.9 1.5-.3 1.2-.6 2-.9 2.5v.3c.6 0 .9.2.9.6l-.6.9c0 .4.2.6.6.6l-1.2 2.8h-.6v-.7H264c0 .2-.1.5-.3.9v.3h.3l.7-.3v.3l.6-.3.6.3-.9 1.5h.3c-.5 1.8-1.2 2.8-1.8 2.8v.2c.8 0 1.2.2 1.2.7 0 .4-.2.6-.7.6 0 .2.1.3.3.3-.7 3.2-1.4 4.9-2.1 4.9 0 .4.1.9.3 1.2 0 .4-.2.6-.7.6 0 .2.1.5.3.9 0 .2-.3.4-.9.6l.3.7V81c0 .4-.3.7-.9.7.4.7.6 1.3.6 1.8v.9c-.4 0-.9.1-1.2.3 0 .2.1.5.3.9-.6 1.8-1.1 2.7-1.6 2.7 0 .2.1.5.3.9-.7 1.7-1.3 2.5-1.8 2.5v.6c0 1.5-.3 2.3-.9 2.4-.5 1.5-1 2.7-1.6 3.7l1 .6h.2c0-.7.9-2.3 2.7-4.9 0-.2-.1-.5-.2-.9l1.2-1.5c-.2 0-.2-.1-.2-.3l1.8-2.7v-.3l-.6.3h-.3l.3-1.2h.2l.7.3c0-.4.2-.6.6-.7h.3v.7l-1.8 3.3c-1.2 4.3-3.2 8.2-6.1 11.6v.3l1.8-1.5c1.2-2.5 2.2-3.7 3.1-3.7 0-.2-.1-.2-.3-.2.8-3.2 1.7-4.9 2.7-4.9l-.6-.9h.6c1-2.5 1.6-3.7 1.8-3.7h.3v.3c0 1.1-.4 1.8-1.2 2.1 0 .4.1.9.3 1.2L261 95c-.8 2.4-1.4 3.6-1.8 3.6 0 1.3-1.5 3.1-4.5 5.5-1 2.6-3.8 5.3-8.3 8.3h-.9c1.2-1 1.8-1.6 1.8-1.9 2.6-1.4 4.4-3 5.5-4.9-1.6 1.7-2.6 2.5-3.1 2.5l-5.5 4-.6-.3c.2-.4.3-.7.3-.9 2.2-.9 3.3-1.7 3.3-2.4.2 0 .3.1.3.2 2.1-1.2 3.3-2.3 3.6-3.3v-.3h-.3c-2.3 1.6-3.7 2.4-4.2 2.4-.7 1.3-2.3 2.2-4.6 2.8 0 .2.1.2.3.2l-.3.7-1.5-.7v.3c-1.8.6-3.3 1.4-4.5 2.5h-1.6v.6h-.6v-.6h-.3c-1 .8-1.8 1.2-2.4 1.2v-.6c-1 .8-1.7 1.2-1.9 1.2l-.6-.3c0 .2-.1.3-.3.3-.4 0-.6-.3-.6-.9l-1.2.9h-1.5l.3-.7c-.8 0-1.2-.2-1.2-.6h-.7l-.9.6-.6-.2c0 .6-.2.9-.6.9h-.7l.7-.9v-.3c-.2 0-.6.1-1 .3-.2 0-.2-.2-.2-.7h-.3l-1.2.9v-.2c-1.6-.9-2.4-1.5-2.4-1.8-.4 0-.7.2-.7.6v.3h.7v.6c-.8 0-1.8-.5-3.1-1.5l-.6.2c0-.2-.1-.2-.3-.2l.3-.7c.3 0 1.1.2 2.4.7h.3v-.3c-2-.4-3.1-.9-3.1-1.6h-.7v.7h.7v.2h-1.2v-.6c-.2 0-.3.1-.3.3-.4 0-.6-.4-.6-1.2h-.9v.3l.3.6h-.3l-2.7-1.8c0-.2.1-.3.2-.3l-.2-.6.2-.7c-.2 0-.2-.1-.2-.2-.4 0-.7.3-.7.9h-.6l.3-.7v-.2c0-.3-.2-.5-.7-.7-.6.3-.9.6-.9.9-1-.6-1.5-1.3-1.5-2.1h-.7v.6h-.2c-.9-1.2-1.7-1.8-2.1-1.8v.3l1.8 2.7v.2c-.2 0-.3-.1-.3-.2l-.6.2-1.8-2.4c-.4-1.3-1.8-3.1-4-5.4V99h.6v.7h.3c0-.2.1-.5.3-1 0-.1-1.3-2.4-4-6.9v.6l-.7-.3.3-1.5c-.6-1-.9-1.8-.9-2.1l-.7.3h-.2c0-.5.1-.9.2-1.2l-.9-1.6c.6 0 .9-.2.9-.6V85c-1.2-1.9-1.8-3.7-1.8-5.4H188v.9l.9 4.3c-.2 0-.3-.1-.3-.3-.2 0-.3.1-.3.3l-.6-.3c0-.2.1-.5.3-.9-1-1.8-1.6-3.2-1.6-4.3v-.6h-.6v-.3c0-.3.2-.5.6-.6.4 0 .7.8.7 2.4h.2c0-.8.2-1.2.7-1.2v-.3c-.8-.7-1.2-1.8-1.2-3.4l-.7.3c0-.4.2-1 .7-1.8v-.7h-.3c0 .8-.3 1.2-.9 1.2l-.3-.6v-.3c.4 0 .9-.5 1.2-1.5V71h-.6v-.7l.6-.9v-.6l-.6.3-.7-.3c0 .8-.2 1.2-.6 1.2l.3-2.1.6.2h.3V68c0-.3-.2-.5-.7-.7l.9-1.5v-1.6h-.6v-1.8c-.5 0-.8-.5-.9-1.5.3-1.2.6-2 .9-2.5v-.2c-.6 0-.9-.2-.9-.7l.6-.9c0-.3-.2-.5-.6-.6l1.2-2.7h.6V54h.3c0-.2.1-.5.3-.9v-.3h-.3l-.7.3v-.3l-.6.3-.6-.3.9-1.5h-.3c.5-1.8 1.2-2.7 1.8-2.7v-.3c-.8 0-1.2-.2-1.2-.6s.2-.6.7-.7c0-.2-.1-.3-.3-.3.7-3.2 1.4-4.9 2.1-4.9 0-.4-.1-.8-.3-1.2 0-.4.2-.6.7-.7 0-.2-.1-.5-.3-.9 0-.2.3-.4.9-.6l-.3-.7v-.2c0-.4.3-.7.9-.7-.4-.7-.6-1.3-.6-1.8v-.9c.4 0 .9-.1 1.2-.3 0-.2-.1-.5-.3-.9.5-1.7 1.1-2.6 1.6-2.7 0-.2-.1-.5-.3-.9.7-1.6 1.3-2.4 1.8-2.4v-.7c1.2-4.1 3-7.6 5.4-10.6h-.2c-1.2.8-1.8 1.4-1.8 1.8-.4.1-2 2.4-4.9 7 0 .2.1.5.2.9l-1.2 1.6c.2 0 .2.1.2.2l-1.8 2.8v.2L190 30h.3l-.3 1.2h-.2l-.7-.2c0 .4-.2.6-.6.6h-.3v-.6c.6-.8 1.5-2.8 2.8-6.1 1.3-4 3.3-7.2 6-9.5V15c-.2 0-.9.5-2.1 1.5-1.8 2.9-3 4.3-3.7 4.3 0 .2.1.3.3.3-.8 3.2-1.7 4.9-2.7 4.9l.6.9h-.6c-1 2.4-1.6 3.6-1.8 3.6h-.3v-.3c0-1.1.4-1.8 1.2-2.1 0-.4-.1-.8-.3-1.2l2.1-3.4c.8-2.4 1.4-3.6 1.8-3.6 0-1.3 1.7-3.3 5.2-6.1.4 0 .8.1 1.2.3l1.2-.7c1-1.7 3.5-3.8 7.3-6.4h.6v.6c-.8 0-1.3.4-1.5 1.2-2.1 1.2-3.9 2.6-5.2 4.3h.3c1.2-1.3 2-1.9 2.4-1.9l5.5-4 .6.3c-.2.4-.3.7-.3.9-2.2.9-3.3 1.8-3.3 2.5-.2 0-.3-.1-.3-.3-.7 0-1.2.7-1.5 2.1h.2c2.5-1.8 4.7-3 6.7-3.6 0-.2-.1-.3-.2-.3l.2-.6 1.6.6V8.6c1.8-.6 3.3-1.4 4.5-2.4h1.6V5.5h.2c.4 0 .6.2.7.7 1-.8 1.8-1.2 2.4-1.2v.6c1-.8 1.6-1.2 1.8-1.2l.7.2c0-.2.1-.2.2-.2.4 0 .7.3.7.9l1.2-.9h1.5L227.5 5c.8 0 1.2.2 1.2.6h.6l1-.6.6.3c0-.6.2-.9.6-.9h.7L231.4 5.3zM186.4 41.2c-.8.5-1.2 1.1-1.2 1.8h-.2c0-.2-.1-.5-.3-.9.5-.8.9-1.2 1.2-1.2h.6V41.2zM185.8 81l-.3.7-.6-.3.2-.6L185.8 81zM187 31.8l-.7.9v.6l.3.6-.9.7.2.6c0 .4-.2.7-.6.7l-.3-2.1c.7-1.4 1.2-2.1 1.6-2.1h.3V31.8zM188.5 36.3l-2.7 2.7h-.3c.5-1.3 1.6-2.4 3.1-3.3V36.3zM186.4 82.9l-.3.6c-.4 0-.6-.2-.6-.6v-.3h.3L186.4 82.9zM186.1 56.1V57h.7v-.3C186.7 56.4 186.5 56.2 186.1 56.1zM187.3 66.2c0 .2-.1.5-.2.9.2 1.8.2 2.8.2 3.1h.3c0-.7.1-1.2.3-1.6h-.3l.3-1.5c-.2-.4-.3-.7-.3-.9H187.3zM188.5 32.9v.3c0 .4-.2.6-.6.6h-.7v-.6l.7-.9C188.3 32.3 188.5 32.5 188.5 32.9zM187.3 46.6v1h.3c0-.7.2-1 .6-1L188 46C187.5 46 187.3 46.2 187.3 46.6zM187.6 59.4v1.2h.3v-1.2H187.6zM188.9 90.8v.2h-.3c-.4 0-.6-.2-.6-.6v-.3h.2C188.6 90.2 188.8 90.4 188.9 90.8zM188.9 71.3c0 .8.1 1.5.2 2.1h.7c-.2-1.4-.3-2.2-.3-2.4L188.9 71.3zM189.4 74.1l.3.6c0 .4-.2.6-.7.6.2 1.1.3 2.1.3 3.1.2 0 .3-.1.3-.2.4 0 .6.3.6.9h.3v-2.1l-.7.2h-.2v-.9c0-.5.2-1.2.6-1.8l-.3-.6L189.4 74.1zM190.3 90.8h-.6c0-.4-.2-.9-.7-1.6 0-.3.2-.5.7-.6L190.3 90.8zM189.8 93.2v.6h-.7v-1.2C189.5 92.7 189.7 92.8 189.8 93.2zM190.7 79.5l-.7-.3c0 .2-.2.3-.6.3v1.2l1.8 4.5c.2 1 .7 2.4 1.6 4h.2v-.3c0-.4-.3-1.2-.9-2.4.2-1.1.3-1.7.3-1.8-.6 0-1-.4-1.2-1.2v-.3h.7v.7h.2v-.3c-.2-.3-.2-.8-.2-1.5-.2 0-.3.1-.3.2-.6-.2-.9-.8-.9-1.8h.6v-1.2L190.7 79.5zM191.3 90.5v.6c-.3 0-.6-.4-.9-1.2v-.2h.7C191 89.8 191.1 90.1 191.3 90.5zM192.2 93.6v.2l-.2.7c-.3 0-.7-.8-1.2-2.5v-.2C190.9 91.7 191.4 92.4 192.2 93.6zM191.9 88.9v.3l1.8 4.5h.2v-.2c0-1.5-.6-3-1.8-4.6H191.9zM192.2 68v1.2h.7V68H192.2zM192.2 71.9c0 .4.2.6.7.6h.2c-.2-.4-.2-.7-.2-.9L192.2 71.9zM193.7 77.4v.9h.2c0-.2.1-.5.3-.9v-.3L193.7 77.4zM198.3 102.1h-.3v.6c.3 0 .9.3 1.9.9C199.1 102.6 198.5 102.1 198.3 102.1zM200.4 69.2v1.5l.3 1.2c-.3.4-.6.6-.9.6v.9l.6-.3.6.3c0-.4-.1-.9-.2-1.2l.2-.6c-.2-.8-.2-1.6-.2-2.4H200.4zM200.1 58.5c0 .4.2.7.7.7v-.9L200.1 58.5zM200.7 74.7v.6l.2 1.8c-.2.4-.2.8-.2 1 .2.4.2.7.2.9h.7v-1.9l.2-.6c-.4 0-.6-.8-.6-2.4C200.9 74.1 200.7 74.3 200.7 74.7zM201.9 80.8c0 .4.2.6.7.6 0 .2-.1.5-.3.9v.3h.3l.6-.3-.6-1.8L201.9 80.8zM202.2 79v1.2h.3V79H202.2zM203.5 108.2l-.3.6c-.6-.3-.9-.6-.9-.9v-.3h.3L203.5 108.2zM202.6 61v.3h.2c0-.3.2-.7.7-1.2v-.7C203.1 59.4 202.8 59.9 202.6 61zM202.6 73.4c0 .1.1.5.2 1.2h.3v-1.2H202.6zM202.8 57.3v1.5h.7l-.3-1.5H202.8zM202.8 70.1v1.5h.3v-1.5H202.8zM202.8 78.6V79c0 .4.2.6.7.6v-.3C203.5 78.9 203.2 78.7 202.8 78.6zM203.1 80.8c.2.4.3.7.3.9h.3v-1.2L203.1 80.8zM233.9 21.4c0 .1.2.9.6 2.5-.8-.7-1.2-1.4-1.2-2.1H233c-.5.4-1 .6-1.6.6v.3l1.8.3v.9c-.2 0-.5-.1-.9-.3h-.6c.2.4.3.7.3.9h.6l.9-.6c0 .2-.1.5-.3.9l.3.6v.3H233V25h-.3v.7h-.6c0-.6-.4-1.1-1.2-1.6 0-.2.1-.2.3-.2 0-.2-.1-.3-.3-.3 0-.2.1-.5.3-.9v-.3l-.7.3h-.2l-1-.6-.2 1.8h-.7v-.7h-.6v.7c.4 0 .6.4.6 1.2h.7l-.3-.6c0-.3.2-.5.6-.6v.9c.4 0 .7-.3.7-.9.4.2.7.2.9.2l-.3.7.7.9h-.3l-.6-.3c0 .2-.3.4-1 .7l-1.5-.7c0 .2-.1.3-.3.3V25h-.6v1h-.3c-.8-.5-1.2-.9-1.2-1.2v-.7h.2l.9.7c0-.8.2-1.2.7-1.2v-.6c0-.4-.2-.6-.7-.7v.9h-.9l-.6-.2-.3.6c-.2 0-.3-.1-.3-.3l-1.8 1.6.3.6c0 .4-.2.7-.6.7l-.7-.3-1.5 3.1c.2 0 .2.1.2.2v1c0 .4-.6.7-1.8.9-.4 0-.6-.2-.6-.7v-.6l1.5-1.2v-.6l-1.5.6c-.5 1.2-.9 1.8-1.2 1.8v.7c.2 0 .3-.1.3-.3 1.2.4 1.8.8 1.8 1.2.3 0 .5-.2.6-.7l.7.3c.3 0 .5-.2.6-.6 1.4.2 2.1.5 2.1.9 0 .4-.3.6-.9.6v.3l.3.6.6-.3h.3v.3c-1.7 1.1-2.5 1.8-2.5 2.1h-.6c0-.2-.1-.5-.3-.9h.3c0-1-.3-1.7-.9-1.8-1.4.8-2.3 1.7-2.8 2.7V36l1.2-.6-.2-.6v-.7h.6v.7c.2 0 .3-.1.3-.3.2 0 .6.8 1.2 2.4v.3c-.5 0-1.2.3-2.1.9-.7-.7-1-1.3-1-1.8h-.2v2.1l.2.6 1-.6v.3l-.7.9-1.5-1.2H215c0 .2-.1.5-.3.9h.3l-.3 1.5.3 1.2c-.4 0-.6.2-.6.6l-1.2-.6-.6.3c0 .2.1.2.2.2l-.2 1.6v.6h.6v.7c-.2 0-.5-.1-.9-.3-.4 0-.7.2-.7.6v.9h.3V46h.7v.6l-.7 1 .3.6c-.2 0-.3.1-.3.3-.4 0-.6-.2-.6-.7v-.2l.2-.7h-.9c0 .8-.2 1.2-.6 1.2l1.2 1.5c-1 0-1.6.2-1.6.7h-.6v-.7h-.3V50c.4.7.7 1.2.7 1.6.8-.5 1.2-.9 1.2-1.2.4 0 .6.2.7.6 0 .4-.2.7-.7.7l-1.5 1.2v.3c0 .4.2.6.6.6-.4.5-.6.9-.6 1.2h-.6c0-.5-.7-1-2.1-1.5v.2l.9 1.2c.2 0 .2-.1.2-.3.3 0 .8.6 1.6 1.9l-.6.9.6.9v.2h-.6l-1.9-.9c0 .4-.2.7-.6.7l.3 2.1V61h-.3l-.6-.3c0 .2-.1.5-.3.9.3 0 .5.2.6.7.8 0 1.2-.5 1.2-1.6l.9.7h.3v-1.2c-.6 0-.9-.2-.9-.7l.2-.6c.8 0 1.7.7 2.5 2.1v.6h-.3l-.6-.2c0 .4-.3.6-.9.6v.3h.6v.9c0 .1.2.9.7 2.4 0 .2-.1.5-.3.9l.3.7c-.2.3-.3.7-.3 1.2h-.6l-.3-1.5-.7.3h-.6v-.7c.8 0 1.2-.2 1.2-.6v-.3c-.7 0-1.2-.1-1.6-.2-.3.2-.8.2-1.5.2v.7l.6.9V68h-.6v.6c.2 0 .5.1.9.3v-.7h.3l.6.3c0-.3.2-.5.6-.6v1.8l.7-.3h.3c0 .4.3.9.9 1.6-.5 0-1.2-.2-1.9-.7v.3l-.6-.3c0-.2.1-.2.3-.2 0-.4-.2-.6-.7-.7 0 .5-.1.9-.2 1.2.4.5.6.9.6 1.2h.6v-.7h.3c1 .6 1.5 1 1.6 1.2v.3h-.7c-.4 0-.6-.2-.6-.7l-.9.7c-.3 0-.8-.6-1.6-1.8v-.7l.7-.9v-.2l-.7.2-.6-.2v1.2l.3.7c-.2 0-.3.1-.3.2l-.6-.2v1.2c.6 0 .9.1.9.3 0 .3.5.7 1.5 1.2v.6c-.6-.3-.9-.6-.9-.9-.2 0-.3.1-.3.3-.4 0-1-.2-1.8-.7 0 1.4-.1 2.3-.2 2.5h.6c0-.7.1-1.2.3-1.5 1 .4 1.7.9 1.8 1.5v.3c-1.4 0-2.1.7-2.1 2.1l1.2.9v-1.2l-.3-.7.6-.2c1.9.8 2.8 2.1 2.8 4H208c-.1-1.7-.5-2.6-1.2-2.7l-.6.2.3.7v.2l-1.6.3v.9c.3 0 .7.2 1.2.6v-1.5h.6c0 .6.3.9.9.9v.9c-.8.6-1.4.9-1.8.9v.3h1.2c.1 0 .6-.5 1.6-1.6h.9c.3 0 .5.2.6.7h-.9v.9l.9 1.2v.2l-.6.9h.9c.4 0 .6-.5.6-1.5h.3c.8.4 1.2 1.1 1.2 2.1h.2c0-.6.5-.9 1.6-.9 0 .8 1.6 1.6 4.9 2.4l-.3.7c.5.8 1 1.8 1.2 3.1l-.9.6c0-.2-.1-.5-.3-.9.2 0 .3-.1.3-.3 0-1.5-1.5-2.9-4.6-4v.3l-2.1-.7v1.6l.9-.6v.9h.6c.3 0 .5-.2.6-.7.4 0 .7.3.7.9h.2l.7-.2v.6l-.3.6-1.5-.6v.3l-1.8-.9c-.4.2-.8.2-1 .2v.3h1.2v.6h-.6v.3h.3c.3-.2.7-.3 1.2-.3v.3l-.2.6h.2l-.2.7-.9-.7c-.7.3-1 .7-1 1 1.9.3 2.8.7 2.8 1.2.2 0 .5-.1.9-.2.2 0 .5.1.9.2l-.3.7h1.6c.3 0 .5-.2.6-.7.2 0 .3.1.3.3l.9-.6V92c0 .4-.2.7-.7.7v.2c1.1.4 2.2 1.3 3.4 2.5 0 .2-.1.3-.3.3l.3.6v.3l-.6-.3h-.3l.3.6h-.3l-1.6-.2v1.2h.3l1.8-.9v.3l.7-.3h.2l.9.7.3-1.8h.6v.6h.7v-.6c-.4 0-.7-.4-.7-1.2h-.6V95c-.2 0-.3-.1-.3-.3-.4 0-.6.3-.6 1-.4-.2-.7-.3-.9-.3l.3-.7-.7-.9h.3l.6.3c0-.2.3-.4.9-.6l1.6.6.9-.9c1 .5 1.5 1.3 1.5 2.1h.7l-.3-.7v-.6h.3c1.2-2 1.9-3.1 2.1-3.1 0-.2-.1-.5-.3-.9 1.1-1 1.7-1.8 1.8-2.4.6.3.9.6.9.9v.2h-.6v.7c.7-.6 1.3-.9 1.8-.9l-.3-1.6-.9.7c-.4 0-.6-.4-.6-1.2-.6.3-.9.6-.9.9l-.7-.3c-.4 0-.6.2-.6.7-1.4-.2-2.1-.5-2.1-.9 0-.4.3-.7.9-.7v-.3l-.3-.6-.6.3h-.3v-.3c1.7-1.1 2.5-1.8 2.5-2.1h.6c0 .2.1.5.3.9h-.3c0 1 .3 1.7.9 1.8 1.4-.8 2.3-1.7 2.8-2.7v-.6l-1.2.6.2.7v.6h-.6v-.6c-.2 0-.3.1-.3.2-.2 0-.6-.8-1.2-2.4v-.3c.5 0 1.2-.3 2.1-.9.7.7 1 1.3 1 1.8h.2v-2.1l-.2-.6-1 .6v-.2l.7-.9 1.5 1.2h.3c0-.2.1-.5.3-.9h-.3l.3-1.5-.3-1.2c.3 0 .5-.2.6-.6l1.2.6.6-.3c0-.2-.1-.2-.2-.2l.2-1.6v-.6h-.6v-.7c.2 0 .5.1.9.3.3 0 .5-.2.7-.6v-.9h-.3v.6h-.7v-.6l.7-.9-.3-.7c.2 0 .3-.1.3-.2.3 0 .5.2.6.6V71l-.2.6h.9c0-.8.2-1.2.6-1.2l-1.2-1.5c1 0 1.6-.2 1.6-.7h.6v.7h.3v-.3c-.4-.7-.7-1.2-.7-1.5-.8.5-1.2.9-1.2 1.2-.4 0-.7-.2-.7-.6 0-.4.3-.6.9-.6.3-.8.7-1.2 1.2-1.2v-.3c0-.3-.2-.5-.6-.6.4-.5.6-.9.6-1.2h.6c0 .5.7 1 2.1 1.6v-.3l-.9-1.2c-.2 0-.2.1-.2.3-.3 0-.8-.6-1.6-1.8l.6-.9-.6-.9v-.3h.6L244 61c0-.4.2-.6.6-.6l-.3-2.1v-.7h.3l.6.3c0-.2.1-.5.3-.9-.4 0-.6-.2-.6-.6-.8 0-1.2.5-1.2 1.5l-.9-.6h-.3v1.2c.6 0 .9.2.9.7l-.2.6c-.8 0-1.7-.7-2.5-2.1V57h.3l.6.3c0-.4.3-.7.9-.7v-.2h-.6v-1l-.7-2.4c0-.2.1-.5.3-.9l-.3-.6c.2-.4.3-.8.3-1.2h.6l.3 1.5.7-.2h.6v.6c-.8 0-1.2.2-1.2.6v.3c.7 0 1.2.1 1.6.3.3-.2.8-.3 1.5-.3v-.6l-.6-.9v-1h.6V50c-.2 0-.5-.1-.9-.3v.7h-.3l-.6-.3c0 .4-.2.6-.6.6v-1.8l-.7.3h-.3c0-.3-.3-.8-.9-1.5.5 0 1.2.2 1.9.6v-.3l.6.3c0 .2-.1.3-.3.3 0 .4.2.6.7.6 0-.4.1-.9.2-1.2-.4-.5-.6-.9-.6-1.2h-.6v.7h-.3c-1-.5-1.5-1-1.6-1.2v-.3h.7c.3 0 .5.2.6.7l.9-.7c.3 0 .8.6 1.6 1.9v.6l-.7.9v.3l.7-.3.6.3v-1.2l-.3-.6c.2 0 .3-.1.3-.3l.6.3v-1.2c-.6 0-.9-.1-.9-.3 0-.3-.5-.7-1.5-1.2v-.6c.6.3.9.6.9.9.2 0 .3-.1.3-.3.4 0 1 .2 1.8.7 0-1.4.1-2.3.2-2.5h-.6c0 .7-.1 1.2-.3 1.6-1-.4-1.7-1-1.8-1.6v-.3c1.4 0 2.1-.7 2.1-2.1l-1.2-.9v1.2l.3.7-.6.2c-1.9-.8-2.8-2.1-2.8-4h.7c0 1.4.4 2.4 1.2 2.8l.6-.3-.3-.6v-.3l1.6-.3c0-.1-.2-1.2-.7-3.3 0-.4.2-.6.7-.7.5 0 .9 1 1.2 3.1l.7-.3-.3-.6v-.6h.7c0 .7.1 1.2.2 1.5l.7-.3c0-.3-.2-.5-.7-.6 0-.2.1-.5.3-.9-.3-.6-.6-.9-.9-.9l-.7.3c0-1.1-.1-2-.2-2.8.2 0 .2-.1.2-.2-.6-.3-.9-.6-.9-.9-.3 0-.6.4-.9 1.2.2 0 .4.3.7.9-.4.6-.7 1.1-.7 1.6l-1.2-.9c0 .2.1.5.2.9v.3c-.4 0-1.2.6-2.1 1.8h-.9c-.4 0-.6-.2-.6-.7h.9V36l-.9-1.5.3-.7c.4 0 .7.7.9 2.1h.2c0-.3.4-.7 1.2-1.2v-.3h-1.2c-.6-1.2-1.1-1.8-1.5-1.8v.2c-.8-.5-1.2-.9-1.2-1.2v-.7c.3 0 .5.2.7.7 2.2.8 3.3 1.6 3.3 2.4.4-.2.7-.3.9-.3l-.9-2.1c.3 0 .5-.2.7-.7l.9.7-.3-1.2c-.2 0-.3.1-.3.3-.4 0-.6-.3-.6-.9h-.9v.6h.6v.6h-.6c-.4 0-.7-.2-.7-.6v-.3l.3-.6c-.2 0-.3-.1-.3-.3.4-.8.8-1.2 1.2-1.2 0-.3-.2-.5-.6-.6v.6c-.5 0-1.6-.8-3.4-2.4h-.6c0 .2.4 1.1 1.2 2.7l-.3.6c.3.7.6 1 .9 1 0-.7.2-1 .6-1h.3v1h-.6l.6.9c0 .4-.2.6-.6.6H240c0-.2.1-.5.2-.9-.9-.5-1.4-1-1.5-1.6l-.7.3c-.4 0-.6-.2-.6-.6v-.3l.6.3c.4 0 .6-.2.7-.7 0-.3-.2-.5-.7-.6h-.2l-.7.3-.9-1.6h.3l.6.3c-.4-1.3-.6-2.1-.6-2.5h-.3c0 .5-.1.9-.2 1.2l-.7-.3c0 .7-.2 1-.6 1h-.3c0-.8-.2-1.2-.6-1.2v-.7c.6 0 .9-.2.9-.6l.6.3v-.3c-.6-.6-.9-1.3-.9-2.1H233.9zM203.8 78.3v.3c.2.3.2.7.2 1.2h.3v-.7c-.2-.4-.3-.7-.3-.9H203.8zM204.9 42.4c0 .2-.1.5-.2.9v.3h.2c0-.2.1-.5.3-1v-.2H204.9zM205.6 62.8v2.1h.2v-1.2h.3l.6.3c0 .4.7.9 2.1 1.5l-.2-1.2c-1-.4-1.6-.9-1.6-1.5H205.6zM206.2 40.8v.3h.6v-.9C206.4 40.3 206.2 40.5 206.2 40.8zM209.8 74.7c0 .4-.2.6-.6.6h-.6v-.6H208c0 .4-.2 1-.6 1.8-.4 0-.7-.2-.7-.6l.3-.7c-.2 0-.3-.1-.3-.2v-.3c.6 0 .9-.4.9-1.2h.3C208 74.1 208.6 74.6 209.8 74.7zM207.7 55.4h-.2c0 .2-.1.6-.3 1V57c.5-.4 1-.6 1.6-.6C208.3 55.8 208 55.4 207.7 55.4zM207.4 108.2h-.3v.6h.9C208 108.4 207.8 108.2 207.4 108.2zM207.7 7.1h-.2V6.8c0-.3.2-.5.6-.6h.7C208.3 6.8 208 7.1 207.7 7.1zM207.4 83.5v.3h1.2v-.3H207.4zM207.7 52.1v.3c0 .4.2.6.7.6h.6v-.9H207.7zM208.9 77.1h-1.2l.3-1.8C208.5 75.2 208.8 75.9 208.9 77.1zM211.6 5v.6c-.3 0-1.2.2-2.7.7 0-.1.5-.6 1.6-1.6C211.2 4.8 211.6 5 211.6 5zM210.5 7.7h-.3l-.6-.3c0-.3.2-.5.6-.6h.3V7.7zM209.8 107.8h-.2c0 .4 1.7 1.5 5.1 3.4.4 0 .6-.2.7-.7v-.9c-.2 0-.5.1-.9.3-1.4-.5-2.1-.9-2.1-1.2h-.9L209.8 107.8zM212 79l-.3.6c-1.2 0-1.8-.7-1.8-2.1v-.3C210.6 78.2 211.3 78.9 212 79zM210.1 44.2v1.2l.6-.3v-1.2L210.1 44.2zM211.4 85.6h-.9v.2c.7 0 1.2.1 1.5.3h.3v-.3C212.1 85.9 211.8 85.8 211.4 85.6zM211.6 82h-.9v-1.6h.7L211.6 82zM211.1 43v.3c.5-.8 1-1.2 1.2-1.2v-1.2C212 40.8 211.6 41.6 211.1 43zM212.9 4.4c0 .4-.2.6-.6.6H212V4.6c0-.3.2-.5.7-.6h.2V4.4zM212.6 39.4l-.7.3c.3.8.6 1.2.9 1.2h.3l-.3-1.5H212.6zM213.2 56.7V57c-.2 0-.5.1-.9.3 0-.2-.1-.3-.3-.3l.7-.9C213 56.1 213.1 56.3 213.2 56.7zM212.9 60.1h-.2c-.4 0-.7-.2-.7-.7v-.6h.7C212.6 59.3 212.7 59.7 212.9 60.1zM213.5 5.5c-.3.6-.6.9-.9.9h-.3c.5-.8.9-1.2 1.2-1.2V5.5zM212.9 36v.9h.3c.3 0 .5-.2.6-.6V36H212.9zM214.1 43.3c0 .4-.2.6-.6.6-.4 0-.7-.2-.7-.6.2 0 .5-.1.9-.3C213.8 43.2 213.9 43.3 214.1 43.3zM213.8 54.9h-.6v-.3c0-.3.2-.5.6-.6V54.9zM214.1 82.6l-.3.6-.6-.2.3-.7L214.1 82.6zM213.5 37.8v1.6h.2c0-.2.1-.5.3-.9-.2 0-.3-.2-.3-.7H213.5zM214.7 49.1l.3.6c-.4.5-.6.9-.6 1.2h-.9v-.3c0-.3.2-.5.6-.6l-.3-1.5v-.3h1.2C215 48.4 214.9 48.7 214.7 49.1zM215.3 5.3c0 .4-.2.6-.7.6V4.6h.7V5.3zM216.5 32.7c0 .6-.6 1.2-1.8 1.8v1.2h.3c0-.7.6-1.4 1.8-2.1v-.9H216.5zM215.9 45.7h-.3l-.6-.2c.2-.4.3-.7.3-.9h.6V45.7zM216.3 94.5h-.9v.2c.2 0 .5.1.9.3h.6C216.8 94.7 216.6 94.5 216.3 94.5zM217.7 2.5l-1.5 1.2c-.4 0-.7-.2-.7-.6.3 0 .9-.3 1.9-.9C217.5 2.4 217.6 2.5 217.7 2.5zM215.6 110l.7 1.2c.5 0 1.3-.1 2.4-.3l1.6.9v-.3c0-.2-.6-.6-1.8-1.2l-.9.6h-.7V110H215.6zM217.5 41.7c-.8-.3-1.2-.6-1.2-.9h1.2V41.7zM217.5 47.3v.3l-.7.9-.6-.3c0-.4.2-.9.6-1.6C217.2 46.6 217.4 46.8 217.5 47.3zM217.7 4h-.6c0-.3.2-.5.6-.7h.7C218.4 3.8 218.2 4 217.7 4zM217.2 100.8v.7h1.2v-.7H217.2zM217.7 35.7l-.2 1.5h.2l.7-.3c-.2-.7-.3-1.1-.3-1.2H217.7zM218.4 97.2c0 .6-.3.9-.9.9v.3h1.8C219 97.6 218.7 97.2 218.4 97.2zM218.6 95.4c-.3 0-.6.4-.9 1.2.2 0 .5.1.9.2 0-.2-.1-.5-.2-.9 0-.2.2-.2.6-.2v-.3H218.6zM219.3 1.9L219 2.5l-.6-.2.2-.7L219.3 1.9zM218.4 27.1v.3h1.2v-.6L218.4 27.1zM220.2 35.7c0 .4-.2.6-.7.6h-.2V36c0-.3.2-.5.6-.6h.3V35.7zM222.4 1.3H222c-1 1.4-1.8 2.1-2.1 2.1h-.3l.3-.6c.4 0 1-.7 1.8-2.1h.7V1.3zM220.2 32.3l.2 1.5h.3v-.2l-.3-.7.3-.6V32L220.2 32.3zM220.2 95V96h.9c-.2-.4-.3-.7-.3-.9H220.2zM221.7 40.3c0 .4-.2.6-.6.6h-.3v-.2l.3-.7L221.7 40.3zM222 112.7l-.6-.2-.3.6h2.1l-.3-.6C222.7 112.5 222.4 112.5 222 112.7zM222.9 29v.7c-.2 0-.5.1-.9.3h-.3v-.7l.3-.6C222.4 28.9 222.7 29 222.9 29zM223.5 27.8h-.6v-.7c.3-.6.6-.9.9-.9h.3C223.7 26.9 223.5 27.4 223.5 27.8zM225.1 25.3h-.3l-.6-.3c0 .2-.1.3-.3.3h-.3c.4-.7.7-1.2.7-1.5h.6L225.1 25.3zM224.4 20.1v.3c.2 0 .5.1 1 .3v-.7H224.4zM226.6 19.9c-.6 0-.9.2-.9.6l1.2-.3v-.2H226.6zM226.3 94.7c0 .8-.2 1.2-.7 1.2v.7c0 .4.2.6.7.6 0-.8.4-1.2 1.2-1.2C227 95.1 226.6 94.7 226.3 94.7zM226.9 99c-.4.2-.7.3-.9.3v.3h.3c.4-.2.7-.3.9-.3V99H226.9zM226.9 92.3h-.3l.3-.6-.3-.7.7-.2h.6C227.6 91.8 227.3 92.3 226.9 92.3zM227.5 98.7v.7h.9V99C228.2 99 227.9 98.9 227.5 98.7zM229.3 93.8c0 .6-.2 1.1-.6 1.6V96c.6-.3.9-.6.9-.9.4 0 .7.3.7.9h.2V95h-.6c0-.2.1-.3.3-.3C229.9 94.1 229.6 93.8 229.3 93.8zM229.9 78.1l-.3.6-.6-.3c0-.3.2-.5.6-.6h.3V78.1zM230.9 6.2c0 .2-.4.2-1.2.2l.3.7c.2 0 .5-.1.9-.3l.6.3.3-.7C231.5 6.4 231.2 6.4 230.9 6.2zM229.9 84.7V85l.3.7-.3.6v.3l.6-.3-.2-1.5H229.9zM231.2 90.2v1.6c-.8.9-1.2 1.5-1.2 1.8v.2l.6-.2.7.2c.2-.7.5-1.6 1.2-2.7v-1.2L231.2 90.2zM231.4 82.6c0 .4-.2.6-.6.6h-.3v-.2c0-.4.2-.6.7-.7h.2V82.6zM231.2 118.8h-.7v-.6h.3c1-1.4 1.8-2.1 2.1-2.1h.2C232.6 116.7 231.9 117.7 231.2 118.8zM233 81.4l-.7.3.3 1.2h.3l.2-1.6H233zM232.7 7.7V8c0 .3.6.7 1.8 1.2l.9-.7h.7v.9h.6c0-.2.1-.5.3-.9-.2 0-.3-.1-.3-.2-.5 0-1.3.1-2.4.2L232.7 7.7zM234.5 70.4c0 .4-.2.9-.6 1.6-.4 0-.7-.2-.7-.7V71l.7-.9L234.5 70.4zM234.5 77.7h-1.2v-.9C234.1 77.1 234.5 77.4 234.5 77.7zM234.5 117.3l-.2.6-.7-.3.3-.6L234.5 117.3zM236.1 82.3c0 .8-.7 1.7-2.1 2.7v.9h.3c0-.5.6-1.2 1.8-1.8v-.9l.2-.6v-.3H236.1zM235.1 116.1h-.7c0-.3.2-.5.7-.7h.6C235.7 115.9 235.5 116.1 235.1 116.1zM235.7 73.1c-.2.4-.3.8-.3 1h-.6v-1.2h.3L235.7 73.1zM237.2 116.3c-.3 0-.9.3-1.8 1 0-.2-.1-.3-.2-.3l1.5-1.2C237 115.8 237.2 116 237.2 116.3zM235.7 31.1h-.3v-.6c.2 0 .5-.1.9-.3h.3C236.3 30.8 236 31.1 235.7 31.1zM236.6 18.3h-.9v.9c.3-.2.8-.2 1.5-.2C237.2 18.6 237 18.4 236.6 18.3zM235.7 22.6v.9h.6c-.2-.4-.2-.7-.2-.9H235.7zM237.2 68c0 .4-.2.6-.6.6l.3 1.6v.2h-1.2c0-.2.1-.5.3-.9l-.3-.6c.4-.5.6-.9.6-1.2h.9V68zM236.3 21.7v.6l2.1.7c.3 0 .5-.2.7-.7-.2 0-.6-.1-1-.2l-1.2.2v-.6H236.3zM238.1 24.1c0-.6-.5-.9-1.5-.9v.3c0 .4.8.9 2.5 1.2 0-.2.1-.5.2-.9v-.7L238.1 24.1zM237.5 32.9c-.4-.2-.7-.2-.9-.2v-.3h.9V32.9zM237.5 35.7l-.3.6-.6-.3.3-.6L237.5 35.7zM237.9 75.2c-.2 0-.5.1-.9.3 0-.2-.1-.3-.3-.3 0-.3.2-.5.6-.6C237.6 74.7 237.8 74.9 237.9 75.2zM237 79.2c0 .2-.1.5-.3.9.2 0 .3.2.3.7h.2v-1.6H237zM237.5 64c0 .4-.2.6-.6.6v-.9h.6V64zM237.5 81.7c-.4 0-.6.2-.6.6v.3h.9v-.9H237.5zM237.2 8.6c.2.4.3.7.3.9h.9c.7.6 1.4 1 2.1 1.2h.9l.6.3c0-.2-.3-.5-.9-.9-1.8-1-2.7-1.6-2.7-1.8L237.2 8.6zM238.8 61.6l-.7.9c-.4 0-.6-.2-.6-.6v-.3c.2 0 .5-.1.9-.2C238.4 61.5 238.6 61.6 238.8 61.6zM237.9 77.7h-.3l.3 1.5h.2l.7-.2C238.4 78.1 238.1 77.7 237.9 77.7zM238.1 114.9h-.6v-.6c0-.4.2-.6.6-.7V114.9zM237.9 25v.3c0 .4.2.7.6.7v-1H237.9zM238.8 59.2v.6h-.7c0-.4-.1-.9-.2-1.2h.2C238.5 58.5 238.7 58.7 238.8 59.2zM239.4 33.8v.7h-.2c-.4 0-.7-.2-.7-.7v-.2C238.8 33.7 239.1 33.8 239.4 33.8zM238.4 76.5v1.2c.3 0 .7-.7 1.2-2.1v-.3C239.1 76.1 238.7 76.5 238.4 76.5zM240.9 41.2v.3c-.8-1.2-1.5-1.8-2.1-1.8l.3-.7C240.3 39 240.9 39.7 240.9 41.2zM240 38.1h-.7l-.2-1.5h.9V38.1zM239.4 114.3v-.3c.3-.6.6-.9.9-.9h.3C240.1 113.9 239.7 114.3 239.4 114.3zM240 20.8v1.5l.6-.2-.3-1.2H240zM240 24.8v.9h.6c-.2-.4-.3-.7-.3-.9H240zM240 73.4v1.2l.6-.3v-1.2L240 73.4zM240.9 114.9c0 .4-.2.6-.7.6H240v-.2c0-.4.2-.6.6-.7h.3V114.9zM244 42.7l-.3.7c.2 0 .3.1.3.3v.2c-.6 0-.9.4-.9 1.2h-.3c0-.7-.6-1.1-1.8-1.2 0-.3.2-.5.6-.6h.6v.6h.7c0-.4.2-1 .6-1.8C243.6 42.1 243.9 42.3 244 42.7zM245.5 112.7c-2 1.2-3.1 1.9-3.1 2.1l-1.2-.3v-.6c1.1 0 2.4-.5 4-1.5h.3V112.7zM241.5 24.8V26h.6c-.2-.4-.2-.8-.2-1.2H241.5zM242.7 43.3c-.6-.2-.9-.8-.9-1.8h1.2L242.7 43.3zM244 54.5c0-.4-.7-.9-2.1-1.5 0 .2.1.5.2.9l1.6 1.8h1.5v-2.1h-.2v1.2h-.3L244 54.5zM242.4 65.5h-.6v.9h1.2v-.2C243.1 65.8 242.8 65.6 242.4 65.5zM242.1 62.2c.3.6.7.9 1 .9h.2c0-.2.1-.5.3-.9v-.7C243.2 62 242.6 62.2 242.1 62.2zM243.3 112.1c0 .4-.2.6-.6.6h-.3v-.9h.3L243.3 112.1zM244.6 37.5V39H244c0-.6-.3-.9-.9-.9v-.9c.2 0 .5-.1.9-.3C244.3 36.9 244.5 37.1 244.6 37.5zM244 11.1c.4.5.6.9.6 1.2h.3V12c-.2-.4-.3-.7-.3-.9H244zM244 77.4v.9c.3 0 .5-.2.6-.6v-.3H244zM245.1 29.6c0 .2.1.3.3.3 0 .2-.1.5-.3.9v.2h.3v-.2h1.2C246.6 30.4 246.1 30 245.1 29.6zM245.5 12v.6c.2 0 .5.1.9.3C246 12.3 245.7 12 245.5 12zM245.8 75c0 .2-.1.5-.3.9v.2h.3c0-.2.1-.5.2-.9V75H245.8zM246.4 38.8v.6c.2.4.3.7.3.9h.2v-.3c-.2-.3-.2-.7-.2-1.2H246.4zM248.5 10.7v.3h-.3l-.9-.7.3-.6C248.2 10.1 248.5 10.5 248.5 10.7zM247.3 39v.3c0 .4.2.6.7.6v-.2C247.9 39.3 247.7 39.1 247.3 39zM247.9 57.3c0 .3-.2.7-.7 1.2v.7c.4 0 .7-.5.9-1.6v-.2H247.9zM247.3 59.7l.3 1.6h.3v-1.6H247.3zM247.6 32.3v.3c0 .6.2.9.6.9l-.2-1.2H247.6zM247.6 43.9v1.2h.6l-.2-1.2H247.6zM247.6 46.9v1.6h.3v-1.6H247.6zM247.9 13.2v.2c.3 0 .7.2 1.2.7l-.2-1.2C248.4 13.1 248.1 13.2 247.9 13.2zM248.2 38.4v1.2h.3v-1.2H248.2zM249.1 39.7v1.8l-.2.6c.4 0 .6.8.6 2.5.3 0 .5-.2.6-.7v-.6l-.2-1.8c.2-.4.2-.7.2-.9-.2-.4-.2-.7-.2-.9H249.1zM250.3 45.5l-.6-.3c0 .4.1.9.2 1.2l-.2.6c.2.8.2 1.6.2 2.5h.3v-1.6l-.3-1.2c.3-.4.6-.6.9-.6v-.9L250.3 45.5zM250 59.4v1l.7-.3C250.7 59.7 250.4 59.5 250 59.4zM250.9 95.4c-.4 0-.6.2-.6.6v.3c.6-.3.9-.6.9-.9H250.9zM253.1 24.1h-.2l.6 1.2L254 25C253.7 24.4 253.4 24.1 253.1 24.1zM253.1 20.8v.3c.3.6.6.9.9.9v-.3C253.7 21.1 253.4 20.8 253.1 20.8zM253.7 33.6v.2h.9v-.2l-.3-.7C253.9 32.9 253.7 33.1 253.7 33.6zM255.9 23.2v.3c0 .6.2.9.6.9l-.3-1.2H255.9zM256.4 24.8v.6c.7 2 1.4 3.5 2.1 4.3h.2v-.3l-1.8-4.5H256.4zM256.8 40.3c0 .2-.1.5-.3.9v.3l.6-.3v-.9H256.8zM257.7 29.3v.3c0 .5.3 1.3.9 2.4-.2 1.1-.3 1.7-.3 1.8.6 0 1 .4 1.2 1.2v.3h-.7v-.6h-.2v.2c.2.3.2.9.2 1.6.2 0 .3-.1.3-.3.5 0 .8.6.9 1.8h-.6v1.2l.6-.3.7.3c0-.2.2-.3.6-.3v-1.2l-1.8-4.5c-.2-1-.7-2.4-1.6-4H257.7zM257.9 46h-.2c.2.4.2.7.2.9l.7-.3C258.6 46.3 258.4 46.1 257.9 46zM257.9 49.4v1.2h.7v-1.2H257.9zM260.1 26.6v.3c-.2 0-.7-.6-1.5-1.9v-.2l.2-.7C259.2 24.1 259.6 24.9 260.1 26.6zM260.4 28.7V29h-.7c0-.2-.1-.5-.2-.9v-.6C259.8 27.5 260.1 27.9 260.4 28.7zM260.1 39.7v2.1l.7-.2h.2v.9c0 .6-.2 1.2-.6 1.8l.3.6.6-.2-.3-.7c0-.3.2-.5.7-.6-.2-1-.3-2.1-.3-3.1-.2 0-.3.1-.3.3-.4 0-.6-.3-.6-.9H260.1zM261.6 29.3c0 .4-.2.7-.7.7 0-.2-.2-.9-.6-2.1h.6C261 28.1 261.2 28.6 261.6 29.3zM261.6 26c-.4 0-.7-.2-.7-.7v-.6h.7V26zM261 45.1c0 .2.1 1 .3 2.5l.6-.3c0-.8-.1-1.5-.2-2.1H261zM262.8 28.1v.3h-.2c-.4 0-.7-.2-.7-.6v-.3h.3C262.5 27.5 262.7 27.7 262.8 28.1zM262.2 82.9v-.7l2.7-2.7h.3C264.7 80.9 263.7 82 262.2 82.9zM263.4 85.3l-.7.9c-.4 0-.6-.2-.6-.6v-.3c0-.3.2-.5.6-.6h.7V85.3zM263.1 71c0 .6-.2.9-.6.9l.2.6c.4 0 .6-.2.7-.6V71H263.1zM263.1 48.5c0 .7-.1 1.2-.3 1.5h.3l-.3 1.6c.2.4.3.7.3.9h.3c0-.2.1-.5.2-.9 0-.3-.1-1.3-.2-3.1H263.1zM262.8 57.9v1.2h.3v-1.2H262.8zM265.6 85c-.7 1.4-1.2 2.1-1.6 2.1h-.3v-.2l.7-1v-.6l-.3-.6.9-.7-.2-.6c0-.3.2-.5.6-.6L265.6 85zM264 61.6v.3c0 .4.2.6.7.6v-.9H264zM265.3 35.7V36h-.3l-.6-.2.3-.7C265 35.1 265.2 35.3 265.3 35.7zM266.2 76.5c-.5.8-.9 1.2-1.2 1.2h-.6v-.3c.8-.4 1.2-1 1.2-1.8h.2C265.8 75.8 265.9 76.1 266.2 76.5zM265.8 37.2l-.2.6-.7-.2.3-.7L265.8 37.2zM265.8 82h-.6v-.3c0-.3.4-.6 1.2-.9h.2C266.5 81.6 266.2 82 265.8 82zM266.5 46.6v1h-.7c0-.2-.1-.5-.2-1v-.2C266 46.5 266.3 46.6 266.5 46.6zM267.4 71.9v.6c0 .4-.2.6-.7.6h-.2v-1.2l.2-.7C267.1 71.3 267.4 71.5 267.4 71.9zM267.1 78.3h-.6l.2-1.2h.7L267.1 78.3zM268.9 67.1c-.9 1.6-1.5 2.4-1.8 2.4h-.3v-.2c.6-.5.9-1.4.9-2.5.8 0 1.6-.6 2.5-1.8h.3C270.5 66.4 269.9 67.1 268.9 67.1zM268.3 73.4c0 1-.3 1.6-.9 1.8h-.3V75c.4-.5.6-1.2.6-2.1h.7V73.4zM269.2 70.4c-.2.4-.3.7-.3.9h-.6v-.6l.2-.6L269.2 70.4zM270.7 63.4h-.6v-1.2h.6V63.4zM271 52.5h-.6v-.9h.6V52.5z" fill="#f33535" class="color000 svgShape"></path></svg></g></svg>